<svg version="1.1" viewBox="0.0 0.0 387.753280839895 163.8057742782152" fill="none" stroke="none" stroke-linecap="square" stroke-miterlimit="10" xmlns:xlink="http://www.w3.org/1999/xlink" xmlns="http://www.w3.org/2000/svg"><clipPath id="p.0"><path d="m0 0l387.7533 0l0 163.80577l-387.7533 0l0 -163.80577z" clip-rule="nonzero"/></clipPath><g clip-path="url(#p.0)"><path fill="#000000" fill-opacity="0.0" d="m0 0l387.7533 0l0 163.80577l-387.7533 0z" fill-rule="evenodd"/><path fill="#420104" fill-opacity="0.88" d="m4.0984254 42.015747l37.82677 0l0 37.826775l-37.82677 0z" fill-rule="evenodd"/><path stroke="#000000" stroke-width="1.0" stroke-linejoin="round" stroke-linecap="butt" d="m4.0984254 42.015747l37.82677 0l0 37.826775l-37.82677 0z" fill-rule="evenodd"/><path fill="#f3f3f3" d="m22.372108 64.334755l-4.90625 0l-1.5 2.734375l-2.609375 0l7.0 -12.406246l2.84375 0l2.015625 12.406246l-2.421875 0l-0.421875 -2.734375zm-0.3125 -2.0781212l-0.71875 -4.984375l-2.984375 4.984375l3.703125 0z" fill-rule="nonzero"/><path fill="#f3f3f3" d="m27.432808 68.81913l0.296875 -1.4375q2.09375 -0.921875 3.234375 -2.125l0.984375 0l-1.734375 8.3125l-1.625 0l1.203125 -5.734375q-0.515625 0.328125 -1.1875 0.609375q-0.65625 0.265625 -1.171875 0.375z" fill-rule="nonzero"/><path fill="#420104" fill-opacity="0.88" d="m41.925198 42.015747l37.82677 0l0 37.826775l-37.82677 0z" fill-rule="evenodd"/><path stroke="#000000" stroke-width="1.0" stroke-linejoin="round" stroke-linecap="butt" d="m41.925198 42.015747l37.82677 0l0 37.826775l-37.82677 0z" fill-rule="evenodd"/><path fill="#f3f3f3" d="m60.19888 64.334755l-4.90625 0l-1.5 2.734375l-2.609375 0l7.0 -12.406246l2.84375 0l2.015625 12.406246l-2.421875 0l-0.421875 -2.734375zm-0.3125 -2.0781212l-0.71875 -4.984375l-2.984375 4.984375l3.703125 0z" fill-rule="nonzero"/><path fill="#f3f3f3" d="m66.93146 67.88163l-1.578125 -0.234375q0.1875 -1.15625 0.890625 -1.765625q0.703125 -0.609375 1.75 -0.609375q1.15625 0 1.8125 0.625q0.671875 0.625 0.671875 1.59375q0 0.484375 -0.203125 0.984375q-0.203125 0.484375 -0.671875 1.03125q-0.328125 0.375 -1.09375 1.078125q-0.75 0.703125 -1.0 0.96875q-0.234375 0.25 -0.46875 0.53125l2.875 0l-0.3125 1.484375l-5.015625 0q0.078125 -0.609375 0.359375 -1.15625q0.28125 -0.546875 0.6875 -1.015625q0.421875 -0.484375 1.53125 -1.53125q0.828125 -0.8125 1.046875 -1.046875q0.40625 -0.4375 0.546875 -0.75q0.15625 -0.328125 0.15625 -0.59375q0 -0.421875 -0.25 -0.671875q-0.25 -0.265625 -0.625 -0.265625q-0.390625 0 -0.671875 0.296875q-0.28125 0.28125 -0.4375 1.046875z" fill-rule="nonzero"/><path fill="#420104" fill-opacity="0.88" d="m79.75197 42.015747l37.826775 0l0 37.826775l-37.826775 0z" fill-rule="evenodd"/><path stroke="#000000" stroke-width="1.0" stroke-linejoin="round" stroke-linecap="butt" d="m79.75197 42.015747l37.826775 0l0 37.826775l-37.826775 0z" fill-rule="evenodd"/><path fill="#420104" fill-opacity="0.88" d="m117.57874 42.015747l37.826775 0l0 37.826775l-37.826775 0z" fill-rule="evenodd"/><path stroke="#000000" stroke-width="1.0" stroke-linejoin="round" stroke-linecap="butt" d="m117.57874 42.015747l37.826775 0l0 37.826775l-37.826775 0z" fill-rule="evenodd"/><path fill="#f3f3f3" d="m135.85242 64.334755l-4.90625 0l-1.5 2.734375l-2.6093674 0l6.9999924 -12.406246l2.84375 0l2.015625 12.406246l-2.421875 0l-0.421875 -2.734375zm-0.3125 -2.0781212l-0.71875 -4.984375l-2.984375 4.984375l3.703125 0z" fill-rule="nonzero"/><path fill="#f3f3f3" d="m139.97562 73.56913l1.734375 -8.265625l1.609375 0l-0.90625 4.296875l2.109375 -2.015625l2.109375 0l-2.40625 2.171875l1.28125 3.8125l-1.625 0l-0.8125 -2.765625l-1.09375 0.96875l-0.390625 1.796875l-1.609375 0z" fill-rule="nonzero"/><path fill="#244a13" fill-opacity="0.88" d="m155.40552 42.015747l37.826767 0l0 37.826775l-37.826767 0z" fill-rule="evenodd"/><path stroke="#000000" stroke-width="1.0" stroke-linejoin="round" stroke-linecap="butt" d="m155.40552 42.015747l37.826767 0l0 37.826775l-37.826767 0z" fill-rule="evenodd"/><path fill="#f3f3f3" d="m165.09302 67.06913l2.609375 -12.406246l4.234375 0q1.375 0 1.921875 0.09375q0.921875 0.125 1.546875 0.5q0.640625 0.375 0.96875 1.015625q0.328125 0.640625 0.328125 1.40625q0 1.03125 -0.578125 1.796875q-0.5625 0.75 -1.765625 1.140625q0.953125 0.265625 1.484375 0.9375q0.546875 0.671875 0.546875 1.515625q0 1.1093712 -0.640625 2.1249962q-0.625 1.0 -1.75 1.4375q-1.109375 0.4375 -3.046875 0.4375l-5.859375 0zm4.09375 -7.390621l1.953125 0q1.3125 0 1.890625 -0.1875q0.578125 -0.1875 0.859375 -0.609375q0.28125 -0.421875 0.28125 -0.90625q0 -0.46875 -0.265625 -0.765625q-0.265625 -0.3125 -0.765625 -0.421875q-0.28125 -0.046875 -1.34375 -0.046875l-1.984375 0l-0.625 2.9375zm-1.125 5.390621l2.46875 0q1.546875 0 2.078125 -0.1875q0.53125 -0.203125 0.84375 -0.65625q0.3125 -0.4687462 0.3125 -0.9687462q0 -0.625 -0.453125 -1.015625q-0.453125 -0.40625 -1.515625 -0.40625l-3.046875 0l-0.6875 3.2343712z" fill-rule="nonzero"/><path fill="#f3f3f3" d="m178.29434 68.81913l0.296875 -1.4375q2.09375 -0.921875 3.234375 -2.125l0.984375 0l-1.734375 8.3125l-1.625 0l1.203125 -5.734375q-0.515625 0.328125 -1.1875 0.609375q-0.65625 0.265625 -1.171875 0.375z" fill-rule="nonzero"/><path fill="#244a13" fill-opacity="0.88" d="m193.23228 42.015747l37.826767 0l0 37.826775l-37.826767 0z" fill-rule="evenodd"/><path stroke="#000000" stroke-width="1.0" stroke-linejoin="round" stroke-linecap="butt" d="m193.23228 42.015747l37.826767 0l0 37.826775l-37.826767 0z" fill-rule="evenodd"/><path fill="#f3f3f3" d="m202.91978 67.06913l2.609375 -12.406246l4.234375 0q1.375 0 1.921875 0.09375q0.921875 0.125 1.546875 0.5q0.640625 0.375 0.96875 1.015625q0.328125 0.640625 0.328125 1.40625q0 1.03125 -0.578125 1.796875q-0.5625 0.75 -1.765625 1.140625q0.953125 0.265625 1.484375 0.9375q0.546875 0.671875 0.546875 1.515625q0 1.1093712 -0.640625 2.1249962q-0.625 1.0 -1.75 1.4375q-1.109375 0.4375 -3.046875 0.4375l-5.859375 0zm4.09375 -7.390621l1.953125 0q1.3125 0 1.890625 -0.1875q0.578125 -0.1875 0.859375 -0.609375q0.28125 -0.421875 0.28125 -0.90625q0 -0.46875 -0.265625 -0.765625q-0.265625 -0.3125 -0.765625 -0.421875q-0.28125 -0.046875 -1.34375 -0.046875l-1.984375 0l-0.625 2.9375zm-1.125 5.390621l2.46875 0q1.546875 0 2.078125 -0.1875q0.53125 -0.203125 0.84375 -0.65625q0.3125 -0.4687462 0.3125 -0.9687462q0 -0.625 -0.453125 -1.015625q-0.453125 -0.40625 -1.515625 -0.40625l-3.046875 0l-0.6875 3.2343712z" fill-rule="nonzero"/><path fill="#f3f3f3" d="m217.79298 67.88163l-1.578125 -0.234375q0.1875 -1.15625 0.890625 -1.765625q0.703125 -0.609375 1.75 -0.609375q1.15625 0 1.8125 0.625q0.671875 0.625 0.671875 1.59375q0 0.484375 -0.203125 0.984375q-0.203125 0.484375 -0.671875 1.03125q-0.328125 0.375 -1.09375 1.078125q-0.75 0.703125 -1.0 0.96875q-0.234375 0.25 -0.46875 0.53125l2.875 0l-0.3125 1.484375l-5.015625 0q0.078125 -0.609375 0.359375 -1.15625q0.28125 -0.546875 0.6875 -1.015625q0.421875 -0.484375 1.53125 -1.53125q0.828125 -0.8125 1.046875 -1.046875q0.40625 -0.4375 0.546875 -0.75q0.15625 -0.328125 0.15625 -0.59375q0 -0.421875 -0.25 -0.671875q-0.25 -0.265625 -0.625 -0.265625q-0.390625 0 -0.671875 0.296875q-0.28125 0.28125 -0.4375 1.046875z" fill-rule="nonzero"/><path fill="#244a13" fill-opacity="0.88" d="m231.05905 42.015747l37.826782 0l0 37.826775l-37.826782 0z" fill-rule="evenodd"/><path stroke="#000000" stroke-width="1.0" stroke-linejoin="round" stroke-linecap="butt" d="m231.05905 42.015747l37.826782 0l0 37.826775l-37.826782 0z" fill-rule="evenodd"/><path fill="#244a13" fill-opacity="0.88" d="m268.88583 42.015747l37.82675 0l0 37.826775l-37.82675 0z" fill-rule="evenodd"/><path stroke="#000000" stroke-width="1.0" stroke-linejoin="round" stroke-linecap="butt" d="m268.88583 42.015747l37.82675 0l0 37.826775l-37.82675 0z" fill-rule="evenodd"/><path fill="#f3f3f3" d="m278.57333 67.06913l2.609375 -12.406246l4.234375 0q1.375 0 1.921875 0.09375q0.921875 0.125 1.546875 0.5q0.640625 0.375 0.96875 1.015625q0.328125 0.640625 0.328125 1.40625q0 1.03125 -0.578125 1.796875q-0.5625 0.75 -1.765625 1.140625q0.953125 0.265625 1.484375 0.9375q0.546875 0.671875 0.546875 1.515625q0 1.1093712 -0.640625 2.1249962q-0.625 1.0 -1.75 1.4375q-1.109375 0.4375 -3.046875 0.4375l-5.859375 0zm4.09375 -7.390621l1.953125 0q1.3125 0 1.890625 -0.1875q0.578125 -0.1875 0.859375 -0.609375q0.28125 -0.421875 0.28125 -0.90625q0 -0.46875 -0.265625 -0.765625q-0.265625 -0.3125 -0.765625 -0.421875q-0.28125 -0.046875 -1.34375 -0.046875l-1.984375 0l-0.625 2.9375zm-1.125 5.390621l2.46875 0q1.546875 0 2.078125 -0.1875q0.53125 -0.203125 0.84375 -0.65625q0.3125 -0.4687462 0.3125 -0.9687462q0 -0.625 -0.453125 -1.015625q-0.453125 -0.40625 -1.515625 -0.40625l-3.046875 0l-0.6875 3.2343712z" fill-rule="nonzero"/><path fill="#f3f3f3" d="m293.85278 73.56913l-1.390625 0l-1.203125 -5.984375l1.59375 0l0.421875 2.609375q0.171875 1.0625 0.203125 1.40625q0.046875 -0.09375 0.390625 -0.71875q0.359375 -0.640625 0.4375 -0.78125l1.484375 -2.515625l1.75 0l-3.6875 5.984375z" fill-rule="nonzero"/><path fill="#000000" fill-opacity="0.0" d="m306.7126 42.015747l37.826782 0l0 37.826775l-37.826782 0z" fill-rule="evenodd"/><path stroke="#000000" stroke-width="1.0" stroke-linejoin="round" stroke-linecap="butt" d="m306.7126 42.015747l37.826782 0l0 37.826775l-37.826782 0z" fill-rule="evenodd"/><path fill="#000000" fill-opacity="0.0" d="m344.53937 42.015747l37.826782 0l0 37.826775l-37.826782 0z" fill-rule="evenodd"/><path stroke="#000000" stroke-width="1.0" stroke-linejoin="round" stroke-linecap="butt" d="m344.53937 42.015747l37.826782 0l0 37.826775l-37.826782 0z" fill-rule="evenodd"/><path fill="#000000" fill-opacity="0.0" d="m4.0984254 0l37.82677 0l0 42.015747l-37.82677 0z" fill-rule="evenodd"/><path fill="#000000" d="m24.236061 24.847874l-1.453125 0l0 -5.515625q-0.796875 0.75 -1.890625 1.109375l0 -1.328125q0.578125 -0.1875 1.234375 -0.703125q0.671875 -0.53125 0.921875 -1.21875l1.1875 0l0 7.65625z" fill-rule="nonzero"/><path fill="#000000" fill-opacity="0.0" d="m41.925198 0l37.82677 0l0 42.015747l-37.82677 0z" fill-rule="evenodd"/><path fill="#000000" d="m63.265957 23.488499l0 1.359375l-5.125 0q0.078125 -0.765625 0.5 -1.453125q0.421875 -0.703125 1.640625 -1.828125q0.984375 -0.921875 1.21875 -1.25q0.296875 -0.453125 0.296875 -0.90625q0 -0.484375 -0.265625 -0.75q-0.265625 -0.265625 -0.71875 -0.265625q-0.453125 0 -0.734375 0.28125q-0.265625 0.28125 -0.3125 0.921875l-1.453125 -0.15625q0.125 -1.203125 0.8125 -1.71875q0.6875 -0.53125 1.71875 -0.53125q1.125 0 1.765625 0.609375q0.65625 0.609375 0.65625 1.515625q0 0.515625 -0.1875 0.984375q-0.1875 0.453125 -0.578125 0.96875q-0.265625 0.34375 -0.96875 0.984375q-0.6875 0.625 -0.875 0.828125q-0.171875 0.203125 -0.296875 0.40625l2.90625 0z" fill-rule="nonzero"/><path fill="#000000" fill-opacity="0.0" d="m79.75197 0l37.826775 0l0 42.015747l-37.826775 0z" fill-rule="evenodd"/><path fill="#000000" d="m101.47785 24.847874l0 -1.46875l1.46875 0l0 1.46875l-1.46875 0zm-3.546875 0l0 -1.46875l1.46875 0l0 1.46875l-1.46875 0zm-3.546875 0l0 -1.46875l1.46875 0l0 1.46875l-1.46875 0z" fill-rule="nonzero"/><path fill="#000000" fill-opacity="0.0" d="m117.57874 0l37.826775 0l0 42.015747l-37.826775 0z" fill-rule="evenodd"/><path fill="#000000" d="m134.24762 24.847874l0 -7.625l1.453125 0l0 4.046875l1.71875 -1.953125l1.796875 0l-1.890625 2.03125l2.03125 3.5l-1.578125 0l-1.390625 -2.484375l-0.6875 0.71875l0 1.765625l-1.453125 0z" fill-rule="nonzero"/><path fill="#000000" fill-opacity="0.0" d="m155.40552 0l37.826767 0l0 42.015747l-37.826767 0z" fill-rule="evenodd"/><path fill="#000000" d="m165.9996 24.847874l0 -7.625l1.453125 0l0 4.046875l1.71875 -1.953125l1.796875 0l-1.890625 2.03125l2.03125 3.5l-1.578125 0l-1.390625 -2.484375l-0.6875 0.71875l0 1.765625l-1.453125 0zm7.6452484 -1.09375l0 -1.984375l-2.0 0l0 -1.375l2.0 0l0 -1.984375l1.328125 0l0 1.984375l2.015625 0l0 1.375l-2.015625 0l0 1.984375l-1.328125 0zm7.9730835 1.09375l-1.453125 0l0 -5.515625q-0.796875 0.75 -1.890625 1.109375l0 -1.328125q0.578125 -0.1875 1.234375 -0.703125q0.671875 -0.53125 0.921875 -1.21875l1.1875 0l0 7.65625z" fill-rule="nonzero"/><path fill="#000000" fill-opacity="0.0" d="m193.23228 0l37.826767 0l0 42.015747l-37.826767 0z" fill-rule="evenodd"/><path fill="#000000" d="m203.82639 24.847874l0 -7.625l1.453125 0l0 4.046875l1.71875 -1.953125l1.796875 0l-1.890625 2.03125l2.03125 3.5l-1.578125 0l-1.390625 -2.484375l-0.6875 0.71875l0 1.765625l-1.453125 0zm7.6452484 -1.09375l0 -1.984375l-2.0 0l0 -1.375l2.0 0l0 -1.984375l1.328125 0l0 1.984375l2.015625 0l0 1.375l-2.015625 0l0 1.984375l-1.328125 0zm9.1762085 -0.265625l0 1.359375l-5.125 0q0.078125 -0.765625 0.5 -1.453125q0.421875 -0.703125 1.640625 -1.828125q0.984375 -0.921875 1.21875 -1.25q0.296875 -0.453125 0.296875 -0.90625q0 -0.484375 -0.265625 -0.75q-0.265625 -0.265625 -0.71875 -0.265625q-0.453125 0 -0.734375 0.28125q-0.265625 0.28125 -0.3125 0.921875l-1.453125 -0.15625q0.125 -1.203125 0.8125 -1.71875q0.6875 -0.53125 1.71875 -0.53125q1.125 0 1.765625 0.609375q0.65625 0.609375 0.65625 1.515625q0 0.515625 -0.1875 0.984375q-0.1875 0.453125 -0.578125 0.96875q-0.265625 0.34375 -0.96875 0.984375q-0.6875 0.625 -0.875 0.828125q-0.171875 0.203125 -0.296875 0.40625l2.90625 0z" fill-rule="nonzero"/><path fill="#000000" fill-opacity="0.0" d="m231.05905 0l37.826782 0l0 42.015747l-37.826782 0z" fill-rule="evenodd"/><path fill="#000000" d="m252.78494 24.847874l0 -1.46875l1.46875 0l0 1.46875l-1.46875 0zm-3.546875 0l0 -1.46875l1.46875 0l0 1.46875l-1.46875 0zm-3.546875 0l0 -1.46875l1.46875 0l0 1.46875l-1.46875 0z" fill-rule="nonzero"/><path fill="#000000" fill-opacity="0.0" d="m268.88583 0l37.82675 0l0 42.015747l-37.82675 0z" fill-rule="evenodd"/><path fill="#000000" d="m279.47992 24.847874l0 -7.625l1.453125 0l0 4.046875l1.71875 -1.953125l1.796875 0l-1.890625 2.03125l2.03125 3.5l-1.578125 0l-1.390625 -2.484375l-0.6875 0.71875l0 1.765625l-1.453125 0zm7.6452637 -1.09375l0 -1.984375l-2.0 0l0 -1.375l2.0 0l0 -1.984375l1.328125 0l0 1.984375l2.015625 0l0 1.375l-2.015625 0l0 1.984375l-1.328125 0zm6.0668335 1.09375l-2.21875 -5.53125l1.53125 0l1.046875 2.828125l0.296875 0.9375q0.109375 -0.359375 0.140625 -0.46875q0.078125 -0.234375 0.15625 -0.46875l1.0625 -2.828125l1.5 0l-2.203125 5.53125l-1.3125 0z" fill-rule="nonzero"/><path fill="#000000" fill-opacity="0.0" d="m306.7126 0l37.826782 0l0 42.015747l-37.826782 0z" fill-rule="evenodd"/><path fill="#000000" d="m328.43848 24.847874l0 -1.46875l1.46875 0l0 1.46875l-1.46875 0zm-3.546875 0l0 -1.46875l1.46875 0l0 1.46875l-1.46875 0zm-3.546875 0l0 -1.46875l1.46875 0l0 1.46875l-1.46875 0z" fill-rule="nonzero"/><path fill="#000000" fill-opacity="0.0" d="m344.53937 0l37.826782 0l0 42.015747l-37.826782 0z" fill-rule="evenodd"/><path fill="#000000" d="m366.06763 20.957249l-1.4375 0.265625q-0.078125 -0.4375 -0.34375 -0.65625q-0.25 -0.21875 -0.65625 -0.21875q-0.546875 0 -0.875 0.375q-0.3125 0.375 -0.3125 1.265625q0 0.984375 0.328125 1.390625q0.328125 0.40625 0.875 0.40625q0.421875 0 0.6875 -0.234375q0.265625 -0.25 0.375 -0.828125l1.4375 0.25q-0.21875 0.984375 -0.859375 1.5q-0.640625 0.5 -1.703125 0.5q-1.203125 0 -1.9375 -0.765625q-0.71875 -0.765625 -0.71875 -2.109375q0 -1.375 0.71875 -2.140625q0.734375 -0.765625 1.96875 -0.765625q1.0 0 1.59375 0.4375q0.609375 0.4375 0.859375 1.328125z" fill-rule="nonzero"/><path fill="#420104" fill-opacity="0.88" d="m4.0984254 121.85827l37.82677 0l0 37.826775l-37.82677 0z" fill-rule="evenodd"/><path stroke="#000000" stroke-width="1.0" stroke-linejoin="round" stroke-linecap="butt" d="m4.0984254 121.85827l37.82677 0l0 37.826775l-37.82677 0z" fill-rule="evenodd"/><path fill="#420104" fill-opacity="0.88" d="m41.925198 121.85827l37.82677 0l0 37.826775l-37.82677 0z" fill-rule="evenodd"/><path stroke="#000000" stroke-width="1.0" stroke-linejoin="round" stroke-linecap="butt" d="m41.925198 121.85827l37.82677 0l0 37.826775l-37.82677 0z" fill-rule="evenodd"/><path fill="#420104" fill-opacity="0.88" d="m79.75197 121.85827l37.826775 0l0 37.826775l-37.826775 0z" fill-rule="evenodd"/><path stroke="#000000" stroke-width="1.0" stroke-linejoin="round" stroke-linecap="butt" d="m79.75197 121.85827l37.826775 0l0 37.826775l-37.826775 0z" fill-rule="evenodd"/><path fill="#420104" fill-opacity="0.88" d="m117.57874 121.85827l37.826775 0l0 37.826775l-37.826775 0z" fill-rule="evenodd"/><path stroke="#000000" stroke-width="1.0" stroke-linejoin="round" stroke-linecap="butt" d="m117.57874 121.85827l37.826775 0l0 37.826775l-37.826775 0z" fill-rule="evenodd"/><path fill="#244a13" fill-opacity="0.88" d="m155.40552 121.85827l37.826767 0l0 37.826775l-37.826767 0z" fill-rule="evenodd"/><path stroke="#000000" stroke-width="1.0" stroke-linejoin="round" stroke-linecap="butt" d="m155.40552 121.85827l37.826767 0l0 37.826775l-37.826767 0z" fill-rule="evenodd"/><path fill="#244a13" fill-opacity="0.88" d="m193.23228 121.85827l37.826767 0l0 37.826775l-37.826767 0z" fill-rule="evenodd"/><path stroke="#000000" stroke-width="1.0" stroke-linejoin="round" stroke-linecap="butt" d="m193.23228 121.85827l37.826767 0l0 37.826775l-37.826767 0z" fill-rule="evenodd"/><path fill="#244a13" fill-opacity="0.88" d="m231.05905 121.85827l37.826782 0l0 37.826775l-37.826782 0z" fill-rule="evenodd"/><path stroke="#000000" stroke-width="1.0" stroke-linejoin="round" stroke-linecap="butt" d="m231.05905 121.85827l37.826782 0l0 37.826775l-37.826782 0z" fill-rule="evenodd"/><path fill="#244a13" fill-opacity="0.88" d="m268.88583 121.85827l37.82675 0l0 37.826775l-37.82675 0z" fill-rule="evenodd"/><path stroke="#000000" stroke-width="1.0" stroke-linejoin="round" stroke-linecap="butt" d="m268.88583 121.85827l37.82675 0l0 37.826775l-37.82675 0z" fill-rule="evenodd"/><path fill="#000000" fill-opacity="0.0" d="m306.7126 121.85827l37.826782 0l0 37.826775l-37.826782 0z" fill-rule="evenodd"/><path stroke="#000000" stroke-width="1.0" stroke-linejoin="round" stroke-linecap="butt" d="m306.7126 121.85827l37.826782 0l0 37.826775l-37.826782 0z" fill-rule="evenodd"/><path fill="#000000" fill-opacity="0.0" d="m344.53937 121.85827l37.826782 0l0 37.826775l-37.826782 0z" fill-rule="evenodd"/><path stroke="#000000" stroke-width="1.0" stroke-linejoin="round" stroke-linecap="butt" d="m344.53937 121.85827l37.826782 0l0 37.826775l-37.826782 0z" fill-rule="evenodd"/><path fill="#000000" fill-opacity="0.0" d="m155.40683 79.84252l37.826767 0l0 42.015747l-37.826767 0z" fill-rule="evenodd"/><path fill="#000000" d="m172.21365 109.412895l0 -6.203125l-6.234375 0l0 -4.265625l6.234375 0l0 -6.203125l4.171875 0l0 6.203125l6.265625 0l0 4.265625l-6.265625 0l0 6.203125l-4.171875 0z" fill-rule="nonzero"/><path fill="#000000" fill-opacity="0.0" d="m-9.711287 122.99213l65.44882 0l0 35.55905l-65.44882 0z" fill-rule="evenodd"/><path fill="#ffffff" d="m6.9475102 145.57166l0 -9.546875l3.0937495 0q1.75 0 2.296875 0.15625q0.8125 0.203125 1.359375 0.921875q0.5625 0.71875 0.5625 1.859375q0 0.875 -0.328125 1.484375q-0.3125 0.59375 -0.8125 0.9375q-0.484375 0.34375 -0.984375 0.453125q-0.703125 0.140625 -2.0 0.140625l-1.265625 0l0 3.59375l-1.9218745 0zm1.9218745 -7.921875l0 2.703125l1.0625 0q1.140625 0 1.515625 -0.140625q0.390625 -0.15625 0.609375 -0.46875q0.21875 -0.328125 0.21875 -0.75q0 -0.515625 -0.3125 -0.859375q-0.296875 -0.34375 -0.765625 -0.421875q-0.34375 -0.0625 -1.390625 -0.0625l-0.9375 0zm6.9678802 7.921875l0 -9.546875l7.078127 0l0 1.625l-5.156252 0l0 2.109375l4.796877 0l0 1.609375l-4.796877 0l0 2.59375l5.328127 0l0 1.609375l-7.250002 0zm11.905382 2.8125l-1.25 0q-1.0 -1.515625 -1.515625 -3.125q-0.515625 -1.625 -0.515625 -3.140625q0 -1.890625 0.640625 -3.5625q0.5625 -1.453125 1.421875 -2.6875l1.25 0q-0.890625 1.96875 -1.234375 3.359375q-0.328125 1.375 -0.328125 2.921875q0 1.078125 0.1875 2.203125q0.203125 1.109375 0.546875 2.109375q0.234375 0.671875 0.796875 1.921875z" fill-rule="nonzero"/><path fill="#ffffff" d="m29.774767 140.08728l0.359375 -1.65625q2.406252 -1.0625 3.734377 -2.453125l1.140625 0l-2.015625 9.59375l-1.8750019 0l1.3750019 -6.609375q-0.5781269 0.375 -1.3437519 0.6875q-0.765625 0.3125 -1.375 0.4375z" fill-rule="nonzero"/><path fill="#ffffff" d="m36.062244 148.38416q0.53125 -1.171875 0.75 -1.796875q0.234375 -0.609375 0.421875 -1.40625q0.1875 -0.8125 0.265625 -1.53125q0.09375 -0.734375 0.09375 -1.5q0 -1.546875 -0.328125 -2.921875q-0.328125 -1.390625 -1.21875 -3.359375l1.234375 0q0.984375 1.40625 1.53125 2.96875q0.546875 1.5625 0.546875 3.1875q0 1.359375 -0.4375 2.90625q-0.484375 1.75 -1.59375 3.453125l-1.265625 0z" fill-rule="nonzero"/><path fill="#000000" fill-opacity="0.0" d="m28.115486 122.99213l65.44882 0l0 35.55905l-65.44882 0z" fill-rule="evenodd"/><path fill="#ffffff" d="m44.77428 145.57166l0 -9.546875l3.09375 0q1.75 0 2.296875 0.15625q0.8125 0.203125 1.359375 0.921875q0.5625 0.71875 0.5625 1.859375q0 0.875 -0.328125 1.484375q-0.3125 0.59375 -0.8125 0.9375q-0.484375 0.34375 -0.984375 0.453125q-0.703125 0.140625 -2.0 0.140625l-1.265625 0l0 3.59375l-1.921875 0zm1.921875 -7.921875l0 2.703125l1.0625 0q1.140625 0 1.515625 -0.140625q0.390625 -0.15625 0.609375 -0.46875q0.21875 -0.328125 0.21875 -0.75q0 -0.515625 -0.3125 -0.859375q-0.296875 -0.34375 -0.765625 -0.421875q-0.34375 -0.0625 -1.390625 -0.0625l-0.9375 0zm6.9678802 7.921875l0 -9.546875l7.078129 0l0 1.625l-5.156254 0l0 2.109375l4.796879 0l0 1.609375l-4.796879 0l0 2.59375l5.328129 0l0 1.609375l-7.250004 0zm11.905384 2.8125l-1.25 0q-1.0 -1.515625 -1.515625 -3.125q-0.515625 -1.625 -0.515625 -3.140625q0 -1.890625 0.640625 -3.5625q0.5625 -1.453125 1.421875 -2.6875l1.25 0q-0.890625 1.96875 -1.234375 3.359375q-0.328125 1.375 -0.328125 2.921875q0 1.078125 0.1875 2.203125q0.203125 1.109375 0.546875 2.109375q0.234375 0.671875 0.796875 1.921875z" fill-rule="nonzero"/><path fill="#ffffff" d="m69.53904 139.00916l-1.828125 -0.28125q0.21875 -1.328125 1.03125 -2.03125q0.8125 -0.703125 2.03125 -0.703125q1.328125 0 2.09375 0.71875q0.765625 0.71875 0.765625 1.84375q0 0.5625 -0.234375 1.140625q-0.234375 0.5625 -0.765625 1.1875q-0.390625 0.4375 -1.265625 1.25q-0.859375 0.8125 -1.15625 1.109375q-0.28125 0.296875 -0.53125 0.625l3.296875 0l-0.34375 1.703125l-5.796875 0q0.078125 -0.703125 0.40625 -1.328125q0.328125 -0.640625 0.796875 -1.1875q0.484375 -0.546875 1.765625 -1.765625q0.96875 -0.921875 1.21875 -1.203125q0.453125 -0.515625 0.625 -0.875q0.171875 -0.375 0.171875 -0.671875q0 -0.484375 -0.28125 -0.78125q-0.28125 -0.296875 -0.71875 -0.296875q-0.4375 0 -0.78125 0.34375q-0.328125 0.328125 -0.5 1.203125z" fill-rule="nonzero"/><path fill="#ffffff" d="m73.889015 148.38416q0.53125 -1.171875 0.75 -1.796875q0.234375 -0.609375 0.421875 -1.40625q0.1875 -0.8125 0.265625 -1.53125q0.09375 -0.734375 0.09375 -1.5q0 -1.546875 -0.328125 -2.921875q-0.328125 -1.390625 -1.21875 -3.359375l1.234375 0q0.984375 1.40625 1.53125 2.96875q0.546875 1.5625 0.546875 3.1875q0 1.359375 -0.4375 2.90625q-0.484375 1.75 -1.59375 3.453125l-1.265625 0z" fill-rule="nonzero"/><path fill="#000000" fill-opacity="0.0" d="m103.76903 122.99213l65.44882 0l0 35.55905l-65.44882 0z" fill-rule="evenodd"/><path fill="#ffffff" d="m120.427826 145.57166l0 -9.546875l3.09375 0q1.75 0 2.296875 0.15625q0.8125 0.203125 1.359375 0.921875q0.5625 0.71875 0.5625 1.859375q0 0.875 -0.328125 1.484375q-0.3125 0.59375 -0.8125 0.9375q-0.484375 0.34375 -0.984375 0.453125q-0.703125 0.140625 -2.0 0.140625l-1.265625 0l0 3.59375l-1.921875 0zm1.921875 -7.921875l0 2.703125l1.0625 0q1.140625 0 1.515625 -0.140625q0.390625 -0.15625 0.609375 -0.46875q0.21875 -0.328125 0.21875 -0.75q0 -0.515625 -0.3125 -0.859375q-0.296875 -0.34375 -0.765625 -0.421875q-0.34375 -0.0625 -1.390625 -0.0625l-0.9375 0zm6.9678802 7.921875l0 -9.546875l7.078125 0l0 1.625l-5.15625 0l0 2.109375l4.796875 0l0 1.609375l-4.796875 0l0 2.59375l5.328125 0l0 1.609375l-7.25 0zm11.90538 2.8125l-1.25 0q-1.0 -1.515625 -1.515625 -3.125q-0.515625 -1.625 -0.515625 -3.140625q0 -1.890625 0.640625 -3.5625q0.5625 -1.453125 1.421875 -2.6875l1.25 0q-0.890625 1.96875 -1.234375 3.359375q-0.328125 1.375 -0.328125 2.921875q0 1.078125 0.1875 2.203125q0.203125 1.109375 0.546875 2.109375q0.234375 0.671875 0.796875 1.921875z" fill-rule="nonzero"/><path fill="#ffffff" d="m142.17696 145.57166l2.0 -9.546875l1.859375 0l-1.03125 4.96875l2.4375 -2.328125l2.421875 0l-2.78125 2.5l1.484375 4.40625l-1.875 0l-0.953125 -3.203125l-1.25 1.125l-0.4375 2.078125l-1.875 0z" fill-rule="nonzero"/><path fill="#ffffff" d="m149.54256 148.38416q0.53125 -1.171875 0.75 -1.796875q0.234375 -0.609375 0.421875 -1.40625q0.1875 -0.8125 0.265625 -1.53125q0.09375 -0.734375 0.09375 -1.5q0 -1.546875 -0.328125 -2.921875q-0.328125 -1.390625 -1.21875 -3.359375l1.234375 0q0.984375 1.40625 1.53125 2.96875q0.546875 1.5625 0.546875 3.1875q0 1.359375 -0.4375 2.90625q-0.484375 1.75 -1.59375 3.453125l-1.265625 0z" fill-rule="nonzero"/><path fill="#000000" fill-opacity="0.0" d="m141.5958 122.99213l65.44882 0l0 35.55905l-65.44882 0z" fill-rule="evenodd"/><path fill="#ffffff" d="m158.2546 145.57166l0 -9.546875l3.09375 0q1.75 0 2.296875 0.15625q0.8125 0.203125 1.359375 0.921875q0.5625 0.71875 0.5625 1.859375q0 0.875 -0.328125 1.484375q-0.3125 0.59375 -0.8125 0.9375q-0.484375 0.34375 -0.984375 0.453125q-0.703125 0.140625 -2.0 0.140625l-1.265625 0l0 3.59375l-1.921875 0zm1.921875 -7.921875l0 2.703125l1.0625 0q1.140625 0 1.515625 -0.140625q0.390625 -0.15625 0.609375 -0.46875q0.21875 -0.328125 0.21875 -0.75q0 -0.515625 -0.3125 -0.859375q-0.296875 -0.34375 -0.765625 -0.421875q-0.34375 -0.0625 -1.390625 -0.0625l-0.9375 0zm6.9678802 7.921875l0 -9.546875l7.078125 0l0 1.625l-5.15625 0l0 2.109375l4.796875 0l0 1.609375l-4.796875 0l0 2.59375l5.328125 0l0 1.609375l-7.25 0zm11.90538 2.8125l-1.25 0q-1.0 -1.515625 -1.515625 -3.125q-0.515625 -1.625 -0.515625 -3.140625q0 -1.890625 0.640625 -3.5625q0.5625 -1.453125 1.421875 -2.6875l1.25 0q-0.890625 1.96875 -1.234375 3.359375q-0.328125 1.375 -0.328125 2.921875q0 1.078125 0.1875 2.203125q0.203125 1.109375 0.546875 2.109375q0.234375 0.671875 0.796875 1.921875z" fill-rule="nonzero"/><path fill="#ffffff" d="m181.08185 140.08728l0.359375 -1.65625q2.40625 -1.0625 3.734375 -2.453125l1.140625 0l-2.015625 9.59375l-1.875 0l1.375 -6.609375q-0.578125 0.375 -1.34375 0.6875q-0.765625 0.3125 -1.375 0.4375z" fill-rule="nonzero"/><path fill="#ffffff" d="m187.36932 148.38416q0.53125 -1.171875 0.75 -1.796875q0.234375 -0.609375 0.421875 -1.40625q0.1875 -0.8125 0.265625 -1.53125q0.09375 -0.734375 0.09375 -1.5q0 -1.546875 -0.328125 -2.921875q-0.328125 -1.390625 -1.21875 -3.359375l1.234375 0q0.984375 1.40625 1.53125 2.96875q0.546875 1.5625 0.546875 3.1875q0 1.359375 -0.4375 2.90625q-0.484375 1.75 -1.59375 3.453125l-1.265625 0z" fill-rule="nonzero"/><path fill="#000000" fill-opacity="0.0" d="m179.42258 122.99213l65.44881 0l0 35.55905l-65.44881 0z" fill-rule="evenodd"/><path fill="#ffffff" d="m196.08138 145.57166l0 -9.546875l3.09375 0q1.75 0 2.296875 0.15625q0.8125 0.203125 1.359375 0.921875q0.5625 0.71875 0.5625 1.859375q0 0.875 -0.328125 1.484375q-0.3125 0.59375 -0.8125 0.9375q-0.484375 0.34375 -0.984375 0.453125q-0.703125 0.140625 -2.0 0.140625l-1.265625 0l0 3.59375l-1.921875 0zm1.921875 -7.921875l0 2.703125l1.0625 0q1.140625 0 1.515625 -0.140625q0.390625 -0.15625 0.609375 -0.46875q0.21875 -0.328125 0.21875 -0.75q0 -0.515625 -0.3125 -0.859375q-0.296875 -0.34375 -0.765625 -0.421875q-0.34375 -0.0625 -1.390625 -0.0625l-0.9375 0zm6.9678802 7.921875l0 -9.546875l7.078125 0l0 1.625l-5.15625 0l0 2.109375l4.796875 0l0 1.609375l-4.796875 0l0 2.59375l5.328125 0l0 1.609375l-7.25 0zm11.90538 2.8125l-1.25 0q-1.0 -1.515625 -1.515625 -3.125q-0.515625 -1.625 -0.515625 -3.140625q0 -1.890625 0.640625 -3.5625q0.5625 -1.453125 1.421875 -2.6875l1.25 0q-0.890625 1.96875 -1.234375 3.359375q-0.328125 1.375 -0.328125 2.921875q0 1.078125 0.1875 2.203125q0.203125 1.109375 0.546875 2.109375q0.234375 0.671875 0.796875 1.921875z" fill-rule="nonzero"/><path fill="#ffffff" d="m220.84613 139.00916l-1.828125 -0.28125q0.21875 -1.328125 1.03125 -2.03125q0.8125 -0.703125 2.03125 -0.703125q1.328125 0 2.09375 0.71875q0.765625 0.71875 0.765625 1.84375q0 0.5625 -0.234375 1.140625q-0.234375 0.5625 -0.765625 1.1875q-0.390625 0.4375 -1.265625 1.25q-0.859375 0.8125 -1.15625 1.109375q-0.28125 0.296875 -0.53125 0.625l3.296875 0l-0.34375 1.703125l-5.796875 0q0.078125 -0.703125 0.40625 -1.328125q0.328125 -0.640625 0.796875 -1.1875q0.484375 -0.546875 1.765625 -1.765625q0.96875 -0.921875 1.21875 -1.203125q0.453125 -0.515625 0.625 -0.875q0.171875 -0.375 0.171875 -0.671875q0 -0.484375 -0.28125 -0.78125q-0.28125 -0.296875 -0.71875 -0.296875q-0.4375 0 -0.78125 0.34375q-0.328125 0.328125 -0.5 1.203125z" fill-rule="nonzero"/><path fill="#ffffff" d="m225.1961 148.38416q0.53125 -1.171875 0.75 -1.796875q0.234375 -0.609375 0.421875 -1.40625q0.1875 -0.8125 0.265625 -1.53125q0.09375 -0.734375 0.09375 -1.5q0 -1.546875 -0.328125 -2.921875q-0.328125 -1.390625 -1.21875 -3.359375l1.234375 0q0.984375 1.40625 1.53125 2.96875q0.546875 1.5625 0.546875 3.1875q0 1.359375 -0.4375 2.90625q-0.484375 1.75 -1.59375 3.453125l-1.265625 0z" fill-rule="nonzero"/><path fill="#000000" fill-opacity="0.0" d="m255.07611 122.99213l65.44882 0l0 35.55905l-65.44882 0z" fill-rule="evenodd"/><path fill="#ffffff" d="m271.73492 145.57166l0 -9.546875l3.09375 0q1.75 0 2.296875 0.15625q0.8125 0.203125 1.359375 0.921875q0.5625 0.71875 0.5625 1.859375q0 0.875 -0.328125 1.484375q-0.3125 0.59375 -0.8125 0.9375q-0.484375 0.34375 -0.984375 0.453125q-0.703125 0.140625 -2.0 0.140625l-1.265625 0l0 3.59375l-1.921875 0zm1.921875 -7.921875l0 2.703125l1.0625 0q1.140625 0 1.515625 -0.140625q0.390625 -0.15625 0.609375 -0.46875q0.21875 -0.328125 0.21875 -0.75q0 -0.515625 -0.3125 -0.859375q-0.296875 -0.34375 -0.765625 -0.421875q-0.34375 -0.0625 -1.390625 -0.0625l-0.9375 0zm6.967865 7.921875l0 -9.546875l7.078125 0l0 1.625l-5.15625 0l0 2.109375l4.796875 0l0 1.609375l-4.796875 0l0 2.59375l5.328125 0l0 1.609375l-7.25 0zm11.9053955 2.8125l-1.25 0q-1.0 -1.515625 -1.515625 -3.125q-0.515625 -1.625 -0.515625 -3.140625q0 -1.890625 0.640625 -3.5625q0.5625 -1.453125 1.421875 -2.6875l1.25 0q-0.890625 1.96875 -1.234375 3.359375q-0.328125 1.375 -0.328125 2.921875q0 1.078125 0.1875 2.203125q0.203125 1.109375 0.546875 2.109375q0.234375 0.671875 0.796875 1.921875z" fill-rule="nonzero"/><path fill="#ffffff" d="m296.9684 145.57166l-1.609375 0l-1.375 -6.90625l1.828125 0l0.484375 3.015625q0.203125 1.21875 0.25 1.625q0.046875 -0.109375 0.4375 -0.84375q0.40625 -0.734375 0.5 -0.890625l1.71875 -2.90625l2.015625 0l-4.25 6.90625z" fill-rule="nonzero"/><path fill="#ffffff" d="m300.84964 148.38416q0.53125 -1.171875 0.75 -1.796875q0.234375 -0.609375 0.421875 -1.40625q0.1875 -0.8125 0.265625 -1.53125q0.09375 -0.734375 0.09375 -1.5q0 -1.546875 -0.328125 -2.921875q-0.328125 -1.390625 -1.21875 -3.359375l1.234375 0q0.984375 1.40625 1.53125 2.96875q0.546875 1.5625 0.546875 3.1875q0 1.359375 -0.4375 2.90625q-0.484375 1.75 -1.59375 3.453125l-1.265625 0z" fill-rule="nonzero"/></g></svg>