<svg version="1.1" viewBox="0.0 0.0 1164.0629921259842 435.93700787401576" fill="none" stroke="none" stroke-linecap="square" stroke-miterlimit="10" xmlns:xlink="http://www.w3.org/1999/xlink" xmlns="http://www.w3.org/2000/svg"><clipPath id="p.0"><path d="m0 0l1164.063 0l0 435.937l-1164.063 0l0 -435.937z" clip-rule="nonzero"/></clipPath><g clip-path="url(#p.0)"><path fill="#000000" fill-opacity="0.0" d="m0 0l1164.063 0l0 435.937l-1164.063 0z" fill-rule="evenodd"/><path fill="#420104" fill-opacity="0.88" d="m785.7953 37.82677l37.826782 0l0 37.82677l-37.826782 0z" fill-rule="evenodd"/><path stroke="#000000" stroke-width="1.0" stroke-linejoin="round" stroke-linecap="butt" d="m785.7953 37.82677l37.826782 0l0 37.82677l-37.826782 0z" fill-rule="evenodd"/><path fill="#000000" fill-opacity="0.0" d="m823.6221 37.82677l37.82672 0l0 37.82677l-37.82672 0z" fill-rule="evenodd"/><path stroke="#000000" stroke-width="1.0" stroke-linejoin="round" stroke-linecap="butt" d="m823.6221 37.82677l37.82672 0l0 37.82677l-37.82672 0z" fill-rule="evenodd"/><path fill="#000000" fill-opacity="0.0" d="m861.4488 37.82677l37.826782 0l0 37.82677l-37.826782 0z" fill-rule="evenodd"/><path stroke="#000000" stroke-width="1.0" stroke-linejoin="round" stroke-linecap="butt" d="m861.4488 37.82677l37.826782 0l0 37.82677l-37.826782 0z" fill-rule="evenodd"/><path fill="#420104" fill-opacity="0.88" d="m785.7953 75.65354l37.826782 0l0 37.826775l-37.826782 0z" fill-rule="evenodd"/><path stroke="#000000" stroke-width="1.0" stroke-linejoin="round" stroke-linecap="butt" d="m785.7953 75.65354l37.826782 0l0 37.826775l-37.826782 0z" fill-rule="evenodd"/><path fill="#420104" fill-opacity="0.88" d="m823.6221 75.65354l37.82672 0l0 37.826775l-37.82672 0z" fill-rule="evenodd"/><path stroke="#000000" stroke-width="1.0" stroke-linejoin="round" stroke-linecap="butt" d="m823.6221 75.65354l37.82672 0l0 37.826775l-37.82672 0z" fill-rule="evenodd"/><path fill="#000000" fill-opacity="0.0" d="m861.4488 75.65354l37.826782 0l0 37.826775l-37.826782 0z" fill-rule="evenodd"/><path stroke="#000000" stroke-width="1.0" stroke-linejoin="round" stroke-linecap="butt" d="m861.4488 75.65354l37.826782 0l0 37.826775l-37.826782 0z" fill-rule="evenodd"/><path fill="#420104" fill-opacity="0.88" d="m785.7953 113.480316l37.826782 0l0 37.826767l-37.826782 0z" fill-rule="evenodd"/><path stroke="#000000" stroke-width="1.0" stroke-linejoin="round" stroke-linecap="butt" d="m785.7953 113.480316l37.826782 0l0 37.826767l-37.826782 0z" fill-rule="evenodd"/><path fill="#420104" fill-opacity="0.88" d="m823.6221 113.480316l37.82672 0l0 37.826767l-37.82672 0z" fill-rule="evenodd"/><path stroke="#000000" stroke-width="1.0" stroke-linejoin="round" stroke-linecap="butt" d="m823.6221 113.480316l37.82672 0l0 37.826767l-37.82672 0z" fill-rule="evenodd"/><path fill="#420104" fill-opacity="0.88" d="m861.4488 113.480316l37.826782 0l0 37.826767l-37.826782 0z" fill-rule="evenodd"/><path stroke="#000000" stroke-width="1.0" stroke-linejoin="round" stroke-linecap="butt" d="m861.4488 113.480316l37.826782 0l0 37.826767l-37.826782 0z" fill-rule="evenodd"/><path fill="#420104" fill-opacity="0.88" d="m785.7953 151.30708l37.826782 0l0 37.826782l-37.826782 0z" fill-rule="evenodd"/><path stroke="#000000" stroke-width="1.0" stroke-linejoin="round" stroke-linecap="butt" d="m785.7953 151.30708l37.826782 0l0 37.826782l-37.826782 0z" fill-rule="evenodd"/><path fill="#420104" fill-opacity="0.88" d="m823.6221 151.30708l37.82672 0l0 37.826782l-37.82672 0z" fill-rule="evenodd"/><path stroke="#000000" stroke-width="1.0" stroke-linejoin="round" stroke-linecap="butt" d="m823.6221 151.30708l37.82672 0l0 37.826782l-37.82672 0z" fill-rule="evenodd"/><path fill="#420104" fill-opacity="0.88" d="m861.4488 151.30708l37.826782 0l0 37.826782l-37.826782 0z" fill-rule="evenodd"/><path stroke="#000000" stroke-width="1.0" stroke-linejoin="round" stroke-linecap="butt" d="m861.4488 151.30708l37.826782 0l0 37.826782l-37.826782 0z" fill-rule="evenodd"/><path fill="#000000" fill-opacity="0.0" d="m785.7953 189.13387l37.826782 0l0 37.826767l-37.826782 0z" fill-rule="evenodd"/><path stroke="#000000" stroke-width="1.0" stroke-linejoin="round" stroke-linecap="butt" d="m785.7953 189.13387l37.826782 0l0 37.826767l-37.826782 0z" fill-rule="evenodd"/><path fill="#000000" fill-opacity="0.0" d="m823.6221 189.13387l37.82672 0l0 37.826767l-37.82672 0z" fill-rule="evenodd"/><path stroke="#000000" stroke-width="1.0" stroke-linejoin="round" stroke-linecap="butt" d="m823.6221 189.13387l37.82672 0l0 37.826767l-37.82672 0z" fill-rule="evenodd"/><path fill="#000000" fill-opacity="0.0" d="m861.4488 189.13387l37.826782 0l0 37.826767l-37.826782 0z" fill-rule="evenodd"/><path stroke="#000000" stroke-width="1.0" stroke-linejoin="round" stroke-linecap="butt" d="m861.4488 189.13387l37.826782 0l0 37.826767l-37.826782 0z" fill-rule="evenodd"/><path fill="#000000" fill-opacity="0.0" d="m785.7953 226.96063l37.826782 0l0 37.826782l-37.826782 0z" fill-rule="evenodd"/><path stroke="#000000" stroke-width="1.0" stroke-linejoin="round" stroke-linecap="butt" d="m785.7953 226.96063l37.826782 0l0 37.826782l-37.826782 0z" fill-rule="evenodd"/><path fill="#000000" fill-opacity="0.0" d="m823.6221 226.96063l37.82672 0l0 37.826782l-37.82672 0z" fill-rule="evenodd"/><path stroke="#000000" stroke-width="1.0" stroke-linejoin="round" stroke-linecap="butt" d="m823.6221 226.96063l37.82672 0l0 37.826782l-37.82672 0z" fill-rule="evenodd"/><path fill="#000000" fill-opacity="0.0" d="m861.4488 226.96063l37.826782 0l0 37.826782l-37.826782 0z" fill-rule="evenodd"/><path stroke="#000000" stroke-width="1.0" stroke-linejoin="round" stroke-linecap="butt" d="m861.4488 226.96063l37.826782 0l0 37.826782l-37.826782 0z" fill-rule="evenodd"/><path fill="#000000" fill-opacity="0.0" d="m899.2756 37.82677l37.826782 0l0 37.82677l-37.826782 0z" fill-rule="evenodd"/><path stroke="#000000" stroke-width="1.0" stroke-linejoin="round" stroke-linecap="butt" d="m899.2756 37.82677l37.826782 0l0 37.82677l-37.826782 0z" fill-rule="evenodd"/><path fill="#000000" fill-opacity="0.0" d="m937.10236 37.82677l37.826782 0l0 37.82677l-37.826782 0z" fill-rule="evenodd"/><path stroke="#000000" stroke-width="1.0" stroke-linejoin="round" stroke-linecap="butt" d="m937.10236 37.82677l37.826782 0l0 37.82677l-37.826782 0z" fill-rule="evenodd"/><path fill="#000000" fill-opacity="0.0" d="m974.92914 37.82677l37.826782 0l0 37.82677l-37.826782 0z" fill-rule="evenodd"/><path stroke="#000000" stroke-width="1.0" stroke-linejoin="round" stroke-linecap="butt" d="m974.92914 37.82677l37.826782 0l0 37.82677l-37.826782 0z" fill-rule="evenodd"/><path fill="#000000" fill-opacity="0.0" d="m899.2756 75.65354l37.826782 0l0 37.826775l-37.826782 0z" fill-rule="evenodd"/><path stroke="#000000" stroke-width="1.0" stroke-linejoin="round" stroke-linecap="butt" d="m899.2756 75.65354l37.826782 0l0 37.826775l-37.826782 0z" fill-rule="evenodd"/><path fill="#000000" fill-opacity="0.0" d="m937.10236 75.65354l37.826782 0l0 37.826775l-37.826782 0z" fill-rule="evenodd"/><path stroke="#000000" stroke-width="1.0" stroke-linejoin="round" stroke-linecap="butt" d="m937.10236 75.65354l37.826782 0l0 37.826775l-37.826782 0z" fill-rule="evenodd"/><path fill="#000000" fill-opacity="0.0" d="m974.92914 75.65354l37.826782 0l0 37.826775l-37.826782 0z" fill-rule="evenodd"/><path stroke="#000000" stroke-width="1.0" stroke-linejoin="round" stroke-linecap="butt" d="m974.92914 75.65354l37.826782 0l0 37.826775l-37.826782 0z" fill-rule="evenodd"/><path fill="#000000" fill-opacity="0.0" d="m899.2756 113.480316l37.826782 0l0 37.826767l-37.826782 0z" fill-rule="evenodd"/><path stroke="#000000" stroke-width="1.0" stroke-linejoin="round" stroke-linecap="butt" d="m899.2756 113.480316l37.826782 0l0 37.826767l-37.826782 0z" fill-rule="evenodd"/><path fill="#000000" fill-opacity="0.0" d="m937.10236 113.480316l37.826782 0l0 37.826767l-37.826782 0z" fill-rule="evenodd"/><path stroke="#000000" stroke-width="1.0" stroke-linejoin="round" stroke-linecap="butt" d="m937.10236 113.480316l37.826782 0l0 37.826767l-37.826782 0z" fill-rule="evenodd"/><path fill="#000000" fill-opacity="0.0" d="m974.92914 113.480316l37.826782 0l0 37.826767l-37.826782 0z" fill-rule="evenodd"/><path stroke="#000000" stroke-width="1.0" stroke-linejoin="round" stroke-linecap="butt" d="m974.92914 113.480316l37.826782 0l0 37.826767l-37.826782 0z" fill-rule="evenodd"/><path fill="#420104" fill-opacity="0.88" d="m899.2756 151.30708l37.826782 0l0 37.826782l-37.826782 0z" fill-rule="evenodd"/><path stroke="#000000" stroke-width="1.0" stroke-linejoin="round" stroke-linecap="butt" d="m899.2756 151.30708l37.826782 0l0 37.826782l-37.826782 0z" fill-rule="evenodd"/><path fill="#000000" fill-opacity="0.0" d="m937.10236 151.30708l37.826782 0l0 37.826782l-37.826782 0z" fill-rule="evenodd"/><path stroke="#000000" stroke-width="1.0" stroke-linejoin="round" stroke-linecap="butt" d="m937.10236 151.30708l37.826782 0l0 37.826782l-37.826782 0z" fill-rule="evenodd"/><path fill="#000000" fill-opacity="0.0" d="m974.92914 151.30708l37.826782 0l0 37.826782l-37.826782 0z" fill-rule="evenodd"/><path stroke="#000000" stroke-width="1.0" stroke-linejoin="round" stroke-linecap="butt" d="m974.92914 151.30708l37.826782 0l0 37.826782l-37.826782 0z" fill-rule="evenodd"/><path fill="#000000" fill-opacity="0.0" d="m899.2756 189.13387l37.826782 0l0 37.826767l-37.826782 0z" fill-rule="evenodd"/><path stroke="#000000" stroke-width="1.0" stroke-linejoin="round" stroke-linecap="butt" d="m899.2756 189.13387l37.826782 0l0 37.826767l-37.826782 0z" fill-rule="evenodd"/><path fill="#244a13" fill-opacity="0.88" d="m937.10236 189.13387l37.826782 0l0 37.826767l-37.826782 0z" fill-rule="evenodd"/><path stroke="#000000" stroke-width="1.0" stroke-linejoin="round" stroke-linecap="butt" d="m937.10236 189.13387l37.826782 0l0 37.826767l-37.826782 0z" fill-rule="evenodd"/><path fill="#000000" fill-opacity="0.0" d="m974.92914 189.13387l37.826782 0l0 37.826767l-37.826782 0z" fill-rule="evenodd"/><path stroke="#000000" stroke-width="1.0" stroke-linejoin="round" stroke-linecap="butt" d="m974.92914 189.13387l37.826782 0l0 37.826767l-37.826782 0z" fill-rule="evenodd"/><path fill="#000000" fill-opacity="0.0" d="m899.2756 226.96063l37.826782 0l0 37.826782l-37.826782 0z" fill-rule="evenodd"/><path stroke="#000000" stroke-width="1.0" stroke-linejoin="round" stroke-linecap="butt" d="m899.2756 226.96063l37.826782 0l0 37.826782l-37.826782 0z" fill-rule="evenodd"/><path fill="#244a13" fill-opacity="0.88" d="m937.10236 226.96063l37.826782 0l0 37.826782l-37.826782 0z" fill-rule="evenodd"/><path stroke="#000000" stroke-width="1.0" stroke-linejoin="round" stroke-linecap="butt" d="m937.10236 226.96063l37.826782 0l0 37.826782l-37.826782 0z" fill-rule="evenodd"/><path fill="#244a13" fill-opacity="0.88" d="m974.92914 226.96063l37.826782 0l0 37.826782l-37.826782 0z" fill-rule="evenodd"/><path stroke="#000000" stroke-width="1.0" stroke-linejoin="round" stroke-linecap="butt" d="m974.92914 226.96063l37.826782 0l0 37.826782l-37.826782 0z" fill-rule="evenodd"/><path fill="#000000" fill-opacity="0.0" d="m1012.7559 37.82677l37.82672 0l0 37.82677l-37.82672 0z" fill-rule="evenodd"/><path stroke="#000000" stroke-width="1.0" stroke-linejoin="round" stroke-linecap="butt" d="m1012.7559 37.82677l37.82672 0l0 37.82677l-37.82672 0z" fill-rule="evenodd"/><path fill="#000000" fill-opacity="0.0" d="m1050.5826 37.82677l37.826782 0l0 37.82677l-37.826782 0z" fill-rule="evenodd"/><path stroke="#000000" stroke-width="1.0" stroke-linejoin="round" stroke-linecap="butt" d="m1050.5826 37.82677l37.826782 0l0 37.82677l-37.826782 0z" fill-rule="evenodd"/><path fill="#000000" fill-opacity="0.0" d="m1088.4094 37.82677l37.826782 0l0 37.82677l-37.826782 0z" fill-rule="evenodd"/><path stroke="#000000" stroke-width="1.0" stroke-linejoin="round" stroke-linecap="butt" d="m1088.4094 37.82677l37.826782 0l0 37.82677l-37.826782 0z" fill-rule="evenodd"/><path fill="#000000" fill-opacity="0.0" d="m1012.7559 75.65354l37.82672 0l0 37.826775l-37.82672 0z" fill-rule="evenodd"/><path stroke="#000000" stroke-width="1.0" stroke-linejoin="round" stroke-linecap="butt" d="m1012.7559 75.65354l37.82672 0l0 37.826775l-37.82672 0z" fill-rule="evenodd"/><path fill="#000000" fill-opacity="0.0" d="m1050.5826 75.65354l37.826782 0l0 37.826775l-37.826782 0z" fill-rule="evenodd"/><path stroke="#000000" stroke-width="1.0" stroke-linejoin="round" stroke-linecap="butt" d="m1050.5826 75.65354l37.826782 0l0 37.826775l-37.826782 0z" fill-rule="evenodd"/><path fill="#000000" fill-opacity="0.0" d="m1088.4094 75.65354l37.826782 0l0 37.826775l-37.826782 0z" fill-rule="evenodd"/><path stroke="#000000" stroke-width="1.0" stroke-linejoin="round" stroke-linecap="butt" d="m1088.4094 75.65354l37.826782 0l0 37.826775l-37.826782 0z" fill-rule="evenodd"/><path fill="#000000" fill-opacity="0.0" d="m1012.7559 113.480316l37.82672 0l0 37.826767l-37.82672 0z" fill-rule="evenodd"/><path stroke="#000000" stroke-width="1.0" stroke-linejoin="round" stroke-linecap="butt" d="m1012.7559 113.480316l37.82672 0l0 37.826767l-37.82672 0z" fill-rule="evenodd"/><path fill="#000000" fill-opacity="0.0" d="m1050.5826 113.480316l37.826782 0l0 37.826767l-37.826782 0z" fill-rule="evenodd"/><path stroke="#000000" stroke-width="1.0" stroke-linejoin="round" stroke-linecap="butt" d="m1050.5826 113.480316l37.826782 0l0 37.826767l-37.826782 0z" fill-rule="evenodd"/><path fill="#000000" fill-opacity="0.0" d="m1088.4094 113.480316l37.826782 0l0 37.826767l-37.826782 0z" fill-rule="evenodd"/><path stroke="#000000" stroke-width="1.0" stroke-linejoin="round" stroke-linecap="butt" d="m1088.4094 113.480316l37.826782 0l0 37.826767l-37.826782 0z" fill-rule="evenodd"/><path fill="#000000" fill-opacity="0.0" d="m1012.7559 151.30708l37.82672 0l0 37.826782l-37.82672 0z" fill-rule="evenodd"/><path stroke="#000000" stroke-width="1.0" stroke-linejoin="round" stroke-linecap="butt" d="m1012.7559 151.30708l37.82672 0l0 37.826782l-37.82672 0z" fill-rule="evenodd"/><path fill="#000000" fill-opacity="0.0" d="m1050.5826 151.30708l37.826782 0l0 37.826782l-37.826782 0z" fill-rule="evenodd"/><path stroke="#000000" stroke-width="1.0" stroke-linejoin="round" stroke-linecap="butt" d="m1050.5826 151.30708l37.826782 0l0 37.826782l-37.826782 0z" fill-rule="evenodd"/><path fill="#000000" fill-opacity="0.0" d="m1088.4094 151.30708l37.826782 0l0 37.826782l-37.826782 0z" fill-rule="evenodd"/><path stroke="#000000" stroke-width="1.0" stroke-linejoin="round" stroke-linecap="butt" d="m1088.4094 151.30708l37.826782 0l0 37.826782l-37.826782 0z" fill-rule="evenodd"/><path fill="#000000" fill-opacity="0.0" d="m1012.7559 189.13387l37.82672 0l0 37.826767l-37.82672 0z" fill-rule="evenodd"/><path stroke="#000000" stroke-width="1.0" stroke-linejoin="round" stroke-linecap="butt" d="m1012.7559 189.13387l37.82672 0l0 37.826767l-37.82672 0z" fill-rule="evenodd"/><path fill="#000000" fill-opacity="0.0" d="m1050.5826 189.13387l37.826782 0l0 37.826767l-37.826782 0z" fill-rule="evenodd"/><path stroke="#000000" stroke-width="1.0" stroke-linejoin="round" stroke-linecap="butt" d="m1050.5826 189.13387l37.826782 0l0 37.826767l-37.826782 0z" fill-rule="evenodd"/><path fill="#000000" fill-opacity="0.0" d="m1088.4094 189.13387l37.826782 0l0 37.826767l-37.826782 0z" fill-rule="evenodd"/><path stroke="#000000" stroke-width="1.0" stroke-linejoin="round" stroke-linecap="butt" d="m1088.4094 189.13387l37.826782 0l0 37.826767l-37.826782 0z" fill-rule="evenodd"/><path fill="#000000" fill-opacity="0.0" d="m1012.7559 226.96063l37.82672 0l0 37.826782l-37.82672 0z" fill-rule="evenodd"/><path stroke="#000000" stroke-width="1.0" stroke-linejoin="round" stroke-linecap="butt" d="m1012.7559 226.96063l37.82672 0l0 37.826782l-37.82672 0z" fill-rule="evenodd"/><path fill="#000000" fill-opacity="0.0" d="m1050.5826 226.96063l37.826782 0l0 37.826782l-37.826782 0z" fill-rule="evenodd"/><path stroke="#000000" stroke-width="1.0" stroke-linejoin="round" stroke-linecap="butt" d="m1050.5826 226.96063l37.826782 0l0 37.826782l-37.826782 0z" fill-rule="evenodd"/><path fill="#000000" fill-opacity="0.0" d="m1088.4094 226.96063l37.826782 0l0 37.826782l-37.826782 0z" fill-rule="evenodd"/><path stroke="#000000" stroke-width="1.0" stroke-linejoin="round" stroke-linecap="butt" d="m1088.4094 226.96063l37.826782 0l0 37.826782l-37.826782 0z" fill-rule="evenodd"/><path fill="#000000" fill-opacity="0.0" d="m1126.2362 37.82677l37.826782 0l0 37.82677l-37.826782 0z" fill-rule="evenodd"/><path stroke="#000000" stroke-width="1.0" stroke-linejoin="round" stroke-linecap="butt" d="m1126.2362 37.82677l37.826782 0l0 37.82677l-37.826782 0z" fill-rule="evenodd"/><path fill="#000000" fill-opacity="0.0" d="m1126.2362 75.65354l37.826782 0l0 37.826775l-37.826782 0z" fill-rule="evenodd"/><path stroke="#000000" stroke-width="1.0" stroke-linejoin="round" stroke-linecap="butt" d="m1126.2362 75.65354l37.826782 0l0 37.826775l-37.826782 0z" fill-rule="evenodd"/><path fill="#000000" fill-opacity="0.0" d="m1126.2362 113.480316l37.826782 0l0 37.826767l-37.826782 0z" fill-rule="evenodd"/><path stroke="#000000" stroke-width="1.0" stroke-linejoin="round" stroke-linecap="butt" d="m1126.2362 113.480316l37.826782 0l0 37.826767l-37.826782 0z" fill-rule="evenodd"/><path fill="#000000" fill-opacity="0.0" d="m1126.2362 151.30708l37.826782 0l0 37.826782l-37.826782 0z" fill-rule="evenodd"/><path stroke="#000000" stroke-width="1.0" stroke-linejoin="round" stroke-linecap="butt" d="m1126.2362 151.30708l37.826782 0l0 37.826782l-37.826782 0z" fill-rule="evenodd"/><path fill="#000000" fill-opacity="0.0" d="m1126.2362 189.13387l37.826782 0l0 37.826767l-37.826782 0z" fill-rule="evenodd"/><path stroke="#000000" stroke-width="1.0" stroke-linejoin="round" stroke-linecap="butt" d="m1126.2362 189.13387l37.826782 0l0 37.826767l-37.826782 0z" fill-rule="evenodd"/><path fill="#000000" fill-opacity="0.0" d="m1126.2362 226.96063l37.826782 0l0 37.826782l-37.826782 0z" fill-rule="evenodd"/><path stroke="#000000" stroke-width="1.0" stroke-linejoin="round" stroke-linecap="butt" d="m1126.2362 226.96063l37.826782 0l0 37.826782l-37.826782 0z" fill-rule="evenodd"/><path fill="#000000" fill-opacity="0.0" d="m785.7953 264.7874l37.826782 0l0 37.82675l-37.826782 0z" fill-rule="evenodd"/><path stroke="#000000" stroke-width="1.0" stroke-linejoin="round" stroke-linecap="butt" d="m785.7953 264.7874l37.826782 0l0 37.82675l-37.826782 0z" fill-rule="evenodd"/><path fill="#000000" fill-opacity="0.0" d="m823.6221 264.7874l37.82672 0l0 37.82675l-37.82672 0z" fill-rule="evenodd"/><path stroke="#000000" stroke-width="1.0" stroke-linejoin="round" stroke-linecap="butt" d="m823.6221 264.7874l37.82672 0l0 37.82675l-37.82672 0z" fill-rule="evenodd"/><path fill="#000000" fill-opacity="0.0" d="m861.4488 264.7874l37.826782 0l0 37.82675l-37.826782 0z" fill-rule="evenodd"/><path stroke="#000000" stroke-width="1.0" stroke-linejoin="round" stroke-linecap="butt" d="m861.4488 264.7874l37.826782 0l0 37.82675l-37.826782 0z" fill-rule="evenodd"/><path fill="#000000" fill-opacity="0.0" d="m785.7953 302.61417l37.826782 0l0 37.826782l-37.826782 0z" fill-rule="evenodd"/><path stroke="#000000" stroke-width="1.0" stroke-linejoin="round" stroke-linecap="butt" d="m785.7953 302.61417l37.826782 0l0 37.826782l-37.826782 0z" fill-rule="evenodd"/><path fill="#000000" fill-opacity="0.0" d="m823.6221 302.61417l37.82672 0l0 37.826782l-37.82672 0z" fill-rule="evenodd"/><path stroke="#000000" stroke-width="1.0" stroke-linejoin="round" stroke-linecap="butt" d="m823.6221 302.61417l37.82672 0l0 37.826782l-37.82672 0z" fill-rule="evenodd"/><path fill="#000000" fill-opacity="0.0" d="m861.4488 302.61417l37.826782 0l0 37.826782l-37.826782 0z" fill-rule="evenodd"/><path stroke="#000000" stroke-width="1.0" stroke-linejoin="round" stroke-linecap="butt" d="m861.4488 302.61417l37.826782 0l0 37.826782l-37.826782 0z" fill-rule="evenodd"/><path fill="#000000" fill-opacity="0.0" d="m785.7953 340.44095l37.826782 0l0 37.826782l-37.826782 0z" fill-rule="evenodd"/><path stroke="#000000" stroke-width="1.0" stroke-linejoin="round" stroke-linecap="butt" d="m785.7953 340.44095l37.826782 0l0 37.826782l-37.826782 0z" fill-rule="evenodd"/><path fill="#000000" fill-opacity="0.0" d="m823.6221 340.44095l37.82672 0l0 37.826782l-37.82672 0z" fill-rule="evenodd"/><path stroke="#000000" stroke-width="1.0" stroke-linejoin="round" stroke-linecap="butt" d="m823.6221 340.44095l37.82672 0l0 37.826782l-37.82672 0z" fill-rule="evenodd"/><path fill="#000000" fill-opacity="0.0" d="m861.4488 340.44095l37.826782 0l0 37.826782l-37.826782 0z" fill-rule="evenodd"/><path stroke="#000000" stroke-width="1.0" stroke-linejoin="round" stroke-linecap="butt" d="m861.4488 340.44095l37.826782 0l0 37.826782l-37.826782 0z" fill-rule="evenodd"/><path fill="#000000" fill-opacity="0.0" d="m785.7953 378.26773l37.826782 0l0 37.82675l-37.826782 0z" fill-rule="evenodd"/><path stroke="#000000" stroke-width="1.0" stroke-linejoin="round" stroke-linecap="butt" d="m785.7953 378.26773l37.826782 0l0 37.82675l-37.826782 0z" fill-rule="evenodd"/><path fill="#000000" fill-opacity="0.0" d="m823.6221 378.26773l37.82672 0l0 37.82675l-37.82672 0z" fill-rule="evenodd"/><path stroke="#000000" stroke-width="1.0" stroke-linejoin="round" stroke-linecap="butt" d="m823.6221 378.26773l37.82672 0l0 37.82675l-37.82672 0z" fill-rule="evenodd"/><path fill="#000000" fill-opacity="0.0" d="m861.4488 378.26773l37.826782 0l0 37.82675l-37.826782 0z" fill-rule="evenodd"/><path stroke="#000000" stroke-width="1.0" stroke-linejoin="round" stroke-linecap="butt" d="m861.4488 378.26773l37.826782 0l0 37.82675l-37.826782 0z" fill-rule="evenodd"/><path fill="#000000" fill-opacity="0.0" d="m899.2756 264.7874l37.826782 0l0 37.82675l-37.826782 0z" fill-rule="evenodd"/><path stroke="#000000" stroke-width="1.0" stroke-linejoin="round" stroke-linecap="butt" d="m899.2756 264.7874l37.826782 0l0 37.82675l-37.826782 0z" fill-rule="evenodd"/><path fill="#244a13" fill-opacity="0.88" d="m937.10236 264.7874l37.826782 0l0 37.82675l-37.826782 0z" fill-rule="evenodd"/><path stroke="#000000" stroke-width="1.0" stroke-linejoin="round" stroke-linecap="butt" d="m937.10236 264.7874l37.826782 0l0 37.82675l-37.826782 0z" fill-rule="evenodd"/><path fill="#244a13" fill-opacity="0.88" d="m974.92914 264.7874l37.826782 0l0 37.82675l-37.826782 0z" fill-rule="evenodd"/><path stroke="#000000" stroke-width="1.0" stroke-linejoin="round" stroke-linecap="butt" d="m974.92914 264.7874l37.826782 0l0 37.82675l-37.826782 0z" fill-rule="evenodd"/><path fill="#000000" fill-opacity="0.0" d="m899.2756 302.61417l37.826782 0l0 37.826782l-37.826782 0z" fill-rule="evenodd"/><path stroke="#000000" stroke-width="1.0" stroke-linejoin="round" stroke-linecap="butt" d="m899.2756 302.61417l37.826782 0l0 37.826782l-37.826782 0z" fill-rule="evenodd"/><path fill="#244a13" fill-opacity="0.88" d="m937.10236 302.61417l37.826782 0l0 37.826782l-37.826782 0z" fill-rule="evenodd"/><path stroke="#000000" stroke-width="1.0" stroke-linejoin="round" stroke-linecap="butt" d="m937.10236 302.61417l37.826782 0l0 37.826782l-37.826782 0z" fill-rule="evenodd"/><path fill="#244a13" fill-opacity="0.88" d="m974.92914 302.61417l37.826782 0l0 37.826782l-37.826782 0z" fill-rule="evenodd"/><path stroke="#000000" stroke-width="1.0" stroke-linejoin="round" stroke-linecap="butt" d="m974.92914 302.61417l37.826782 0l0 37.826782l-37.826782 0z" fill-rule="evenodd"/><path fill="#000000" fill-opacity="0.0" d="m899.2756 340.44095l37.826782 0l0 37.826782l-37.826782 0z" fill-rule="evenodd"/><path stroke="#000000" stroke-width="1.0" stroke-linejoin="round" stroke-linecap="butt" d="m899.2756 340.44095l37.826782 0l0 37.826782l-37.826782 0z" fill-rule="evenodd"/><path fill="#000000" fill-opacity="0.0" d="m937.10236 340.44095l37.826782 0l0 37.826782l-37.826782 0z" fill-rule="evenodd"/><path stroke="#000000" stroke-width="1.0" stroke-linejoin="round" stroke-linecap="butt" d="m937.10236 340.44095l37.826782 0l0 37.826782l-37.826782 0z" fill-rule="evenodd"/><path fill="#000000" fill-opacity="0.0" d="m974.92914 340.44095l37.826782 0l0 37.826782l-37.826782 0z" fill-rule="evenodd"/><path stroke="#000000" stroke-width="1.0" stroke-linejoin="round" stroke-linecap="butt" d="m974.92914 340.44095l37.826782 0l0 37.826782l-37.826782 0z" fill-rule="evenodd"/><path fill="#000000" fill-opacity="0.0" d="m899.2756 378.26773l37.826782 0l0 37.82675l-37.826782 0z" fill-rule="evenodd"/><path stroke="#000000" stroke-width="1.0" stroke-linejoin="round" stroke-linecap="butt" d="m899.2756 378.26773l37.826782 0l0 37.82675l-37.826782 0z" fill-rule="evenodd"/><path fill="#000000" fill-opacity="0.0" d="m937.10236 378.26773l37.826782 0l0 37.82675l-37.826782 0z" fill-rule="evenodd"/><path stroke="#000000" stroke-width="1.0" stroke-linejoin="round" stroke-linecap="butt" d="m937.10236 378.26773l37.826782 0l0 37.82675l-37.826782 0z" fill-rule="evenodd"/><path fill="#000000" fill-opacity="0.0" d="m974.92914 378.26773l37.826782 0l0 37.82675l-37.826782 0z" fill-rule="evenodd"/><path stroke="#000000" stroke-width="1.0" stroke-linejoin="round" stroke-linecap="butt" d="m974.92914 378.26773l37.826782 0l0 37.82675l-37.826782 0z" fill-rule="evenodd"/><path fill="#244a13" fill-opacity="0.88" d="m1012.7559 264.7874l37.82672 0l0 37.82675l-37.82672 0z" fill-rule="evenodd"/><path stroke="#000000" stroke-width="1.0" stroke-linejoin="round" stroke-linecap="butt" d="m1012.7559 264.7874l37.82672 0l0 37.82675l-37.82672 0z" fill-rule="evenodd"/><path fill="#000000" fill-opacity="0.0" d="m1050.5826 264.7874l37.826782 0l0 37.82675l-37.826782 0z" fill-rule="evenodd"/><path stroke="#000000" stroke-width="1.0" stroke-linejoin="round" stroke-linecap="butt" d="m1050.5826 264.7874l37.826782 0l0 37.82675l-37.826782 0z" fill-rule="evenodd"/><path fill="#000000" fill-opacity="0.0" d="m1088.4094 264.7874l37.826782 0l0 37.82675l-37.826782 0z" fill-rule="evenodd"/><path stroke="#000000" stroke-width="1.0" stroke-linejoin="round" stroke-linecap="butt" d="m1088.4094 264.7874l37.826782 0l0 37.82675l-37.826782 0z" fill-rule="evenodd"/><path fill="#244a13" fill-opacity="0.88" d="m1012.7559 302.61417l37.82672 0l0 37.826782l-37.82672 0z" fill-rule="evenodd"/><path stroke="#000000" stroke-width="1.0" stroke-linejoin="round" stroke-linecap="butt" d="m1012.7559 302.61417l37.82672 0l0 37.826782l-37.82672 0z" fill-rule="evenodd"/><path fill="#244a13" fill-opacity="0.88" d="m1050.5826 302.61417l37.826782 0l0 37.826782l-37.826782 0z" fill-rule="evenodd"/><path stroke="#000000" stroke-width="1.0" stroke-linejoin="round" stroke-linecap="butt" d="m1050.5826 302.61417l37.826782 0l0 37.826782l-37.826782 0z" fill-rule="evenodd"/><path fill="#000000" fill-opacity="0.0" d="m1088.4094 302.61417l37.826782 0l0 37.826782l-37.826782 0z" fill-rule="evenodd"/><path stroke="#000000" stroke-width="1.0" stroke-linejoin="round" stroke-linecap="butt" d="m1088.4094 302.61417l37.826782 0l0 37.826782l-37.826782 0z" fill-rule="evenodd"/><path fill="#000000" fill-opacity="0.0" d="m1012.7559 340.44095l37.82672 0l0 37.826782l-37.82672 0z" fill-rule="evenodd"/><path stroke="#000000" stroke-width="1.0" stroke-linejoin="round" stroke-linecap="butt" d="m1012.7559 340.44095l37.82672 0l0 37.826782l-37.82672 0z" fill-rule="evenodd"/><path fill="#000000" fill-opacity="0.0" d="m1050.5826 340.44095l37.826782 0l0 37.826782l-37.826782 0z" fill-rule="evenodd"/><path stroke="#000000" stroke-width="1.0" stroke-linejoin="round" stroke-linecap="butt" d="m1050.5826 340.44095l37.826782 0l0 37.826782l-37.826782 0z" fill-rule="evenodd"/><path fill="#000000" fill-opacity="0.0" d="m1088.4094 340.44095l37.826782 0l0 37.826782l-37.826782 0z" fill-rule="evenodd"/><path stroke="#000000" stroke-width="1.0" stroke-linejoin="round" stroke-linecap="butt" d="m1088.4094 340.44095l37.826782 0l0 37.826782l-37.826782 0z" fill-rule="evenodd"/><path fill="#000000" fill-opacity="0.0" d="m1012.7559 378.26773l37.82672 0l0 37.82675l-37.82672 0z" fill-rule="evenodd"/><path stroke="#000000" stroke-width="1.0" stroke-linejoin="round" stroke-linecap="butt" d="m1012.7559 378.26773l37.82672 0l0 37.82675l-37.82672 0z" fill-rule="evenodd"/><path fill="#000000" fill-opacity="0.0" d="m1050.5826 378.26773l37.826782 0l0 37.82675l-37.826782 0z" fill-rule="evenodd"/><path stroke="#000000" stroke-width="1.0" stroke-linejoin="round" stroke-linecap="butt" d="m1050.5826 378.26773l37.826782 0l0 37.82675l-37.826782 0z" fill-rule="evenodd"/><path fill="#000000" fill-opacity="0.0" d="m1088.4094 378.26773l37.826782 0l0 37.82675l-37.826782 0z" fill-rule="evenodd"/><path stroke="#000000" stroke-width="1.0" stroke-linejoin="round" stroke-linecap="butt" d="m1088.4094 378.26773l37.826782 0l0 37.82675l-37.826782 0z" fill-rule="evenodd"/><path fill="#000000" fill-opacity="0.0" d="m1126.2362 264.7874l37.826782 0l0 37.82675l-37.826782 0z" fill-rule="evenodd"/><path stroke="#000000" stroke-width="1.0" stroke-linejoin="round" stroke-linecap="butt" d="m1126.2362 264.7874l37.826782 0l0 37.82675l-37.826782 0z" fill-rule="evenodd"/><path fill="#000000" fill-opacity="0.0" d="m1126.2362 302.61417l37.826782 0l0 37.826782l-37.826782 0z" fill-rule="evenodd"/><path stroke="#000000" stroke-width="1.0" stroke-linejoin="round" stroke-linecap="butt" d="m1126.2362 302.61417l37.826782 0l0 37.826782l-37.826782 0z" fill-rule="evenodd"/><path fill="#000000" fill-opacity="0.0" d="m1126.2362 340.44095l37.826782 0l0 37.826782l-37.826782 0z" fill-rule="evenodd"/><path stroke="#000000" stroke-width="1.0" stroke-linejoin="round" stroke-linecap="butt" d="m1126.2362 340.44095l37.826782 0l0 37.826782l-37.826782 0z" fill-rule="evenodd"/><path fill="#000000" fill-opacity="0.0" d="m1126.2362 378.26773l37.826782 0l0 37.82675l-37.826782 0z" fill-rule="evenodd"/><path stroke="#000000" stroke-width="1.0" stroke-linejoin="round" stroke-linecap="butt" d="m1126.2362 378.26773l37.826782 0l0 37.82675l-37.826782 0z" fill-rule="evenodd"/><path fill="#000000" fill-opacity="0.0" d="m785.7953 0.005249344l37.826782 0l0 37.82677l-37.826782 0z" fill-rule="evenodd"/><path fill="#000000" d="m805.9329 22.758635l-1.453125 0l0 -5.515625q-0.796875 0.75 -1.890625 1.109375l0 -1.328125q0.578125 -0.1875 1.234375 -0.703125q0.671875 -0.53125 0.921875 -1.21875l1.1875 0l0 7.65625z" fill-rule="nonzero"/><path fill="#000000" fill-opacity="0.0" d="m823.6221 0l37.82672 0l0 37.82677l-37.82672 0z" fill-rule="evenodd"/><path fill="#000000" d="m844.9628 21.39401l0 1.359375l-5.125 0q0.078125 -0.765625 0.5 -1.453125q0.421875 -0.703125 1.640625 -1.828125q0.984375 -0.921875 1.21875 -1.25q0.296875 -0.453125 0.296875 -0.90625q0 -0.484375 -0.265625 -0.75q-0.265625 -0.265625 -0.71875 -0.265625q-0.453125 0 -0.734375 0.28125q-0.265625 0.28125 -0.3125 0.921875l-1.453125 -0.15625q0.125 -1.203125 0.8125 -1.71875q0.6875 -0.53125 1.71875 -0.53125q1.125 0 1.765625 0.609375q0.65625 0.609375 0.65625 1.515625q0 0.515625 -0.1875 0.984375q-0.1875 0.453125 -0.578125 0.96875q-0.265625 0.34375 -0.96875 0.984375q-0.6875 0.625 -0.875 0.828125q-0.171875 0.203125 -0.296875 0.40625l2.90625 0z" fill-rule="nonzero"/><path fill="#000000" fill-opacity="0.0" d="m747.9685 37.82677l37.826782 0l0 37.82677l-37.826782 0z" fill-rule="evenodd"/><path fill="#000000" d="m768.10614 60.58016l-1.453125 0l0 -5.515625q-0.796875 0.75 -1.890625 1.109375l0 -1.328125q0.578125 -0.1875 1.234375 -0.703125q0.671875 -0.53125 0.921875 -1.21875l1.1875 0l0 7.65625z" fill-rule="nonzero"/><path fill="#000000" fill-opacity="0.0" d="m747.9685 75.65354l37.826782 0l0 37.826775l-37.826782 0z" fill-rule="evenodd"/><path fill="#000000" d="m769.30927 97.047554l0 1.359375l-5.125 0q0.078125 -0.765625 0.5 -1.453125q0.421875 -0.703125 1.640625 -1.828125q0.984375 -0.921875 1.21875 -1.25q0.296875 -0.453125 0.296875 -0.90625q0 -0.484375 -0.265625 -0.75q-0.265625 -0.265625 -0.71875 -0.265625q-0.453125 0 -0.734375 0.28125q-0.265625 0.28125 -0.3125 0.921875l-1.453125 -0.15625q0.125 -1.203125 0.8125 -1.71875q0.6875 -0.53125 1.71875 -0.53125q1.125 0 1.765625 0.609375q0.65625 0.609375 0.65625 1.515625q0 0.515625 -0.1875 0.984375q-0.1875 0.453125 -0.578125 0.96875q-0.265625 0.34375 -0.96875 0.984375q-0.6875 0.625 -0.875 0.828125q-0.171875 0.203125 -0.296875 0.40625l2.90625 0z" fill-rule="nonzero"/><path fill="#000000" fill-opacity="0.0" d="m747.9685 113.480316l37.826782 0l0 37.826767l-37.826782 0z" fill-rule="evenodd"/><path fill="#000000" d="m769.6944 136.2337l0 -1.46875l1.46875 0l0 1.46875l-1.46875 0zm-3.546875 0l0 -1.46875l1.46875 0l0 1.46875l-1.46875 0zm-3.546875 0l0 -1.46875l1.46875 0l0 1.46875l-1.46875 0z" fill-rule="nonzero"/><path fill="#000000" fill-opacity="0.0" d="m861.4488 0l37.826782 0l0 37.82677l-37.826782 0z" fill-rule="evenodd"/><path fill="#000000" d="m883.1747 22.753386l0 -1.46875l1.46875 0l0 1.46875l-1.46875 0zm-3.546875 0l0 -1.46875l1.46875 0l0 1.46875l-1.46875 0zm-3.546875 0l0 -1.46875l1.46875 0l0 1.46875l-1.46875 0z" fill-rule="nonzero"/><path fill="#000000" fill-opacity="0.0" d="m899.2756 0l37.826782 0l0 37.82677l-37.826782 0z" fill-rule="evenodd"/><path fill="#000000" d="m915.94446 22.753386l0 -7.625l1.453125 0l0 4.046875l1.71875 -1.953125l1.796875 0l-1.890625 2.03125l2.03125 3.5l-1.578125 0l-1.390625 -2.484375l-0.6875 0.71875l0 1.765625l-1.453125 0z" fill-rule="nonzero"/><path fill="#000000" fill-opacity="0.0" d="m747.9685 151.30708l37.826782 0l0 37.826782l-37.826782 0z" fill-rule="evenodd"/><path fill="#000000" d="m764.6374 174.06047l0 -7.625l1.453125 0l0 4.046875l1.71875 -1.953125l1.796875 0l-1.890625 2.03125l2.03125 3.5l-1.578125 0l-1.390625 -2.484375l-0.6875 0.71875l0 1.765625l-1.453125 0z" fill-rule="nonzero"/><path fill="#000000" fill-opacity="0.0" d="m747.9685 189.13387l37.826782 0l0 37.826767l-37.826782 0z" fill-rule="evenodd"/><path fill="#000000" d="m758.5626 211.88724l0 -7.625l1.453125 0l0 4.046875l1.71875 -1.953125l1.796875 0l-1.890625 2.03125l2.03125 3.5l-1.578125 0l-1.390625 -2.484375l-0.6875 0.71875l0 1.765625l-1.453125 0zm7.6452026 -1.09375l0 -1.984375l-2.0 0l0 -1.375l2.0 0l0 -1.984375l1.328125 0l0 1.984375l2.015625 0l0 1.375l-2.015625 0l0 1.984375l-1.328125 0zm7.9730835 1.09375l-1.453125 0l0 -5.515625q-0.796875 0.75 -1.890625 1.109375l0 -1.328125q0.578125 -0.1875 1.234375 -0.703125q0.671875 -0.53125 0.921875 -1.21875l1.1875 0l0 7.65625z" fill-rule="nonzero"/><path fill="#000000" fill-opacity="0.0" d="m937.10236 0l37.826782 0l0 37.82677l-37.826782 0z" fill-rule="evenodd"/><path fill="#000000" d="m947.6965 22.753386l0 -7.625l1.453125 0l0 4.046875l1.71875 -1.953125l1.796875 0l-1.890625 2.03125l2.03125 3.5l-1.578125 0l-1.390625 -2.484375l-0.6875 0.71875l0 1.765625l-1.453125 0zm7.6452637 -1.09375l0 -1.984375l-2.0 0l0 -1.375l2.0 0l0 -1.984375l1.328125 0l0 1.984375l2.015625 0l0 1.375l-2.015625 0l0 1.984375l-1.328125 0zm7.9730835 1.09375l-1.453125 0l0 -5.515625q-0.796875 0.75 -1.890625 1.109375l0 -1.328125q0.578125 -0.1875 1.234375 -0.703125q0.671875 -0.53125 0.921875 -1.21875l1.1875 0l0 7.65625z" fill-rule="nonzero"/><path fill="#000000" fill-opacity="0.0" d="m747.9685 226.96063l37.826782 0l0 37.826782l-37.826782 0z" fill-rule="evenodd"/><path fill="#000000" fill-opacity="0.0" d="m974.92914 0l37.826782 0l0 37.82677l-37.826782 0z" fill-rule="evenodd"/><path fill="#000000" d="m985.52325 22.753386l0 -7.625l1.453125 0l0 4.046875l1.71875 -1.953125l1.796875 0l-1.890625 2.03125l2.03125 3.5l-1.578125 0l-1.390625 -2.484375l-0.6875 0.71875l0 1.765625l-1.453125 0zm7.6452026 -1.09375l0 -1.984375l-2.0 0l0 -1.375l2.0 0l0 -1.984375l1.328125 0l0 1.984375l2.015625 0l0 1.375l-2.015625 0l0 1.984375l-1.328125 0zm9.1762085 -0.265625l0 1.359375l-5.125 0q0.078125 -0.765625 0.5 -1.453125q0.421875 -0.703125 1.640625 -1.828125q0.984375 -0.921875 1.21875 -1.25q0.296875 -0.453125 0.296875 -0.90625q0 -0.484375 -0.265625 -0.75q-0.265625 -0.265625 -0.71875 -0.265625q-0.453125 0 -0.734375 0.28125q-0.265625 0.28125 -0.3125 0.921875l-1.453125 -0.15625q0.125 -1.203125 0.8125 -1.71875q0.6875 -0.53125 1.71875 -0.53125q1.125 0 1.765625 0.609375q0.65625 0.609375 0.65625 1.515625q0 0.515625 -0.1875 0.984375q-0.1875 0.453125 -0.578125 0.96875q-0.265625 0.34375 -0.96875 0.984375q-0.6875 0.625 -0.875 0.828125q-0.171875 0.203125 -0.296875 0.40625l2.90625 0z" fill-rule="nonzero"/><path fill="#000000" fill-opacity="0.0" d="m1012.7559 0l37.82672 0l0 37.82677l-37.82672 0z" fill-rule="evenodd"/><path fill="#000000" d="m1034.4818 22.753386l0 -1.46875l1.46875 0l0 1.46875l-1.46875 0zm-3.546875 0l0 -1.46875l1.46875 0l0 1.46875l-1.46875 0zm-3.546875 0l0 -1.46875l1.46875 0l0 1.46875l-1.46875 0z" fill-rule="nonzero"/><path fill="#000000" fill-opacity="0.0" d="m747.9685 224.86613l37.826782 0l0 42.015762l-37.826782 0z" fill-rule="evenodd"/><path fill="#000000" d="m758.5626 249.71402l0 -7.625l1.453125 0l0 4.046875l1.71875 -1.953125l1.796875 0l-1.890625 2.03125l2.03125 3.5l-1.578125 0l-1.390625 -2.484375l-0.6875 0.71875l0 1.765625l-1.453125 0zm7.6452026 -1.09375l0 -1.984375l-2.0 0l0 -1.375l2.0 0l0 -1.984375l1.328125 0l0 1.984375l2.015625 0l0 1.375l-2.015625 0l0 1.984375l-1.328125 0zm9.1762085 -0.265625l0 1.359375l-5.125 0q0.078125 -0.765625 0.5 -1.453125q0.421875 -0.703125 1.640625 -1.828125q0.984375 -0.921875 1.21875 -1.25q0.296875 -0.453125 0.296875 -0.90625q0 -0.484375 -0.265625 -0.75q-0.265625 -0.265625 -0.71875 -0.265625q-0.453125 0 -0.734375 0.28125q-0.265625 0.28125 -0.3125 0.921875l-1.453125 -0.15625q0.125 -1.203125 0.8125 -1.71875q0.6875 -0.53125 1.71875 -0.53125q1.125 0 1.765625 0.609375q0.65625 0.609375 0.65625 1.515625q0 0.515625 -0.1875 0.984375q-0.1875 0.453125 -0.578125 0.96875q-0.265625 0.34375 -0.96875 0.984375q-0.6875 0.625 -0.875 0.828125q-0.171875 0.203125 -0.296875 0.40625l2.90625 0z" fill-rule="nonzero"/><path fill="#000000" fill-opacity="0.0" d="m747.9685 264.7874l37.826782 0l0 37.82675l-37.826782 0z" fill-rule="evenodd"/><path fill="#000000" d="m769.6944 287.5408l0 -1.46875l1.46875 0l0 1.46875l-1.46875 0zm-3.546875 0l0 -1.46875l1.46875 0l0 1.46875l-1.46875 0zm-3.546875 0l0 -1.46875l1.46875 0l0 1.46875l-1.46875 0z" fill-rule="nonzero"/><path fill="#000000" fill-opacity="0.0" d="m1050.5826 0l37.826782 0l0 37.82677l-37.826782 0z" fill-rule="evenodd"/><path fill="#000000" d="m1061.1768 22.753386l0 -7.625l1.453125 0l0 4.046875l1.71875 -1.953125l1.796875 0l-1.890625 2.03125l2.03125 3.5l-1.578125 0l-1.390625 -2.484375l-0.6875 0.71875l0 1.765625l-1.453125 0zm7.6452637 -1.09375l0 -1.984375l-2.0 0l0 -1.375l2.0 0l0 -1.984375l1.328125 0l0 1.984375l2.015625 0l0 1.375l-2.015625 0l0 1.984375l-1.328125 0zm6.0667725 1.09375l-2.21875 -5.53125l1.53125 0l1.046875 2.828125l0.296875 0.9375q0.109375 -0.359375 0.140625 -0.46875q0.078125 -0.234375 0.15625 -0.46875l1.0625 -2.828125l1.5 0l-2.203125 5.53125l-1.3125 0z" fill-rule="nonzero"/><path fill="#000000" fill-opacity="0.0" d="m1088.4094 0l37.826782 0l0 37.82677l-37.826782 0z" fill-rule="evenodd"/><path fill="#000000" d="m1110.1354 22.753386l0 -1.46875l1.46875 0l0 1.46875l-1.46875 0zm-3.546875 0l0 -1.46875l1.46875 0l0 1.46875l-1.46875 0zm-3.546875 0l0 -1.46875l1.46875 0l0 1.46875l-1.46875 0z" fill-rule="nonzero"/><path fill="#000000" fill-opacity="0.0" d="m1126.2362 0l37.826782 0l0 37.82677l-37.826782 0z" fill-rule="evenodd"/><path fill="#000000" d="m1147.7645 18.86276l-1.4375 0.265625q-0.078125 -0.4375 -0.34375 -0.65625q-0.25 -0.21875 -0.65625 -0.21875q-0.546875 0 -0.875 0.375q-0.3125 0.375 -0.3125 1.265625q0 0.984375 0.328125 1.390625q0.328125 0.40625 0.875 0.40625q0.421875 0 0.6875 -0.234375q0.265625 -0.25 0.375 -0.828125l1.4375 0.25q-0.21875 0.984375 -0.859375 1.5q-0.640625 0.5 -1.703125 0.5q-1.203125 0 -1.9375 -0.765625q-0.71875 -0.765625 -0.71875 -2.109375q0 -1.375 0.71875 -2.140625q0.734375 -0.765625 1.96875 -0.765625q1.0 0 1.59375 0.4375q0.609375 0.4375 0.859375 1.328125z" fill-rule="nonzero"/><path fill="#000000" fill-opacity="0.0" d="m747.9685 302.61417l37.826782 0l0 37.826782l-37.826782 0z" fill-rule="evenodd"/><path fill="#000000" d="m758.5626 325.36755l0 -7.625l1.453125 0l0 4.046875l1.71875 -1.953125l1.796875 0l-1.890625 2.03125l2.03125 3.5l-1.578125 0l-1.390625 -2.484375l-0.6875 0.71875l0 1.765625l-1.453125 0zm7.6452026 -1.09375l0 -1.984375l-2.0 0l0 -1.375l2.0 0l0 -1.984375l1.328125 0l0 1.984375l2.015625 0l0 1.375l-2.015625 0l0 1.984375l-1.328125 0zm6.0668335 1.09375l-2.21875 -5.53125l1.53125 0l1.046875 2.828125l0.296875 0.9375q0.109375 -0.359375 0.140625 -0.46875q0.078125 -0.234375 0.15625 -0.46875l1.0625 -2.828125l1.5 0l-2.203125 5.53125l-1.3125 0z" fill-rule="nonzero"/><path fill="#000000" fill-opacity="0.0" d="m747.9685 340.44095l37.826782 0l0 37.826782l-37.826782 0z" fill-rule="evenodd"/><path fill="#000000" d="m769.6944 363.19434l0 -1.46875l1.46875 0l0 1.46875l-1.46875 0zm-3.546875 0l0 -1.46875l1.46875 0l0 1.46875l-1.46875 0zm-3.546875 0l0 -1.46875l1.46875 0l0 1.46875l-1.46875 0z" fill-rule="nonzero"/><path fill="#000000" fill-opacity="0.0" d="m747.9685 378.26773l37.826782 0l0 37.82675l-37.826782 0z" fill-rule="evenodd"/><path fill="#000000" d="m769.49677 397.13046l-1.4375 0.265625q-0.078125 -0.4375 -0.34375 -0.65625q-0.25 -0.21875 -0.65625 -0.21875q-0.546875 0 -0.875 0.375q-0.3125 0.375 -0.3125 1.265625q0 0.984375 0.328125 1.390625q0.328125 0.40625 0.875 0.40625q0.421875 0 0.6875 -0.234375q0.265625 -0.25 0.375 -0.828125l1.4375 0.25q-0.21875 0.984375 -0.859375 1.5q-0.640625 0.5 -1.703125 0.5q-1.203125 0 -1.9375 -0.765625q-0.71875 -0.765625 -0.71875 -2.109375q0 -1.375 0.71875 -2.140625q0.734375 -0.765625 1.96875 -0.765625q1.0 0 1.59375 0.4375q0.609375 0.4375 0.859375 1.328125z" fill-rule="nonzero"/><path fill="#420104" fill-opacity="0.88" d="m37.82677 189.13387l37.82677 0l0 37.826767l-37.82677 0z" fill-rule="evenodd"/><path stroke="#000000" stroke-width="1.0" stroke-linejoin="round" stroke-linecap="butt" d="m37.82677 189.13387l37.82677 0l0 37.826767l-37.82677 0z" fill-rule="evenodd"/><path fill="#000000" fill-opacity="0.0" d="m75.65354 189.13387l37.826775 0l0 37.826767l-37.826775 0z" fill-rule="evenodd"/><path stroke="#000000" stroke-width="1.0" stroke-linejoin="round" stroke-linecap="butt" d="m75.65354 189.13387l37.826775 0l0 37.826767l-37.826775 0z" fill-rule="evenodd"/><path fill="#000000" fill-opacity="0.0" d="m113.480316 189.13387l37.826767 0l0 37.826767l-37.826767 0z" fill-rule="evenodd"/><path stroke="#000000" stroke-width="1.0" stroke-linejoin="round" stroke-linecap="butt" d="m113.480316 189.13387l37.826767 0l0 37.826767l-37.826767 0z" fill-rule="evenodd"/><path fill="#420104" fill-opacity="0.88" d="m37.82677 226.96063l37.82677 0l0 37.826782l-37.82677 0z" fill-rule="evenodd"/><path stroke="#000000" stroke-width="1.0" stroke-linejoin="round" stroke-linecap="butt" d="m37.82677 226.96063l37.82677 0l0 37.826782l-37.82677 0z" fill-rule="evenodd"/><path fill="#420104" fill-opacity="0.88" d="m75.65354 226.96063l37.826775 0l0 37.826782l-37.826775 0z" fill-rule="evenodd"/><path stroke="#000000" stroke-width="1.0" stroke-linejoin="round" stroke-linecap="butt" d="m75.65354 226.96063l37.826775 0l0 37.826782l-37.826775 0z" fill-rule="evenodd"/><path fill="#000000" fill-opacity="0.0" d="m113.480316 226.96063l37.826767 0l0 37.826782l-37.826767 0z" fill-rule="evenodd"/><path stroke="#000000" stroke-width="1.0" stroke-linejoin="round" stroke-linecap="butt" d="m113.480316 226.96063l37.826767 0l0 37.826782l-37.826767 0z" fill-rule="evenodd"/><path fill="#420104" fill-opacity="0.88" d="m37.82677 264.7874l37.82677 0l0 37.82675l-37.82677 0z" fill-rule="evenodd"/><path stroke="#000000" stroke-width="1.0" stroke-linejoin="round" stroke-linecap="butt" d="m37.82677 264.7874l37.82677 0l0 37.82675l-37.82677 0z" fill-rule="evenodd"/><path fill="#420104" fill-opacity="0.88" d="m75.65354 264.7874l37.826775 0l0 37.82675l-37.826775 0z" fill-rule="evenodd"/><path stroke="#000000" stroke-width="1.0" stroke-linejoin="round" stroke-linecap="butt" d="m75.65354 264.7874l37.826775 0l0 37.82675l-37.826775 0z" fill-rule="evenodd"/><path fill="#420104" fill-opacity="0.88" d="m113.480316 264.7874l37.826767 0l0 37.82675l-37.826767 0z" fill-rule="evenodd"/><path stroke="#000000" stroke-width="1.0" stroke-linejoin="round" stroke-linecap="butt" d="m113.480316 264.7874l37.826767 0l0 37.82675l-37.826767 0z" fill-rule="evenodd"/><path fill="#420104" fill-opacity="0.88" d="m37.82677 302.61417l37.82677 0l0 37.826782l-37.82677 0z" fill-rule="evenodd"/><path stroke="#000000" stroke-width="1.0" stroke-linejoin="round" stroke-linecap="butt" d="m37.82677 302.61417l37.82677 0l0 37.826782l-37.82677 0z" fill-rule="evenodd"/><path fill="#420104" fill-opacity="0.88" d="m75.65354 302.61417l37.826775 0l0 37.826782l-37.826775 0z" fill-rule="evenodd"/><path stroke="#000000" stroke-width="1.0" stroke-linejoin="round" stroke-linecap="butt" d="m75.65354 302.61417l37.826775 0l0 37.826782l-37.826775 0z" fill-rule="evenodd"/><path fill="#420104" fill-opacity="0.88" d="m113.480316 302.61417l37.826767 0l0 37.826782l-37.826767 0z" fill-rule="evenodd"/><path stroke="#000000" stroke-width="1.0" stroke-linejoin="round" stroke-linecap="butt" d="m113.480316 302.61417l37.826767 0l0 37.826782l-37.826767 0z" fill-rule="evenodd"/><path fill="#000000" fill-opacity="0.0" d="m151.30708 189.13387l37.826782 0l0 37.826767l-37.826782 0z" fill-rule="evenodd"/><path stroke="#000000" stroke-width="1.0" stroke-linejoin="round" stroke-linecap="butt" d="m151.30708 189.13387l37.826782 0l0 37.826767l-37.826782 0z" fill-rule="evenodd"/><path fill="#000000" fill-opacity="0.0" d="m151.30708 226.96063l37.826782 0l0 37.826782l-37.826782 0z" fill-rule="evenodd"/><path stroke="#000000" stroke-width="1.0" stroke-linejoin="round" stroke-linecap="butt" d="m151.30708 226.96063l37.826782 0l0 37.826782l-37.826782 0z" fill-rule="evenodd"/><path fill="#000000" fill-opacity="0.0" d="m151.30708 264.7874l37.826782 0l0 37.82675l-37.826782 0z" fill-rule="evenodd"/><path stroke="#000000" stroke-width="1.0" stroke-linejoin="round" stroke-linecap="butt" d="m151.30708 264.7874l37.826782 0l0 37.82675l-37.826782 0z" fill-rule="evenodd"/><path fill="#420104" fill-opacity="0.88" d="m151.30708 302.61417l37.826782 0l0 37.826782l-37.826782 0z" fill-rule="evenodd"/><path stroke="#000000" stroke-width="1.0" stroke-linejoin="round" stroke-linecap="butt" d="m151.30708 302.61417l37.826782 0l0 37.826782l-37.826782 0z" fill-rule="evenodd"/><path fill="#000000" fill-opacity="0.0" d="m37.82677 151.31233l37.82677 0l0 37.826782l-37.82677 0z" fill-rule="evenodd"/><path fill="#000000" d="m57.96441 174.06572l-1.453125 0l0 -5.515625q-0.796875 0.75 -1.890625 1.109375l0 -1.328125q0.578125 -0.1875 1.234375 -0.703125q0.671875 -0.53125 0.921875 -1.21875l1.1875 0l0 7.65625z" fill-rule="nonzero"/><path fill="#000000" fill-opacity="0.0" d="m75.65354 151.30708l37.826775 0l0 37.826782l-37.826775 0z" fill-rule="evenodd"/><path fill="#000000" d="m96.9943 172.7011l0 1.359375l-5.125 0q0.078125 -0.765625 0.5 -1.453125q0.421875 -0.703125 1.640625 -1.828125q0.984375 -0.921875 1.21875 -1.25q0.296875 -0.453125 0.296875 -0.90625q0 -0.484375 -0.265625 -0.75q-0.265625 -0.265625 -0.71875 -0.265625q-0.453125 0 -0.734375 0.28125q-0.265625 0.28125 -0.3125 0.921875l-1.453125 -0.15625q0.125 -1.203125 0.8125 -1.71875q0.6875 -0.53125 1.71875 -0.53125q1.125 0 1.765625 0.609375q0.65625 0.609375 0.65625 1.515625q0 0.515625 -0.1875 0.984375q-0.1875 0.453125 -0.578125 0.96875q-0.265625 0.34375 -0.96875 0.984375q-0.6875 0.625 -0.875 0.828125q-0.171875 0.203125 -0.296875 0.40625l2.90625 0z" fill-rule="nonzero"/><path fill="#000000" fill-opacity="0.0" d="m0 189.13387l37.82677 0l0 37.826767l-37.82677 0z" fill-rule="evenodd"/><path fill="#000000" d="m20.137636 211.88724l-1.453125 0l0 -5.515625q-0.796875 0.75 -1.890625 1.109375l0 -1.328125q0.578125 -0.1875 1.234375 -0.703125q0.671875 -0.53125 0.921875 -1.21875l1.1875 0l0 7.65625z" fill-rule="nonzero"/><path fill="#000000" fill-opacity="0.0" d="m0 226.96063l37.82677 0l0 37.826782l-37.82677 0z" fill-rule="evenodd"/><path fill="#000000" d="m21.340761 248.35464l0 1.359375l-5.125 0q0.078125 -0.765625 0.5 -1.453125q0.421875 -0.703125 1.640625 -1.828125q0.984375 -0.921875 1.21875 -1.25q0.296875 -0.453125 0.296875 -0.90625q0 -0.484375 -0.265625 -0.75q-0.265625 -0.265625 -0.71875 -0.265625q-0.453125 0 -0.734375 0.28125q-0.265625 0.28125 -0.3125 0.921875l-1.453125 -0.15625q0.125 -1.203125 0.8125 -1.71875q0.6875 -0.53125 1.71875 -0.53125q1.125 0 1.765625 0.609375q0.65625 0.609375 0.65625 1.515625q0 0.515625 -0.1875 0.984375q-0.1875 0.453125 -0.578125 0.96875q-0.265625 0.34375 -0.96875 0.984375q-0.6875 0.625 -0.875 0.828125q-0.171875 0.203125 -0.296875 0.40625l2.90625 0z" fill-rule="nonzero"/><path fill="#000000" fill-opacity="0.0" d="m0 264.7874l37.82677 0l0 37.82675l-37.82677 0z" fill-rule="evenodd"/><path fill="#000000" d="m21.725885 287.5408l0 -1.46875l1.46875 0l0 1.46875l-1.46875 0zm-3.546875 0l0 -1.46875l1.46875 0l0 1.46875l-1.46875 0zm-3.546875 0l0 -1.46875l1.46875 0l0 1.46875l-1.46875 0z" fill-rule="nonzero"/><path fill="#000000" fill-opacity="0.0" d="m113.480316 151.30708l37.826767 0l0 37.826782l-37.826767 0z" fill-rule="evenodd"/><path fill="#000000" d="m135.2062 174.06047l0 -1.46875l1.46875 0l0 1.46875l-1.46875 0zm-3.546875 0l0 -1.46875l1.46875 0l0 1.46875l-1.46875 0zm-3.546875 0l0 -1.46875l1.46875 0l0 1.46875l-1.46875 0z" fill-rule="nonzero"/><path fill="#000000" fill-opacity="0.0" d="m151.30708 151.30708l37.826782 0l0 37.826782l-37.826782 0z" fill-rule="evenodd"/><path fill="#000000" d="m167.97597 174.06047l0 -7.625l1.453125 0l0 4.046875l1.71875 -1.953125l1.796875 0l-1.890625 2.03125l2.03125 3.5l-1.578125 0l-1.390625 -2.484375l-0.6875 0.71875l0 1.765625l-1.453125 0z" fill-rule="nonzero"/><path fill="#000000" fill-opacity="0.0" d="m0 302.61417l37.82677 0l0 37.826782l-37.82677 0z" fill-rule="evenodd"/><path fill="#000000" d="m16.668886 325.36755l0 -7.625l1.453125 0l0 4.046875l1.71875 -1.953125l1.796875 0l-1.890625 2.03125l2.03125 3.5l-1.578125 0l-1.390625 -2.484375l-0.6875 0.71875l0 1.765625l-1.453125 0z" fill-rule="nonzero"/><path fill="#000000" fill-opacity="0.0" d="m37.82677 340.44095l37.82677 0l0 37.826782l-37.82677 0z" fill-rule="evenodd"/><path stroke="#000000" stroke-width="1.0" stroke-linejoin="round" stroke-linecap="butt" d="m37.82677 340.44095l37.82677 0l0 37.826782l-37.82677 0z" fill-rule="evenodd"/><path fill="#000000" fill-opacity="0.0" d="m75.65354 340.44095l37.826775 0l0 37.826782l-37.826775 0z" fill-rule="evenodd"/><path stroke="#000000" stroke-width="1.0" stroke-linejoin="round" stroke-linecap="butt" d="m75.65354 340.44095l37.826775 0l0 37.826782l-37.826775 0z" fill-rule="evenodd"/><path fill="#000000" fill-opacity="0.0" d="m113.480316 340.44095l37.826767 0l0 37.826782l-37.826767 0z" fill-rule="evenodd"/><path stroke="#000000" stroke-width="1.0" stroke-linejoin="round" stroke-linecap="butt" d="m113.480316 340.44095l37.826767 0l0 37.826782l-37.826767 0z" fill-rule="evenodd"/><path fill="#000000" fill-opacity="0.0" d="m37.82677 378.26773l37.82677 0l0 37.82675l-37.82677 0z" fill-rule="evenodd"/><path stroke="#000000" stroke-width="1.0" stroke-linejoin="round" stroke-linecap="butt" d="m37.82677 378.26773l37.82677 0l0 37.82675l-37.82677 0z" fill-rule="evenodd"/><path fill="#000000" fill-opacity="0.0" d="m75.65354 378.26773l37.826775 0l0 37.82675l-37.826775 0z" fill-rule="evenodd"/><path stroke="#000000" stroke-width="1.0" stroke-linejoin="round" stroke-linecap="butt" d="m75.65354 378.26773l37.826775 0l0 37.82675l-37.826775 0z" fill-rule="evenodd"/><path fill="#000000" fill-opacity="0.0" d="m113.480316 378.26773l37.826767 0l0 37.82675l-37.826767 0z" fill-rule="evenodd"/><path stroke="#000000" stroke-width="1.0" stroke-linejoin="round" stroke-linecap="butt" d="m113.480316 378.26773l37.826767 0l0 37.82675l-37.826767 0z" fill-rule="evenodd"/><path fill="#000000" fill-opacity="0.0" d="m151.30708 340.44095l37.826782 0l0 37.826782l-37.826782 0z" fill-rule="evenodd"/><path stroke="#000000" stroke-width="1.0" stroke-linejoin="round" stroke-linecap="butt" d="m151.30708 340.44095l37.826782 0l0 37.826782l-37.826782 0z" fill-rule="evenodd"/><path fill="#000000" fill-opacity="0.0" d="m189.13387 340.44095l37.826767 0l0 37.826782l-37.826767 0z" fill-rule="evenodd"/><path stroke="#000000" stroke-width="1.0" stroke-linejoin="round" stroke-linecap="butt" d="m189.13387 340.44095l37.826767 0l0 37.826782l-37.826767 0z" fill-rule="evenodd"/><path fill="#000000" fill-opacity="0.0" d="m226.96063 340.44095l37.826782 0l0 37.826782l-37.826782 0z" fill-rule="evenodd"/><path stroke="#000000" stroke-width="1.0" stroke-linejoin="round" stroke-linecap="butt" d="m226.96063 340.44095l37.826782 0l0 37.826782l-37.826782 0z" fill-rule="evenodd"/><path fill="#000000" fill-opacity="0.0" d="m151.30708 378.26773l37.826782 0l0 37.82675l-37.826782 0z" fill-rule="evenodd"/><path stroke="#000000" stroke-width="1.0" stroke-linejoin="round" stroke-linecap="butt" d="m151.30708 378.26773l37.826782 0l0 37.82675l-37.826782 0z" fill-rule="evenodd"/><path fill="#000000" fill-opacity="0.0" d="m189.13387 378.26773l37.826767 0l0 37.82675l-37.826767 0z" fill-rule="evenodd"/><path stroke="#000000" stroke-width="1.0" stroke-linejoin="round" stroke-linecap="butt" d="m189.13387 378.26773l37.826767 0l0 37.82675l-37.826767 0z" fill-rule="evenodd"/><path fill="#000000" fill-opacity="0.0" d="m226.96063 378.26773l37.826782 0l0 37.82675l-37.826782 0z" fill-rule="evenodd"/><path stroke="#000000" stroke-width="1.0" stroke-linejoin="round" stroke-linecap="butt" d="m226.96063 378.26773l37.826782 0l0 37.82675l-37.826782 0z" fill-rule="evenodd"/><path fill="#000000" fill-opacity="0.0" d="m0 340.44095l37.82677 0l0 37.826782l-37.82677 0z" fill-rule="evenodd"/><path fill="#000000" d="m21.725885 363.19434l0 -1.46875l1.46875 0l0 1.46875l-1.46875 0zm-3.546875 0l0 -1.46875l1.46875 0l0 1.46875l-1.46875 0zm-3.546875 0l0 -1.46875l1.46875 0l0 1.46875l-1.46875 0z" fill-rule="nonzero"/><path fill="#000000" fill-opacity="0.0" d="m0 378.26773l37.82677 0l0 37.82675l-37.82677 0z" fill-rule="evenodd"/><path fill="#000000" d="m21.528261 397.13046l-1.4375 0.265625q-0.078125 -0.4375 -0.34375 -0.65625q-0.25 -0.21875 -0.65625 -0.21875q-0.546875 0 -0.875 0.375q-0.3125 0.375 -0.3125 1.265625q0 0.984375 0.328125 1.390625q0.328125 0.40625 0.875 0.40625q0.421875 0 0.6875 -0.234375q0.265625 -0.25 0.375 -0.828125l1.4375 0.25q-0.21875 0.984375 -0.859375 1.5q-0.640625 0.5 -1.703125 0.5q-1.203125 0 -1.9375 -0.765625q-0.71875 -0.765625 -0.71875 -2.109375q0 -1.375 0.71875 -2.140625q0.734375 -0.765625 1.96875 -0.765625q1.0 0 1.59375 0.4375q0.609375 0.4375 0.859375 1.328125z" fill-rule="nonzero"/><path fill="#000000" fill-opacity="0.0" d="m189.13387 189.13387l37.826767 0l0 37.826767l-37.826767 0z" fill-rule="evenodd"/><path stroke="#000000" stroke-width="1.0" stroke-linejoin="round" stroke-linecap="butt" d="m189.13387 189.13387l37.826767 0l0 37.826767l-37.826767 0z" fill-rule="evenodd"/><path fill="#000000" fill-opacity="0.0" d="m189.13387 226.96063l37.826767 0l0 37.826782l-37.826767 0z" fill-rule="evenodd"/><path stroke="#000000" stroke-width="1.0" stroke-linejoin="round" stroke-linecap="butt" d="m189.13387 226.96063l37.826767 0l0 37.826782l-37.826767 0z" fill-rule="evenodd"/><path fill="#000000" fill-opacity="0.0" d="m189.13387 264.7874l37.826767 0l0 37.82675l-37.826767 0z" fill-rule="evenodd"/><path stroke="#000000" stroke-width="1.0" stroke-linejoin="round" stroke-linecap="butt" d="m189.13387 264.7874l37.826767 0l0 37.82675l-37.826767 0z" fill-rule="evenodd"/><path fill="#000000" fill-opacity="0.0" d="m189.13387 302.61417l37.826767 0l0 37.826782l-37.826767 0z" fill-rule="evenodd"/><path stroke="#000000" stroke-width="1.0" stroke-linejoin="round" stroke-linecap="butt" d="m189.13387 302.61417l37.826767 0l0 37.826782l-37.826767 0z" fill-rule="evenodd"/><path fill="#000000" fill-opacity="0.0" d="m226.96063 189.13387l37.826782 0l0 37.826767l-37.826782 0z" fill-rule="evenodd"/><path stroke="#000000" stroke-width="1.0" stroke-linejoin="round" stroke-linecap="butt" d="m226.96063 189.13387l37.826782 0l0 37.826767l-37.826782 0z" fill-rule="evenodd"/><path fill="#000000" fill-opacity="0.0" d="m226.96063 226.96063l37.826782 0l0 37.826782l-37.826782 0z" fill-rule="evenodd"/><path stroke="#000000" stroke-width="1.0" stroke-linejoin="round" stroke-linecap="butt" d="m226.96063 226.96063l37.826782 0l0 37.826782l-37.826782 0z" fill-rule="evenodd"/><path fill="#000000" fill-opacity="0.0" d="m226.96063 264.7874l37.826782 0l0 37.82675l-37.826782 0z" fill-rule="evenodd"/><path stroke="#000000" stroke-width="1.0" stroke-linejoin="round" stroke-linecap="butt" d="m226.96063 264.7874l37.826782 0l0 37.82675l-37.826782 0z" fill-rule="evenodd"/><path fill="#000000" fill-opacity="0.0" d="m226.96063 302.61417l37.826782 0l0 37.826782l-37.826782 0z" fill-rule="evenodd"/><path stroke="#000000" stroke-width="1.0" stroke-linejoin="round" stroke-linecap="butt" d="m226.96063 302.61417l37.826782 0l0 37.826782l-37.826782 0z" fill-rule="evenodd"/><path fill="#000000" fill-opacity="0.0" d="m189.13387 151.30708l37.826767 0l0 37.826782l-37.826767 0z" fill-rule="evenodd"/><path fill="#000000" d="m210.85974 174.06047l0 -1.46875l1.46875 0l0 1.46875l-1.46875 0zm-3.546875 0l0 -1.46875l1.46875 0l0 1.46875l-1.46875 0zm-3.546875 0l0 -1.46875l1.46875 0l0 1.46875l-1.46875 0z" fill-rule="nonzero"/><path fill="#000000" fill-opacity="0.0" d="m226.96063 151.30708l37.826782 0l0 37.826782l-37.826782 0z" fill-rule="evenodd"/><path fill="#000000" d="m248.48889 170.16985l-1.4375 0.265625q-0.078125 -0.4375 -0.34375 -0.65625q-0.25 -0.21875 -0.65625 -0.21875q-0.546875 0 -0.875 0.375q-0.3125 0.375 -0.3125 1.265625q0 0.984375 0.328125 1.390625q0.328125 0.40625 0.875 0.40625q0.421875 0 0.6875 -0.234375q0.265625 -0.25 0.375 -0.828125l1.4375 0.25q-0.21875 0.984375 -0.859375 1.5q-0.640625 0.5 -1.703125 0.5q-1.203125 0 -1.9375 -0.765625q-0.71875 -0.765625 -0.71875 -2.109375q0 -1.375 0.71875 -2.140625q0.734375 -0.765625 1.96875 -0.765625q1.0 0 1.59375 0.4375q0.609375 0.4375 0.859375 1.328125z" fill-rule="nonzero"/><path fill="#244a13" fill-opacity="0.88" d="m411.81104 189.13387l37.82675 0l0 37.826767l-37.82675 0z" fill-rule="evenodd"/><path stroke="#000000" stroke-width="1.0" stroke-linejoin="round" stroke-linecap="butt" d="m411.81104 189.13387l37.82675 0l0 37.826767l-37.82675 0z" fill-rule="evenodd"/><path fill="#000000" fill-opacity="0.0" d="m449.6378 189.13387l37.826782 0l0 37.826767l-37.826782 0z" fill-rule="evenodd"/><path stroke="#000000" stroke-width="1.0" stroke-linejoin="round" stroke-linecap="butt" d="m449.6378 189.13387l37.826782 0l0 37.826767l-37.826782 0z" fill-rule="evenodd"/><path fill="#000000" fill-opacity="0.0" d="m487.46457 189.13387l37.82675 0l0 37.826767l-37.82675 0z" fill-rule="evenodd"/><path stroke="#000000" stroke-width="1.0" stroke-linejoin="round" stroke-linecap="butt" d="m487.46457 189.13387l37.82675 0l0 37.826767l-37.82675 0z" fill-rule="evenodd"/><path fill="#244a13" fill-opacity="0.88" d="m411.81104 226.96063l37.82675 0l0 37.826782l-37.82675 0z" fill-rule="evenodd"/><path stroke="#000000" stroke-width="1.0" stroke-linejoin="round" stroke-linecap="butt" d="m411.81104 226.96063l37.82675 0l0 37.826782l-37.82675 0z" fill-rule="evenodd"/><path fill="#244a13" fill-opacity="0.88" d="m449.6378 226.96063l37.826782 0l0 37.826782l-37.826782 0z" fill-rule="evenodd"/><path stroke="#000000" stroke-width="1.0" stroke-linejoin="round" stroke-linecap="butt" d="m449.6378 226.96063l37.826782 0l0 37.826782l-37.826782 0z" fill-rule="evenodd"/><path fill="#000000" fill-opacity="0.0" d="m487.46457 226.96063l37.82675 0l0 37.826782l-37.82675 0z" fill-rule="evenodd"/><path stroke="#000000" stroke-width="1.0" stroke-linejoin="round" stroke-linecap="butt" d="m487.46457 226.96063l37.82675 0l0 37.826782l-37.82675 0z" fill-rule="evenodd"/><path fill="#244a13" fill-opacity="0.88" d="m411.81104 264.7874l37.82675 0l0 37.82675l-37.82675 0z" fill-rule="evenodd"/><path stroke="#000000" stroke-width="1.0" stroke-linejoin="round" stroke-linecap="butt" d="m411.81104 264.7874l37.82675 0l0 37.82675l-37.82675 0z" fill-rule="evenodd"/><path fill="#244a13" fill-opacity="0.88" d="m449.6378 264.7874l37.826782 0l0 37.82675l-37.826782 0z" fill-rule="evenodd"/><path stroke="#000000" stroke-width="1.0" stroke-linejoin="round" stroke-linecap="butt" d="m449.6378 264.7874l37.826782 0l0 37.82675l-37.826782 0z" fill-rule="evenodd"/><path fill="#244a13" fill-opacity="0.88" d="m487.46457 264.7874l37.82675 0l0 37.82675l-37.82675 0z" fill-rule="evenodd"/><path stroke="#000000" stroke-width="1.0" stroke-linejoin="round" stroke-linecap="butt" d="m487.46457 264.7874l37.82675 0l0 37.82675l-37.82675 0z" fill-rule="evenodd"/><path fill="#244a13" fill-opacity="0.88" d="m411.81104 302.61417l37.82675 0l0 37.826782l-37.82675 0z" fill-rule="evenodd"/><path stroke="#000000" stroke-width="1.0" stroke-linejoin="round" stroke-linecap="butt" d="m411.81104 302.61417l37.82675 0l0 37.826782l-37.82675 0z" fill-rule="evenodd"/><path fill="#244a13" fill-opacity="0.88" d="m449.6378 302.61417l37.826782 0l0 37.826782l-37.826782 0z" fill-rule="evenodd"/><path stroke="#000000" stroke-width="1.0" stroke-linejoin="round" stroke-linecap="butt" d="m449.6378 302.61417l37.826782 0l0 37.826782l-37.826782 0z" fill-rule="evenodd"/><path fill="#244a13" fill-opacity="0.88" d="m487.46457 302.61417l37.82675 0l0 37.826782l-37.82675 0z" fill-rule="evenodd"/><path stroke="#000000" stroke-width="1.0" stroke-linejoin="round" stroke-linecap="butt" d="m487.46457 302.61417l37.82675 0l0 37.826782l-37.82675 0z" fill-rule="evenodd"/><path fill="#000000" fill-opacity="0.0" d="m525.2913 189.13387l37.826782 0l0 37.826767l-37.826782 0z" fill-rule="evenodd"/><path stroke="#000000" stroke-width="1.0" stroke-linejoin="round" stroke-linecap="butt" d="m525.2913 189.13387l37.826782 0l0 37.826767l-37.826782 0z" fill-rule="evenodd"/><path fill="#000000" fill-opacity="0.0" d="m525.2913 226.96063l37.826782 0l0 37.826782l-37.826782 0z" fill-rule="evenodd"/><path stroke="#000000" stroke-width="1.0" stroke-linejoin="round" stroke-linecap="butt" d="m525.2913 226.96063l37.826782 0l0 37.826782l-37.826782 0z" fill-rule="evenodd"/><path fill="#000000" fill-opacity="0.0" d="m525.2913 264.7874l37.826782 0l0 37.82675l-37.826782 0z" fill-rule="evenodd"/><path stroke="#000000" stroke-width="1.0" stroke-linejoin="round" stroke-linecap="butt" d="m525.2913 264.7874l37.826782 0l0 37.82675l-37.826782 0z" fill-rule="evenodd"/><path fill="#244a13" fill-opacity="0.88" d="m525.2913 302.61417l37.826782 0l0 37.826782l-37.826782 0z" fill-rule="evenodd"/><path stroke="#000000" stroke-width="1.0" stroke-linejoin="round" stroke-linecap="butt" d="m525.2913 302.61417l37.826782 0l0 37.826782l-37.826782 0z" fill-rule="evenodd"/><path fill="#000000" fill-opacity="0.0" d="m411.81104 151.31233l37.82675 0l0 37.826782l-37.82675 0z" fill-rule="evenodd"/><path fill="#000000" d="m431.94867 174.06572l-1.453125 0l0 -5.515625q-0.796875 0.75 -1.890625 1.109375l0 -1.328125q0.578125 -0.1875 1.234375 -0.703125q0.671875 -0.53125 0.921875 -1.21875l1.1875 0l0 7.65625z" fill-rule="nonzero"/><path fill="#000000" fill-opacity="0.0" d="m449.6378 151.30708l37.826782 0l0 37.826782l-37.826782 0z" fill-rule="evenodd"/><path fill="#000000" d="m470.97855 172.7011l0 1.359375l-5.125 0q0.078125 -0.765625 0.5 -1.453125q0.421875 -0.703125 1.640625 -1.828125q0.984375 -0.921875 1.21875 -1.25q0.296875 -0.453125 0.296875 -0.90625q0 -0.484375 -0.265625 -0.75q-0.265625 -0.265625 -0.71875 -0.265625q-0.453125 0 -0.734375 0.28125q-0.265625 0.28125 -0.3125 0.921875l-1.453125 -0.15625q0.125 -1.203125 0.8125 -1.71875q0.6875 -0.53125 1.71875 -0.53125q1.125 0 1.765625 0.609375q0.65625 0.609375 0.65625 1.515625q0 0.515625 -0.1875 0.984375q-0.1875 0.453125 -0.578125 0.96875q-0.265625 0.34375 -0.96875 0.984375q-0.6875 0.625 -0.875 0.828125q-0.171875 0.203125 -0.296875 0.40625l2.90625 0z" fill-rule="nonzero"/><path fill="#000000" fill-opacity="0.0" d="m373.98425 189.13387l37.826782 0l0 37.826767l-37.826782 0z" fill-rule="evenodd"/><path fill="#000000" d="m394.1219 211.88724l-1.453125 0l0 -5.515625q-0.796875 0.75 -1.890625 1.109375l0 -1.328125q0.578125 -0.1875 1.234375 -0.703125q0.671875 -0.53125 0.921875 -1.21875l1.1875 0l0 7.65625z" fill-rule="nonzero"/><path fill="#000000" fill-opacity="0.0" d="m373.98425 226.96063l37.826782 0l0 37.826782l-37.826782 0z" fill-rule="evenodd"/><path fill="#000000" d="m395.325 248.35464l0 1.359375l-5.125 0q0.078125 -0.765625 0.5 -1.453125q0.421875 -0.703125 1.640625 -1.828125q0.984375 -0.921875 1.21875 -1.25q0.296875 -0.453125 0.296875 -0.90625q0 -0.484375 -0.265625 -0.75q-0.265625 -0.265625 -0.71875 -0.265625q-0.453125 0 -0.734375 0.28125q-0.265625 0.28125 -0.3125 0.921875l-1.453125 -0.15625q0.125 -1.203125 0.8125 -1.71875q0.6875 -0.53125 1.71875 -0.53125q1.125 0 1.765625 0.609375q0.65625 0.609375 0.65625 1.515625q0 0.515625 -0.1875 0.984375q-0.1875 0.453125 -0.578125 0.96875q-0.265625 0.34375 -0.96875 0.984375q-0.6875 0.625 -0.875 0.828125q-0.171875 0.203125 -0.296875 0.40625l2.90625 0z" fill-rule="nonzero"/><path fill="#000000" fill-opacity="0.0" d="m373.98425 264.7874l37.826782 0l0 37.82675l-37.826782 0z" fill-rule="evenodd"/><path fill="#000000" d="m395.71014 287.5408l0 -1.46875l1.46875 0l0 1.46875l-1.46875 0zm-3.546875 0l0 -1.46875l1.46875 0l0 1.46875l-1.46875 0zm-3.546875 0l0 -1.46875l1.46875 0l0 1.46875l-1.46875 0z" fill-rule="nonzero"/><path fill="#000000" fill-opacity="0.0" d="m487.46457 151.30708l37.82675 0l0 37.826782l-37.82675 0z" fill-rule="evenodd"/><path fill="#000000" d="m509.19046 174.06047l0 -1.46875l1.46875 0l0 1.46875l-1.46875 0zm-3.546875 0l0 -1.46875l1.46875 0l0 1.46875l-1.46875 0zm-3.546875 0l0 -1.46875l1.46875 0l0 1.46875l-1.46875 0z" fill-rule="nonzero"/><path fill="#000000" fill-opacity="0.0" d="m525.2913 151.30708l37.826782 0l0 37.826782l-37.826782 0z" fill-rule="evenodd"/><path fill="#000000" d="m543.5227 174.06047l-2.21875 -5.53125l1.53125 0l1.046875 2.828125l0.296875 0.9375q0.109375 -0.359375 0.140625 -0.46875q0.078125 -0.234375 0.15625 -0.46875l1.0625 -2.828125l1.5 0l-2.203125 5.53125l-1.3125 0z" fill-rule="nonzero"/><path fill="#000000" fill-opacity="0.0" d="m373.98425 302.61417l37.826782 0l0 37.826782l-37.826782 0z" fill-rule="evenodd"/><path fill="#000000" d="m392.21564 325.36755l-2.21875 -5.53125l1.53125 0l1.046875 2.828125l0.296875 0.9375q0.109375 -0.359375 0.140625 -0.46875q0.078125 -0.234375 0.15625 -0.46875l1.0625 -2.828125l1.5 0l-2.203125 5.53125l-1.3125 0z" fill-rule="nonzero"/><path fill="#000000" fill-opacity="0.0" d="m411.81104 340.44095l37.82675 0l0 37.826782l-37.82675 0z" fill-rule="evenodd"/><path stroke="#000000" stroke-width="1.0" stroke-linejoin="round" stroke-linecap="butt" d="m411.81104 340.44095l37.82675 0l0 37.826782l-37.82675 0z" fill-rule="evenodd"/><path fill="#000000" fill-opacity="0.0" d="m449.6378 340.44095l37.826782 0l0 37.826782l-37.826782 0z" fill-rule="evenodd"/><path stroke="#000000" stroke-width="1.0" stroke-linejoin="round" stroke-linecap="butt" d="m449.6378 340.44095l37.826782 0l0 37.826782l-37.826782 0z" fill-rule="evenodd"/><path fill="#000000" fill-opacity="0.0" d="m487.46457 340.44095l37.82675 0l0 37.826782l-37.82675 0z" fill-rule="evenodd"/><path stroke="#000000" stroke-width="1.0" stroke-linejoin="round" stroke-linecap="butt" d="m487.46457 340.44095l37.82675 0l0 37.826782l-37.82675 0z" fill-rule="evenodd"/><path fill="#000000" fill-opacity="0.0" d="m411.81104 378.26773l37.82675 0l0 37.82675l-37.82675 0z" fill-rule="evenodd"/><path stroke="#000000" stroke-width="1.0" stroke-linejoin="round" stroke-linecap="butt" d="m411.81104 378.26773l37.82675 0l0 37.82675l-37.82675 0z" fill-rule="evenodd"/><path fill="#000000" fill-opacity="0.0" d="m449.6378 378.26773l37.826782 0l0 37.82675l-37.826782 0z" fill-rule="evenodd"/><path stroke="#000000" stroke-width="1.0" stroke-linejoin="round" stroke-linecap="butt" d="m449.6378 378.26773l37.826782 0l0 37.82675l-37.826782 0z" fill-rule="evenodd"/><path fill="#000000" fill-opacity="0.0" d="m487.46457 378.26773l37.82675 0l0 37.82675l-37.82675 0z" fill-rule="evenodd"/><path stroke="#000000" stroke-width="1.0" stroke-linejoin="round" stroke-linecap="butt" d="m487.46457 378.26773l37.82675 0l0 37.82675l-37.82675 0z" fill-rule="evenodd"/><path fill="#000000" fill-opacity="0.0" d="m525.2913 340.44095l37.826782 0l0 37.826782l-37.826782 0z" fill-rule="evenodd"/><path stroke="#000000" stroke-width="1.0" stroke-linejoin="round" stroke-linecap="butt" d="m525.2913 340.44095l37.826782 0l0 37.826782l-37.826782 0z" fill-rule="evenodd"/><path fill="#000000" fill-opacity="0.0" d="m563.1181 340.44095l37.826782 0l0 37.826782l-37.826782 0z" fill-rule="evenodd"/><path stroke="#000000" stroke-width="1.0" stroke-linejoin="round" stroke-linecap="butt" d="m563.1181 340.44095l37.826782 0l0 37.826782l-37.826782 0z" fill-rule="evenodd"/><path fill="#000000" fill-opacity="0.0" d="m600.9449 340.44095l37.826782 0l0 37.826782l-37.826782 0z" fill-rule="evenodd"/><path stroke="#000000" stroke-width="1.0" stroke-linejoin="round" stroke-linecap="butt" d="m600.9449 340.44095l37.826782 0l0 37.826782l-37.826782 0z" fill-rule="evenodd"/><path fill="#000000" fill-opacity="0.0" d="m525.2913 378.26773l37.826782 0l0 37.82675l-37.826782 0z" fill-rule="evenodd"/><path stroke="#000000" stroke-width="1.0" stroke-linejoin="round" stroke-linecap="butt" d="m525.2913 378.26773l37.826782 0l0 37.82675l-37.826782 0z" fill-rule="evenodd"/><path fill="#000000" fill-opacity="0.0" d="m563.1181 378.26773l37.826782 0l0 37.82675l-37.826782 0z" fill-rule="evenodd"/><path stroke="#000000" stroke-width="1.0" stroke-linejoin="round" stroke-linecap="butt" d="m563.1181 378.26773l37.826782 0l0 37.82675l-37.826782 0z" fill-rule="evenodd"/><path fill="#000000" fill-opacity="0.0" d="m600.9449 378.26773l37.826782 0l0 37.82675l-37.826782 0z" fill-rule="evenodd"/><path stroke="#000000" stroke-width="1.0" stroke-linejoin="round" stroke-linecap="butt" d="m600.9449 378.26773l37.826782 0l0 37.82675l-37.826782 0z" fill-rule="evenodd"/><path fill="#000000" fill-opacity="0.0" d="m373.98425 340.44095l37.826782 0l0 37.826782l-37.826782 0z" fill-rule="evenodd"/><path fill="#000000" d="m395.71014 363.19434l0 -1.46875l1.46875 0l0 1.46875l-1.46875 0zm-3.546875 0l0 -1.46875l1.46875 0l0 1.46875l-1.46875 0zm-3.546875 0l0 -1.46875l1.46875 0l0 1.46875l-1.46875 0z" fill-rule="nonzero"/><path fill="#000000" fill-opacity="0.0" d="m373.98425 378.26773l37.826782 0l0 37.82675l-37.826782 0z" fill-rule="evenodd"/><path fill="#000000" d="m395.5125 397.13046l-1.4375 0.265625q-0.078125 -0.4375 -0.34375 -0.65625q-0.25 -0.21875 -0.65625 -0.21875q-0.546875 0 -0.875 0.375q-0.3125 0.375 -0.3125 1.265625q0 0.984375 0.328125 1.390625q0.328125 0.40625 0.875 0.40625q0.421875 0 0.6875 -0.234375q0.265625 -0.25 0.375 -0.828125l1.4375 0.25q-0.21875 0.984375 -0.859375 1.5q-0.640625 0.5 -1.703125 0.5q-1.203125 0 -1.9375 -0.765625q-0.71875 -0.765625 -0.71875 -2.109375q0 -1.375 0.71875 -2.140625q0.734375 -0.765625 1.96875 -0.765625q1.0 0 1.59375 0.4375q0.609375 0.4375 0.859375 1.328125z" fill-rule="nonzero"/><path fill="#000000" fill-opacity="0.0" d="m563.1181 189.13387l37.826782 0l0 37.826767l-37.826782 0z" fill-rule="evenodd"/><path stroke="#000000" stroke-width="1.0" stroke-linejoin="round" stroke-linecap="butt" d="m563.1181 189.13387l37.826782 0l0 37.826767l-37.826782 0z" fill-rule="evenodd"/><path fill="#000000" fill-opacity="0.0" d="m563.1181 226.96063l37.826782 0l0 37.826782l-37.826782 0z" fill-rule="evenodd"/><path stroke="#000000" stroke-width="1.0" stroke-linejoin="round" stroke-linecap="butt" d="m563.1181 226.96063l37.826782 0l0 37.826782l-37.826782 0z" fill-rule="evenodd"/><path fill="#000000" fill-opacity="0.0" d="m563.1181 264.7874l37.826782 0l0 37.82675l-37.826782 0z" fill-rule="evenodd"/><path stroke="#000000" stroke-width="1.0" stroke-linejoin="round" stroke-linecap="butt" d="m563.1181 264.7874l37.826782 0l0 37.82675l-37.826782 0z" fill-rule="evenodd"/><path fill="#000000" fill-opacity="0.0" d="m563.1181 302.61417l37.826782 0l0 37.826782l-37.826782 0z" fill-rule="evenodd"/><path stroke="#000000" stroke-width="1.0" stroke-linejoin="round" stroke-linecap="butt" d="m563.1181 302.61417l37.826782 0l0 37.826782l-37.826782 0z" fill-rule="evenodd"/><path fill="#000000" fill-opacity="0.0" d="m600.9449 189.13387l37.826782 0l0 37.826767l-37.826782 0z" fill-rule="evenodd"/><path stroke="#000000" stroke-width="1.0" stroke-linejoin="round" stroke-linecap="butt" d="m600.9449 189.13387l37.826782 0l0 37.826767l-37.826782 0z" fill-rule="evenodd"/><path fill="#000000" fill-opacity="0.0" d="m600.9449 226.96063l37.826782 0l0 37.826782l-37.826782 0z" fill-rule="evenodd"/><path stroke="#000000" stroke-width="1.0" stroke-linejoin="round" stroke-linecap="butt" d="m600.9449 226.96063l37.826782 0l0 37.826782l-37.826782 0z" fill-rule="evenodd"/><path fill="#000000" fill-opacity="0.0" d="m600.9449 264.7874l37.826782 0l0 37.82675l-37.826782 0z" fill-rule="evenodd"/><path stroke="#000000" stroke-width="1.0" stroke-linejoin="round" stroke-linecap="butt" d="m600.9449 264.7874l37.826782 0l0 37.82675l-37.826782 0z" fill-rule="evenodd"/><path fill="#000000" fill-opacity="0.0" d="m600.9449 302.61417l37.826782 0l0 37.826782l-37.826782 0z" fill-rule="evenodd"/><path stroke="#000000" stroke-width="1.0" stroke-linejoin="round" stroke-linecap="butt" d="m600.9449 302.61417l37.826782 0l0 37.826782l-37.826782 0z" fill-rule="evenodd"/><path fill="#000000" fill-opacity="0.0" d="m563.1181 151.30708l37.826782 0l0 37.826782l-37.826782 0z" fill-rule="evenodd"/><path fill="#000000" d="m584.844 174.06047l0 -1.46875l1.46875 0l0 1.46875l-1.46875 0zm-3.546875 0l0 -1.46875l1.46875 0l0 1.46875l-1.46875 0zm-3.546875 0l0 -1.46875l1.46875 0l0 1.46875l-1.46875 0z" fill-rule="nonzero"/><path fill="#000000" fill-opacity="0.0" d="m600.9449 151.30708l37.826782 0l0 37.826782l-37.826782 0z" fill-rule="evenodd"/><path fill="#000000" d="m622.47314 170.16985l-1.4375 0.265625q-0.078125 -0.4375 -0.34375 -0.65625q-0.25 -0.21875 -0.65625 -0.21875q-0.546875 0 -0.875 0.375q-0.3125 0.375 -0.3125 1.265625q0 0.984375 0.328125 1.390625q0.328125 0.40625 0.875 0.40625q0.421875 0 0.6875 -0.234375q0.265625 -0.25 0.375 -0.828125l1.4375 0.25q-0.21875 0.984375 -0.859375 1.5q-0.640625 0.5 -1.703125 0.5q-1.203125 0 -1.9375 -0.765625q-0.71875 -0.765625 -0.71875 -2.109375q0 -1.375 0.71875 -2.140625q0.734375 -0.765625 1.96875 -0.765625q1.0 0 1.59375 0.4375q0.609375 0.4375 0.859375 1.328125z" fill-rule="nonzero"/><path fill="#000000" fill-opacity="0.0" d="m51.527557 37.82677l545.1339 0l0 84.031494l-545.1339 0z" fill-rule="evenodd"/><path fill="#000000" d="m64.40256 98.02677l0 -38.17188l12.375 0q7.03125 0 9.171875 0.578125q3.265625 0.859375 5.484375 3.7343788q2.21875 2.875 2.21875 7.421875q0 3.515625 -1.28125 5.921875q-1.28125 2.390625 -3.25 3.765625q-1.953125 1.359375 -3.984375 1.796875q-2.765625 0.546875 -8.0 0.546875l-5.015625 0l0 14.40625l-7.71875 0zm7.71875 -31.71875l0 10.828125l4.21875 0q4.546875 0 6.078125 -0.59375q1.546875 -0.59375 2.421875 -1.875q0.875 -1.28125 0.875 -2.96875q0 -2.078125 -1.234375 -3.421875q-1.21875 -1.359375 -3.09375 -1.703125q-1.375 -0.265625 -5.546875 -0.265625l-3.71875 0zm33.272568 12.5l-6.640625 -1.203125q1.125 -4.0 3.859375 -5.921875q2.734375 -1.9375 8.125 -1.9375q4.890625 0 7.28125 1.15625q2.40625 1.15625 3.375 2.953125q0.984375 1.78125 0.984375 6.546875l-0.078125 8.53125q0 3.65625 0.34375 5.390625q0.34375 1.71875 1.3125 3.703125l-7.234375 0q-0.28125 -0.734375 -0.703125 -2.15625q-0.1875 -0.65625 -0.265625 -0.859375q-1.875 1.8125 -4.015625 2.734375q-2.125 0.90625 -4.546875 0.90625q-4.265625 0 -6.734375 -2.3125q-2.453125 -2.328125 -2.453125 -5.859375q0 -2.34375 1.109375 -4.171875q1.125 -1.84375 3.140625 -2.8125q2.015625 -0.984375 5.828125 -1.71875q5.125 -0.96875 7.109375 -1.796875l0 -0.734375q0 -2.109375 -1.046875 -3.0q-1.046875 -0.90625 -3.9375 -0.90625q-1.953125 0 -3.046875 0.78125q-1.09375 0.765625 -1.765625 2.6875zm9.796875 5.9375q-1.40625 0.46875 -4.453125 1.125q-3.046875 0.640625 -3.984375 1.265625q-1.4375 1.015625 -1.4375 2.578125q0 1.546875 1.140625 2.671875q1.15625 1.109375 2.921875 1.109375q1.984375 0 3.78125 -1.296875q1.328125 -1.0 1.734375 -2.421875q0.296875 -0.9375 0.296875 -3.578125l0 -1.453125zm38.50232 -6.203125l-7.203125 1.3125q-0.375 -2.171875 -1.671875 -3.265625q-1.28125 -1.09375 -3.328125 -1.09375q-2.734375 0 -4.375 1.890625q-1.625 1.890625 -1.625 6.3125q0 4.921875 1.65625 6.953125q1.65625 2.03125 4.4375 2.03125q2.09375 0 3.421875 -1.171875q1.328125 -1.1875 1.875 -4.078125l7.171875 1.21875q-1.109375 4.953125 -4.296875 7.484375q-3.171875 2.515625 -8.5 2.515625q-6.078125 0 -9.6875 -3.828125q-3.59375 -3.828125 -3.59375 -10.59375q0 -6.859375 3.609375 -10.671875q3.625 -3.8125 9.796875 -3.8125q5.046875 0 8.03125 2.171875q2.984375 2.171875 4.28125 6.625zm5.2835693 19.484375l0 -38.17188l7.328125 0l0 20.250004l8.5625 -9.734375l9.0 0l-9.4375 10.109375l10.125 17.546875l-7.890625 0l-6.953125 -12.421875l-3.40625 3.5625l0 8.859375l-7.328125 0zm29.924194 -31.40625l0 -6.765629l7.3125 0l0 6.765629l-7.3125 0zm0 31.40625l0 -27.65625l7.3125 0l0 27.65625l-7.3125 0zm39.97252 0l-7.3125 0l0 -14.109375q0 -4.484375 -0.46875 -5.796875q-0.46875 -1.3125 -1.53125 -2.046875q-1.046875 -0.734375 -2.53125 -0.734375q-1.90625 0 -3.421875 1.046875q-1.5 1.046875 -2.0625 2.765625q-0.5625 1.71875 -0.5625 6.34375l0 12.53125l-7.3125 0l0 -27.65625l6.796875 0l0 4.0625q3.609375 -4.6875 9.109375 -4.6875q2.421875 0 4.421875 0.875q2.015625 0.875 3.03125 2.234375q1.03125 1.34375 1.4375 3.0625q0.40625 1.71875 0.40625 4.921875l0 17.1875zm6.746826 1.828125l8.359375 1.015625q0.203125 1.453125 0.953125 2.0q1.046875 0.78125 3.28125 0.78125q2.875 0 4.296875 -0.859375q0.96875 -0.578125 1.46875 -1.84375q0.328125 -0.921875 0.328125 -3.359375l0 -4.046875q-3.28125 4.484375 -8.28125 4.484375q-5.5625 0 -8.828125 -4.71875q-2.546875 -3.71875 -2.546875 -9.265625q0 -6.953125 3.34375 -10.625q3.34375 -3.671875 8.328125 -3.671875q5.125 0 8.453125 4.5l0 -3.875l6.84375 0l0 24.8125q0 4.90625 -0.8125 7.328125q-0.796875 2.421875 -2.25 3.796875q-1.453125 1.375 -3.890625 2.15625q-2.4375 0.78125 -6.15625 0.78125q-7.03125 0 -9.984375 -2.40625q-2.9375 -2.40625 -2.9375 -6.109375q0 -0.359375 0.03125 -0.875zm6.53125 -16.234375q0 4.40625 1.703125 6.453125q1.703125 2.046875 4.203125 2.046875q2.6875 0 4.53125 -2.09375q1.859375 -2.109375 1.859375 -6.21875q0 -4.296875 -1.78125 -6.375q-1.765625 -2.09375 -4.46875 -2.09375q-2.640625 0 -4.34375 2.046875q-1.703125 2.046875 -1.703125 6.234375zm41.484985 14.40625l0 -38.17188l11.53125 0l6.921875 26.031254l6.8437195 -26.031254l11.5625 0l0 38.17188l-7.15625 0l0 -30.046875l-7.5780945 30.046875l-7.421875 0l-7.546875 -30.046875l0 30.046875l-7.15625 0zm49.938354 -19.21875l-6.640625 -1.203125q1.125 -4.0 3.859375 -5.921875q2.734375 -1.9375 8.125 -1.9375q4.890625 0 7.28125 1.15625q2.40625 1.15625 3.375 2.953125q0.984375 1.78125 0.984375 6.546875l-0.078125 8.53125q0 3.65625 0.34375 5.390625q0.34375 1.71875 1.3125 3.703125l-7.234375 0q-0.28125 -0.734375 -0.703125 -2.15625q-0.1875 -0.65625 -0.265625 -0.859375q-1.875 1.8125 -4.015625 2.734375q-2.125 0.90625 -4.546875 0.90625q-4.265625 0 -6.734375 -2.3125q-2.453125 -2.328125 -2.453125 -5.859375q0 -2.34375 1.109375 -4.171875q1.125 -1.84375 3.140625 -2.8125q2.015625 -0.984375 5.828125 -1.71875q5.125 -0.96875 7.109375 -1.796875l0 -0.734375q0 -2.109375 -1.046875 -3.0q-1.046875 -0.90625 -3.9375 -0.90625q-1.953125 0 -3.046875 0.78125q-1.09375 0.765625 -1.765625 2.6875zm9.796875 5.9375q-1.40625 0.46875 -4.453125 1.125q-3.046875 0.640625 -3.984375 1.265625q-1.4375 1.015625 -1.4375 2.578125q0 1.546875 1.140625 2.671875q1.15625 1.109375 2.921875 1.109375q1.984375 0 3.78125 -1.296875q1.328125 -1.0 1.734375 -2.421875q0.296875 -0.9375 0.296875 -3.578125l0 -1.453125zm11.814819 5.390625l7.34375 -1.125q0.46875 2.140625 1.890625 3.25q1.4375 1.109375 4.015625 1.109375q2.84375 0 4.28125 -1.046875q0.953125 -0.734375 0.953125 -1.953125q0 -0.828125 -0.515625 -1.375q-0.546875 -0.53125 -2.453125 -0.96875q-8.84375 -1.953125 -11.21875 -3.5625q-3.28125 -2.25 -3.28125 -6.234375q0 -3.59375 2.828125 -6.03125q2.84375 -2.453125 8.8125 -2.453125q5.671875 0 8.4375 1.859375q2.765625 1.84375 3.796875 5.453125l-6.890625 1.28125q-0.453125 -1.609375 -1.6875 -2.46875q-1.234375 -0.859375 -3.53125 -0.859375q-2.890625 0 -4.140625 0.796875q-0.828125 0.578125 -0.828125 1.484375q0 0.78125 0.734375 1.328125q0.984375 0.734375 6.828125 2.0625q5.84375 1.328125 8.171875 3.25q2.28125 1.953125 2.28125 5.453125q0 3.796875 -3.171875 6.53125q-3.171875 2.734375 -9.40625 2.734375q-5.640625 0 -8.9375 -2.28125q-3.296875 -2.296875 -4.3125 -6.234375zm31.97107 7.890625l0 -38.17188l7.328125 0l0 20.250004l8.5625 -9.734375l9.0 0l-9.4375 10.109375l10.125 17.546875l-7.890625 0l-6.953125 -12.421875l-3.40625 3.5625l0 8.859375l-7.328125 0zm44.693573 0l0 -38.17188l11.53125 0l6.921875 26.031254l6.84375 -26.031254l11.5625 0l0 38.17188l-7.15625 0l0 -30.046875l-7.578125 30.046875l-7.421875 0l-7.546875 -30.046875l0 30.046875l-7.15625 0zm60.48523 -8.796875l7.28125 1.21875q-1.390625 4.015625 -4.4375 6.109375q-3.03125 2.09375 -7.578125 2.09375q-7.21875 0 -10.6875 -4.71875q-2.734375 -3.765625 -2.734375 -9.53125q0 -6.875 3.59375 -10.765625q3.59375 -3.890625 9.09375 -3.890625q6.171875 0 9.734375 4.078125q3.5625 4.078125 3.40625 12.484375l-18.328125 0q0.078125 3.25 1.765625 5.0625q1.703125 1.8125 4.234375 1.8125q1.71875 0 2.890625 -0.9375q1.171875 -0.9375 1.765625 -3.015625zm0.421875 -7.40625q-0.078125 -3.171875 -1.640625 -4.828125q-1.5625 -1.65625 -3.8125 -1.65625q-2.390625 0 -3.953125 1.75q-1.5625 1.75 -1.53125 4.734375l10.9375 0zm20.2211 16.203125l-7.3125305 0l0 -27.65625l6.7969055 0l0 3.9375q1.75 -2.796875 3.140625 -3.671875q1.390625 -0.890625 3.15625 -0.890625q2.5 0 4.828125 1.390625l-2.265625 6.375q-1.859375 -1.203125 -3.4375 -1.203125q-1.546875 0 -2.609375 0.84375q-1.0625 0.84375 -1.6875 3.0625q-0.609375 2.21875 -0.609375 9.265625l0 8.546875zm13.081299 1.828125l8.359375 1.015625q0.203125 1.453125 0.953125 2.0q1.046875 0.78125 3.28125 0.78125q2.875 0 4.296875 -0.859375q0.96875 -0.578125 1.46875 -1.84375q0.328125 -0.921875 0.328125 -3.359375l0 -4.046875q-3.28125 4.484375 -8.28125 4.484375q-5.5625 0 -8.828125 -4.71875q-2.546875 -3.71875 -2.546875 -9.265625q0 -6.953125 3.34375 -10.625q3.34375 -3.671875 8.328125 -3.671875q5.125 0 8.453125 4.5l0 -3.875l6.84375 0l0 24.8125q0 4.90625 -0.8125 7.328125q-0.796875 2.421875 -2.25 3.796875q-1.453125 1.375 -3.890625 2.15625q-2.4375 0.78125 -6.15625 0.78125q-7.03125 0 -9.984375 -2.40625q-2.9375 -2.40625 -2.9375 -6.109375q0 -0.359375 0.03125 -0.875zm6.53125 -16.234375q0 4.40625 1.703125 6.453125q1.703125 2.046875 4.203125 2.046875q2.6875 0 4.53125 -2.09375q1.859375 -2.109375 1.859375 -6.21875q0 -4.296875 -1.78125 -6.375q-1.765625 -2.09375 -4.46875 -2.09375q-2.640625 0 -4.34375 2.046875q-1.703125 2.046875 -1.703125 6.234375zm42.7312 5.609375l7.28125 1.21875q-1.390625 4.015625 -4.4375 6.109375q-3.03125 2.09375 -7.578125 2.09375q-7.21875 0 -10.6875 -4.71875q-2.734375 -3.765625 -2.734375 -9.53125q0 -6.875 3.59375 -10.765625q3.59375 -3.890625 9.09375 -3.890625q6.171875 0 9.734375 4.078125q3.5625 4.078125 3.40625 12.484375l-18.328125 0q0.078125 3.25 1.765625 5.0625q1.703125 1.8125 4.234375 1.8125q1.71875 0 2.890625 -0.9375q1.171875 -0.9375 1.765625 -3.015625zm0.421875 -7.40625q-0.078125 -3.171875 -1.640625 -4.828125q-1.5625 -1.65625 -3.8125 -1.65625q-2.390625 0 -3.953125 1.75q-1.5625 1.75 -1.53125 4.734375l10.9375 0z" fill-rule="nonzero"/><path fill="#000000" fill-opacity="0.0" d="m264.7874 189.13387l109.19684 0l0 226.96062l-109.19684 0z" fill-rule="evenodd"/><path fill="#000000" d="m315.18835 319.73917l0 -12.390625l-12.5 0l0 -8.5625l12.5 0l0 -12.40625l8.328125 0l0 12.40625l12.53125 0l0 8.5625l-12.53125 0l0 12.390625l-8.328125 0z" fill-rule="nonzero"/><path fill="#000000" fill-opacity="0.0" d="m638.77167 189.13387l109.19684 0l0 226.96062l-109.19684 0z" fill-rule="evenodd"/><path fill="#000000" d="m676.6726 300.05167l0 -8.390625l33.359375 0l0 8.390625l-33.359375 0zm0 14.453125l0 -8.421875l33.359375 0l0 8.421875l-33.359375 0z" fill-rule="nonzero"/></g></svg>