<svg version="1.1" viewBox="0.0 0.0 1708.0 625.0" fill="none" stroke="none" stroke-linecap="square" stroke-miterlimit="10" xmlns:xlink="http://www.w3.org/1999/xlink" xmlns="http://www.w3.org/2000/svg"><clipPath id="p.0"><path d="m0 0l1708.0 0l0 625.0l-1708.0 0l0 -625.0z" clip-rule="nonzero"/></clipPath><g clip-path="url(#p.0)"><path fill="#000000" fill-opacity="0.0" d="m0 0l1708.0 0l0 625.0l-1708.0 0z" fill-rule="evenodd"/><path fill="#420104" fill-opacity="0.4214" d="m1097.6896 42.014442l60.567017 0l0 57.637794l-60.567017 0z" fill-rule="evenodd"/><path stroke="#000000" stroke-width="2.0" stroke-linejoin="round" stroke-linecap="butt" d="m1097.6896 42.014442l60.567017 0l0 57.637794l-60.567017 0z" fill-rule="evenodd"/><path fill="#000000" fill-opacity="0.0" d="m1157.46 42.015747l60.566895 0l0 57.637794l-60.566895 0z" fill-rule="evenodd"/><path stroke="#000000" stroke-width="2.0" stroke-linejoin="round" stroke-linecap="butt" d="m1157.46 42.015747l60.566895 0l0 57.637794l-60.566895 0z" fill-rule="evenodd"/><path fill="#000000" fill-opacity="0.0" d="m1217.4574 42.015747l60.566895 0l0 57.637794l-60.566895 0z" fill-rule="evenodd"/><path stroke="#000000" stroke-width="2.0" stroke-linejoin="round" stroke-linecap="butt" d="m1217.4574 42.015747l60.566895 0l0 57.637794l-60.566895 0z" fill-rule="evenodd"/><path fill="#000000" fill-opacity="0.0" d="m1277.4574 42.015747l60.566895 0l0 57.637794l-60.566895 0z" fill-rule="evenodd"/><path stroke="#000000" stroke-width="2.0" stroke-linejoin="round" stroke-linecap="butt" d="m1277.4574 42.015747l60.566895 0l0 57.637794l-60.566895 0z" fill-rule="evenodd"/><path fill="#420104" fill-opacity="0.4214" d="m1097.6896 99.65224l60.567017 0l0 57.637802l-60.567017 0z" fill-rule="evenodd"/><path stroke="#000000" stroke-width="2.0" stroke-linejoin="round" stroke-linecap="butt" d="m1097.6896 99.65224l60.567017 0l0 57.637802l-60.567017 0z" fill-rule="evenodd"/><path fill="#420104" fill-opacity="0.4214" d="m1157.46 99.65354l60.566895 0l0 57.637794l-60.566895 0z" fill-rule="evenodd"/><path stroke="#000000" stroke-width="2.0" stroke-linejoin="round" stroke-linecap="butt" d="m1157.46 99.65354l60.566895 0l0 57.637794l-60.566895 0z" fill-rule="evenodd"/><path fill="#000000" fill-opacity="0.0" d="m1217.4574 99.65354l60.566895 0l0 57.637794l-60.566895 0z" fill-rule="evenodd"/><path stroke="#000000" stroke-width="2.0" stroke-linejoin="round" stroke-linecap="butt" d="m1217.4574 99.65354l60.566895 0l0 57.637794l-60.566895 0z" fill-rule="evenodd"/><path fill="#000000" fill-opacity="0.0" d="m1277.4574 99.65354l60.566895 0l0 57.637794l-60.566895 0z" fill-rule="evenodd"/><path stroke="#000000" stroke-width="2.0" stroke-linejoin="round" stroke-linecap="butt" d="m1277.4574 99.65354l60.566895 0l0 57.637794l-60.566895 0z" fill-rule="evenodd"/><path fill="#420104" fill-opacity="0.4214" d="m1097.6896 157.29004l60.567017 0l0 57.637787l-60.567017 0z" fill-rule="evenodd"/><path stroke="#000000" stroke-width="2.0" stroke-linejoin="round" stroke-linecap="butt" d="m1097.6896 157.29004l60.567017 0l0 57.637787l-60.567017 0z" fill-rule="evenodd"/><path fill="#420104" fill-opacity="0.4214" d="m1157.46 157.29134l60.566895 0l0 57.637802l-60.566895 0z" fill-rule="evenodd"/><path stroke="#000000" stroke-width="2.0" stroke-linejoin="round" stroke-linecap="butt" d="m1157.46 157.29134l60.566895 0l0 57.637802l-60.566895 0z" fill-rule="evenodd"/><path fill="#420104" fill-opacity="0.4214" d="m1217.4574 157.29134l60.566895 0l0 57.637802l-60.566895 0z" fill-rule="evenodd"/><path stroke="#000000" stroke-width="2.0" stroke-linejoin="round" stroke-linecap="butt" d="m1217.4574 157.29134l60.566895 0l0 57.637802l-60.566895 0z" fill-rule="evenodd"/><path fill="#000000" fill-opacity="0.0" d="m1277.4574 157.29134l60.566895 0l0 57.637802l-60.566895 0z" fill-rule="evenodd"/><path stroke="#000000" stroke-width="2.0" stroke-linejoin="round" stroke-linecap="butt" d="m1277.4574 157.29134l60.566895 0l0 57.637802l-60.566895 0z" fill-rule="evenodd"/><path fill="#420104" fill-opacity="0.4214" d="m1097.6896 214.92783l60.567017 0l0 57.637787l-60.567017 0z" fill-rule="evenodd"/><path stroke="#000000" stroke-width="2.0" stroke-linejoin="round" stroke-linecap="butt" d="m1097.6896 214.92783l60.567017 0l0 57.637787l-60.567017 0z" fill-rule="evenodd"/><path fill="#420104" fill-opacity="0.4214" d="m1157.46 214.92914l60.566895 0l0 57.637787l-60.566895 0z" fill-rule="evenodd"/><path stroke="#000000" stroke-width="2.0" stroke-linejoin="round" stroke-linecap="butt" d="m1157.46 214.92914l60.566895 0l0 57.637787l-60.566895 0z" fill-rule="evenodd"/><path fill="#420104" fill-opacity="0.4214" d="m1217.4574 214.92914l60.566895 0l0 57.637787l-60.566895 0z" fill-rule="evenodd"/><path stroke="#000000" stroke-width="2.0" stroke-linejoin="round" stroke-linecap="butt" d="m1217.4574 214.92914l60.566895 0l0 57.637787l-60.566895 0z" fill-rule="evenodd"/><path fill="#420104" fill-opacity="0.4214" d="m1277.4574 214.92914l60.566895 0l0 57.637787l-60.566895 0z" fill-rule="evenodd"/><path stroke="#000000" stroke-width="2.0" stroke-linejoin="round" stroke-linecap="butt" d="m1277.4574 214.92914l60.566895 0l0 57.637787l-60.566895 0z" fill-rule="evenodd"/><path fill="#000000" fill-opacity="0.0" d="m1097.6896 272.5656l60.567017 0l0 57.637817l-60.567017 0z" fill-rule="evenodd"/><path stroke="#000000" stroke-width="2.0" stroke-linejoin="round" stroke-linecap="butt" d="m1097.6896 272.5656l60.567017 0l0 57.637817l-60.567017 0z" fill-rule="evenodd"/><path fill="#000000" fill-opacity="0.0" d="m1157.46 272.56693l60.566895 0l0 57.637787l-60.566895 0z" fill-rule="evenodd"/><path stroke="#000000" stroke-width="2.0" stroke-linejoin="round" stroke-linecap="butt" d="m1157.46 272.56693l60.566895 0l0 57.637787l-60.566895 0z" fill-rule="evenodd"/><path fill="#000000" fill-opacity="0.0" d="m1217.4574 272.56693l60.566895 0l0 57.637787l-60.566895 0z" fill-rule="evenodd"/><path stroke="#000000" stroke-width="2.0" stroke-linejoin="round" stroke-linecap="butt" d="m1217.4574 272.56693l60.566895 0l0 57.637787l-60.566895 0z" fill-rule="evenodd"/><path fill="#000000" fill-opacity="0.0" d="m1277.4574 272.56693l60.566895 0l0 57.637787l-60.566895 0z" fill-rule="evenodd"/><path stroke="#000000" stroke-width="2.0" stroke-linejoin="round" stroke-linecap="butt" d="m1277.4574 272.56693l60.566895 0l0 57.637787l-60.566895 0z" fill-rule="evenodd"/><path fill="#000000" fill-opacity="0.0" d="m1097.6896 330.20343l60.567017 0l0 57.637787l-60.567017 0z" fill-rule="evenodd"/><path stroke="#000000" stroke-width="2.0" stroke-linejoin="round" stroke-linecap="butt" d="m1097.6896 330.20343l60.567017 0l0 57.637787l-60.567017 0z" fill-rule="evenodd"/><path fill="#000000" fill-opacity="0.0" d="m1157.46 330.2047l60.566895 0l0 57.637817l-60.566895 0z" fill-rule="evenodd"/><path stroke="#000000" stroke-width="2.0" stroke-linejoin="round" stroke-linecap="butt" d="m1157.46 330.2047l60.566895 0l0 57.637817l-60.566895 0z" fill-rule="evenodd"/><path fill="#000000" fill-opacity="0.0" d="m1217.4574 330.2047l60.566895 0l0 57.637817l-60.566895 0z" fill-rule="evenodd"/><path stroke="#000000" stroke-width="2.0" stroke-linejoin="round" stroke-linecap="butt" d="m1217.4574 330.2047l60.566895 0l0 57.637817l-60.566895 0z" fill-rule="evenodd"/><path fill="#000000" fill-opacity="0.0" d="m1277.4574 330.2047l60.566895 0l0 57.637817l-60.566895 0z" fill-rule="evenodd"/><path stroke="#000000" stroke-width="2.0" stroke-linejoin="round" stroke-linecap="butt" d="m1277.4574 330.2047l60.566895 0l0 57.637817l-60.566895 0z" fill-rule="evenodd"/><path fill="#000000" fill-opacity="0.0" d="m1097.6896 387.84122l60.567017 0l0 57.637787l-60.567017 0z" fill-rule="evenodd"/><path stroke="#000000" stroke-width="2.0" stroke-linejoin="round" stroke-linecap="butt" d="m1097.6896 387.84122l60.567017 0l0 57.637787l-60.567017 0z" fill-rule="evenodd"/><path fill="#000000" fill-opacity="0.0" d="m1157.46 387.84253l60.566895 0l0 57.637787l-60.566895 0z" fill-rule="evenodd"/><path stroke="#000000" stroke-width="2.0" stroke-linejoin="round" stroke-linecap="butt" d="m1157.46 387.84253l60.566895 0l0 57.637787l-60.566895 0z" fill-rule="evenodd"/><path fill="#000000" fill-opacity="0.0" d="m1217.4574 387.84253l60.566895 0l0 57.637787l-60.566895 0z" fill-rule="evenodd"/><path stroke="#000000" stroke-width="2.0" stroke-linejoin="round" stroke-linecap="butt" d="m1217.4574 387.84253l60.566895 0l0 57.637787l-60.566895 0z" fill-rule="evenodd"/><path fill="#000000" fill-opacity="0.0" d="m1277.4574 387.84253l60.566895 0l0 57.637787l-60.566895 0z" fill-rule="evenodd"/><path stroke="#000000" stroke-width="2.0" stroke-linejoin="round" stroke-linecap="butt" d="m1277.4574 387.84253l60.566895 0l0 57.637787l-60.566895 0z" fill-rule="evenodd"/><path fill="#000000" fill-opacity="0.0" d="m1097.6896 445.479l60.567017 0l0 57.637787l-60.567017 0z" fill-rule="evenodd"/><path stroke="#000000" stroke-width="2.0" stroke-linejoin="round" stroke-linecap="butt" d="m1097.6896 445.479l60.567017 0l0 57.637787l-60.567017 0z" fill-rule="evenodd"/><path fill="#000000" fill-opacity="0.0" d="m1157.46 445.48032l60.566895 0l0 57.637787l-60.566895 0z" fill-rule="evenodd"/><path stroke="#000000" stroke-width="2.0" stroke-linejoin="round" stroke-linecap="butt" d="m1157.46 445.48032l60.566895 0l0 57.637787l-60.566895 0z" fill-rule="evenodd"/><path fill="#000000" fill-opacity="0.0" d="m1217.4574 445.48032l60.566895 0l0 57.637787l-60.566895 0z" fill-rule="evenodd"/><path stroke="#000000" stroke-width="2.0" stroke-linejoin="round" stroke-linecap="butt" d="m1217.4574 445.48032l60.566895 0l0 57.637787l-60.566895 0z" fill-rule="evenodd"/><path fill="#000000" fill-opacity="0.0" d="m1277.4574 445.48032l60.566895 0l0 57.637787l-60.566895 0z" fill-rule="evenodd"/><path stroke="#000000" stroke-width="2.0" stroke-linejoin="round" stroke-linecap="butt" d="m1277.4574 445.48032l60.566895 0l0 57.637787l-60.566895 0z" fill-rule="evenodd"/><path fill="#000000" fill-opacity="0.0" d="m1097.6896 503.1168l60.567017 0l0 57.637787l-60.567017 0z" fill-rule="evenodd"/><path stroke="#000000" stroke-width="2.0" stroke-linejoin="round" stroke-linecap="butt" d="m1097.6896 503.1168l60.567017 0l0 57.637787l-60.567017 0z" fill-rule="evenodd"/><path fill="#000000" fill-opacity="0.0" d="m1157.46 503.1181l60.566895 0l0 57.637817l-60.566895 0z" fill-rule="evenodd"/><path stroke="#000000" stroke-width="2.0" stroke-linejoin="round" stroke-linecap="butt" d="m1157.46 503.1181l60.566895 0l0 57.637817l-60.566895 0z" fill-rule="evenodd"/><path fill="#000000" fill-opacity="0.0" d="m1217.4574 503.1181l60.566895 0l0 57.637817l-60.566895 0z" fill-rule="evenodd"/><path stroke="#000000" stroke-width="2.0" stroke-linejoin="round" stroke-linecap="butt" d="m1217.4574 503.1181l60.566895 0l0 57.637817l-60.566895 0z" fill-rule="evenodd"/><path fill="#000000" fill-opacity="0.0" d="m1277.4574 503.1181l60.566895 0l0 57.637817l-60.566895 0z" fill-rule="evenodd"/><path stroke="#000000" stroke-width="2.0" stroke-linejoin="round" stroke-linecap="butt" d="m1277.4574 503.1181l60.566895 0l0 57.637817l-60.566895 0z" fill-rule="evenodd"/><path fill="#000000" fill-opacity="0.0" d="m1097.6896 560.7546l60.567017 0l0 57.637817l-60.567017 0z" fill-rule="evenodd"/><path stroke="#000000" stroke-width="2.0" stroke-linejoin="round" stroke-linecap="butt" d="m1097.6896 560.7546l60.567017 0l0 57.637817l-60.567017 0z" fill-rule="evenodd"/><path fill="#000000" fill-opacity="0.0" d="m1157.46 560.7559l60.566895 0l0 57.637756l-60.566895 0z" fill-rule="evenodd"/><path stroke="#000000" stroke-width="2.0" stroke-linejoin="round" stroke-linecap="butt" d="m1157.46 560.7559l60.566895 0l0 57.637756l-60.566895 0z" fill-rule="evenodd"/><path fill="#000000" fill-opacity="0.0" d="m1217.4574 560.7559l60.566895 0l0 57.637756l-60.566895 0z" fill-rule="evenodd"/><path stroke="#000000" stroke-width="2.0" stroke-linejoin="round" stroke-linecap="butt" d="m1217.4574 560.7559l60.566895 0l0 57.637756l-60.566895 0z" fill-rule="evenodd"/><path fill="#000000" fill-opacity="0.0" d="m1277.4574 560.7559l60.566895 0l0 57.637756l-60.566895 0z" fill-rule="evenodd"/><path stroke="#000000" stroke-width="2.0" stroke-linejoin="round" stroke-linecap="butt" d="m1277.4574 560.7559l60.566895 0l0 57.637756l-60.566895 0z" fill-rule="evenodd"/><path fill="#000000" fill-opacity="0.0" d="m1338.023 42.014442l60.566895 0l0 57.637794l-60.566895 0z" fill-rule="evenodd"/><path stroke="#000000" stroke-width="2.0" stroke-linejoin="round" stroke-linecap="butt" d="m1338.023 42.014442l60.566895 0l0 57.637794l-60.566895 0z" fill-rule="evenodd"/><path fill="#000000" fill-opacity="0.0" d="m1397.7933 42.015747l60.566895 0l0 57.637794l-60.566895 0z" fill-rule="evenodd"/><path stroke="#000000" stroke-width="2.0" stroke-linejoin="round" stroke-linecap="butt" d="m1397.7933 42.015747l60.566895 0l0 57.637794l-60.566895 0z" fill-rule="evenodd"/><path fill="#000000" fill-opacity="0.0" d="m1457.7906 42.015747l60.567017 0l0 57.637794l-60.567017 0z" fill-rule="evenodd"/><path stroke="#000000" stroke-width="2.0" stroke-linejoin="round" stroke-linecap="butt" d="m1457.7906 42.015747l60.567017 0l0 57.637794l-60.567017 0z" fill-rule="evenodd"/><path fill="#000000" fill-opacity="0.0" d="m1517.7906 42.015747l60.567017 0l0 57.637794l-60.567017 0z" fill-rule="evenodd"/><path stroke="#000000" stroke-width="2.0" stroke-linejoin="round" stroke-linecap="butt" d="m1517.7906 42.015747l60.567017 0l0 57.637794l-60.567017 0z" fill-rule="evenodd"/><path fill="#000000" fill-opacity="0.0" d="m1338.023 99.65224l60.566895 0l0 57.637802l-60.566895 0z" fill-rule="evenodd"/><path stroke="#000000" stroke-width="2.0" stroke-linejoin="round" stroke-linecap="butt" d="m1338.023 99.65224l60.566895 0l0 57.637802l-60.566895 0z" fill-rule="evenodd"/><path fill="#000000" fill-opacity="0.0" d="m1397.7933 99.65354l60.566895 0l0 57.637794l-60.566895 0z" fill-rule="evenodd"/><path stroke="#000000" stroke-width="2.0" stroke-linejoin="round" stroke-linecap="butt" d="m1397.7933 99.65354l60.566895 0l0 57.637794l-60.566895 0z" fill-rule="evenodd"/><path fill="#000000" fill-opacity="0.0" d="m1457.7906 99.65354l60.567017 0l0 57.637794l-60.567017 0z" fill-rule="evenodd"/><path stroke="#000000" stroke-width="2.0" stroke-linejoin="round" stroke-linecap="butt" d="m1457.7906 99.65354l60.567017 0l0 57.637794l-60.567017 0z" fill-rule="evenodd"/><path fill="#000000" fill-opacity="0.0" d="m1517.7906 99.65354l60.567017 0l0 57.637794l-60.567017 0z" fill-rule="evenodd"/><path stroke="#000000" stroke-width="2.0" stroke-linejoin="round" stroke-linecap="butt" d="m1517.7906 99.65354l60.567017 0l0 57.637794l-60.567017 0z" fill-rule="evenodd"/><path fill="#000000" fill-opacity="0.0" d="m1338.023 157.29004l60.566895 0l0 57.637787l-60.566895 0z" fill-rule="evenodd"/><path stroke="#000000" stroke-width="2.0" stroke-linejoin="round" stroke-linecap="butt" d="m1338.023 157.29004l60.566895 0l0 57.637787l-60.566895 0z" fill-rule="evenodd"/><path fill="#000000" fill-opacity="0.0" d="m1397.7933 157.29134l60.566895 0l0 57.637802l-60.566895 0z" fill-rule="evenodd"/><path stroke="#000000" stroke-width="2.0" stroke-linejoin="round" stroke-linecap="butt" d="m1397.7933 157.29134l60.566895 0l0 57.637802l-60.566895 0z" fill-rule="evenodd"/><path fill="#000000" fill-opacity="0.0" d="m1457.7906 157.29134l60.567017 0l0 57.637802l-60.567017 0z" fill-rule="evenodd"/><path stroke="#000000" stroke-width="2.0" stroke-linejoin="round" stroke-linecap="butt" d="m1457.7906 157.29134l60.567017 0l0 57.637802l-60.567017 0z" fill-rule="evenodd"/><path fill="#000000" fill-opacity="0.0" d="m1517.7906 157.29134l60.567017 0l0 57.637802l-60.567017 0z" fill-rule="evenodd"/><path stroke="#000000" stroke-width="2.0" stroke-linejoin="round" stroke-linecap="butt" d="m1517.7906 157.29134l60.567017 0l0 57.637802l-60.567017 0z" fill-rule="evenodd"/><path fill="#000000" fill-opacity="0.0" d="m1338.023 214.92783l60.566895 0l0 57.637787l-60.566895 0z" fill-rule="evenodd"/><path stroke="#000000" stroke-width="2.0" stroke-linejoin="round" stroke-linecap="butt" d="m1338.023 214.92783l60.566895 0l0 57.637787l-60.566895 0z" fill-rule="evenodd"/><path fill="#000000" fill-opacity="0.0" d="m1397.7933 214.92914l60.566895 0l0 57.637787l-60.566895 0z" fill-rule="evenodd"/><path stroke="#000000" stroke-width="2.0" stroke-linejoin="round" stroke-linecap="butt" d="m1397.7933 214.92914l60.566895 0l0 57.637787l-60.566895 0z" fill-rule="evenodd"/><path fill="#000000" fill-opacity="0.0" d="m1457.7906 214.92914l60.567017 0l0 57.637787l-60.567017 0z" fill-rule="evenodd"/><path stroke="#000000" stroke-width="2.0" stroke-linejoin="round" stroke-linecap="butt" d="m1457.7906 214.92914l60.567017 0l0 57.637787l-60.567017 0z" fill-rule="evenodd"/><path fill="#000000" fill-opacity="0.0" d="m1517.7906 214.92914l60.567017 0l0 57.637787l-60.567017 0z" fill-rule="evenodd"/><path stroke="#000000" stroke-width="2.0" stroke-linejoin="round" stroke-linecap="butt" d="m1517.7906 214.92914l60.567017 0l0 57.637787l-60.567017 0z" fill-rule="evenodd"/><path fill="#d9ead3" fill-opacity="0.44" d="m1338.023 272.5656l60.566895 0l0 57.637817l-60.566895 0z" fill-rule="evenodd"/><path stroke="#000000" stroke-width="2.0" stroke-linejoin="round" stroke-linecap="butt" d="m1338.023 272.5656l60.566895 0l0 57.637817l-60.566895 0z" fill-rule="evenodd"/><path fill="#000000" fill-opacity="0.0" d="m1397.7933 272.56693l60.566895 0l0 57.637787l-60.566895 0z" fill-rule="evenodd"/><path stroke="#000000" stroke-width="2.0" stroke-linejoin="round" stroke-linecap="butt" d="m1397.7933 272.56693l60.566895 0l0 57.637787l-60.566895 0z" fill-rule="evenodd"/><path fill="#000000" fill-opacity="0.0" d="m1457.7906 272.56693l60.567017 0l0 57.637787l-60.567017 0z" fill-rule="evenodd"/><path stroke="#000000" stroke-width="2.0" stroke-linejoin="round" stroke-linecap="butt" d="m1457.7906 272.56693l60.567017 0l0 57.637787l-60.567017 0z" fill-rule="evenodd"/><path fill="#000000" fill-opacity="0.0" d="m1517.7906 272.56693l60.567017 0l0 57.637787l-60.567017 0z" fill-rule="evenodd"/><path stroke="#000000" stroke-width="2.0" stroke-linejoin="round" stroke-linecap="butt" d="m1517.7906 272.56693l60.567017 0l0 57.637787l-60.567017 0z" fill-rule="evenodd"/><path fill="#d9ead3" fill-opacity="0.44" d="m1338.023 330.20343l60.566895 0l0 57.637787l-60.566895 0z" fill-rule="evenodd"/><path stroke="#000000" stroke-width="2.0" stroke-linejoin="round" stroke-linecap="butt" d="m1338.023 330.20343l60.566895 0l0 57.637787l-60.566895 0z" fill-rule="evenodd"/><path fill="#d9ead3" fill-opacity="0.44" d="m1397.7933 330.2047l60.566895 0l0 57.637817l-60.566895 0z" fill-rule="evenodd"/><path stroke="#000000" stroke-width="2.0" stroke-linejoin="round" stroke-linecap="butt" d="m1397.7933 330.2047l60.566895 0l0 57.637817l-60.566895 0z" fill-rule="evenodd"/><path fill="#000000" fill-opacity="0.0" d="m1457.7906 330.2047l60.567017 0l0 57.637817l-60.567017 0z" fill-rule="evenodd"/><path stroke="#000000" stroke-width="2.0" stroke-linejoin="round" stroke-linecap="butt" d="m1457.7906 330.2047l60.567017 0l0 57.637817l-60.567017 0z" fill-rule="evenodd"/><path fill="#000000" fill-opacity="0.0" d="m1517.7906 330.2047l60.567017 0l0 57.637817l-60.567017 0z" fill-rule="evenodd"/><path stroke="#000000" stroke-width="2.0" stroke-linejoin="round" stroke-linecap="butt" d="m1517.7906 330.2047l60.567017 0l0 57.637817l-60.567017 0z" fill-rule="evenodd"/><path fill="#d9ead3" fill-opacity="0.44" d="m1338.023 387.84122l60.566895 0l0 57.637787l-60.566895 0z" fill-rule="evenodd"/><path stroke="#000000" stroke-width="2.0" stroke-linejoin="round" stroke-linecap="butt" d="m1338.023 387.84122l60.566895 0l0 57.637787l-60.566895 0z" fill-rule="evenodd"/><path fill="#d9ead3" fill-opacity="0.44" d="m1397.7933 387.84253l60.566895 0l0 57.637787l-60.566895 0z" fill-rule="evenodd"/><path stroke="#000000" stroke-width="2.0" stroke-linejoin="round" stroke-linecap="butt" d="m1397.7933 387.84253l60.566895 0l0 57.637787l-60.566895 0z" fill-rule="evenodd"/><path fill="#d9ead3" fill-opacity="0.44" d="m1457.7906 387.84253l60.567017 0l0 57.637787l-60.567017 0z" fill-rule="evenodd"/><path stroke="#000000" stroke-width="2.0" stroke-linejoin="round" stroke-linecap="butt" d="m1457.7906 387.84253l60.567017 0l0 57.637787l-60.567017 0z" fill-rule="evenodd"/><path fill="#000000" fill-opacity="0.0" d="m1517.7906 387.84253l60.567017 0l0 57.637787l-60.567017 0z" fill-rule="evenodd"/><path stroke="#000000" stroke-width="2.0" stroke-linejoin="round" stroke-linecap="butt" d="m1517.7906 387.84253l60.567017 0l0 57.637787l-60.567017 0z" fill-rule="evenodd"/><path fill="#d9ead3" fill-opacity="0.44" d="m1338.023 445.479l60.566895 0l0 57.637787l-60.566895 0z" fill-rule="evenodd"/><path stroke="#000000" stroke-width="2.0" stroke-linejoin="round" stroke-linecap="butt" d="m1338.023 445.479l60.566895 0l0 57.637787l-60.566895 0z" fill-rule="evenodd"/><path fill="#d9ead3" fill-opacity="0.44" d="m1397.7933 445.48032l60.566895 0l0 57.637787l-60.566895 0z" fill-rule="evenodd"/><path stroke="#000000" stroke-width="2.0" stroke-linejoin="round" stroke-linecap="butt" d="m1397.7933 445.48032l60.566895 0l0 57.637787l-60.566895 0z" fill-rule="evenodd"/><path fill="#d9ead3" fill-opacity="0.44" d="m1457.7906 445.48032l60.567017 0l0 57.637787l-60.567017 0z" fill-rule="evenodd"/><path stroke="#000000" stroke-width="2.0" stroke-linejoin="round" stroke-linecap="butt" d="m1457.7906 445.48032l60.567017 0l0 57.637787l-60.567017 0z" fill-rule="evenodd"/><path fill="#d9ead3" fill-opacity="0.44" d="m1517.7906 445.48032l60.567017 0l0 57.637787l-60.567017 0z" fill-rule="evenodd"/><path stroke="#000000" stroke-width="2.0" stroke-linejoin="round" stroke-linecap="butt" d="m1517.7906 445.48032l60.567017 0l0 57.637787l-60.567017 0z" fill-rule="evenodd"/><path fill="#000000" fill-opacity="0.0" d="m1337.2224 503.1168l60.567017 0l0 57.637787l-60.567017 0z" fill-rule="evenodd"/><path stroke="#000000" stroke-width="2.0" stroke-linejoin="round" stroke-linecap="butt" d="m1337.2224 503.1168l60.567017 0l0 57.637787l-60.567017 0z" fill-rule="evenodd"/><path fill="#000000" fill-opacity="0.0" d="m1396.9928 503.1181l60.566895 0l0 57.637817l-60.566895 0z" fill-rule="evenodd"/><path stroke="#000000" stroke-width="2.0" stroke-linejoin="round" stroke-linecap="butt" d="m1396.9928 503.1181l60.566895 0l0 57.637817l-60.566895 0z" fill-rule="evenodd"/><path fill="#000000" fill-opacity="0.0" d="m1456.9901 503.1181l60.567017 0l0 57.637817l-60.567017 0z" fill-rule="evenodd"/><path stroke="#000000" stroke-width="2.0" stroke-linejoin="round" stroke-linecap="butt" d="m1456.9901 503.1181l60.567017 0l0 57.637817l-60.567017 0z" fill-rule="evenodd"/><path fill="#000000" fill-opacity="0.0" d="m1516.9901 503.1181l60.567017 0l0 57.637817l-60.567017 0z" fill-rule="evenodd"/><path stroke="#000000" stroke-width="2.0" stroke-linejoin="round" stroke-linecap="butt" d="m1516.9901 503.1181l60.567017 0l0 57.637817l-60.567017 0z" fill-rule="evenodd"/><path fill="#000000" fill-opacity="0.0" d="m1337.2224 560.7546l60.567017 0l0 57.637817l-60.567017 0z" fill-rule="evenodd"/><path stroke="#000000" stroke-width="2.0" stroke-linejoin="round" stroke-linecap="butt" d="m1337.2224 560.7546l60.567017 0l0 57.637817l-60.567017 0z" fill-rule="evenodd"/><path fill="#000000" fill-opacity="0.0" d="m1396.9928 560.7559l60.566895 0l0 57.637756l-60.566895 0z" fill-rule="evenodd"/><path stroke="#000000" stroke-width="2.0" stroke-linejoin="round" stroke-linecap="butt" d="m1396.9928 560.7559l60.566895 0l0 57.637756l-60.566895 0z" fill-rule="evenodd"/><path fill="#000000" fill-opacity="0.0" d="m1456.9901 560.7559l60.567017 0l0 57.637756l-60.567017 0z" fill-rule="evenodd"/><path stroke="#000000" stroke-width="2.0" stroke-linejoin="round" stroke-linecap="butt" d="m1456.9901 560.7559l60.567017 0l0 57.637756l-60.567017 0z" fill-rule="evenodd"/><path fill="#000000" fill-opacity="0.0" d="m1516.9901 560.7559l60.567017 0l0 57.637756l-60.567017 0z" fill-rule="evenodd"/><path stroke="#000000" stroke-width="2.0" stroke-linejoin="round" stroke-linecap="butt" d="m1516.9901 560.7559l60.567017 0l0 57.637756l-60.567017 0z" fill-rule="evenodd"/><path fill="#000000" fill-opacity="0.0" d="m1578.3563 503.1168l60.566895 0l0 57.637787l-60.566895 0z" fill-rule="evenodd"/><path stroke="#000000" stroke-width="2.0" stroke-linejoin="round" stroke-linecap="butt" d="m1578.3563 503.1168l60.566895 0l0 57.637787l-60.566895 0z" fill-rule="evenodd"/><path fill="#000000" fill-opacity="0.0" d="m1638.1266 503.1181l60.567017 0l0 57.637817l-60.567017 0z" fill-rule="evenodd"/><path stroke="#000000" stroke-width="2.0" stroke-linejoin="round" stroke-linecap="butt" d="m1638.1266 503.1181l60.567017 0l0 57.637817l-60.567017 0z" fill-rule="evenodd"/><path fill="#000000" fill-opacity="0.0" d="m1578.3563 560.7546l60.566895 0l0 57.637817l-60.566895 0z" fill-rule="evenodd"/><path stroke="#000000" stroke-width="2.0" stroke-linejoin="round" stroke-linecap="butt" d="m1578.3563 560.7546l60.566895 0l0 57.637817l-60.566895 0z" fill-rule="evenodd"/><path fill="#000000" fill-opacity="0.0" d="m1638.1266 560.7559l60.567017 0l0 57.637756l-60.567017 0z" fill-rule="evenodd"/><path stroke="#000000" stroke-width="2.0" stroke-linejoin="round" stroke-linecap="butt" d="m1638.1266 560.7559l60.567017 0l0 57.637756l-60.567017 0z" fill-rule="evenodd"/><path fill="#000000" fill-opacity="0.0" d="m1578.1279 387.84122l60.566895 0l0 57.637787l-60.566895 0z" fill-rule="evenodd"/><path stroke="#000000" stroke-width="2.0" stroke-linejoin="round" stroke-linecap="butt" d="m1578.1279 387.84122l60.566895 0l0 57.637787l-60.566895 0z" fill-rule="evenodd"/><path fill="#000000" fill-opacity="0.0" d="m1637.8983 387.84253l60.566895 0l0 57.637787l-60.566895 0z" fill-rule="evenodd"/><path stroke="#000000" stroke-width="2.0" stroke-linejoin="round" stroke-linecap="butt" d="m1637.8983 387.84253l60.566895 0l0 57.637787l-60.566895 0z" fill-rule="evenodd"/><path fill="#000000" fill-opacity="0.0" d="m1578.1279 445.479l60.566895 0l0 57.637787l-60.566895 0z" fill-rule="evenodd"/><path stroke="#000000" stroke-width="2.0" stroke-linejoin="round" stroke-linecap="butt" d="m1578.1279 445.479l60.566895 0l0 57.637787l-60.566895 0z" fill-rule="evenodd"/><path fill="#000000" fill-opacity="0.0" d="m1637.8983 445.48032l60.566895 0l0 57.637787l-60.566895 0z" fill-rule="evenodd"/><path stroke="#000000" stroke-width="2.0" stroke-linejoin="round" stroke-linecap="butt" d="m1637.8983 445.48032l60.566895 0l0 57.637787l-60.566895 0z" fill-rule="evenodd"/><path fill="#000000" fill-opacity="0.0" d="m1577.7842 272.5656l60.566895 0l0 57.637817l-60.566895 0z" fill-rule="evenodd"/><path stroke="#000000" stroke-width="2.0" stroke-linejoin="round" stroke-linecap="butt" d="m1577.7842 272.5656l60.566895 0l0 57.637817l-60.566895 0z" fill-rule="evenodd"/><path fill="#000000" fill-opacity="0.0" d="m1637.5544 272.56693l60.566895 0l0 57.637787l-60.566895 0z" fill-rule="evenodd"/><path stroke="#000000" stroke-width="2.0" stroke-linejoin="round" stroke-linecap="butt" d="m1637.5544 272.56693l60.566895 0l0 57.637787l-60.566895 0z" fill-rule="evenodd"/><path fill="#000000" fill-opacity="0.0" d="m1577.7842 330.20343l60.566895 0l0 57.637787l-60.566895 0z" fill-rule="evenodd"/><path stroke="#000000" stroke-width="2.0" stroke-linejoin="round" stroke-linecap="butt" d="m1577.7842 330.20343l60.566895 0l0 57.637787l-60.566895 0z" fill-rule="evenodd"/><path fill="#000000" fill-opacity="0.0" d="m1637.5544 330.2047l60.566895 0l0 57.637817l-60.566895 0z" fill-rule="evenodd"/><path stroke="#000000" stroke-width="2.0" stroke-linejoin="round" stroke-linecap="butt" d="m1637.5544 330.2047l60.566895 0l0 57.637817l-60.566895 0z" fill-rule="evenodd"/><path fill="#000000" fill-opacity="0.0" d="m1577.5558 157.29004l60.566895 0l0 57.637787l-60.566895 0z" fill-rule="evenodd"/><path stroke="#000000" stroke-width="2.0" stroke-linejoin="round" stroke-linecap="butt" d="m1577.5558 157.29004l60.566895 0l0 57.637787l-60.566895 0z" fill-rule="evenodd"/><path fill="#000000" fill-opacity="0.0" d="m1637.3262 157.29134l60.566895 0l0 57.637802l-60.566895 0z" fill-rule="evenodd"/><path stroke="#000000" stroke-width="2.0" stroke-linejoin="round" stroke-linecap="butt" d="m1637.3262 157.29134l60.566895 0l0 57.637802l-60.566895 0z" fill-rule="evenodd"/><path fill="#000000" fill-opacity="0.0" d="m1577.5558 214.92783l60.566895 0l0 57.637787l-60.566895 0z" fill-rule="evenodd"/><path stroke="#000000" stroke-width="2.0" stroke-linejoin="round" stroke-linecap="butt" d="m1577.5558 214.92783l60.566895 0l0 57.637787l-60.566895 0z" fill-rule="evenodd"/><path fill="#000000" fill-opacity="0.0" d="m1637.3262 214.92914l60.566895 0l0 57.637787l-60.566895 0z" fill-rule="evenodd"/><path stroke="#000000" stroke-width="2.0" stroke-linejoin="round" stroke-linecap="butt" d="m1637.3262 214.92914l60.566895 0l0 57.637787l-60.566895 0z" fill-rule="evenodd"/><path fill="#000000" fill-opacity="0.0" d="m1577.5558 42.014442l60.566895 0l0 57.637794l-60.566895 0z" fill-rule="evenodd"/><path stroke="#000000" stroke-width="2.0" stroke-linejoin="round" stroke-linecap="butt" d="m1577.5558 42.014442l60.566895 0l0 57.637794l-60.566895 0z" fill-rule="evenodd"/><path fill="#000000" fill-opacity="0.0" d="m1637.3262 42.015747l60.566895 0l0 57.637794l-60.566895 0z" fill-rule="evenodd"/><path stroke="#000000" stroke-width="2.0" stroke-linejoin="round" stroke-linecap="butt" d="m1637.3262 42.015747l60.566895 0l0 57.637794l-60.566895 0z" fill-rule="evenodd"/><path fill="#000000" fill-opacity="0.0" d="m1577.5558 99.65224l60.566895 0l0 57.637802l-60.566895 0z" fill-rule="evenodd"/><path stroke="#000000" stroke-width="2.0" stroke-linejoin="round" stroke-linecap="butt" d="m1577.5558 99.65224l60.566895 0l0 57.637802l-60.566895 0z" fill-rule="evenodd"/><path fill="#000000" fill-opacity="0.0" d="m1637.3262 99.65354l60.566895 0l0 57.637794l-60.566895 0z" fill-rule="evenodd"/><path stroke="#000000" stroke-width="2.0" stroke-linejoin="round" stroke-linecap="butt" d="m1637.3262 99.65354l60.566895 0l0 57.637794l-60.566895 0z" fill-rule="evenodd"/><path fill="#420104" fill-opacity="0.4214" d="m60.22769 112.297905l60.566925 0l0 57.637794l-60.566925 0z" fill-rule="evenodd"/><path stroke="#000000" stroke-width="2.0" stroke-linejoin="round" stroke-linecap="butt" d="m60.22769 112.297905l60.566925 0l0 57.637794l-60.566925 0z" fill-rule="evenodd"/><path fill="#000000" fill-opacity="0.0" d="m119.99804 112.29921l60.566933 0l0 57.637802l-60.566933 0z" fill-rule="evenodd"/><path stroke="#000000" stroke-width="2.0" stroke-linejoin="round" stroke-linecap="butt" d="m119.99804 112.29921l60.566933 0l0 57.637802l-60.566933 0z" fill-rule="evenodd"/><path fill="#000000" fill-opacity="0.0" d="m179.9954 112.29921l60.56694 0l0 57.637802l-60.56694 0z" fill-rule="evenodd"/><path stroke="#000000" stroke-width="2.0" stroke-linejoin="round" stroke-linecap="butt" d="m179.9954 112.29921l60.56694 0l0 57.637802l-60.56694 0z" fill-rule="evenodd"/><path fill="#000000" fill-opacity="0.0" d="m239.9954 112.29921l60.56694 0l0 57.637802l-60.56694 0z" fill-rule="evenodd"/><path stroke="#000000" stroke-width="2.0" stroke-linejoin="round" stroke-linecap="butt" d="m239.9954 112.29921l60.56694 0l0 57.637802l-60.56694 0z" fill-rule="evenodd"/><path fill="#420104" fill-opacity="0.4214" d="m60.22769 169.9357l60.566925 0l0 57.637802l-60.566925 0z" fill-rule="evenodd"/><path stroke="#000000" stroke-width="2.0" stroke-linejoin="round" stroke-linecap="butt" d="m60.22769 169.9357l60.566925 0l0 57.637802l-60.566925 0z" fill-rule="evenodd"/><path fill="#420104" fill-opacity="0.4214" d="m119.99804 169.93701l60.566933 0l0 57.637787l-60.566933 0z" fill-rule="evenodd"/><path stroke="#000000" stroke-width="2.0" stroke-linejoin="round" stroke-linecap="butt" d="m119.99804 169.93701l60.566933 0l0 57.637787l-60.566933 0z" fill-rule="evenodd"/><path fill="#000000" fill-opacity="0.0" d="m179.9954 169.93701l60.56694 0l0 57.637787l-60.56694 0z" fill-rule="evenodd"/><path stroke="#000000" stroke-width="2.0" stroke-linejoin="round" stroke-linecap="butt" d="m179.9954 169.93701l60.56694 0l0 57.637787l-60.56694 0z" fill-rule="evenodd"/><path fill="#000000" fill-opacity="0.0" d="m239.9954 169.93701l60.56694 0l0 57.637787l-60.56694 0z" fill-rule="evenodd"/><path stroke="#000000" stroke-width="2.0" stroke-linejoin="round" stroke-linecap="butt" d="m239.9954 169.93701l60.56694 0l0 57.637787l-60.56694 0z" fill-rule="evenodd"/><path fill="#420104" fill-opacity="0.4214" d="m60.22769 227.5735l60.566925 0l0 57.637802l-60.566925 0z" fill-rule="evenodd"/><path stroke="#000000" stroke-width="2.0" stroke-linejoin="round" stroke-linecap="butt" d="m60.22769 227.5735l60.566925 0l0 57.637802l-60.566925 0z" fill-rule="evenodd"/><path fill="#420104" fill-opacity="0.4214" d="m119.99804 227.5748l60.566933 0l0 57.637787l-60.566933 0z" fill-rule="evenodd"/><path stroke="#000000" stroke-width="2.0" stroke-linejoin="round" stroke-linecap="butt" d="m119.99804 227.5748l60.566933 0l0 57.637787l-60.566933 0z" fill-rule="evenodd"/><path fill="#420104" fill-opacity="0.4214" d="m179.9954 227.5748l60.56694 0l0 57.637787l-60.56694 0z" fill-rule="evenodd"/><path stroke="#000000" stroke-width="2.0" stroke-linejoin="round" stroke-linecap="butt" d="m179.9954 227.5748l60.56694 0l0 57.637787l-60.56694 0z" fill-rule="evenodd"/><path fill="#000000" fill-opacity="0.0" d="m239.9954 227.5748l60.56694 0l0 57.637787l-60.56694 0z" fill-rule="evenodd"/><path stroke="#000000" stroke-width="2.0" stroke-linejoin="round" stroke-linecap="butt" d="m239.9954 227.5748l60.56694 0l0 57.637787l-60.56694 0z" fill-rule="evenodd"/><path fill="#420104" fill-opacity="0.4214" d="m60.22769 285.2113l60.566925 0l0 57.637787l-60.566925 0z" fill-rule="evenodd"/><path stroke="#000000" stroke-width="2.0" stroke-linejoin="round" stroke-linecap="butt" d="m60.22769 285.2113l60.566925 0l0 57.637787l-60.566925 0z" fill-rule="evenodd"/><path fill="#420104" fill-opacity="0.4214" d="m119.99804 285.2126l60.566933 0l0 57.637817l-60.566933 0z" fill-rule="evenodd"/><path stroke="#000000" stroke-width="2.0" stroke-linejoin="round" stroke-linecap="butt" d="m119.99804 285.2126l60.566933 0l0 57.637817l-60.566933 0z" fill-rule="evenodd"/><path fill="#420104" fill-opacity="0.4214" d="m179.9954 285.2126l60.56694 0l0 57.637817l-60.56694 0z" fill-rule="evenodd"/><path stroke="#000000" stroke-width="2.0" stroke-linejoin="round" stroke-linecap="butt" d="m179.9954 285.2126l60.56694 0l0 57.637817l-60.56694 0z" fill-rule="evenodd"/><path fill="#420104" fill-opacity="0.4214" d="m239.9954 285.2126l60.56694 0l0 57.637817l-60.56694 0z" fill-rule="evenodd"/><path stroke="#000000" stroke-width="2.0" stroke-linejoin="round" stroke-linecap="butt" d="m239.9954 285.2126l60.56694 0l0 57.637817l-60.56694 0z" fill-rule="evenodd"/><path fill="#000000" fill-opacity="0.0" d="m60.22769 342.8491l60.566925 0l0 57.637787l-60.566925 0z" fill-rule="evenodd"/><path stroke="#000000" stroke-width="2.0" stroke-linejoin="round" stroke-linecap="butt" d="m60.22769 342.8491l60.566925 0l0 57.637787l-60.566925 0z" fill-rule="evenodd"/><path fill="#000000" fill-opacity="0.0" d="m119.99804 342.8504l60.566933 0l0 57.637787l-60.566933 0z" fill-rule="evenodd"/><path stroke="#000000" stroke-width="2.0" stroke-linejoin="round" stroke-linecap="butt" d="m119.99804 342.8504l60.566933 0l0 57.637787l-60.566933 0z" fill-rule="evenodd"/><path fill="#000000" fill-opacity="0.0" d="m179.9954 342.8504l60.56694 0l0 57.637787l-60.56694 0z" fill-rule="evenodd"/><path stroke="#000000" stroke-width="2.0" stroke-linejoin="round" stroke-linecap="butt" d="m179.9954 342.8504l60.56694 0l0 57.637787l-60.56694 0z" fill-rule="evenodd"/><path fill="#000000" fill-opacity="0.0" d="m239.9954 342.8504l60.56694 0l0 57.637787l-60.56694 0z" fill-rule="evenodd"/><path stroke="#000000" stroke-width="2.0" stroke-linejoin="round" stroke-linecap="butt" d="m239.9954 342.8504l60.56694 0l0 57.637787l-60.56694 0z" fill-rule="evenodd"/><path fill="#000000" fill-opacity="0.0" d="m60.22769 400.48688l60.566925 0l0 57.637787l-60.566925 0z" fill-rule="evenodd"/><path stroke="#000000" stroke-width="2.0" stroke-linejoin="round" stroke-linecap="butt" d="m60.22769 400.48688l60.566925 0l0 57.637787l-60.566925 0z" fill-rule="evenodd"/><path fill="#000000" fill-opacity="0.0" d="m119.99804 400.4882l60.566933 0l0 57.637787l-60.566933 0z" fill-rule="evenodd"/><path stroke="#000000" stroke-width="2.0" stroke-linejoin="round" stroke-linecap="butt" d="m119.99804 400.4882l60.566933 0l0 57.637787l-60.566933 0z" fill-rule="evenodd"/><path fill="#000000" fill-opacity="0.0" d="m179.9954 400.4882l60.56694 0l0 57.637787l-60.56694 0z" fill-rule="evenodd"/><path stroke="#000000" stroke-width="2.0" stroke-linejoin="round" stroke-linecap="butt" d="m179.9954 400.4882l60.56694 0l0 57.637787l-60.56694 0z" fill-rule="evenodd"/><path fill="#000000" fill-opacity="0.0" d="m239.9954 400.4882l60.56694 0l0 57.637787l-60.56694 0z" fill-rule="evenodd"/><path stroke="#000000" stroke-width="2.0" stroke-linejoin="round" stroke-linecap="butt" d="m239.9954 400.4882l60.56694 0l0 57.637787l-60.56694 0z" fill-rule="evenodd"/><path fill="#000000" fill-opacity="0.0" d="m299.98883 342.8491l60.566956 0l0 57.637787l-60.566956 0z" fill-rule="evenodd"/><path stroke="#000000" stroke-width="2.0" stroke-linejoin="round" stroke-linecap="butt" d="m299.98883 342.8491l60.566956 0l0 57.637787l-60.566956 0z" fill-rule="evenodd"/><path fill="#000000" fill-opacity="0.0" d="m359.7592 342.8504l60.566925 0l0 57.637787l-60.566925 0z" fill-rule="evenodd"/><path stroke="#000000" stroke-width="2.0" stroke-linejoin="round" stroke-linecap="butt" d="m359.7592 342.8504l60.566925 0l0 57.637787l-60.566925 0z" fill-rule="evenodd"/><path fill="#000000" fill-opacity="0.0" d="m299.98883 400.48688l60.566956 0l0 57.637787l-60.566956 0z" fill-rule="evenodd"/><path stroke="#000000" stroke-width="2.0" stroke-linejoin="round" stroke-linecap="butt" d="m299.98883 400.48688l60.566956 0l0 57.637787l-60.566956 0z" fill-rule="evenodd"/><path fill="#000000" fill-opacity="0.0" d="m359.7592 400.4882l60.566925 0l0 57.637787l-60.566925 0z" fill-rule="evenodd"/><path stroke="#000000" stroke-width="2.0" stroke-linejoin="round" stroke-linecap="butt" d="m359.7592 400.4882l60.566925 0l0 57.637787l-60.566925 0z" fill-rule="evenodd"/><path fill="#000000" fill-opacity="0.0" d="m299.7605 227.5735l60.566925 0l0 57.637802l-60.566925 0z" fill-rule="evenodd"/><path stroke="#000000" stroke-width="2.0" stroke-linejoin="round" stroke-linecap="butt" d="m299.7605 227.5735l60.566925 0l0 57.637802l-60.566925 0z" fill-rule="evenodd"/><path fill="#000000" fill-opacity="0.0" d="m359.53085 227.5748l60.566925 0l0 57.637787l-60.566925 0z" fill-rule="evenodd"/><path stroke="#000000" stroke-width="2.0" stroke-linejoin="round" stroke-linecap="butt" d="m359.53085 227.5748l60.566925 0l0 57.637787l-60.566925 0z" fill-rule="evenodd"/><path fill="#000000" fill-opacity="0.0" d="m299.7605 285.2113l60.566925 0l0 57.637787l-60.566925 0z" fill-rule="evenodd"/><path stroke="#000000" stroke-width="2.0" stroke-linejoin="round" stroke-linecap="butt" d="m299.7605 285.2113l60.566925 0l0 57.637787l-60.566925 0z" fill-rule="evenodd"/><path fill="#000000" fill-opacity="0.0" d="m359.53085 285.2126l60.566925 0l0 57.637817l-60.566925 0z" fill-rule="evenodd"/><path stroke="#000000" stroke-width="2.0" stroke-linejoin="round" stroke-linecap="butt" d="m359.53085 285.2126l60.566925 0l0 57.637817l-60.566925 0z" fill-rule="evenodd"/><path fill="#000000" fill-opacity="0.0" d="m299.7605 112.297905l60.566925 0l0 57.637794l-60.566925 0z" fill-rule="evenodd"/><path stroke="#000000" stroke-width="2.0" stroke-linejoin="round" stroke-linecap="butt" d="m299.7605 112.297905l60.566925 0l0 57.637794l-60.566925 0z" fill-rule="evenodd"/><path fill="#000000" fill-opacity="0.0" d="m359.53085 112.29921l60.566925 0l0 57.637802l-60.566925 0z" fill-rule="evenodd"/><path stroke="#000000" stroke-width="2.0" stroke-linejoin="round" stroke-linecap="butt" d="m359.53085 112.29921l60.566925 0l0 57.637802l-60.566925 0z" fill-rule="evenodd"/><path fill="#000000" fill-opacity="0.0" d="m299.7605 169.9357l60.566925 0l0 57.637802l-60.566925 0z" fill-rule="evenodd"/><path stroke="#000000" stroke-width="2.0" stroke-linejoin="round" stroke-linecap="butt" d="m299.7605 169.9357l60.566925 0l0 57.637802l-60.566925 0z" fill-rule="evenodd"/><path fill="#000000" fill-opacity="0.0" d="m359.53085 169.93701l60.566925 0l0 57.637787l-60.566925 0z" fill-rule="evenodd"/><path stroke="#000000" stroke-width="2.0" stroke-linejoin="round" stroke-linecap="butt" d="m359.53085 169.93701l60.566925 0l0 57.637787l-60.566925 0z" fill-rule="evenodd"/><path fill="#d9ead3" fill-opacity="0.44" d="m580.98096 112.297905l60.566956 0l0 57.637794l-60.566956 0z" fill-rule="evenodd"/><path stroke="#000000" stroke-width="2.0" stroke-linejoin="round" stroke-linecap="butt" d="m580.98096 112.297905l60.566956 0l0 57.637794l-60.566956 0z" fill-rule="evenodd"/><path fill="#000000" fill-opacity="0.0" d="m640.75134 112.29921l60.566895 0l0 57.637802l-60.566895 0z" fill-rule="evenodd"/><path stroke="#000000" stroke-width="2.0" stroke-linejoin="round" stroke-linecap="butt" d="m640.75134 112.29921l60.566895 0l0 57.637802l-60.566895 0z" fill-rule="evenodd"/><path fill="#000000" fill-opacity="0.0" d="m700.7487 112.29921l60.566895 0l0 57.637802l-60.566895 0z" fill-rule="evenodd"/><path stroke="#000000" stroke-width="2.0" stroke-linejoin="round" stroke-linecap="butt" d="m700.7487 112.29921l60.566895 0l0 57.637802l-60.566895 0z" fill-rule="evenodd"/><path fill="#000000" fill-opacity="0.0" d="m760.7487 112.29921l60.566895 0l0 57.637802l-60.566895 0z" fill-rule="evenodd"/><path stroke="#000000" stroke-width="2.0" stroke-linejoin="round" stroke-linecap="butt" d="m760.7487 112.29921l60.566895 0l0 57.637802l-60.566895 0z" fill-rule="evenodd"/><path fill="#d9ead3" fill-opacity="0.44" d="m580.98096 169.9357l60.566956 0l0 57.637802l-60.566956 0z" fill-rule="evenodd"/><path stroke="#000000" stroke-width="2.0" stroke-linejoin="round" stroke-linecap="butt" d="m580.98096 169.9357l60.566956 0l0 57.637802l-60.566956 0z" fill-rule="evenodd"/><path fill="#d9ead3" fill-opacity="0.44" d="m640.75134 169.93701l60.566895 0l0 57.637787l-60.566895 0z" fill-rule="evenodd"/><path stroke="#000000" stroke-width="2.0" stroke-linejoin="round" stroke-linecap="butt" d="m640.75134 169.93701l60.566895 0l0 57.637787l-60.566895 0z" fill-rule="evenodd"/><path fill="#000000" fill-opacity="0.0" d="m700.7487 169.93701l60.566895 0l0 57.637787l-60.566895 0z" fill-rule="evenodd"/><path stroke="#000000" stroke-width="2.0" stroke-linejoin="round" stroke-linecap="butt" d="m700.7487 169.93701l60.566895 0l0 57.637787l-60.566895 0z" fill-rule="evenodd"/><path fill="#000000" fill-opacity="0.0" d="m760.7487 169.93701l60.566895 0l0 57.637787l-60.566895 0z" fill-rule="evenodd"/><path stroke="#000000" stroke-width="2.0" stroke-linejoin="round" stroke-linecap="butt" d="m760.7487 169.93701l60.566895 0l0 57.637787l-60.566895 0z" fill-rule="evenodd"/><path fill="#d9ead3" fill-opacity="0.44" d="m580.98096 227.5735l60.566956 0l0 57.637802l-60.566956 0z" fill-rule="evenodd"/><path stroke="#000000" stroke-width="2.0" stroke-linejoin="round" stroke-linecap="butt" d="m580.98096 227.5735l60.566956 0l0 57.637802l-60.566956 0z" fill-rule="evenodd"/><path fill="#d9ead3" fill-opacity="0.44" d="m640.75134 227.5748l60.566895 0l0 57.637787l-60.566895 0z" fill-rule="evenodd"/><path stroke="#000000" stroke-width="2.0" stroke-linejoin="round" stroke-linecap="butt" d="m640.75134 227.5748l60.566895 0l0 57.637787l-60.566895 0z" fill-rule="evenodd"/><path fill="#d9ead3" fill-opacity="0.44" d="m700.7487 227.5748l60.566895 0l0 57.637787l-60.566895 0z" fill-rule="evenodd"/><path stroke="#000000" stroke-width="2.0" stroke-linejoin="round" stroke-linecap="butt" d="m700.7487 227.5748l60.566895 0l0 57.637787l-60.566895 0z" fill-rule="evenodd"/><path fill="#000000" fill-opacity="0.0" d="m760.7487 227.5748l60.566895 0l0 57.637787l-60.566895 0z" fill-rule="evenodd"/><path stroke="#000000" stroke-width="2.0" stroke-linejoin="round" stroke-linecap="butt" d="m760.7487 227.5748l60.566895 0l0 57.637787l-60.566895 0z" fill-rule="evenodd"/><path fill="#d9ead3" fill-opacity="0.44" d="m580.98096 285.2113l60.566956 0l0 57.637787l-60.566956 0z" fill-rule="evenodd"/><path stroke="#000000" stroke-width="2.0" stroke-linejoin="round" stroke-linecap="butt" d="m580.98096 285.2113l60.566956 0l0 57.637787l-60.566956 0z" fill-rule="evenodd"/><path fill="#d9ead3" fill-opacity="0.44" d="m640.75134 285.2126l60.566895 0l0 57.637817l-60.566895 0z" fill-rule="evenodd"/><path stroke="#000000" stroke-width="2.0" stroke-linejoin="round" stroke-linecap="butt" d="m640.75134 285.2126l60.566895 0l0 57.637817l-60.566895 0z" fill-rule="evenodd"/><path fill="#d9ead3" fill-opacity="0.44" d="m700.7487 285.2126l60.566895 0l0 57.637817l-60.566895 0z" fill-rule="evenodd"/><path stroke="#000000" stroke-width="2.0" stroke-linejoin="round" stroke-linecap="butt" d="m700.7487 285.2126l60.566895 0l0 57.637817l-60.566895 0z" fill-rule="evenodd"/><path fill="#d9ead3" fill-opacity="0.44" d="m760.7487 285.2126l60.566895 0l0 57.637817l-60.566895 0z" fill-rule="evenodd"/><path stroke="#000000" stroke-width="2.0" stroke-linejoin="round" stroke-linecap="butt" d="m760.7487 285.2126l60.566895 0l0 57.637817l-60.566895 0z" fill-rule="evenodd"/><path fill="#000000" fill-opacity="0.0" d="m580.98096 342.8491l60.566956 0l0 57.637787l-60.566956 0z" fill-rule="evenodd"/><path stroke="#000000" stroke-width="2.0" stroke-linejoin="round" stroke-linecap="butt" d="m580.98096 342.8491l60.566956 0l0 57.637787l-60.566956 0z" fill-rule="evenodd"/><path fill="#000000" fill-opacity="0.0" d="m640.75134 342.8504l60.566895 0l0 57.637787l-60.566895 0z" fill-rule="evenodd"/><path stroke="#000000" stroke-width="2.0" stroke-linejoin="round" stroke-linecap="butt" d="m640.75134 342.8504l60.566895 0l0 57.637787l-60.566895 0z" fill-rule="evenodd"/><path fill="#000000" fill-opacity="0.0" d="m700.7487 342.8504l60.566895 0l0 57.637787l-60.566895 0z" fill-rule="evenodd"/><path stroke="#000000" stroke-width="2.0" stroke-linejoin="round" stroke-linecap="butt" d="m700.7487 342.8504l60.566895 0l0 57.637787l-60.566895 0z" fill-rule="evenodd"/><path fill="#000000" fill-opacity="0.0" d="m760.7487 342.8504l60.566895 0l0 57.637787l-60.566895 0z" fill-rule="evenodd"/><path stroke="#000000" stroke-width="2.0" stroke-linejoin="round" stroke-linecap="butt" d="m760.7487 342.8504l60.566895 0l0 57.637787l-60.566895 0z" fill-rule="evenodd"/><path fill="#000000" fill-opacity="0.0" d="m580.98096 400.48688l60.566956 0l0 57.637787l-60.566956 0z" fill-rule="evenodd"/><path stroke="#000000" stroke-width="2.0" stroke-linejoin="round" stroke-linecap="butt" d="m580.98096 400.48688l60.566956 0l0 57.637787l-60.566956 0z" fill-rule="evenodd"/><path fill="#000000" fill-opacity="0.0" d="m640.75134 400.4882l60.566895 0l0 57.637787l-60.566895 0z" fill-rule="evenodd"/><path stroke="#000000" stroke-width="2.0" stroke-linejoin="round" stroke-linecap="butt" d="m640.75134 400.4882l60.566895 0l0 57.637787l-60.566895 0z" fill-rule="evenodd"/><path fill="#000000" fill-opacity="0.0" d="m700.7487 400.4882l60.566895 0l0 57.637787l-60.566895 0z" fill-rule="evenodd"/><path stroke="#000000" stroke-width="2.0" stroke-linejoin="round" stroke-linecap="butt" d="m700.7487 400.4882l60.566895 0l0 57.637787l-60.566895 0z" fill-rule="evenodd"/><path fill="#000000" fill-opacity="0.0" d="m760.7487 400.4882l60.566895 0l0 57.637787l-60.566895 0z" fill-rule="evenodd"/><path stroke="#000000" stroke-width="2.0" stroke-linejoin="round" stroke-linecap="butt" d="m760.7487 400.4882l60.566895 0l0 57.637787l-60.566895 0z" fill-rule="evenodd"/><path fill="#000000" fill-opacity="0.0" d="m820.7421 342.8491l60.566956 0l0 57.637787l-60.566956 0z" fill-rule="evenodd"/><path stroke="#000000" stroke-width="2.0" stroke-linejoin="round" stroke-linecap="butt" d="m820.7421 342.8491l60.566956 0l0 57.637787l-60.566956 0z" fill-rule="evenodd"/><path fill="#000000" fill-opacity="0.0" d="m880.51245 342.8504l60.566956 0l0 57.637787l-60.566956 0z" fill-rule="evenodd"/><path stroke="#000000" stroke-width="2.0" stroke-linejoin="round" stroke-linecap="butt" d="m880.51245 342.8504l60.566956 0l0 57.637787l-60.566956 0z" fill-rule="evenodd"/><path fill="#000000" fill-opacity="0.0" d="m820.7421 400.48688l60.566956 0l0 57.637787l-60.566956 0z" fill-rule="evenodd"/><path stroke="#000000" stroke-width="2.0" stroke-linejoin="round" stroke-linecap="butt" d="m820.7421 400.48688l60.566956 0l0 57.637787l-60.566956 0z" fill-rule="evenodd"/><path fill="#000000" fill-opacity="0.0" d="m880.51245 400.4882l60.566956 0l0 57.637787l-60.566956 0z" fill-rule="evenodd"/><path stroke="#000000" stroke-width="2.0" stroke-linejoin="round" stroke-linecap="butt" d="m880.51245 400.4882l60.566956 0l0 57.637787l-60.566956 0z" fill-rule="evenodd"/><path fill="#000000" fill-opacity="0.0" d="m820.5138 227.5735l60.566895 0l0 57.637802l-60.566895 0z" fill-rule="evenodd"/><path stroke="#000000" stroke-width="2.0" stroke-linejoin="round" stroke-linecap="butt" d="m820.5138 227.5735l60.566895 0l0 57.637802l-60.566895 0z" fill-rule="evenodd"/><path fill="#000000" fill-opacity="0.0" d="m880.2841 227.5748l60.566956 0l0 57.637787l-60.566956 0z" fill-rule="evenodd"/><path stroke="#000000" stroke-width="2.0" stroke-linejoin="round" stroke-linecap="butt" d="m880.2841 227.5748l60.566956 0l0 57.637787l-60.566956 0z" fill-rule="evenodd"/><path fill="#000000" fill-opacity="0.0" d="m820.5138 285.2113l60.566895 0l0 57.637787l-60.566895 0z" fill-rule="evenodd"/><path stroke="#000000" stroke-width="2.0" stroke-linejoin="round" stroke-linecap="butt" d="m820.5138 285.2113l60.566895 0l0 57.637787l-60.566895 0z" fill-rule="evenodd"/><path fill="#000000" fill-opacity="0.0" d="m880.2841 285.2126l60.566956 0l0 57.637817l-60.566956 0z" fill-rule="evenodd"/><path stroke="#000000" stroke-width="2.0" stroke-linejoin="round" stroke-linecap="butt" d="m880.2841 285.2126l60.566956 0l0 57.637817l-60.566956 0z" fill-rule="evenodd"/><path fill="#000000" fill-opacity="0.0" d="m820.5138 112.297905l60.566895 0l0 57.637794l-60.566895 0z" fill-rule="evenodd"/><path stroke="#000000" stroke-width="2.0" stroke-linejoin="round" stroke-linecap="butt" d="m820.5138 112.297905l60.566895 0l0 57.637794l-60.566895 0z" fill-rule="evenodd"/><path fill="#000000" fill-opacity="0.0" d="m880.2841 112.29921l60.566956 0l0 57.637802l-60.566956 0z" fill-rule="evenodd"/><path stroke="#000000" stroke-width="2.0" stroke-linejoin="round" stroke-linecap="butt" d="m880.2841 112.29921l60.566956 0l0 57.637802l-60.566956 0z" fill-rule="evenodd"/><path fill="#000000" fill-opacity="0.0" d="m820.5138 169.9357l60.566895 0l0 57.637802l-60.566895 0z" fill-rule="evenodd"/><path stroke="#000000" stroke-width="2.0" stroke-linejoin="round" stroke-linecap="butt" d="m820.5138 169.9357l60.566895 0l0 57.637802l-60.566895 0z" fill-rule="evenodd"/><path fill="#000000" fill-opacity="0.0" d="m880.2841 169.93701l60.566956 0l0 57.637787l-60.566956 0z" fill-rule="evenodd"/><path stroke="#000000" stroke-width="2.0" stroke-linejoin="round" stroke-linecap="butt" d="m880.2841 169.93701l60.566956 0l0 57.637787l-60.566956 0z" fill-rule="evenodd"/><path fill="#000000" fill-opacity="0.0" d="m419.52756 244.77953l125.0394 0l0 53.32283l-125.0394 0z" fill-rule="evenodd"/><path fill="#000000" d="m432.69373 280.65952l0 -20.046875l6.0625 0l3.625 13.671875l3.59375 -13.671875l6.078125 0l0 20.046875l-3.765625 0l0 -15.78125l-3.96875 15.78125l-3.90625 0l-3.953125 -15.78125l0 15.78125l-3.765625 0zm23.371094 0l0 -20.046875l14.875 0l0 3.390625l-10.828125 0l0 4.453125l10.0625 0l0 3.375l-10.0625 0l0 5.453125l11.203125 0l0 3.375l-15.25 0zm18.691406 0l0 -20.046875l8.515625 0q3.21875 0 4.671875 0.546875q1.453125 0.53125 2.328125 1.921875q0.875 1.375 0.875 3.15625q0 2.25 -1.328125 3.71875q-1.3125 1.46875 -3.953125 1.859375q1.3125 0.765625 2.15625 1.6875q0.859375 0.90625 2.3125 3.25l2.453125 3.90625l-4.84375 0l-2.921875 -4.359375q-1.5625 -2.34375 -2.140625 -2.953125q-0.578125 -0.609375 -1.21875 -0.828125q-0.640625 -0.234375 -2.03125 -0.234375l-0.828125 0l0 8.375l-4.046875 0zm4.046875 -11.5625l3.0 0q2.90625 0 3.625 -0.25q0.734375 -0.25 1.140625 -0.84375q0.421875 -0.609375 0.421875 -1.515625q0 -1.0 -0.546875 -1.625q-0.546875 -0.625 -1.53125 -0.78125q-0.484375 -0.078125 -2.953125 -0.078125l-3.15625 0l0 5.09375zm25.486328 4.1875l0 -3.375l8.71875 0l0 7.984375q-1.265625 1.234375 -3.6875 2.171875q-2.40625 0.9375 -4.875 0.9375q-3.140625 0 -5.484375 -1.3125q-2.34375 -1.328125 -3.515625 -3.78125q-1.171875 -2.453125 -1.171875 -5.34375q0 -3.125 1.3125 -5.5625q1.3125 -2.4375 3.84375 -3.734375q1.921875 -1.0 4.796875 -1.0q3.734375 0 5.828125 1.578125q2.09375 1.5625 2.703125 4.3125l-4.015625 0.765625q-0.4375 -1.484375 -1.609375 -2.328125q-1.15625 -0.859375 -2.90625 -0.859375q-2.65625 0 -4.21875 1.6875q-1.5625 1.671875 -1.5625 4.984375q0 3.5625 1.578125 5.34375q1.59375 1.78125 4.15625 1.78125q1.28125 0 2.546875 -0.484375q1.28125 -0.5 2.203125 -1.21875l0 -2.546875l-4.640625 0zm12.451172 7.375l0 -20.046875l14.875 0l0 3.390625l-10.828125 0l0 4.453125l10.0625 0l0 3.375l-10.0625 0l0 5.453125l11.203125 0l0 3.375l-15.25 0z" fill-rule="nonzero"/><path fill="#000000" fill-opacity="0.0" d="m969.3202 243.19685l89.66931 0l0 90.488174l-89.66931 0z" fill-rule="evenodd"/><path fill="#000000" d="m999.4652 285.14185l0 -7.390625l29.359375 0l0 7.390625l-29.359375 0zm0 12.71875l0 -7.421875l29.359375 0l0 7.421875l-29.359375 0z" fill-rule="nonzero"/><path fill="#000000" fill-opacity="0.0" d="m60.228348 70.28346l60.566925 0l0 42.015747l-60.566925 0z" fill-rule="evenodd"/><path fill="#000000" d="m92.6677 98.01134l-2.5625 0l0 -9.640625q-1.40625 1.3125 -3.3125 1.9375l0 -2.328125q1.015625 -0.328125 2.1875 -1.234375q1.171875 -0.921875 1.609375 -2.140625l2.078125 0l0 13.40625z" fill-rule="nonzero"/><path fill="#000000" fill-opacity="0.0" d="m0.23097113 112.29921l60.56693 0l0 57.637802l-60.56693 0z" fill-rule="evenodd"/><path fill="#000000" d="m48.765934 147.8381l-2.5625 0l0 -9.640625q-1.40625 1.3125 -3.3125 1.9375l0 -2.328125q1.015625 -0.328125 2.1875 -1.234375q1.171875 -0.921875 1.609375 -2.140625l2.078125 0l0 13.40625z" fill-rule="nonzero"/><path fill="#000000" fill-opacity="0.0" d="m119.997375 70.28346l60.566925 0l0 42.015747l-60.566925 0z" fill-rule="evenodd"/><path fill="#000000" d="m154.53047 95.63634l0 2.375l-8.968735 0q0.140625 -1.34375 0.859375 -2.546875q0.734375 -1.21875 2.890625 -3.203125q1.734375 -1.625 2.125 -2.1875q0.53125 -0.796875 0.53125 -1.578125q0 -0.84375 -0.46875 -1.296875q-0.453125 -0.46875 -1.265625 -0.46875q-0.796875 0 -1.28125 0.484375q-0.46875 0.46875 -0.546875 1.59375l-2.546875 -0.25q0.234375 -2.109375 1.421875 -3.03125q1.203125 -0.921875 3.015625 -0.921875q1.9687347 0 3.0937347 1.0625q1.140625 1.0625 1.140625 2.65625q0 0.890625 -0.328125 1.71875q-0.3125 0.8125 -1.015625 1.703125q-0.46875 0.59375 -1.6874847 1.703125q-1.203125 1.109375 -1.53125 1.484375q-0.3125 0.359375 -0.515625 0.703125l5.0781097 0z" fill-rule="nonzero"/><path fill="#000000" fill-opacity="0.0" d="m179.99475 70.28346l60.566925 0l0 42.015747l-60.566925 0z" fill-rule="evenodd"/><path fill="#000000" d="m215.21571 98.01134l0 -2.5625l2.5625 0l0 2.5625l-2.5625 0zm-6.21875 0l0 -2.5625l2.5625 0l0 2.5625l-2.5625 0zm-6.21875 0l0 -2.5625l2.5625 0l0 2.5625l-2.5625 0z" fill-rule="nonzero"/><path fill="#000000" fill-opacity="0.0" d="m239.19423 70.28346l60.56694 0l0 42.015747l-60.56694 0z" fill-rule="evenodd"/><path fill="#000000" d="m265.53983 98.01134l0 -13.359375l2.5625 0l0 7.09375l3.0 -3.40625l3.140625 0l-3.296875 3.53125l3.53125 6.140625l-2.75 0l-2.4375 -4.34375l-1.1875 1.25l0 3.09375l-2.5625 0z" fill-rule="nonzero"/><path fill="#000000" fill-opacity="0.0" d="m299.76117 70.28346l60.566925 0l0 42.015747l-60.566925 0z" fill-rule="evenodd"/><path fill="#000000" d="m334.98212 98.01134l0 -2.5625l2.5625 0l0 2.5625l-2.5625 0zm-6.21875 0l0 -2.5625l2.5625 0l0 2.5625l-2.5625 0zm-6.21875 0l0 -2.5625l2.5625 0l0 2.5625l-2.5625 0z" fill-rule="nonzero"/><path fill="#000000" fill-opacity="0.0" d="m358.39108 70.28346l60.566925 0l0 42.015747l-60.566925 0z" fill-rule="evenodd"/><path fill="#000000" d="m393.26794 91.19884l-2.53125 0.453125q-0.125 -0.75 -0.578125 -1.125q-0.453125 -0.390625 -1.171875 -0.390625q-0.953125 0 -1.53125 0.65625q-0.5625 0.65625 -0.5625 2.203125q0 1.734375 0.578125 2.4375q0.578125 0.703125 1.546875 0.703125q0.734375 0 1.203125 -0.40625q0.46875 -0.421875 0.65625 -1.421875l2.515625 0.421875q-0.390625 1.734375 -1.515625 2.625q-1.109375 0.875 -2.96875 0.875q-2.125 0 -3.390625 -1.328125q-1.25 -1.34375 -1.25 -3.71875q0 -2.390625 1.265625 -3.71875q1.265625 -1.34375 3.421875 -1.34375q1.765625 0 2.796875 0.765625q1.046875 0.75 1.515625 2.3125z" fill-rule="nonzero"/><path fill="#000000" fill-opacity="0.0" d="m0 169.93701l60.56693 0l0 57.637787l-60.56693 0z" fill-rule="evenodd"/><path fill="#000000" d="m50.62871 203.1009l0 2.375l-8.96875 0q0.140625 -1.34375 0.859375 -2.546875q0.734375 -1.21875 2.890625 -3.203125q1.734375 -1.625 2.125 -2.1875q0.53125 -0.796875 0.53125 -1.578125q0 -0.84375 -0.46875 -1.296875q-0.453125 -0.46875 -1.265625 -0.46875q-0.796875 0 -1.28125 0.484375q-0.46875 0.46875 -0.546875 1.59375l-2.546875 -0.25q0.234375 -2.109375 1.421875 -3.03125q1.203125 -0.921875 3.015625 -0.921875q1.96875 0 3.09375 1.0625q1.140625 1.0625 1.140625 2.65625q0 0.890625 -0.328125 1.71875q-0.3125 0.8125 -1.015625 1.703125q-0.46875 0.59375 -1.6875 1.703125q-1.203125 1.109375 -1.53125 1.484375q-0.3125 0.359375 -0.515625 0.703125l5.078125 0z" fill-rule="nonzero"/><path fill="#000000" fill-opacity="0.0" d="m0 227.5748l60.56693 0l0 57.637787l-60.56693 0z" fill-rule="evenodd"/><path fill="#000000" d="m47.176304 263.1137l0 -2.5625l2.5625 0l0 2.5625l-2.5625 0zm-6.21875 0l0 -2.5625l2.5625 0l0 2.5625l-2.5625 0zm-6.21875 0l0 -2.5625l2.5625 0l0 2.5625l-2.5625 0z" fill-rule="nonzero"/><path fill="#000000" fill-opacity="0.0" d="m0 285.2126l60.56693 0l0 57.637817l-60.56693 0z" fill-rule="evenodd"/><path fill="#000000" d="m42.44121 320.7515l0 -13.359375l2.5625 0l0 7.09375l3.0 -3.40625l3.140625 0l-3.296875 3.53125l3.53125 6.140625l-2.75 0l-2.4375 -4.34375l-1.1875 1.25l0 3.09375l-2.5625 0z" fill-rule="nonzero"/><path fill="#000000" fill-opacity="0.0" d="m0 342.8504l60.56693 0l0 57.637787l-60.56693 0z" fill-rule="evenodd"/><path fill="#000000" d="m47.176304 378.38928l0 -2.5625l2.5625 0l0 2.5625l-2.5625 0zm-6.21875 0l0 -2.5625l2.5625 0l0 2.5625l-2.5625 0zm-6.21875 0l0 -2.5625l2.5625 0l0 2.5625l-2.5625 0z" fill-rule="nonzero"/><path fill="#000000" fill-opacity="0.0" d="m0 400.4882l60.56693 0l0 57.637787l-60.56693 0z" fill-rule="evenodd"/><path fill="#000000" d="m50.97246 429.21457l-2.53125 0.453125q-0.125 -0.75 -0.578125 -1.125q-0.453125 -0.390625 -1.171875 -0.390625q-0.953125 0 -1.53125 0.65625q-0.5625 0.65625 -0.5625 2.203125q0 1.734375 0.578125 2.4375q0.578125 0.703125 1.546875 0.703125q0.734375 0 1.203125 -0.40625q0.46875 -0.421875 0.65625 -1.421875l2.515625 0.421875q-0.390625 1.734375 -1.515625 2.625q-1.109375 0.875 -2.96875 0.875q-2.125 0 -3.390625 -1.328125q-1.25 -1.34375 -1.25 -3.71875q0 -2.390625 1.265625 -3.71875q1.265625 -1.34375 3.421875 -1.34375q1.765625 0 2.796875 0.765625q1.046875 0.75 1.515625 2.3125z" fill-rule="nonzero"/><path fill="#000000" fill-opacity="0.0" d="m518.84644 112.29921l60.566956 0l0 57.637802l-60.566956 0z" fill-rule="evenodd"/><path fill="#000000" d="m567.3814 147.8381l-2.5625 0l0 -9.640625q-1.40625 1.3125 -3.3125 1.9375l0 -2.328125q1.015625 -0.328125 2.1875 -1.234375q1.171875 -0.921875 1.609375 -2.140625l2.078125 0l0 13.40625z" fill-rule="nonzero"/><path fill="#000000" fill-opacity="0.0" d="m518.6155 169.93701l60.566956 0l0 57.637787l-60.566956 0z" fill-rule="evenodd"/><path fill="#000000" d="m569.2442 203.1009l0 2.375l-8.96875 0q0.140625 -1.34375 0.859375 -2.546875q0.734375 -1.21875 2.890625 -3.203125q1.734375 -1.625 2.125 -2.1875q0.53125 -0.796875 0.53125 -1.578125q0 -0.84375 -0.46875 -1.296875q-0.453125 -0.46875 -1.265625 -0.46875q-0.796875 0 -1.28125 0.484375q-0.46875 0.46875 -0.546875 1.59375l-2.546875 -0.25q0.234375 -2.109375 1.421875 -3.03125q1.203125 -0.921875 3.015625 -0.921875q1.96875 0 3.09375 1.0625q1.140625 1.0625 1.140625 2.65625q0 0.890625 -0.328125 1.71875q-0.3125 0.8125 -1.015625 1.703125q-0.46875 0.59375 -1.6875 1.703125q-1.203125 1.109375 -1.53125 1.484375q-0.3125 0.359375 -0.515625 0.703125l5.078125 0z" fill-rule="nonzero"/><path fill="#000000" fill-opacity="0.0" d="m518.6155 227.5748l60.566956 0l0 57.637787l-60.566956 0z" fill-rule="evenodd"/><path fill="#000000" d="m565.7918 263.1137l0 -2.5625l2.5625 0l0 2.5625l-2.5625 0zm-6.21875 0l0 -2.5625l2.5625 0l0 2.5625l-2.5625 0zm-6.21875 0l0 -2.5625l2.5625 0l0 2.5625l-2.5625 0z" fill-rule="nonzero"/><path fill="#000000" fill-opacity="0.0" d="m518.6155 285.2126l60.566956 0l0 57.637817l-60.566956 0z" fill-rule="evenodd"/><path fill="#000000" d="m563.8067 320.7515l-3.90625 -9.671875l2.6875 0l1.828125 4.9375l0.53125 1.640625q0.203125 -0.625 0.265625 -0.828125q0.125 -0.40625 0.265625 -0.8125l1.84375 -4.9375l2.625 0l-3.84375 9.671875l-2.296875 0z" fill-rule="nonzero"/><path fill="#000000" fill-opacity="0.0" d="m518.6155 342.8504l60.566956 0l0 57.637787l-60.566956 0z" fill-rule="evenodd"/><path fill="#000000" d="m565.7918 378.38928l0 -2.5625l2.5625 0l0 2.5625l-2.5625 0zm-6.21875 0l0 -2.5625l2.5625 0l0 2.5625l-2.5625 0zm-6.21875 0l0 -2.5625l2.5625 0l0 2.5625l-2.5625 0z" fill-rule="nonzero"/><path fill="#000000" fill-opacity="0.0" d="m518.6155 400.4882l60.566956 0l0 57.637787l-60.566956 0z" fill-rule="evenodd"/><path fill="#000000" d="m569.58795 429.21457l-2.53125 0.453125q-0.125 -0.75 -0.578125 -1.125q-0.453125 -0.390625 -1.171875 -0.390625q-0.953125 0 -1.53125 0.65625q-0.5625 0.65625 -0.5625 2.203125q0 1.734375 0.578125 2.4375q0.578125 0.703125 1.546875 0.703125q0.734375 0 1.203125 -0.40625q0.46875 -0.421875 0.65625 -1.421875l2.515625 0.421875q-0.390625 1.734375 -1.515625 2.625q-1.109375 0.875 -2.96875 0.875q-2.125 0 -3.390625 -1.328125q-1.25 -1.34375 -1.25 -3.71875q0 -2.390625 1.265625 -3.71875q1.265625 -1.34375 3.421875 -1.34375q1.765625 0 2.796875 0.765625q1.046875 0.75 1.515625 2.3125z" fill-rule="nonzero"/><path fill="#000000" fill-opacity="0.0" d="m580.9816 70.28346l60.566956 0l0 42.015747l-60.566956 0z" fill-rule="evenodd"/><path fill="#000000" d="m613.42096 98.01134l-2.5625 0l0 -9.640625q-1.40625 1.3125 -3.3125 1.9375l0 -2.328125q1.015625 -0.328125 2.1875 -1.234375q1.171875 -0.921875 1.609375 -2.140625l2.078125 0l0 13.40625z" fill-rule="nonzero"/><path fill="#000000" fill-opacity="0.0" d="m640.7507 70.28346l60.566895 0l0 42.015747l-60.566895 0z" fill-rule="evenodd"/><path fill="#000000" d="m675.28375 95.63634l0 2.375l-8.96875 0q0.140625 -1.34375 0.859375 -2.546875q0.734375 -1.21875 2.890625 -3.203125q1.734375 -1.625 2.125 -2.1875q0.53125 -0.796875 0.53125 -1.578125q0 -0.84375 -0.46875 -1.296875q-0.453125 -0.46875 -1.265625 -0.46875q-0.796875 0 -1.28125 0.484375q-0.46875 0.46875 -0.546875 1.59375l-2.546875 -0.25q0.234375 -2.109375 1.421875 -3.03125q1.203125 -0.921875 3.015625 -0.921875q1.96875 0 3.09375 1.0625q1.140625 1.0625 1.140625 2.65625q0 0.890625 -0.328125 1.71875q-0.3125 0.8125 -1.015625 1.703125q-0.46875 0.59375 -1.6875 1.703125q-1.203125 1.109375 -1.53125 1.484375q-0.3125 0.359375 -0.515625 0.703125l5.078125 0z" fill-rule="nonzero"/><path fill="#000000" fill-opacity="0.0" d="m700.74805 70.28346l60.566895 0l0 42.015747l-60.566895 0z" fill-rule="evenodd"/><path fill="#000000" d="m735.969 98.01134l0 -2.5625l2.5625 0l0 2.5625l-2.5625 0zm-6.21875 0l0 -2.5625l2.5625 0l0 2.5625l-2.5625 0zm-6.21875 0l0 -2.5625l2.5625 0l0 2.5625l-2.5625 0z" fill-rule="nonzero"/><path fill="#000000" fill-opacity="0.0" d="m759.9475 70.28346l60.566956 0l0 42.015747l-60.566956 0z" fill-rule="evenodd"/><path fill="#000000" d="m789.0431 98.01134l-3.90625 -9.671875l2.6875 0l1.828125 4.9375l0.53125 1.640625q0.203125 -0.625 0.265625 -0.828125q0.125 -0.40625 0.265625 -0.8125l1.84375 -4.9375l2.625 0l-3.84375 9.671875l-2.296875 0z" fill-rule="nonzero"/><path fill="#000000" fill-opacity="0.0" d="m820.51447 70.28346l60.566895 0l0 42.015747l-60.566895 0z" fill-rule="evenodd"/><path fill="#000000" d="m855.7354 98.01134l0 -2.5625l2.5625 0l0 2.5625l-2.5625 0zm-6.21875 0l0 -2.5625l2.5625 0l0 2.5625l-2.5625 0zm-6.21875 0l0 -2.5625l2.5625 0l0 2.5625l-2.5625 0z" fill-rule="nonzero"/><path fill="#000000" fill-opacity="0.0" d="m879.14435 70.28346l60.566956 0l0 42.015747l-60.566956 0z" fill-rule="evenodd"/><path fill="#000000" d="m914.02124 91.19884l-2.53125 0.453125q-0.125 -0.75 -0.578125 -1.125q-0.453125 -0.390625 -1.171875 -0.390625q-0.953125 0 -1.53125 0.65625q-0.5625 0.65625 -0.5625 2.203125q0 1.734375 0.578125 2.4375q0.578125 0.703125 1.546875 0.703125q0.734375 0 1.203125 -0.40625q0.46875 -0.421875 0.65625 -1.421875l2.515625 0.421875q-0.390625 1.734375 -1.515625 2.625q-1.109375 0.875 -2.96875 0.875q-2.125 0 -3.390625 -1.328125q-1.25 -1.34375 -1.25 -3.71875q0 -2.390625 1.265625 -3.71875q1.265625 -1.34375 3.421875 -1.34375q1.765625 0 2.796875 0.765625q1.046875 0.75 1.515625 2.3125z" fill-rule="nonzero"/><path fill="#000000" fill-opacity="0.0" d="m1037.9265 42.015747l60.566895 0l0 57.637794l-60.566895 0z" fill-rule="evenodd"/><path fill="#000000" d="m1086.4614 77.55464l-2.5625 0l0 -9.640625q-1.40625 1.3125 -3.3125 1.9375l0 -2.328125q1.015625 -0.328125 2.1875 -1.234375q1.171875 -0.921875 1.609375 -2.140625l2.078125 0l0 13.40625z" fill-rule="nonzero"/><path fill="#000000" fill-opacity="0.0" d="m1037.6956 99.65354l60.566895 0l0 57.637794l-60.566895 0z" fill-rule="evenodd"/><path fill="#000000" d="m1088.3242 132.81744l0 2.375l-8.96875 0q0.140625 -1.34375 0.859375 -2.546875q0.734375 -1.21875 2.890625 -3.203125q1.734375 -1.6250076 2.125 -2.1875076q0.53125 -0.796875 0.53125 -1.578125q0 -0.84375 -0.46875 -1.296875q-0.453125 -0.46875 -1.265625 -0.46875q-0.796875 0 -1.28125 0.484375q-0.46875 0.46875 -0.546875 1.59375l-2.546875 -0.25q0.234375 -2.109375 1.421875 -3.03125q1.203125 -0.921875 3.015625 -0.921875q1.96875 0 3.09375 1.0625q1.140625 1.0625 1.140625 2.65625q0 0.890625 -0.328125 1.71875q-0.3125 0.8125076 -1.015625 1.7031326q-0.46875 0.59375 -1.6875 1.703125q-1.203125 1.109375 -1.53125 1.484375q-0.3125 0.359375 -0.515625 0.703125l5.078125 0z" fill-rule="nonzero"/><path fill="#000000" fill-opacity="0.0" d="m1037.6956 157.29134l60.566895 0l0 57.637802l-60.566895 0z" fill-rule="evenodd"/><path fill="#000000" d="m1084.8718 192.83023l0 -2.5625l2.5625 0l0 2.5625l-2.5625 0zm-6.21875 0l0 -2.5625l2.5625 0l0 2.5625l-2.5625 0zm-6.21875 0l0 -2.5625l2.5625 0l0 2.5625l-2.5625 0z" fill-rule="nonzero"/><path fill="#000000" fill-opacity="0.0" d="m1037.6956 214.92914l60.566895 0l0 57.637787l-60.566895 0z" fill-rule="evenodd"/><path fill="#000000" d="m1080.1367 250.46803l0 -13.359375l2.5625 0l0 7.09375l3.0 -3.40625l3.140625 0l-3.296875 3.53125l3.53125 6.140625l-2.75 0l-2.4375 -4.34375l-1.1875 1.25l0 3.09375l-2.5625 0z" fill-rule="nonzero"/><path fill="#000000" fill-opacity="0.0" d="m1037.4646 503.1181l60.566895 0l0 57.637817l-60.566895 0z" fill-rule="evenodd"/><path fill="#000000" d="m1084.6409 538.657l0 -2.5625l2.5625 0l0 2.5625l-2.5625 0zm-6.21875 0l0 -2.5625l2.5625 0l0 2.5625l-2.5625 0zm-6.21875 0l0 -2.5625l2.5625 0l0 2.5625l-2.5625 0z" fill-rule="nonzero"/><path fill="#000000" fill-opacity="0.0" d="m1037.4646 560.7559l60.566895 0l0 57.637756l-60.566895 0z" fill-rule="evenodd"/><path fill="#000000" d="m1088.437 589.4823l-2.53125 0.453125q-0.125 -0.75 -0.578125 -1.125q-0.453125 -0.390625 -1.171875 -0.390625q-0.953125 0 -1.53125 0.65625q-0.5625 0.65625 -0.5625 2.203125q0 1.734375 0.578125 2.4375q0.578125 0.703125 1.546875 0.703125q0.734375 0 1.203125 -0.40625q0.46875 -0.421875 0.65625 -1.421875l2.515625 0.421875q-0.390625 1.734375 -1.515625 2.625q-1.109375 0.875 -2.96875 0.875q-2.125 0 -3.390625 -1.328125q-1.25 -1.34375 -1.25 -3.71875q0 -2.390625 1.265625 -3.71875q1.265625 -1.34375 3.421875 -1.34375q1.765625 0 2.796875 0.765625q1.046875 0.75 1.515625 2.3125z" fill-rule="nonzero"/><path fill="#000000" fill-opacity="0.0" d="m1037.6956 272.56693l60.566895 0l0 57.637787l-60.566895 0z" fill-rule="evenodd"/><path fill="#000000" d="m1058.8661 308.10583l0 -13.359375l2.5625 0l0 7.09375l3.0 -3.40625l3.140625 0l-3.296875 3.53125l3.53125 6.140625l-2.75 0l-2.4375 -4.34375l-1.1875 1.25l0 3.09375l-2.5625 0zm13.391357 -1.921875l0 -3.46875l-3.484375 0l0 -2.390625l3.484375 0l0 -3.484375l2.34375 0l0 3.484375l3.5 0l0 2.390625l-3.5 0l0 3.46875l-2.34375 0zm13.973022 1.921875l-2.5625 0l0 -9.640625q-1.40625 1.3125 -3.3125 1.9375l0 -2.328125q1.015625 -0.328125 2.1875 -1.234375q1.171875 -0.921875 1.609375 -2.140625l2.078125 0l0 13.40625z" fill-rule="nonzero"/><path fill="#000000" fill-opacity="0.0" d="m1037.4646 330.2047l60.566895 0l0 57.637817l-60.566895 0z" fill-rule="evenodd"/><path fill="#000000" d="m1055.6785 365.74362l0 -13.359375l2.703125 0l0 5.9375l5.4375 -5.9375l3.625 0l-5.015625 5.203125l5.296875 8.15625l-3.484375 0l-3.671875 -6.265625l-2.1875 2.234375l0 4.03125l-2.703125 0zm16.348022 -1.921875l0 -3.46875l-3.484375 0l0 -2.390625l3.484375 0l0 -3.484375l2.34375 0l0 3.484375l3.5 0l0 2.390625l-3.5 0l0 3.46875l-2.34375 0zm16.066772 -0.453125l0 2.375l-8.96875 0q0.140625 -1.34375 0.859375 -2.546875q0.734375 -1.21875 2.890625 -3.203125q1.734375 -1.625 2.125 -2.1875q0.53125 -0.796875 0.53125 -1.578125q0 -0.84375 -0.46875 -1.296875q-0.453125 -0.46875 -1.265625 -0.46875q-0.796875 0 -1.28125 0.484375q-0.46875 0.46875 -0.546875 1.59375l-2.546875 -0.25q0.234375 -2.109375 1.421875 -3.03125q1.203125 -0.921875 3.015625 -0.921875q1.96875 0 3.09375 1.0625q1.140625 1.0625 1.140625 2.65625q0 0.890625 -0.328125 1.71875q-0.3125 0.8125 -1.015625 1.703125q-0.46875 0.59375 -1.6875 1.703125q-1.203125 1.109375 -1.53125 1.484375q-0.3125 0.359375 -0.515625 0.703125l5.078125 0z" fill-rule="nonzero"/><path fill="#000000" fill-opacity="0.0" d="m1037.4646 387.84253l60.566895 0l0 57.637787l-60.566895 0z" fill-rule="evenodd"/><path fill="#000000" d="m1084.6409 423.3814l0 -2.5625l2.5625 0l0 2.5625l-2.5625 0zm-6.21875 0l0 -2.5625l2.5625 0l0 2.5625l-2.5625 0zm-6.21875 0l0 -2.5625l2.5625 0l0 2.5625l-2.5625 0z" fill-rule="nonzero"/><path fill="#000000" fill-opacity="0.0" d="m1037.4646 445.48032l60.566895 0l0 57.637787l-60.566895 0z" fill-rule="evenodd"/><path fill="#000000" d="m1058.6351 481.0192l0 -13.359375l2.5625 0l0 7.09375l3.0 -3.40625l3.140625 0l-3.296875 3.53125l3.53125 6.140625l-2.75 0l-2.4375 -4.34375l-1.1875 1.25l0 3.09375l-2.5625 0zm13.391357 -1.921875l0 -3.46875l-3.484375 0l0 -2.390625l3.484375 0l0 -3.484375l2.34375 0l0 3.484375l3.5 0l0 2.390625l-3.5 0l0 3.46875l-2.34375 0zm10.629272 1.921875l-3.90625 -9.671875l2.6875 0l1.828125 4.9375l0.53125 1.640625q0.203125 -0.625 0.265625 -0.828125q0.125 -0.40625 0.265625 -0.8125l1.84375 -4.9375l2.625 0l-3.84375 9.671875l-2.296875 0z" fill-rule="nonzero"/><path fill="#000000" fill-opacity="0.0" d="m1097.6903 0l60.566895 0l0 42.015747l-60.566895 0z" fill-rule="evenodd"/><path fill="#000000" d="m1130.1296 27.727875l-2.5625 0l0 -9.640625q-1.40625 1.3125 -3.3125 1.9375l0 -2.328125q1.015625 -0.328125 2.1875 -1.234375q1.171875 -0.921875 1.609375 -2.140625l2.078125 0l0 13.40625z" fill-rule="nonzero"/><path fill="#000000" fill-opacity="0.0" d="m1157.4594 0l60.566895 0l0 42.015747l-60.566895 0z" fill-rule="evenodd"/><path fill="#000000" d="m1191.9924 25.352875l0 2.375l-8.96875 0q0.140625 -1.34375 0.859375 -2.546875q0.734375 -1.21875 2.890625 -3.203125q1.734375 -1.625 2.125 -2.1875q0.53125 -0.796875 0.53125 -1.578125q0 -0.84375 -0.46875 -1.296875q-0.453125 -0.46875 -1.265625 -0.46875q-0.796875 0 -1.28125 0.484375q-0.46875 0.46875 -0.546875 1.59375l-2.546875 -0.25q0.234375 -2.109375 1.421875 -3.03125q1.203125 -0.921875 3.015625 -0.921875q1.96875 0 3.09375 1.0625q1.140625 1.0625 1.140625 2.65625q0 0.890625 -0.328125 1.71875q-0.3125 0.8125 -1.015625 1.703125q-0.46875 0.59375 -1.6875 1.703125q-1.203125 1.109375 -1.53125 1.484375q-0.3125 0.359375 -0.515625 0.703125l5.078125 0z" fill-rule="nonzero"/><path fill="#000000" fill-opacity="0.0" d="m1217.4567 0l60.567017 0l0 42.015747l-60.567017 0z" fill-rule="evenodd"/><path fill="#000000" d="m1252.6776 27.727875l0 -2.5625l2.5625 0l0 2.5625l-2.5625 0zm-6.21875 0l0 -2.5625l2.5625 0l0 2.5625l-2.5625 0zm-6.21875 0l0 -2.5625l2.5625 0l0 2.5625l-2.5625 0z" fill-rule="nonzero"/><path fill="#000000" fill-opacity="0.0" d="m1276.6561 0l60.567017 0l0 42.015747l-60.567017 0z" fill-rule="evenodd"/><path fill="#000000" d="m1303.0018 27.727875l0 -13.359375l2.5625 0l0 7.09375l3.0 -3.40625l3.140625 0l-3.296875 3.53125l3.53125 6.140625l-2.75 0l-2.4375 -4.34375l-1.1875 1.25l0 3.09375l-2.5625 0z" fill-rule="nonzero"/><path fill="#000000" fill-opacity="0.0" d="m1577.5564 0l60.567017 0l0 42.015747l-60.567017 0z" fill-rule="evenodd"/><path fill="#000000" d="m1612.7773 27.727875l0 -2.5625l2.5625 0l0 2.5625l-2.5625 0zm-6.21875 0l0 -2.5625l2.5625 0l0 2.5625l-2.5625 0zm-6.21875 0l0 -2.5625l2.5625 0l0 2.5625l-2.5625 0z" fill-rule="nonzero"/><path fill="#000000" fill-opacity="0.0" d="m1636.1864 0l60.566895 0l0 42.015747l-60.566895 0z" fill-rule="evenodd"/><path fill="#000000" d="m1671.0632 20.915375l-2.53125 0.453125q-0.125 -0.75 -0.578125 -1.125q-0.453125 -0.390625 -1.171875 -0.390625q-0.953125 0 -1.53125 0.65625q-0.5625 0.65625 -0.5625 2.203125q0 1.734375 0.578125 2.4375q0.578125 0.703125 1.546875 0.703125q0.734375 0 1.203125 -0.40625q0.46875 -0.421875 0.65625 -1.421875l2.515625 0.421875q-0.390625 1.734375 -1.515625 2.625q-1.109375 0.875 -2.96875 0.875q-2.125 0 -3.390625 -1.328125q-1.25 -1.34375 -1.25 -3.71875q0 -2.390625 1.265625 -3.71875q1.265625 -1.34375 3.421875 -1.34375q1.765625 0 2.796875 0.765625q1.046875 0.75 1.515625 2.3125z" fill-rule="nonzero"/><path fill="#000000" fill-opacity="0.0" d="m1338.0237 0l60.566895 0l0 42.015747l-60.566895 0z" fill-rule="evenodd"/><path fill="#000000" d="m1353.7339 27.727875l0 -13.359375l2.5625 0l0 7.09375l3.0 -3.40625l3.140625 0l-3.296875 3.53125l3.53125 6.140625l-2.75 0l-2.4375 -4.34375l-1.1875 1.25l0 3.09375l-2.5625 0zm13.391357 -1.921875l0 -3.46875l-3.484375 0l0 -2.390625l3.484375 0l0 -3.484375l2.34375 0l0 3.484375l3.5 0l0 2.390625l-3.5 0l0 3.46875l-2.34375 0zm13.973022 1.921875l-2.5625 0l0 -9.640625q-1.40625 1.3125 -3.3125 1.9375l0 -2.328125q1.015625 -0.328125 2.1875 -1.234375q1.171875 -0.921875 1.609375 -2.140625l2.078125 0l0 13.40625z" fill-rule="nonzero"/><path fill="#000000" fill-opacity="0.0" d="m1397.7926 0l60.567017 0l0 42.015747l-60.567017 0z" fill-rule="evenodd"/><path fill="#000000" d="m1413.5029 27.727875l0 -13.359375l2.5625 0l0 7.09375l3.0 -3.40625l3.140625 0l-3.296875 3.53125l3.53125 6.140625l-2.75 0l-2.4375 -4.34375l-1.1875 1.25l0 3.09375l-2.5625 0zm13.391357 -1.921875l0 -3.46875l-3.484375 0l0 -2.390625l3.484375 0l0 -3.484375l2.34375 0l0 3.484375l3.5 0l0 2.390625l-3.5 0l0 3.46875l-2.34375 0zm16.066772 -0.453125l0 2.375l-8.96875 0q0.140625 -1.34375 0.859375 -2.546875q0.734375 -1.21875 2.890625 -3.203125q1.734375 -1.625 2.125 -2.1875q0.53125 -0.796875 0.53125 -1.578125q0 -0.84375 -0.46875 -1.296875q-0.453125 -0.46875 -1.265625 -0.46875q-0.796875 0 -1.28125 0.484375q-0.46875 0.46875 -0.546875 1.59375l-2.546875 -0.25q0.234375 -2.109375 1.421875 -3.03125q1.203125 -0.921875 3.015625 -0.921875q1.96875 0 3.09375 1.0625q1.140625 1.0625 1.140625 2.65625q0 0.890625 -0.328125 1.71875q-0.3125 0.8125 -1.015625 1.703125q-0.46875 0.59375 -1.6875 1.703125q-1.203125 1.109375 -1.53125 1.484375q-0.3125 0.359375 -0.515625 0.703125l5.078125 0z" fill-rule="nonzero"/><path fill="#000000" fill-opacity="0.0" d="m1457.79 0l60.566895 0l0 42.015747l-60.566895 0z" fill-rule="evenodd"/><path fill="#000000" d="m1493.011 27.727875l0 -2.5625l2.5625 0l0 2.5625l-2.5625 0zm-6.21875 0l0 -2.5625l2.5625 0l0 2.5625l-2.5625 0zm-6.21875 0l0 -2.5625l2.5625 0l0 2.5625l-2.5625 0z" fill-rule="nonzero"/><path fill="#000000" fill-opacity="0.0" d="m1516.9895 0l60.566895 0l0 42.015747l-60.566895 0z" fill-rule="evenodd"/><path fill="#000000" d="m1532.6998 27.727875l0 -13.359375l2.5625 0l0 7.09375l3.0 -3.40625l3.140625 0l-3.296875 3.53125l3.53125 6.140625l-2.75 0l-2.4375 -4.34375l-1.1875 1.25l0 3.09375l-2.5625 0zm13.391235 -1.921875l0 -3.46875l-3.484375 0l0 -2.390625l3.484375 0l0 -3.484375l2.34375 0l0 3.484375l3.5 0l0 2.390625l-3.5 0l0 3.46875l-2.34375 0zm10.629395 1.921875l-3.90625 -9.671875l2.6875 0l1.828125 4.9375l0.53125 1.640625q0.203125 -0.625 0.265625 -0.828125q0.125 -0.40625 0.265625 -0.8125l1.84375 -4.9375l2.625 0l-3.84375 9.671875l-2.296875 0z" fill-rule="nonzero"/></g></svg>