<svg version="1.1" viewBox="0.0 0.0 671.992125984252 100.0" fill="none" stroke="none" stroke-linecap="square" stroke-miterlimit="10" xmlns:xlink="http://www.w3.org/1999/xlink" xmlns="http://www.w3.org/2000/svg"><clipPath id="p.0"><path d="m0 0l671.9921 0l0 100.0l-671.9921 0l0 -100.0z" clip-rule="nonzero"/></clipPath><g clip-path="url(#p.0)"><path fill="#000000" fill-opacity="0.0" d="m0 0l671.9921 0l0 100.0l-671.9921 0z" fill-rule="evenodd"/><path fill="#000000" fill-opacity="0.0" d="m605.1365 0.17322835l60.566956 0l0 42.015747l-60.566956 0z" fill-rule="evenodd"/><path fill="#000000" d="m636.8364 19.287102l1.6875 0.265625q-0.421875 1.125 -1.25 1.71875q-0.8125 0.59375 -1.890625 0.59375q-1.234375 0 -1.953125 -0.734375q-0.71875 -0.734375 -0.71875 -2.03125q0 -1.046875 0.4375 -1.984375q0.4375 -0.9375 1.3125 -1.468751q0.875 -0.53125 1.9375 -0.53125q1.140625 0 1.8125 0.59375q0.6875 0.59375095 0.765625 1.562501l-1.65625 0.171875q-0.0625 -0.53125 -0.328125 -0.78125q-0.265625 -0.265625 -0.703125 -0.265625q-0.515625 0 -0.953125 0.375q-0.421875 0.375 -0.65625 1.125q-0.234375 0.75 -0.234375 1.40625q0 0.578125 0.265625 0.890625q0.28125 0.296875 0.703125 0.296875q0.421875 0 0.8125 -0.296875q0.390625 -0.3125 0.609375 -0.90625z" fill-rule="nonzero"/><path fill="#420104" fill-opacity="0.4214" d="m1.1633931 42.015747l60.56693 0l0 57.637794l-60.56693 0z" fill-rule="evenodd"/><path stroke="#000000" stroke-width="2.0" stroke-linejoin="round" stroke-linecap="butt" d="m1.1633931 42.015747l60.56693 0l0 57.637794l-60.56693 0z" fill-rule="evenodd"/><path fill="#000000" d="m30.862514 74.1634l-4.53125 0l-1.375 2.53125l-2.4375 0l6.484375 -11.453125l2.625 0l1.859375 11.453125l-2.234375 0l-0.390625 -2.53125zm-0.28125 -1.90625l-0.671875 -4.609375l-2.765625 4.609375l3.4375 0z" fill-rule="nonzero"/><path fill="#000000" d="m35.526577 78.31965l0.28125 -1.34375q1.921875 -0.84375 2.984375 -1.953125l0.90625 0l-1.609375 7.671875l-1.5 0l1.109375 -5.28125q-0.46875 0.296875 -1.078125 0.546875q-0.609375 0.25 -1.09375 0.359375z" fill-rule="nonzero"/><path fill="#420104" fill-opacity="0.4214" d="m181.16208 42.015747l60.566925 0l0 57.637794l-60.566925 0z" fill-rule="evenodd"/><path stroke="#000000" stroke-width="2.0" stroke-linejoin="round" stroke-linecap="butt" d="m181.16208 42.015747l60.566925 0l0 57.637794l-60.566925 0z" fill-rule="evenodd"/><path fill="#000000" d="m204.38304 75.23902l2.578125 0l-0.53125 2.515625l-2.578125 0l0.53125 -2.515625zm6.03125 0l2.59375 0l-0.53125 2.515625l-2.59375 0l0.53125 -2.515625zm6.046875 0l2.578125 0l-0.53125 2.515625l-2.578125 0l0.53125 -2.515625z" fill-rule="nonzero"/><path fill="#420104" fill-opacity="0.4214" d="m61.160767 42.015747l60.566933 0l0 57.637794l-60.566933 0z" fill-rule="evenodd"/><path stroke="#000000" stroke-width="2.0" stroke-linejoin="round" stroke-linecap="butt" d="m61.160767 42.015747l60.566933 0l0 57.637794l-60.566933 0z" fill-rule="evenodd"/><path fill="#000000" d="m90.859886 74.1634l-4.53125 0l-1.375 2.53125l-2.4375 0l6.484375 -11.453125l2.625 0l1.859375 11.453125l-2.234375 0l-0.390625 -2.53125zm-0.28125 -1.90625l-0.671875 -4.609375l-2.765625 4.609375l3.4375 0z" fill-rule="nonzero"/><path fill="#000000" d="m97.07082 77.44465l-1.453125 -0.21875q0.171875 -1.0625 0.8125 -1.625q0.65625 -0.5625 1.625 -0.5625q1.0625 0 1.671875 0.578125q0.609375 0.578125 0.609375 1.46875q0 0.453125 -0.1875 0.90625q-0.1875 0.453125 -0.609375 0.953125q-0.3125 0.359375 -1.015625 1.0q-0.6875 0.640625 -0.921875 0.890625q-0.21875 0.234375 -0.421875 0.5l2.640625 0l-0.28125 1.359375l-4.640625 0q0.078125 -0.5625 0.328125 -1.0625q0.265625 -0.515625 0.640625 -0.953125q0.390625 -0.4375 1.421875 -1.40625q0.765625 -0.734375 0.96875 -0.96875q0.359375 -0.40625 0.5 -0.703125q0.140625 -0.296875 0.140625 -0.53125q0 -0.390625 -0.234375 -0.625q-0.21875 -0.234375 -0.578125 -0.234375q-0.34375 0 -0.609375 0.265625q-0.265625 0.265625 -0.40625 0.96875z" fill-rule="nonzero"/><path fill="#420104" fill-opacity="0.4214" d="m121.16077 42.015747l60.566925 0l0 57.637794l-60.566925 0z" fill-rule="evenodd"/><path stroke="#000000" stroke-width="2.0" stroke-linejoin="round" stroke-linecap="butt" d="m121.16077 42.015747l60.566925 0l0 57.637794l-60.566925 0z" fill-rule="evenodd"/><path fill="#000000" d="m150.8599 74.1634l-4.53125 0l-1.375 2.53125l-2.4375 0l6.484375 -11.453125l2.625 0l1.859375 11.453125l-2.234375 0l-0.390625 -2.53125zm-0.28125 -1.90625l-0.671875 -4.609375l-2.765625 4.609375l3.4375 0z" fill-rule="nonzero"/><path fill="#000000" d="m154.8052 80.69465l1.421875 -0.171875q0.09375 0.609375 0.328125 0.84375q0.234375 0.234375 0.609375 0.234375q0.515625 0 0.84375 -0.34375q0.34375 -0.34375 0.34375 -0.875q0 -0.46875 -0.28125 -0.734375q-0.265625 -0.28125 -0.71875 -0.28125q-0.125 0 -0.25 0.03125l0.265625 -1.25q0.078125 0.015625 0.15625 0.015625q0.59375 0 0.90625 -0.296875q0.3125 -0.3125 0.3125 -0.84375q0 -0.359375 -0.21875 -0.578125q-0.203125 -0.21875 -0.546875 -0.21875q-0.328125 0 -0.578125 0.25q-0.25 0.234375 -0.40625 0.796875l-1.359375 -0.265625q0.265625 -0.84375 0.71875 -1.296875q0.703125 -0.671875 1.734375 -0.671875q1.046875 0 1.59375 0.59375q0.546875 0.578125 0.546875 1.390625q0 0.59375 -0.359375 1.078125q-0.34375 0.46875 -0.953125 0.703125q0.484375 0.25 0.71875 0.65625q0.234375 0.40625 0.234375 0.84375q0 0.84375 -0.609375 1.546875q-0.8125 0.96875 -2.109375 0.96875q-0.953125 0 -1.59375 -0.546875q-0.625 -0.5625 -0.75 -1.578125z" fill-rule="nonzero"/><path fill="#420104" fill-opacity="0.4214" d="m242.75394 42.188976l60.566925 0l0 57.6378l-60.566925 0z" fill-rule="evenodd"/><path stroke="#000000" stroke-width="2.0" stroke-linejoin="round" stroke-linecap="butt" d="m242.75394 42.188976l60.566925 0l0 57.6378l-60.566925 0z" fill-rule="evenodd"/><path fill="#000000" d="m272.45306 74.336624l-4.53125 0l-1.375 2.53125l-2.4375 0l6.484375 -11.453125l2.625 0l1.859375 11.453125l-2.234375 0l-0.390625 -2.53125zm-0.28125 -1.90625l-0.671875 -4.609375l-2.765625 4.609375l3.4375 0z" fill-rule="nonzero"/><path fill="#000000" d="m276.25775 82.867874l1.59375 -7.625l1.484375 0l-0.828125 3.96875l1.953125 -1.875l1.9375 0l-2.21875 2.015625l1.171875 3.515625l-1.484375 0l-0.765625 -2.5625l-1.0 0.90625l-0.359375 1.65625l-1.484375 0z" fill-rule="nonzero"/><path fill="#000000" fill-opacity="0.0" d="m0.0328084 0l60.56693 0l0 42.015747l-60.56693 0z" fill-rule="evenodd"/><path fill="#000000" d="m28.326504 16.426373l0.328125 -1.5625q2.265625 -0.984375 3.5 -2.28125l1.0625 0l-1.890625 8.953125l-1.75 0l1.296875 -6.171875q-0.546875 0.359375 -1.265625 0.65625q-0.703125 0.28125 -1.28125 0.40625z" fill-rule="nonzero"/><path fill="#000000" fill-opacity="0.0" d="m60.82546 0l60.56693 0l0 42.015747l-60.56693 0z" fill-rule="evenodd"/><path fill="#000000" d="m90.931656 15.410748l-1.703125 -0.25q0.203125 -1.25 0.953125 -1.90625q0.765625 -0.65625 1.90625 -0.65625q1.234375 0 1.9375 0.671875q0.71875 0.671875 0.71875 1.71875q0 0.515625 -0.21875 1.046875q-0.21875 0.53125 -0.703125 1.125q-0.359375 0.40625 -1.1875 1.171875q-0.8125 0.75 -1.078125 1.03125q-0.25 0.265625 -0.5 0.578125l3.078125 0l-0.3125 1.59375l-5.421875 0q0.09375 -0.65625 0.390625 -1.25q0.296875 -0.59375 0.75 -1.09375q0.453125 -0.515625 1.640625 -1.65625q0.90625 -0.859375 1.140625 -1.125q0.421875 -0.46875 0.578125 -0.8125q0.15625 -0.34375 0.15625 -0.625q0 -0.453125 -0.265625 -0.734375q-0.265625 -0.28125 -0.671875 -0.28125q-0.40625 0 -0.71875 0.3125q-0.3125 0.3125 -0.46875 1.140625z" fill-rule="nonzero"/><path fill="#000000" fill-opacity="0.0" d="m121.61942 0l60.566933 0l0 42.015747l-60.566933 0z" fill-rule="evenodd"/><path fill="#000000" d="m149.06937 19.207623l1.671875 -0.203125q0.109375 0.71875 0.375 1.0q0.28125 0.265625 0.71875 0.265625q0.59375 0 0.984375 -0.40625q0.390625 -0.40625 0.390625 -1.03125q0 -0.546875 -0.3125 -0.859375q-0.3125 -0.3125 -0.84375 -0.3125q-0.140625 0 -0.28125 0.015625l0.296875 -1.453125q0.09375 0.015625 0.1875 0.015625q0.6875 0 1.046875 -0.34375q0.375 -0.359375 0.375 -0.96875q0 -0.4375 -0.25 -0.6875q-0.234375 -0.25 -0.640625 -0.25q-0.375 0 -0.671875 0.28125q-0.296875 0.28125 -0.484375 0.9375l-1.578125 -0.3125q0.296875 -0.984375 0.84375 -1.515625q0.8125 -0.78125 2.015625 -0.78125q1.21875 0 1.859375 0.6875q0.640625 0.671875 0.640625 1.625q0 0.703125 -0.40625 1.265625q-0.40625 0.546875 -1.125 0.8125q0.5625 0.296875 0.828125 0.78125q0.28125 0.46875 0.28125 0.984375q0 0.984375 -0.703125 1.796875q-0.953125 1.140625 -2.46875 1.140625q-1.125 0 -1.859375 -0.640625q-0.71875 -0.65625 -0.890625 -1.84375z" fill-rule="nonzero"/><path fill="#000000" fill-opacity="0.0" d="m243.20998 0.17322835l60.56694 0l0 42.015747l-60.56694 0z" fill-rule="evenodd"/><path fill="#000000" d="m270.50366 21.708977l1.859375 -8.906251l1.75 0l-0.96875 4.640626l2.265625 -2.187501l2.265625 0l-2.59375 2.343751l1.375 4.109375l-1.734375 0l-0.890625 -2.984375l-1.171875 1.046875l-0.421875 1.9375l-1.734375 0z" fill-rule="nonzero"/><path fill="#d9ead3" fill-opacity="0.44" d="m302.75394 42.188976l60.566925 0l0 57.6378l-60.566925 0z" fill-rule="evenodd"/><path stroke="#000000" stroke-width="2.0" stroke-linejoin="round" stroke-linecap="butt" d="m302.75394 42.188976l60.566925 0l0 57.6378l-60.566925 0z" fill-rule="evenodd"/><path fill="#000000" d="m324.93744 76.867874l2.40625 -11.453125l3.90625 0q1.28125 0 1.78125 0.078125q0.84375 0.109375 1.421875 0.46875q0.59375 0.34375 0.890625 0.9375q0.3125 0.578125 0.3125 1.296875q0 0.953125 -0.53125 1.65625q-0.53125 0.6875 -1.640625 1.046875q0.890625 0.25 1.375 0.875q0.5 0.609375 0.5 1.390625q0 1.03125 -0.59375 1.96875q-0.578125 0.921875 -1.609375 1.328125q-1.03125 0.40625 -2.8125 0.40625l-5.40625 0zm3.78125 -6.828125l1.796875 0q1.21875 0 1.75 -0.171875q0.53125 -0.171875 0.796875 -0.5625q0.265625 -0.390625 0.265625 -0.84375q0 -0.4375 -0.25 -0.71875q-0.25 -0.28125 -0.71875 -0.375q-0.25 -0.046875 -1.234375 -0.046875l-1.828125 0l-0.578125 2.71875zm-1.03125 4.984375l2.265625 0q1.4375 0 1.921875 -0.1875q0.484375 -0.1875 0.78125 -0.609375q0.296875 -0.421875 0.296875 -0.890625q0 -0.5625 -0.421875 -0.9375q-0.421875 -0.375 -1.40625 -0.375l-2.8125 0l-0.625 3.0z" fill-rule="nonzero"/><path fill="#000000" d="m337.11713 78.492874l0.28125 -1.34375q1.921875 -0.84375 2.984375 -1.953125l0.90625 0l-1.609375 7.671875l-1.5 0l1.109375 -5.28125q-0.46875 0.296875 -1.078125 0.546875q-0.609375 0.25 -1.09375 0.359375z" fill-rule="nonzero"/><path fill="#000000" fill-opacity="0.0" d="m542.75134 42.188976l60.566895 0l0 57.6378l-60.566895 0z" fill-rule="evenodd"/><path stroke="#000000" stroke-width="2.0" stroke-linejoin="round" stroke-linecap="butt" d="m542.75134 42.188976l60.566895 0l0 57.6378l-60.566895 0z" fill-rule="evenodd"/><path fill="#d9ead3" fill-opacity="0.44" d="m482.75262 42.188976l60.566956 0l0 57.6378l-60.566956 0z" fill-rule="evenodd"/><path stroke="#000000" stroke-width="2.0" stroke-linejoin="round" stroke-linecap="butt" d="m482.75262 42.188976l60.566956 0l0 57.6378l-60.566956 0z" fill-rule="evenodd"/><path fill="#000000" d="m504.93613 76.867874l2.40625 -11.453125l3.90625 0q1.2812805 0 1.7812805 0.078125q0.84375 0.109375 1.421875 0.46875q0.59368896 0.34375 0.89056396 0.9375q0.3125 0.578125 0.3125 1.296875q0 0.953125 -0.53125 1.65625q-0.53118896 0.6875 -1.640564 1.046875q0.890625 0.25 1.374939 0.875q0.5 0.609375 0.5 1.390625q0 1.03125 -0.59375 1.96875q-0.57806396 0.921875 -1.609314 1.328125q-1.03125 0.40625 -2.8125305 0.40625l-5.40625 0zm3.78125 -6.828125l1.796875 0q1.21875 0 1.7500305 -0.171875q0.53125 -0.171875 0.796875 -0.5625q0.265625 -0.390625 0.265625 -0.84375q0 -0.4375 -0.25 -0.71875q-0.25 -0.28125 -0.71875 -0.375q-0.25 -0.046875 -1.2344055 -0.046875l-1.828125 0l-0.578125 2.71875zm-1.03125 4.984375l2.265625 0q1.4375 0 1.921875 -0.1875q0.48440552 -0.1875 0.7812805 -0.609375q0.296875 -0.421875 0.296875 -0.890625q0 -0.5625 -0.421875 -0.9375q-0.421875 -0.375 -1.4062805 -0.375l-2.8125 0l-0.625 3.0z" fill-rule="nonzero"/><path fill="#000000" d="m519.03766 82.867874l-1.28125 0l-1.109375 -5.53125l1.46875 0l0.390625 2.421875q0.15625 0.96875 0.1875 1.296875q0.046875 -0.09375 0.359375 -0.671875q0.328125 -0.59375 0.390625 -0.703125l1.375 -2.34375l1.625 0l-3.40625 5.53125z" fill-rule="nonzero"/><path fill="#d9ead3" fill-opacity="0.44" d="m362.7513 42.188976l60.566925 0l0 57.6378l-60.566925 0z" fill-rule="evenodd"/><path stroke="#000000" stroke-width="2.0" stroke-linejoin="round" stroke-linecap="butt" d="m362.7513 42.188976l60.566925 0l0 57.6378l-60.566925 0z" fill-rule="evenodd"/><path fill="#000000" d="m384.9348 76.867874l2.40625 -11.453125l3.90625 0q1.28125 0 1.78125 0.078125q0.84375 0.109375 1.421875 0.46875q0.59375 0.34375 0.890625 0.9375q0.3125 0.578125 0.3125 1.296875q0 0.953125 -0.53125 1.65625q-0.53125 0.6875 -1.640625 1.046875q0.890625 0.25 1.375 0.875q0.5 0.609375 0.5 1.390625q0 1.03125 -0.59375 1.96875q-0.578125 0.921875 -1.609375 1.328125q-1.03125 0.40625 -2.8125 0.40625l-5.40625 0zm3.78125 -6.828125l1.796875 0q1.21875 0 1.75 -0.171875q0.53125 -0.171875 0.796875 -0.5625q0.265625 -0.390625 0.265625 -0.84375q0 -0.4375 -0.25 -0.71875q-0.25 -0.28125 -0.71875 -0.375q-0.25 -0.046875 -1.234375 -0.046875l-1.828125 0l-0.578125 2.71875zm-1.03125 4.984375l2.265625 0q1.4375 0 1.921875 -0.1875q0.484375 -0.1875 0.78125 -0.609375q0.296875 -0.421875 0.296875 -0.890625q0 -0.5625 -0.421875 -0.9375q-0.421875 -0.375 -1.40625 -0.375l-2.8125 0l-0.625 3.0z" fill-rule="nonzero"/><path fill="#000000" d="m398.66138 77.617874l-1.453125 -0.21875q0.171875 -1.0625 0.8125 -1.625q0.65625 -0.5625 1.625 -0.5625q1.0625 0 1.671875 0.578125q0.609375 0.578125 0.609375 1.46875q0 0.453125 -0.1875 0.90625q-0.1875 0.453125 -0.609375 0.953125q-0.3125 0.359375 -1.015625 1.0q-0.6875 0.640625 -0.921875 0.890625q-0.21875 0.234375 -0.421875 0.5l2.640625 0l-0.28125 1.359375l-4.640625 0q0.078125 -0.5625 0.328125 -1.0625q0.265625 -0.515625 0.640625 -0.953125q0.390625 -0.4375 1.421875 -1.40625q0.765625 -0.734375 0.96875 -0.96875q0.359375 -0.40625 0.5 -0.703125q0.140625 -0.296875 0.140625 -0.53125q0 -0.390625 -0.234375 -0.625q-0.21875 -0.234375 -0.578125 -0.234375q-0.34375 0 -0.609375 0.265625q-0.265625 0.265625 -0.40625 0.96875z" fill-rule="nonzero"/><path fill="#d9ead3" fill-opacity="0.44" d="m422.7513 42.188976l60.566925 0l0 57.6378l-60.566925 0z" fill-rule="evenodd"/><path stroke="#000000" stroke-width="2.0" stroke-linejoin="round" stroke-linecap="butt" d="m422.7513 42.188976l60.566925 0l0 57.6378l-60.566925 0z" fill-rule="evenodd"/><path fill="#000000" d="m445.9723 75.41225l2.578125 0l-0.53125 2.515625l-2.578125 0l0.53125 -2.515625zm6.03125 0l2.59375 0l-0.53125 2.515625l-2.59375 0l0.53125 -2.515625zm6.046875 0l2.578125 0l-0.53125 2.515625l-2.578125 0l0.53125 -2.515625z" fill-rule="nonzero"/><path fill="#000000" fill-opacity="0.0" d="m602.75134 42.188976l60.566895 0l0 57.6378l-60.566895 0z" fill-rule="evenodd"/><path stroke="#000000" stroke-width="2.0" stroke-linejoin="round" stroke-linecap="butt" d="m602.75134 42.188976l60.566895 0l0 57.6378l-60.566895 0z" fill-rule="evenodd"/><path fill="#000000" fill-opacity="0.0" d="m303.77692 0.17322835l60.566925 0l0 42.015747l-60.566925 0z" fill-rule="evenodd"/><path fill="#000000" d="m323.9805 21.708977l1.859375 -8.906251l1.75 0l-0.96875 4.640626l2.265625 -2.187501l2.265625 0l-2.59375 2.343751l1.375 4.109375l-1.734375 0l-0.890625 -2.984375l-1.171875 1.046875l-0.421875 1.9375l-1.734375 0zm9.776398 -1.28125l0 -2.3125l-2.328125 0l0 -1.59375l2.328125 0l0 -2.312501l1.5625 0l0 2.312501l2.34375 0l0 1.59375l-2.34375 0l0 2.3125l-1.5625 0zm5.4038086 -3.828125l0.328125 -1.562501q2.265625 -0.984375 3.5 -2.28125l1.0625 0l-1.890625 8.953126l-1.75 0l1.296875 -6.171876q-0.546875 0.359375 -1.265625 0.65625095q-0.703125 0.28125 -1.28125 0.40625z" fill-rule="nonzero"/><path fill="#000000" fill-opacity="0.0" d="m483.7743 0.17322835l60.566895 0l0 42.015747l-60.566895 0z" fill-rule="evenodd"/><path fill="#000000" d="m503.97787 21.708977l1.859375 -8.906251l1.75 0l-0.96875 4.640626l2.265625 -2.187501l2.265625 0l-2.59375 2.343751l1.375 4.109375l-1.734375 0l-0.890625 -2.984375l-1.171875 1.046875l-0.421875 1.9375l-1.734375 0zm9.776398 -1.28125l0 -2.3125l-2.328125 0l0 -1.59375l2.328125 0l0 -2.312501l1.5625 0l0 2.312501l2.34375 0l0 1.59375l-2.34375 0l0 2.3125l-1.5625 0zm7.6538086 1.28125l-1.5 0l-1.296875 -6.453126l1.71875 0l0.453125 2.812501q0.1875 1.140625 0.234375 1.515625q0.046875 -0.09375 0.421875 -0.78125q0.375 -0.6875 0.453125 -0.828125l1.609375 -2.718751l1.875 0l-3.96875 6.453126z" fill-rule="nonzero"/></g></svg>