<svg version="1.1" viewBox="0.0 0.0 672.6509186351706 225.1548556430446" fill="none" stroke="none" stroke-linecap="square" stroke-miterlimit="10" xmlns:xlink="http://www.w3.org/1999/xlink" xmlns="http://www.w3.org/2000/svg"><clipPath id="p.0"><path d="m0 0l672.65094 0l0 225.15486l-672.65094 0l0 -225.15486z" clip-rule="nonzero"/></clipPath><g clip-path="url(#p.0)"><path fill="#000000" fill-opacity="0.0" d="m0 0l672.65094 0l0 225.15486l-672.65094 0z" fill-rule="evenodd"/><path fill="#000000" fill-opacity="0.0" d="m605.1365 0.17322835l60.566956 0l0 42.015747l-60.566956 0z" fill-rule="evenodd"/><path fill="#000000" d="m636.8364 19.287102l1.6875 0.265625q-0.421875 1.125 -1.25 1.71875q-0.8125 0.59375 -1.890625 0.59375q-1.234375 0 -1.953125 -0.734375q-0.71875 -0.734375 -0.71875 -2.03125q0 -1.046875 0.4375 -1.984375q0.4375 -0.9375 1.3125 -1.468751q0.875 -0.53125 1.9375 -0.53125q1.140625 0 1.8125 0.59375q0.6875 0.59375095 0.765625 1.562501l-1.65625 0.171875q-0.0625 -0.53125 -0.328125 -0.78125q-0.265625 -0.265625 -0.703125 -0.265625q-0.515625 0 -0.953125 0.375q-0.421875 0.375 -0.65625 1.125q-0.234375 0.75 -0.234375 1.40625q0 0.578125 0.265625 0.890625q0.28125 0.296875 0.703125 0.296875q0.421875 0 0.8125 -0.296875q0.390625 -0.3125 0.609375 -0.90625z" fill-rule="nonzero"/><path fill="#420104" fill-opacity="0.4214" d="m1.1633931 42.015747l60.56693 0l0 57.637794l-60.56693 0z" fill-rule="evenodd"/><path stroke="#000000" stroke-width="2.0" stroke-linejoin="round" stroke-linecap="butt" d="m1.1633931 42.015747l60.56693 0l0 57.637794l-60.56693 0z" fill-rule="evenodd"/><path fill="#000000" d="m30.862514 74.1634l-4.53125 0l-1.375 2.53125l-2.4375 0l6.484375 -11.453125l2.625 0l1.859375 11.453125l-2.234375 0l-0.390625 -2.53125zm-0.28125 -1.90625l-0.671875 -4.609375l-2.765625 4.609375l3.4375 0z" fill-rule="nonzero"/><path fill="#000000" d="m35.526577 78.31965l0.28125 -1.34375q1.921875 -0.84375 2.984375 -1.953125l0.90625 0l-1.609375 7.671875l-1.5 0l1.109375 -5.28125q-0.46875 0.296875 -1.078125 0.546875q-0.609375 0.25 -1.09375 0.359375z" fill-rule="nonzero"/><path fill="#420104" fill-opacity="0.4214" d="m181.16208 42.015747l60.566925 0l0 57.637794l-60.566925 0z" fill-rule="evenodd"/><path stroke="#000000" stroke-width="2.0" stroke-linejoin="round" stroke-linecap="butt" d="m181.16208 42.015747l60.566925 0l0 57.637794l-60.566925 0z" fill-rule="evenodd"/><path fill="#000000" d="m204.38304 75.23902l2.578125 0l-0.53125 2.515625l-2.578125 0l0.53125 -2.515625zm6.03125 0l2.59375 0l-0.53125 2.515625l-2.59375 0l0.53125 -2.515625zm6.046875 0l2.578125 0l-0.53125 2.515625l-2.578125 0l0.53125 -2.515625z" fill-rule="nonzero"/><path fill="#420104" fill-opacity="0.4214" d="m61.160767 42.015747l60.566933 0l0 57.637794l-60.566933 0z" fill-rule="evenodd"/><path stroke="#000000" stroke-width="2.0" stroke-linejoin="round" stroke-linecap="butt" d="m61.160767 42.015747l60.566933 0l0 57.637794l-60.566933 0z" fill-rule="evenodd"/><path fill="#000000" d="m90.859886 74.1634l-4.53125 0l-1.375 2.53125l-2.4375 0l6.484375 -11.453125l2.625 0l1.859375 11.453125l-2.234375 0l-0.390625 -2.53125zm-0.28125 -1.90625l-0.671875 -4.609375l-2.765625 4.609375l3.4375 0z" fill-rule="nonzero"/><path fill="#000000" d="m97.07082 77.44465l-1.453125 -0.21875q0.171875 -1.0625 0.8125 -1.625q0.65625 -0.5625 1.625 -0.5625q1.0625 0 1.671875 0.578125q0.609375 0.578125 0.609375 1.46875q0 0.453125 -0.1875 0.90625q-0.1875 0.453125 -0.609375 0.953125q-0.3125 0.359375 -1.015625 1.0q-0.6875 0.640625 -0.921875 0.890625q-0.21875 0.234375 -0.421875 0.5l2.640625 0l-0.28125 1.359375l-4.640625 0q0.078125 -0.5625 0.328125 -1.0625q0.265625 -0.515625 0.640625 -0.953125q0.390625 -0.4375 1.421875 -1.40625q0.765625 -0.734375 0.96875 -0.96875q0.359375 -0.40625 0.5 -0.703125q0.140625 -0.296875 0.140625 -0.53125q0 -0.390625 -0.234375 -0.625q-0.21875 -0.234375 -0.578125 -0.234375q-0.34375 0 -0.609375 0.265625q-0.265625 0.265625 -0.40625 0.96875z" fill-rule="nonzero"/><path fill="#420104" fill-opacity="0.4214" d="m121.16077 42.015747l60.566925 0l0 57.637794l-60.566925 0z" fill-rule="evenodd"/><path stroke="#000000" stroke-width="2.0" stroke-linejoin="round" stroke-linecap="butt" d="m121.16077 42.015747l60.566925 0l0 57.637794l-60.566925 0z" fill-rule="evenodd"/><path fill="#000000" d="m150.8599 74.1634l-4.53125 0l-1.375 2.53125l-2.4375 0l6.484375 -11.453125l2.625 0l1.859375 11.453125l-2.234375 0l-0.390625 -2.53125zm-0.28125 -1.90625l-0.671875 -4.609375l-2.765625 4.609375l3.4375 0z" fill-rule="nonzero"/><path fill="#000000" d="m154.8052 80.69465l1.421875 -0.171875q0.09375 0.609375 0.328125 0.84375q0.234375 0.234375 0.609375 0.234375q0.515625 0 0.84375 -0.34375q0.34375 -0.34375 0.34375 -0.875q0 -0.46875 -0.28125 -0.734375q-0.265625 -0.28125 -0.71875 -0.28125q-0.125 0 -0.25 0.03125l0.265625 -1.25q0.078125 0.015625 0.15625 0.015625q0.59375 0 0.90625 -0.296875q0.3125 -0.3125 0.3125 -0.84375q0 -0.359375 -0.21875 -0.578125q-0.203125 -0.21875 -0.546875 -0.21875q-0.328125 0 -0.578125 0.25q-0.25 0.234375 -0.40625 0.796875l-1.359375 -0.265625q0.265625 -0.84375 0.71875 -1.296875q0.703125 -0.671875 1.734375 -0.671875q1.046875 0 1.59375 0.59375q0.546875 0.578125 0.546875 1.390625q0 0.59375 -0.359375 1.078125q-0.34375 0.46875 -0.953125 0.703125q0.484375 0.25 0.71875 0.65625q0.234375 0.40625 0.234375 0.84375q0 0.84375 -0.609375 1.546875q-0.8125 0.96875 -2.109375 0.96875q-0.953125 0 -1.59375 -0.546875q-0.625 -0.5625 -0.75 -1.578125z" fill-rule="nonzero"/><path fill="#420104" fill-opacity="0.4214" d="m242.75394 42.188976l60.566925 0l0 57.6378l-60.566925 0z" fill-rule="evenodd"/><path stroke="#000000" stroke-width="2.0" stroke-linejoin="round" stroke-linecap="butt" d="m242.75394 42.188976l60.566925 0l0 57.6378l-60.566925 0z" fill-rule="evenodd"/><path fill="#000000" d="m272.45306 74.336624l-4.53125 0l-1.375 2.53125l-2.4375 0l6.484375 -11.453125l2.625 0l1.859375 11.453125l-2.234375 0l-0.390625 -2.53125zm-0.28125 -1.90625l-0.671875 -4.609375l-2.765625 4.609375l3.4375 0z" fill-rule="nonzero"/><path fill="#000000" d="m276.25775 82.867874l1.59375 -7.625l1.484375 0l-0.828125 3.96875l1.953125 -1.875l1.9375 0l-2.21875 2.015625l1.171875 3.515625l-1.484375 0l-0.765625 -2.5625l-1.0 0.90625l-0.359375 1.65625l-1.484375 0z" fill-rule="nonzero"/><path fill="#000000" fill-opacity="0.0" d="m0.0328084 0l60.56693 0l0 42.015747l-60.56693 0z" fill-rule="evenodd"/><path fill="#000000" d="m28.326504 16.426373l0.328125 -1.5625q2.265625 -0.984375 3.5 -2.28125l1.0625 0l-1.890625 8.953125l-1.75 0l1.296875 -6.171875q-0.546875 0.359375 -1.265625 0.65625q-0.703125 0.28125 -1.28125 0.40625z" fill-rule="nonzero"/><path fill="#000000" fill-opacity="0.0" d="m60.82546 0l60.56693 0l0 42.015747l-60.56693 0z" fill-rule="evenodd"/><path fill="#000000" d="m90.931656 15.410748l-1.703125 -0.25q0.203125 -1.25 0.953125 -1.90625q0.765625 -0.65625 1.90625 -0.65625q1.234375 0 1.9375 0.671875q0.71875 0.671875 0.71875 1.71875q0 0.515625 -0.21875 1.046875q-0.21875 0.53125 -0.703125 1.125q-0.359375 0.40625 -1.1875 1.171875q-0.8125 0.75 -1.078125 1.03125q-0.25 0.265625 -0.5 0.578125l3.078125 0l-0.3125 1.59375l-5.421875 0q0.09375 -0.65625 0.390625 -1.25q0.296875 -0.59375 0.75 -1.09375q0.453125 -0.515625 1.640625 -1.65625q0.90625 -0.859375 1.140625 -1.125q0.421875 -0.46875 0.578125 -0.8125q0.15625 -0.34375 0.15625 -0.625q0 -0.453125 -0.265625 -0.734375q-0.265625 -0.28125 -0.671875 -0.28125q-0.40625 0 -0.71875 0.3125q-0.3125 0.3125 -0.46875 1.140625z" fill-rule="nonzero"/><path fill="#000000" fill-opacity="0.0" d="m121.61942 0l60.566933 0l0 42.015747l-60.566933 0z" fill-rule="evenodd"/><path fill="#000000" d="m149.06937 19.207623l1.671875 -0.203125q0.109375 0.71875 0.375 1.0q0.28125 0.265625 0.71875 0.265625q0.59375 0 0.984375 -0.40625q0.390625 -0.40625 0.390625 -1.03125q0 -0.546875 -0.3125 -0.859375q-0.3125 -0.3125 -0.84375 -0.3125q-0.140625 0 -0.28125 0.015625l0.296875 -1.453125q0.09375 0.015625 0.1875 0.015625q0.6875 0 1.046875 -0.34375q0.375 -0.359375 0.375 -0.96875q0 -0.4375 -0.25 -0.6875q-0.234375 -0.25 -0.640625 -0.25q-0.375 0 -0.671875 0.28125q-0.296875 0.28125 -0.484375 0.9375l-1.578125 -0.3125q0.296875 -0.984375 0.84375 -1.515625q0.8125 -0.78125 2.015625 -0.78125q1.21875 0 1.859375 0.6875q0.640625 0.671875 0.640625 1.625q0 0.703125 -0.40625 1.265625q-0.40625 0.546875 -1.125 0.8125q0.5625 0.296875 0.828125 0.78125q0.28125 0.46875 0.28125 0.984375q0 0.984375 -0.703125 1.796875q-0.953125 1.140625 -2.46875 1.140625q-1.125 0 -1.859375 -0.640625q-0.71875 -0.65625 -0.890625 -1.84375z" fill-rule="nonzero"/><path fill="#000000" fill-opacity="0.0" d="m243.20998 0.17322835l60.56694 0l0 42.015747l-60.56694 0z" fill-rule="evenodd"/><path fill="#000000" d="m270.50366 21.708977l1.859375 -8.906251l1.75 0l-0.96875 4.640626l2.265625 -2.187501l2.265625 0l-2.59375 2.343751l1.375 4.109375l-1.734375 0l-0.890625 -2.984375l-1.171875 1.046875l-0.421875 1.9375l-1.734375 0z" fill-rule="nonzero"/><path fill="#d9ead3" fill-opacity="0.44" d="m302.75394 42.188976l60.566925 0l0 57.6378l-60.566925 0z" fill-rule="evenodd"/><path stroke="#000000" stroke-width="2.0" stroke-linejoin="round" stroke-linecap="butt" d="m302.75394 42.188976l60.566925 0l0 57.6378l-60.566925 0z" fill-rule="evenodd"/><path fill="#000000" d="m324.93744 76.867874l2.40625 -11.453125l3.90625 0q1.28125 0 1.78125 0.078125q0.84375 0.109375 1.421875 0.46875q0.59375 0.34375 0.890625 0.9375q0.3125 0.578125 0.3125 1.296875q0 0.953125 -0.53125 1.65625q-0.53125 0.6875 -1.640625 1.046875q0.890625 0.25 1.375 0.875q0.5 0.609375 0.5 1.390625q0 1.03125 -0.59375 1.96875q-0.578125 0.921875 -1.609375 1.328125q-1.03125 0.40625 -2.8125 0.40625l-5.40625 0zm3.78125 -6.828125l1.796875 0q1.21875 0 1.75 -0.171875q0.53125 -0.171875 0.796875 -0.5625q0.265625 -0.390625 0.265625 -0.84375q0 -0.4375 -0.25 -0.71875q-0.25 -0.28125 -0.71875 -0.375q-0.25 -0.046875 -1.234375 -0.046875l-1.828125 0l-0.578125 2.71875zm-1.03125 4.984375l2.265625 0q1.4375 0 1.921875 -0.1875q0.484375 -0.1875 0.78125 -0.609375q0.296875 -0.421875 0.296875 -0.890625q0 -0.5625 -0.421875 -0.9375q-0.421875 -0.375 -1.40625 -0.375l-2.8125 0l-0.625 3.0z" fill-rule="nonzero"/><path fill="#000000" d="m337.11713 78.492874l0.28125 -1.34375q1.921875 -0.84375 2.984375 -1.953125l0.90625 0l-1.609375 7.671875l-1.5 0l1.109375 -5.28125q-0.46875 0.296875 -1.078125 0.546875q-0.609375 0.25 -1.09375 0.359375z" fill-rule="nonzero"/><path fill="#000000" fill-opacity="0.0" d="m542.75134 42.188976l60.566895 0l0 57.6378l-60.566895 0z" fill-rule="evenodd"/><path stroke="#000000" stroke-width="2.0" stroke-linejoin="round" stroke-linecap="butt" d="m542.75134 42.188976l60.566895 0l0 57.6378l-60.566895 0z" fill-rule="evenodd"/><path fill="#d9ead3" fill-opacity="0.44" d="m482.75262 42.188976l60.566956 0l0 57.6378l-60.566956 0z" fill-rule="evenodd"/><path stroke="#000000" stroke-width="2.0" stroke-linejoin="round" stroke-linecap="butt" d="m482.75262 42.188976l60.566956 0l0 57.6378l-60.566956 0z" fill-rule="evenodd"/><path fill="#000000" d="m504.93613 76.867874l2.40625 -11.453125l3.90625 0q1.2812805 0 1.7812805 0.078125q0.84375 0.109375 1.421875 0.46875q0.59368896 0.34375 0.89056396 0.9375q0.3125 0.578125 0.3125 1.296875q0 0.953125 -0.53125 1.65625q-0.53118896 0.6875 -1.640564 1.046875q0.890625 0.25 1.374939 0.875q0.5 0.609375 0.5 1.390625q0 1.03125 -0.59375 1.96875q-0.57806396 0.921875 -1.609314 1.328125q-1.03125 0.40625 -2.8125305 0.40625l-5.40625 0zm3.78125 -6.828125l1.796875 0q1.21875 0 1.7500305 -0.171875q0.53125 -0.171875 0.796875 -0.5625q0.265625 -0.390625 0.265625 -0.84375q0 -0.4375 -0.25 -0.71875q-0.25 -0.28125 -0.71875 -0.375q-0.25 -0.046875 -1.2344055 -0.046875l-1.828125 0l-0.578125 2.71875zm-1.03125 4.984375l2.265625 0q1.4375 0 1.921875 -0.1875q0.48440552 -0.1875 0.7812805 -0.609375q0.296875 -0.421875 0.296875 -0.890625q0 -0.5625 -0.421875 -0.9375q-0.421875 -0.375 -1.4062805 -0.375l-2.8125 0l-0.625 3.0z" fill-rule="nonzero"/><path fill="#000000" d="m519.03766 82.867874l-1.28125 0l-1.109375 -5.53125l1.46875 0l0.390625 2.421875q0.15625 0.96875 0.1875 1.296875q0.046875 -0.09375 0.359375 -0.671875q0.328125 -0.59375 0.390625 -0.703125l1.375 -2.34375l1.625 0l-3.40625 5.53125z" fill-rule="nonzero"/><path fill="#d9ead3" fill-opacity="0.44" d="m362.7513 42.188976l60.566925 0l0 57.6378l-60.566925 0z" fill-rule="evenodd"/><path stroke="#000000" stroke-width="2.0" stroke-linejoin="round" stroke-linecap="butt" d="m362.7513 42.188976l60.566925 0l0 57.6378l-60.566925 0z" fill-rule="evenodd"/><path fill="#000000" d="m384.9348 76.867874l2.40625 -11.453125l3.90625 0q1.28125 0 1.78125 0.078125q0.84375 0.109375 1.421875 0.46875q0.59375 0.34375 0.890625 0.9375q0.3125 0.578125 0.3125 1.296875q0 0.953125 -0.53125 1.65625q-0.53125 0.6875 -1.640625 1.046875q0.890625 0.25 1.375 0.875q0.5 0.609375 0.5 1.390625q0 1.03125 -0.59375 1.96875q-0.578125 0.921875 -1.609375 1.328125q-1.03125 0.40625 -2.8125 0.40625l-5.40625 0zm3.78125 -6.828125l1.796875 0q1.21875 0 1.75 -0.171875q0.53125 -0.171875 0.796875 -0.5625q0.265625 -0.390625 0.265625 -0.84375q0 -0.4375 -0.25 -0.71875q-0.25 -0.28125 -0.71875 -0.375q-0.25 -0.046875 -1.234375 -0.046875l-1.828125 0l-0.578125 2.71875zm-1.03125 4.984375l2.265625 0q1.4375 0 1.921875 -0.1875q0.484375 -0.1875 0.78125 -0.609375q0.296875 -0.421875 0.296875 -0.890625q0 -0.5625 -0.421875 -0.9375q-0.421875 -0.375 -1.40625 -0.375l-2.8125 0l-0.625 3.0z" fill-rule="nonzero"/><path fill="#000000" d="m398.66138 77.617874l-1.453125 -0.21875q0.171875 -1.0625 0.8125 -1.625q0.65625 -0.5625 1.625 -0.5625q1.0625 0 1.671875 0.578125q0.609375 0.578125 0.609375 1.46875q0 0.453125 -0.1875 0.90625q-0.1875 0.453125 -0.609375 0.953125q-0.3125 0.359375 -1.015625 1.0q-0.6875 0.640625 -0.921875 0.890625q-0.21875 0.234375 -0.421875 0.5l2.640625 0l-0.28125 1.359375l-4.640625 0q0.078125 -0.5625 0.328125 -1.0625q0.265625 -0.515625 0.640625 -0.953125q0.390625 -0.4375 1.421875 -1.40625q0.765625 -0.734375 0.96875 -0.96875q0.359375 -0.40625 0.5 -0.703125q0.140625 -0.296875 0.140625 -0.53125q0 -0.390625 -0.234375 -0.625q-0.21875 -0.234375 -0.578125 -0.234375q-0.34375 0 -0.609375 0.265625q-0.265625 0.265625 -0.40625 0.96875z" fill-rule="nonzero"/><path fill="#d9ead3" fill-opacity="0.44" d="m422.7513 42.188976l60.566925 0l0 57.6378l-60.566925 0z" fill-rule="evenodd"/><path stroke="#000000" stroke-width="2.0" stroke-linejoin="round" stroke-linecap="butt" d="m422.7513 42.188976l60.566925 0l0 57.6378l-60.566925 0z" fill-rule="evenodd"/><path fill="#000000" d="m445.9723 75.41225l2.578125 0l-0.53125 2.515625l-2.578125 0l0.53125 -2.515625zm6.03125 0l2.59375 0l-0.53125 2.515625l-2.59375 0l0.53125 -2.515625zm6.046875 0l2.578125 0l-0.53125 2.515625l-2.578125 0l0.53125 -2.515625z" fill-rule="nonzero"/><path fill="#000000" fill-opacity="0.0" d="m602.75134 42.188976l60.566895 0l0 57.6378l-60.566895 0z" fill-rule="evenodd"/><path stroke="#000000" stroke-width="2.0" stroke-linejoin="round" stroke-linecap="butt" d="m602.75134 42.188976l60.566895 0l0 57.6378l-60.566895 0z" fill-rule="evenodd"/><path fill="#000000" fill-opacity="0.0" d="m303.77692 0.17322835l60.566925 0l0 42.015747l-60.566925 0z" fill-rule="evenodd"/><path fill="#000000" d="m323.9805 21.708977l1.859375 -8.906251l1.75 0l-0.96875 4.640626l2.265625 -2.187501l2.265625 0l-2.59375 2.343751l1.375 4.109375l-1.734375 0l-0.890625 -2.984375l-1.171875 1.046875l-0.421875 1.9375l-1.734375 0zm9.776398 -1.28125l0 -2.3125l-2.328125 0l0 -1.59375l2.328125 0l0 -2.312501l1.5625 0l0 2.312501l2.34375 0l0 1.59375l-2.34375 0l0 2.3125l-1.5625 0zm5.4038086 -3.828125l0.328125 -1.562501q2.265625 -0.984375 3.5 -2.28125l1.0625 0l-1.890625 8.953126l-1.75 0l1.296875 -6.171876q-0.546875 0.359375 -1.265625 0.65625095q-0.703125 0.28125 -1.28125 0.40625z" fill-rule="nonzero"/><path fill="#000000" fill-opacity="0.0" d="m483.7743 0.17322835l60.566895 0l0 42.015747l-60.566895 0z" fill-rule="evenodd"/><path fill="#000000" d="m503.97787 21.708977l1.859375 -8.906251l1.75 0l-0.96875 4.640626l2.265625 -2.187501l2.265625 0l-2.59375 2.343751l1.375 4.109375l-1.734375 0l-0.890625 -2.984375l-1.171875 1.046875l-0.421875 1.9375l-1.734375 0zm9.776398 -1.28125l0 -2.3125l-2.328125 0l0 -1.59375l2.328125 0l0 -2.312501l1.5625 0l0 2.312501l2.34375 0l0 1.59375l-2.34375 0l0 2.3125l-1.5625 0zm7.6538086 1.28125l-1.5 0l-1.296875 -6.453126l1.71875 0l0.453125 2.812501q0.1875 1.140625 0.234375 1.515625q0.046875 -0.09375 0.421875 -0.78125q0.375 -0.6875 0.453125 -0.828125l1.609375 -2.718751l1.875 0l-3.96875 6.453126z" fill-rule="nonzero"/><path fill="#420104" fill-opacity="0.4214" d="m0.9941018 152.88715l60.56693 0l0 57.637787l-60.56693 0z" fill-rule="evenodd"/><path stroke="#000000" stroke-width="2.0" stroke-linejoin="round" stroke-linecap="butt" d="m0.9941018 152.88715l60.56693 0l0 57.637787l-60.56693 0z" fill-rule="evenodd"/><path fill="#000000" d="m13.843972 187.56604l-2.359375 0l2.390625 -11.453125l4.656251 0q1.25 0 1.96875 0.296875q0.71875 0.28125 1.140625 0.96875q0.421875 0.671875 0.421875 1.609375q0 0.859375 -0.34375 1.6875q-0.328125 0.8125 -0.8125 1.3125q-0.484375 0.484375 -1.046875 0.75q-0.5625 0.25 -1.515625 0.375q-0.5625 0.078125 -2.078125 0.078125l-1.515626 0l-0.90625 4.375zm1.296875 -6.265625l0.734375 0q1.859376 0 2.484376 -0.234375q0.625 -0.234375 0.984375 -0.75q0.359375 -0.515625 0.359375 -1.140625q0 -0.40625 -0.1875 -0.671875q-0.171875 -0.265625 -0.515625 -0.390625q-0.328125 -0.125 -1.46875 -0.125l-1.687501 0l-0.703125 3.3125zm7.015626 6.265625l2.390625 -11.453125l8.499998 0l-0.40625 1.90625l-6.124998 0l-0.546875 2.609375l5.921875 0l-0.390625 1.90625l-5.9375 0l-0.71875 3.109375l6.671875 0l-0.40625 1.921875l-8.953125 0zm13.859373 3.375l-1.53125 0q-0.640625 -1.5 -0.953125 -3.03125q-0.296875 -1.53125 -0.296875 -2.796875q0 -1.59375 0.5 -3.203125q0.515625 -1.609375 1.578125 -3.265625q0.65625 -1.0625 2.125 -2.734375l1.703125 0q-1.484375 1.75 -2.296875 3.296875q-0.8125 1.53125 -1.21875 3.34375q-0.390625 1.8125 -0.390625 3.546875q0 1.171875 0.171875 2.28125q0.1875 1.125 0.609375 2.5625zm3.390625 -9.953125l0.421875 -2.0q2.890625 -1.265625 4.484375 -2.953125l1.359375 0l-2.40625 11.53125l-2.265625 0l1.671875 -7.9375q-0.703125 0.453125 -1.625 0.828125q-0.921875 0.375 -1.640625 0.53125zm8.8828125 -5.078125l1.515625 0q0.640625 1.484375 0.953125 3.015625q0.3125 1.53125 0.3125 2.796875q0 1.59375 -0.515625 3.203125q-0.515625 1.609375 -1.5625 3.28125q-0.671875 1.0625 -2.140625 2.734375l-1.703125 0q1.484375 -1.75 2.296875 -3.296875q0.8125 -1.53125 1.203125 -3.34375q0.40625 -1.8125 0.40625 -3.5625q0 -1.171875 -0.171875 -2.28125q-0.171875 -1.109375 -0.59375 -2.546875z" fill-rule="nonzero"/><path fill="#420104" fill-opacity="0.4214" d="m180.99278 152.88715l60.56694 0l0 57.637787l-60.56694 0z" fill-rule="evenodd"/><path stroke="#000000" stroke-width="2.0" stroke-linejoin="round" stroke-linecap="butt" d="m180.99278 152.88715l60.56694 0l0 57.637787l-60.56694 0z" fill-rule="evenodd"/><path fill="#000000" d="m204.21376 186.11041l2.578125 0l-0.53125 2.515625l-2.578125 0l0.53125 -2.515625zm6.03125 0l2.59375 0l-0.53125 2.515625l-2.59375 0l0.53125 -2.515625zm6.0468597 0l2.578125 0l-0.53125 2.515625l-2.578125 0l0.53125 -2.515625z" fill-rule="nonzero"/><path fill="#420104" fill-opacity="0.4214" d="m60.991478 152.88715l60.566925 0l0 57.637787l-60.566925 0z" fill-rule="evenodd"/><path stroke="#000000" stroke-width="2.0" stroke-linejoin="round" stroke-linecap="butt" d="m60.991478 152.88715l60.566925 0l0 57.637787l-60.566925 0z" fill-rule="evenodd"/><path fill="#000000" d="m73.84135 187.56604l-2.359375 0l2.390625 -11.453125l4.65625 0q1.25 0 1.96875 0.296875q0.71875 0.28125 1.140625 0.96875q0.421875 0.671875 0.421875 1.609375q0 0.859375 -0.34375 1.6875q-0.328125 0.8125 -0.8125 1.3125q-0.484375 0.484375 -1.046875 0.75q-0.5625 0.25 -1.515625 0.375q-0.5625 0.078125 -2.078125 0.078125l-1.515625 0l-0.90625 4.375zm1.296875 -6.265625l0.734375 0q1.859375 0 2.484375 -0.234375q0.625 -0.234375 0.984375 -0.75q0.359375 -0.515625 0.359375 -1.140625q0 -0.40625 -0.1875 -0.671875q-0.171875 -0.265625 -0.515625 -0.390625q-0.328125 -0.125 -1.46875 -0.125l-1.6875 0l-0.703125 3.3125zm7.015625 6.265625l2.390625 -11.453125l8.5 0l-0.40625 1.90625l-6.125 0l-0.546875 2.609375l5.921875 0l-0.390625 1.90625l-5.9375 0l-0.71875 3.109375l6.671875 0l-0.40625 1.921875l-8.953125 0zm13.859375 3.375l-1.53125 0q-0.640625 -1.5 -0.953125 -3.03125q-0.296875 -1.53125 -0.296875 -2.796875q0 -1.59375 0.5 -3.203125q0.515625 -1.609375 1.578125 -3.265625q0.65625 -1.0625 2.125 -2.734375l1.703125 0q-1.484375 1.75 -2.296875 3.296875q-0.8125 1.53125 -1.21875 3.34375q-0.390625 1.8125 -0.390625 3.546875q0 1.171875 0.171875 2.28125q0.1875 1.125 0.609375 2.5625zm5.71875 -11.265625l-2.203125 -0.328125q0.265625 -1.59375 1.234375 -2.4375q0.984375 -0.84375 2.4375 -0.84375q1.609375 0 2.515625 0.875q0.921875 0.859375 0.921875 2.1875q0 0.6875 -0.28125 1.375q-0.28125 0.671875 -0.921875 1.421875q-0.46875 0.53125 -1.515625 1.515625q-1.046875 0.96875 -1.390625 1.328125q-0.328125 0.34375 -0.640625 0.75l3.96875 0l-0.421875 2.046875l-6.96875 0q0.109375 -0.84375 0.5 -1.609375q0.390625 -0.765625 0.96875 -1.421875q0.578125 -0.65625 2.109375 -2.109375q1.15625 -1.109375 1.46875 -1.453125q0.546875 -0.609375 0.75 -1.046875q0.203125 -0.453125 0.203125 -0.8125q0 -0.578125 -0.34375 -0.9375q-0.34375 -0.359375 -0.859375 -0.359375q-0.53125 0 -0.9375 0.40625q-0.390625 0.40625 -0.59375 1.453125zm6.5546875 -3.765625l1.515625 0q0.640625 1.484375 0.953125 3.015625q0.3125 1.53125 0.3125 2.796875q0 1.59375 -0.515625 3.203125q-0.515625 1.609375 -1.5625 3.28125q-0.671875 1.0625 -2.140625 2.734375l-1.703125 0q1.484375 -1.75 2.296875 -3.296875q0.8125 -1.53125 1.203125 -3.34375q0.40625 -1.8125 0.40625 -3.5625q0 -1.171875 -0.171875 -2.28125q-0.171875 -1.109375 -0.59375 -2.546875z" fill-rule="nonzero"/><path fill="#420104" fill-opacity="0.4214" d="m120.99148 152.88715l60.566933 0l0 57.637787l-60.566933 0z" fill-rule="evenodd"/><path stroke="#000000" stroke-width="2.0" stroke-linejoin="round" stroke-linecap="butt" d="m120.99148 152.88715l60.566933 0l0 57.637787l-60.566933 0z" fill-rule="evenodd"/><path fill="#000000" d="m133.84135 187.56604l-2.359375 0l2.390625 -11.453125l4.65625 0q1.25 0 1.96875 0.296875q0.71875 0.28125 1.140625 0.96875q0.421875 0.671875 0.421875 1.609375q0 0.859375 -0.34375 1.6875q-0.328125 0.8125 -0.8125 1.3125q-0.484375 0.484375 -1.046875 0.75q-0.5625 0.25 -1.515625 0.375q-0.5625 0.078125 -2.078125 0.078125l-1.515625 0l-0.90625 4.375zm1.296875 -6.265625l0.734375 0q1.859375 0 2.484375 -0.234375q0.625 -0.234375 0.984375 -0.75q0.359375 -0.515625 0.359375 -1.140625q0 -0.40625 -0.1875 -0.671875q-0.171875 -0.265625 -0.515625 -0.390625q-0.328125 -0.125 -1.46875 -0.125l-1.6875 0l-0.703125 3.3125zm7.015625 6.265625l2.390625 -11.453125l8.499985 0l-0.40623474 1.90625l-6.125 0l-0.546875 2.609375l5.921875 0l-0.390625 1.90625l-5.9375 0l-0.71875 3.109375l6.671875 0l-0.40625 1.921875l-8.953125 0zm13.85936 3.375l-1.53125 0q-0.640625 -1.5 -0.953125 -3.03125q-0.296875 -1.53125 -0.296875 -2.796875q0 -1.59375 0.5 -3.203125q0.515625 -1.609375 1.578125 -3.265625q0.65625 -1.0625 2.125 -2.734375l1.703125 0q-1.484375 1.75 -2.296875 3.296875q-0.8125 1.53125 -1.21875 3.34375q-0.390625 1.8125 -0.390625 3.546875q0 1.171875 0.171875 2.28125q0.1875 1.125 0.609375 2.5625zm2.296875 -6.375l2.15625 -0.25q0.125 0.90625 0.46875 1.265625q0.359375 0.34375 0.9375 0.34375q0.765625 0 1.265625 -0.515625q0.5 -0.515625 0.5 -1.3125q0 -0.703125 -0.40625 -1.109375q-0.40625 -0.421875 -1.09375 -0.421875q-0.171875 0 -0.359375 0.03125l0.390625 -1.859375q0.125 0.015625 0.234375 0.015625q0.890625 0 1.359375 -0.453125q0.46875 -0.46875 0.46875 -1.25q0 -0.546875 -0.3125 -0.859375q-0.3125 -0.328125 -0.828125 -0.328125q-0.484375 0 -0.875 0.359375q-0.375 0.34375 -0.609375 1.203125l-2.046875 -0.40625q0.390625 -1.265625 1.09375 -1.9375q1.046875 -1.015625 2.59375 -1.015625q1.578125 0 2.390625 0.875q0.828125 0.875 0.828125 2.109375q0 0.890625 -0.53125 1.609375q-0.515625 0.71875 -1.4375 1.046875q0.734375 0.390625 1.078125 1.0q0.34375 0.609375 0.34375 1.265625q0 1.265625 -0.90625 2.328125q-1.21875 1.46875 -3.15625 1.46875q-1.453125 0 -2.40625 -0.828125q-0.9375 -0.84375 -1.140625 -2.375zm9.9765625 -8.65625l1.515625 0q0.640625 1.484375 0.953125 3.015625q0.3125 1.53125 0.3125 2.796875q0 1.59375 -0.515625 3.203125q-0.515625 1.609375 -1.5625 3.28125q-0.671875 1.0625 -2.140625 2.734375l-1.703125 0q1.484375 -1.75 2.296875 -3.296875q0.8125 -1.53125 1.203125 -3.34375q0.40625 -1.8125 0.40625 -3.5625q0 -1.171875 -0.171875 -2.28125q-0.171875 -1.109375 -0.59375 -2.546875z" fill-rule="nonzero"/><path fill="#420104" fill-opacity="0.4214" d="m242.58466 153.06036l60.566925 0l0 57.637802l-60.566925 0z" fill-rule="evenodd"/><path stroke="#000000" stroke-width="2.0" stroke-linejoin="round" stroke-linecap="butt" d="m242.58466 153.06036l60.566925 0l0 57.637802l-60.566925 0z" fill-rule="evenodd"/><path fill="#000000" d="m255.43452 187.73926l-2.359375 0l2.390625 -11.453125l4.6562347 0q1.25 0 1.96875 0.296875q0.71875 0.28125 1.140625 0.96875q0.421875 0.671875 0.421875 1.609375q0 0.859375 -0.34375 1.6875q-0.328125 0.8125 -0.8125 1.3125q-0.484375 0.484375 -1.046875 0.75q-0.5625 0.25 -1.515625 0.375q-0.5625 0.078125 -2.078125 0.078125l-1.515625 0l-0.90623474 4.375zm1.2968597 -6.265625l0.734375 0q1.859375 0 2.484375 -0.234375q0.625 -0.234375 0.984375 -0.75q0.359375 -0.515625 0.359375 -1.140625q0 -0.40625 -0.1875 -0.671875q-0.171875 -0.265625 -0.515625 -0.390625q-0.328125 -0.125 -1.46875 -0.125l-1.6875 0l-0.703125 3.3125zm7.015625 6.265625l2.390625 -11.453125l8.5 0l-0.40625 1.90625l-6.125 0l-0.546875 2.609375l5.921875 0l-0.390625 1.90625l-5.9375 0l-0.71875 3.109375l6.671875 0l-0.40625 1.921875l-8.953125 0zm13.859375 3.375l-1.53125 0q-0.640625 -1.5 -0.953125 -3.03125q-0.296875 -1.53125 -0.296875 -2.796875q0 -1.59375 0.5 -3.203125q0.515625 -1.609375 1.578125 -3.265625q0.65625 -1.0625 2.125 -2.734375l1.703125 0q-1.484375 1.75 -2.296875 3.296875q-0.8125 1.53125 -1.21875 3.34375q-0.390625 1.8125 -0.390625 3.546875q0 1.171875 0.171875 2.28125q0.1875 1.125 0.609375 2.5625zm2.09375 -3.375l2.390625 -11.453125l2.25 0l-1.25 5.953125l2.921875 -2.796875l2.90625 0l-3.328125 3.015625l1.765625 5.28125l-2.234375 0l-1.140625 -3.84375l-1.515625 1.34375l-0.53125 2.5l-2.234375 0zm10.1796875 -11.65625l1.515625 0q0.640625 1.484375 0.953125 3.015625q0.3125 1.53125 0.3125 2.796875q0 1.59375 -0.515625 3.203125q-0.515625 1.609375 -1.5625 3.28125q-0.671875 1.0625 -2.140625 2.734375l-1.703125 0q1.484375 -1.75 2.296875 -3.296875q0.8125 -1.53125 1.203125 -3.34375q0.40625 -1.8125 0.40625 -3.5625q0 -1.171875 -0.171875 -2.28125q-0.171875 -1.109375 -0.59375 -2.546875z" fill-rule="nonzero"/><path fill="#d9ead3" fill-opacity="0.44" d="m302.58466 153.06036l60.566925 0l0 57.637802l-60.566925 0z" fill-rule="evenodd"/><path stroke="#000000" stroke-width="2.0" stroke-linejoin="round" stroke-linecap="butt" d="m302.58466 153.06036l60.566925 0l0 57.637802l-60.566925 0z" fill-rule="evenodd"/><path fill="#000000" d="m315.4345 187.73926l-2.359375 0l2.390625 -11.453125l4.65625 0q1.25 0 1.96875 0.296875q0.71875 0.28125 1.140625 0.96875q0.421875 0.671875 0.421875 1.609375q0 0.859375 -0.34375 1.6875q-0.328125 0.8125 -0.8125 1.3125q-0.484375 0.484375 -1.046875 0.75q-0.5625 0.25 -1.515625 0.375q-0.5625 0.078125 -2.078125 0.078125l-1.515625 0l-0.90625 4.375zm1.296875 -6.265625l0.734375 0q1.859375 0 2.484375 -0.234375q0.625 -0.234375 0.984375 -0.75q0.359375 -0.515625 0.359375 -1.140625q0 -0.40625 -0.1875 -0.671875q-0.171875 -0.265625 -0.515625 -0.390625q-0.328125 -0.125 -1.46875 -0.125l-1.6875 0l-0.703125 3.3125zm7.015625 6.265625l2.390625 -11.453125l8.5 0l-0.40625 1.90625l-6.125 0l-0.546875 2.609375l5.921875 0l-0.390625 1.90625l-5.9375 0l-0.71875 3.109375l6.671875 0l-0.40625 1.921875l-8.953125 0zm13.859375 3.375l-1.53125 0q-0.640625 -1.5 -0.953125 -3.03125q-0.296875 -1.53125 -0.296875 -2.796875q0 -1.59375 0.5 -3.203125q0.515625 -1.609375 1.578125 -3.265625q0.65625 -1.0625 2.125 -2.734375l1.703125 0q-1.484375 1.75 -2.296875 3.296875q-0.8125 1.53125 -1.21875 3.34375q-0.390625 1.8125 -0.390625 3.546875q0 1.171875 0.171875 2.28125q0.1875 1.125 0.609375 2.5625zm3.390625 -9.953125l0.421875 -2.0q2.890625 -1.265625 4.484375 -2.953125l1.359375 0l-2.40625 11.53125l-2.265625 0l1.671875 -7.9375q-0.703125 0.453125 -1.625 0.828125q-0.921875 0.375 -1.640625 0.53125zm8.8828125 -5.078125l1.515625 0q0.640625 1.484375 0.953125 3.015625q0.3125 1.53125 0.3125 2.796875q0 1.59375 -0.515625 3.203125q-0.515625 1.609375 -1.5625 3.28125q-0.671875 1.0625 -2.140625 2.734375l-1.703125 0q1.484375 -1.75 2.296875 -3.296875q0.8125 -1.53125 1.203125 -3.34375q0.40625 -1.8125 0.40625 -3.5625q0 -1.171875 -0.171875 -2.28125q-0.171875 -1.109375 -0.59375 -2.546875z" fill-rule="nonzero"/><path fill="#000000" fill-opacity="0.0" d="m542.58203 153.06036l60.566956 0l0 57.637802l-60.566956 0z" fill-rule="evenodd"/><path stroke="#000000" stroke-width="2.0" stroke-linejoin="round" stroke-linecap="butt" d="m542.58203 153.06036l60.566956 0l0 57.637802l-60.566956 0z" fill-rule="evenodd"/><path fill="#d9ead3" fill-opacity="0.44" d="m482.58334 153.06036l60.566925 0l0 57.637802l-60.566925 0z" fill-rule="evenodd"/><path stroke="#000000" stroke-width="2.0" stroke-linejoin="round" stroke-linecap="butt" d="m482.58334 153.06036l60.566925 0l0 57.637802l-60.566925 0z" fill-rule="evenodd"/><path fill="#000000" d="m495.4332 187.73926l-2.359375 0l2.390625 -11.453125l4.65625 0q1.25 0 1.96875 0.296875q0.71875 0.28125 1.140625 0.96875q0.421875 0.671875 0.421875 1.609375q0 0.859375 -0.34375 1.6875q-0.328125 0.8125 -0.8125 1.3125q-0.484375 0.484375 -1.046875 0.75q-0.5625 0.25 -1.515625 0.375q-0.5625 0.078125 -2.078125 0.078125l-1.515625 0l-0.90625 4.375zm1.296875 -6.265625l0.734375 0q1.859375 0 2.484375 -0.234375q0.625 -0.234375 0.984375 -0.75q0.359375 -0.515625 0.359375 -1.140625q0 -0.40625 -0.1875 -0.671875q-0.171875 -0.265625 -0.515625 -0.390625q-0.328125 -0.125 -1.46875 -0.125l-1.6875 0l-0.703125 3.3125zm7.015625 6.265625l2.390625 -11.453125l8.5000305 0l-0.40625 1.90625l-6.1250305 0l-0.546875 2.609375l5.9219055 0l-0.390625 1.90625l-5.9375305 0l-0.71875 3.109375l6.6719055 0l-0.40625 1.921875l-8.9531555 0zm13.8594055 3.375l-1.53125 0q-0.640625 -1.5 -0.953125 -3.03125q-0.296875 -1.53125 -0.296875 -2.796875q0 -1.59375 0.5 -3.203125q0.515625 -1.609375 1.578125 -3.265625q0.65625 -1.0625 2.125 -2.734375l1.703125 0q-1.484375 1.75 -2.296875 3.296875q-0.8125 1.53125 -1.21875 3.34375q-0.390625 1.8125 -0.390625 3.546875q0 1.171875 0.171875 2.28125q0.1875 1.125 0.609375 2.5625zm6.28125 -3.375l-1.9375 0l-1.65625 -8.296875l2.203125 0l0.578125 3.609375q0.25 1.46875 0.296875 1.953125q0.0625 -0.125 0.53125 -1.0q0.484375 -0.890625 0.59375 -1.0625l2.0625 -3.5l2.421875 0l-5.09375 8.296875zm5.9921875 -11.65625l1.515625 0q0.640625 1.484375 0.953125 3.015625q0.3125 1.53125 0.3125 2.796875q0 1.59375 -0.515625 3.203125q-0.515625 1.609375 -1.5625 3.28125q-0.671875 1.0625 -2.140625 2.734375l-1.703125 0q1.484375 -1.75 2.296875 -3.296875q0.8125 -1.53125 1.203125 -3.34375q0.40625 -1.8125 0.40625 -3.5625q0 -1.171875 -0.171875 -2.28125q-0.171875 -1.109375 -0.59375 -2.546875z" fill-rule="nonzero"/><path fill="#d9ead3" fill-opacity="0.44" d="m362.58203 153.06036l60.566925 0l0 57.637802l-60.566925 0z" fill-rule="evenodd"/><path stroke="#000000" stroke-width="2.0" stroke-linejoin="round" stroke-linecap="butt" d="m362.58203 153.06036l60.566925 0l0 57.637802l-60.566925 0z" fill-rule="evenodd"/><path fill="#000000" d="m374.59766 187.73926l-2.359375 0l2.390625 -11.453125l4.65625 0q1.25 0 1.96875 0.296875q0.71875 0.28125 1.140625 0.96875q0.421875 0.671875 0.421875 1.609375q0 0.859375 -0.34375 1.6875q-0.328125 0.8125 -0.8125 1.3125q-0.484375 0.484375 -1.046875 0.75q-0.5625 0.25 -1.515625 0.375q-0.5625 0.078125 -2.078125 0.078125l-1.515625 0l-0.90625 4.375zm1.296875 -6.265625l0.734375 0q1.859375 0 2.484375 -0.234375q0.625 -0.234375 0.984375 -0.75q0.359375 -0.515625 0.359375 -1.140625q0 -0.40625 -0.1875 -0.671875q-0.171875 -0.265625 -0.515625 -0.390625q-0.328125 -0.125 -1.46875 -0.125l-1.6875 0l-0.703125 3.3125zm7.015625 6.265625l2.390625 -11.453125l8.5 0l-0.40625 1.90625l-6.125 0l-0.546875 2.609375l5.921875 0l-0.390625 1.90625l-5.9375 0l-0.71875 3.109375l6.671875 0l-0.40625 1.921875l-8.953125 0zm13.859375 3.375l-1.53125 0q-0.640625 -1.5 -0.953125 -3.03125q-0.296875 -1.53125 -0.296875 -2.796875q0 -1.59375 0.5 -3.203125q0.515625 -1.609375 1.578125 -3.265625q0.65625 -1.0625 2.125 -2.734375l1.703125 0q-1.484375 1.75 -2.296875 3.296875q-0.8125 1.53125 -1.21875 3.34375q-0.390625 1.8125 -0.390625 3.546875q0 1.171875 0.171875 2.28125q0.1875 1.125 0.609375 2.5625zm5.71875 -11.265625l-2.203125 -0.328125q0.265625 -1.59375 1.234375 -2.4375q0.984375 -0.84375 2.4375 -0.84375q1.609375 0 2.515625 0.875q0.921875 0.859375 0.921875 2.1875q0 0.6875 -0.28125 1.375q-0.28125 0.671875 -0.921875 1.421875q-0.46875 0.53125 -1.515625 1.515625q-1.046875 0.96875 -1.390625 1.328125q-0.328125 0.34375 -0.640625 0.75l3.96875 0l-0.421875 2.046875l-6.96875 0q0.109375 -0.84375 0.5 -1.609375q0.390625 -0.765625 0.96875 -1.421875q0.578125 -0.65625 2.109375 -2.109375q1.15625 -1.109375 1.46875 -1.453125q0.546875 -0.609375 0.75 -1.046875q0.203125 -0.453125 0.203125 -0.8125q0 -0.578125 -0.34375 -0.9375q-0.34375 -0.359375 -0.859375 -0.359375q-0.53125 0 -0.9375 0.40625q-0.390625 0.40625 -0.59375 1.453125zm6.5546875 -3.765625l1.515625 0q0.640625 1.484375 0.953125 3.015625q0.3125 1.53125 0.3125 2.796875q0 1.59375 -0.515625 3.203125q-0.515625 1.609375 -1.5625 3.28125q-0.671875 1.0625 -2.140625 2.734375l-1.703125 0q1.484375 -1.75 2.296875 -3.296875q0.8125 -1.53125 1.203125 -3.34375q0.40625 -1.8125 0.40625 -3.5625q0 -1.171875 -0.171875 -2.28125q-0.171875 -1.109375 -0.59375 -2.546875z" fill-rule="nonzero"/><path fill="#d9ead3" fill-opacity="0.44" d="m422.58203 153.06036l60.566925 0l0 57.637802l-60.566925 0z" fill-rule="evenodd"/><path stroke="#000000" stroke-width="2.0" stroke-linejoin="round" stroke-linecap="butt" d="m422.58203 153.06036l60.566925 0l0 57.637802l-60.566925 0z" fill-rule="evenodd"/><path fill="#000000" d="m445.80298 186.28363l2.578125 0l-0.53125 2.515625l-2.578125 0l0.53125 -2.515625zm6.03125 0l2.59375 0l-0.53125 2.515625l-2.59375 0l0.53125 -2.515625zm6.046875 0l2.578125 0l-0.53125 2.515625l-2.578125 0l0.53125 -2.515625z" fill-rule="nonzero"/><path fill="#000000" fill-opacity="0.0" d="m602.58203 153.06036l60.566956 0l0 57.637802l-60.566956 0z" fill-rule="evenodd"/><path stroke="#000000" stroke-width="2.0" stroke-linejoin="round" stroke-linecap="butt" d="m602.58203 153.06036l60.566956 0l0 57.637802l-60.566956 0z" fill-rule="evenodd"/><path fill="#000000" fill-opacity="0.0" d="m0.5144357 94.88714l671.622 0l0 58.173225l-671.622 0z" fill-rule="evenodd"/><path fill="#000000" d="m334.30984 131.31027l0 -5.9531326l-6.0 0l0 -4.109375l6.0 0l0 -5.953125l4.0 0l0 5.953125l6.015625 0l0 4.109375l-6.015625 0l0 5.9531326l-4.0 0z" fill-rule="nonzero"/></g></svg>