<svg version="1.1" xmlns="http://www.w3.org/2000/svg" viewBox="0 0 343.5793345116091 190" width="343.5793345116091" height="190">
  <!-- svg-source:excalidraw -->
  
  <defs>
    <style class="style-fonts">
      @font-face {
        font-family: "Virgil";
        src: url("https://excalidraw.com/Virgil.woff2");
      }
      @font-face {
        font-family: "Cascadia";
        src: url("https://excalidraw.com/Cascadia.woff2");
      }
    </style>
    
  </defs>
  <g stroke-linecap="round" transform="translate(51.760537725587255 10) rotate(0 9 85)"><path d="M0 0 C0 0, 0 0, 0 0 M0 0 C0 0, 0 0, 0 0 M-0.21 5.9 C2.03 4.31, 3.25 1.88, 5.75 0.45 M-0.47 6.07 C1.63 4.54, 2.75 2.68, 5.19 0.56 M-0.39 10.7 C2.61 7.11, 7.6 3.69, 11.77 -1.62 M-0.35 12.11 C2.81 9.24, 6.38 5.1, 9.92 -0.19 M1 17.53 C6.57 10.49, 9.55 6.41, 17.22 1.19 M-0.94 18.66 C4.55 13.73, 9.19 7.81, 16.08 0.08 M0.1 23.86 C5.77 18.29, 12.88 9.74, 21.34 0.77 M0.26 24.59 C4.54 19.36, 9.93 14.7, 19.3 1.36 M-0.94 31.32 C5.47 23.87, 10.28 21.48, 20.02 8.22 M0.04 30.37 C7.86 21.42, 15.77 13.36, 20.6 7.4 M-0.26 34.93 C4.16 29.78, 12.31 21.67, 18.98 14.42 M-0.9 36.31 C7.66 29.56, 14.38 20.19, 19.54 13.29 M1.92 42.71 C5.57 36.09, 13.16 29.72, 18.76 21.39 M0.86 43.11 C5.71 35.48, 12.74 28.02, 19.13 19.7 M1.79 47.53 C7.2 42.32, 11.78 33.98, 19.54 26.12 M0.21 48.28 C6.94 40.97, 15.75 30.65, 19.11 27.26 M0.85 55.46 C7.61 48.08, 11.08 38.93, 19.63 32.45 M1 55.01 C5.8 49.26, 10.62 42.32, 20.87 31.03 M1.1 61.45 C7.8 55.34, 13.82 47.41, 17.81 38.94 M-0.44 60.47 C6.04 53.09, 13.94 45.98, 20.22 38.95 M-2.06 65.64 C3.69 61.49, 8.64 56.96, 18.34 43.24 M0.09 66.65 C6.71 59.8, 14.45 51.06, 20.85 44.72 M-1.38 73.29 C3.78 67.24, 12.61 62.26, 18.06 49.75 M-0.45 72.83 C7.3 65.05, 13.04 58.11, 19.88 50.05 M0.66 78.63 C6.58 69.27, 15.86 61.15, 19.36 57.94 M0.47 80.06 C7.74 71.23, 13.6 61.94, 19.24 57.55 M0.75 85.22 C3.6 81, 8.74 75.94, 20.63 62.26 M0.38 86.03 C4 80.39, 8.78 75.04, 20.55 63.2 M1.96 89.61 C6.47 84.22, 14.92 71.65, 18.58 68.01 M-0.67 91.29 C8.48 82.49, 15.52 74.34, 19.94 68.78 M-1.36 97.7 C6.46 90.78, 9.24 85.11, 21.31 75.71 M-0.64 98.19 C6.29 90.79, 12.3 83.5, 19.46 74.78 M-1.12 104.6 C6.71 93.56, 13.97 85.23, 19.36 80.74 M-0.72 103.31 C6.97 97.35, 11.6 89.82, 20.66 80.63 M-1.13 110.53 C2.86 103.62, 7.43 100.79, 18.69 85.68 M-0.44 109.91 C5.22 104.34, 9.45 98.54, 19.98 87.61 M-0.1 117.16 C6.76 105.43, 14.98 97.88, 19.13 92.23 M-0.29 114.84 C7.71 106.32, 16.32 98.9, 19.58 93.29 M-0.52 123.3 C7.78 112.18, 13.49 106.23, 20.74 101.04 M-0.14 122.76 C4.36 116.69, 10.11 109.65, 20.22 100 M0.28 129.18 C7.86 119.16, 15.54 110.99, 20.8 104.13 M0.14 129.05 C4.64 122.04, 10.34 117.32, 20.63 105.68 M0.6 132.42 C8.04 125.36, 16.58 115.44, 20.91 112.49 M-0.44 134.27 C5.84 127.11, 12.36 118.84, 19.1 112.21 M0.7 139.84 C7.74 130.01, 14.31 121.47, 20.02 116.43 M0.83 140.59 C5.56 133.93, 11.76 127.87, 18.87 118.19 M-0.18 147.86 C4.06 140.38, 11.08 134.31, 20.74 121.52 M-0.23 146.71 C8.51 138.56, 15.72 129.41, 18.99 123.48 M-0.72 154.14 C5.89 149.09, 6.79 143.49, 19.86 128.41 M0.87 152.07 C4.79 145.77, 10.79 139.76, 19.13 129.64 M-0.53 157.92 C5.2 152.51, 11.94 141.66, 21.22 137.21 M0.7 159.8 C8.23 150.18, 15.34 139.95, 21.02 134.79 M-1.75 163.92 C2.57 160.56, 9.68 154.25, 18.88 143.16 M0.77 165.08 C6.67 157.06, 15.35 147.28, 20.02 141.87 M1.99 169.44 C7.28 163.35, 11.32 158.77, 18.09 148.95 M0.99 170.96 C5.47 165.31, 8.36 160.49, 20.47 147.55 M4.54 170.5 C9.69 166.97, 15.75 162.36, 21.7 152.6 M5.09 170.89 C10.04 165.78, 13.19 161.31, 20.61 154.66 M10.28 170.83 C14.54 167.74, 16.08 164.39, 20.24 159.7 M11.46 170.54 C14.98 165.88, 18.18 162.04, 19.48 160.51 M15.89 169.93 C17.31 169.18, 19.64 166.76, 19.59 165.98 M16.09 170.43 C16.94 169.18, 18.27 168.09, 20 166.07" stroke="#ffec99" stroke-width="0.5" fill="none"></path><path d="M0.74 -0.42 C7.14 0.46, 12.94 -0.86, 19.66 -0.67 M0.4 -0.42 C4.46 0.22, 8.95 -0.78, 18.22 -0.84 M16.69 -0.63 C18.84 60.24, 17.34 121.88, 17.61 170.49 M18.54 0.05 C18.11 49.52, 18.34 98.94, 17.08 169.73 M18.29 169.79 C12.75 169.99, 7.47 169.71, -0.82 168.28 M18.02 170.27 C11.09 170.52, 5.55 169.73, -0.25 169.62 M-0.36 169.21 C1.4 113.77, 2.43 58.37, 1.9 1.29 M0.97 170.12 C-1.14 122.46, -0.15 74.79, -0.65 0.64" stroke="#1e1e1e" stroke-width="1" fill="none"></path></g><g transform="translate(10.003840350645419 86.88515591877035) rotate(359.98239366431085 16.009986877441406 12.5)"><text x="0" y="0" font-family="Virgil, Segoe UI Emoji" font-size="20px" fill="#1e1e1e" text-anchor="start" style="white-space: pre;" direction="ltr" dominant-baseline="text-before-edge">512</text></g><g stroke-linecap="round" transform="translate(136.22409217234326 25.87749529331103) rotate(0 9 16.3745056463909)"><path d="M0 0 C0 0, 0 0, 0 0 M0 0 C0 0, 0 0, 0 0 M-0.26 6.4 C0.84 5.13, 1.95 3.86, 4.99 0.36 M-0.26 6.4 C1.31 4.59, 2.88 2.78, 4.99 0.36 M0.13 12.04 C4 7.6, 7.86 3.15, 10.63 -0.03 M0.13 12.04 C2.74 9.04, 5.35 6.04, 10.63 -0.03 M-0.13 18.44 C4 13.69, 8.12 8.95, 15.62 0.33 M-0.13 18.44 C4.54 13.07, 9.21 7.7, 15.62 0.33 M0.27 24.08 C6.97 16.37, 13.68 8.65, 19.95 1.44 M0.27 24.08 C6.88 16.47, 13.49 8.87, 19.95 1.44 M0 30.48 C3.95 25.94, 7.9 21.4, 19.69 7.84 M0 30.48 C5.45 24.21, 10.9 17.95, 19.69 7.84 M1.71 34.61 C5.48 30.28, 9.25 25.94, 20.08 13.48 M1.71 34.61 C7.73 27.7, 13.74 20.78, 20.08 13.48 M7.35 34.22 C11.14 29.87, 14.92 25.51, 19.82 19.88 M7.35 34.22 C10.8 30.26, 14.24 26.3, 19.82 19.88 M12.34 34.58 C14.14 32.51, 15.94 30.44, 19.56 26.28 M12.34 34.58 C15.03 31.48, 17.72 28.39, 19.56 26.28" stroke="#ffec99" stroke-width="0.5" fill="none"></path><path d="M0 0 C7.17 0, 14.34 0, 18 0 M0 0 C6.82 0, 13.64 0, 18 0 M18 0 C18 10.49, 18 20.98, 18 32.75 M18 0 C18 9.83, 18 19.66, 18 32.75 M18 32.75 C12.51 32.75, 7.01 32.75, 0 32.75 M18 32.75 C13.05 32.75, 8.1 32.75, 0 32.75 M0 32.75 C0 21.58, 0 10.41, 0 0 M0 32.75 C0 22.03, 0 11.31, 0 0" stroke="#1e1e1e" stroke-width="1" fill="none"></path></g><g stroke-linecap="round" transform="translate(136.63625730359615 62.35410940919331) rotate(0 9 16.3745056463909)"><path d="M0 0 C0 0, 0 0, 0 0 M0 0 C0 0, 0 0, 0 0 M-0.26 6.4 C1.76 4.07, 3.79 1.74, 4.99 0.36 M-0.26 6.4 C1.23 4.68, 2.72 2.96, 4.99 0.36 M0.13 12.04 C3.95 7.65, 7.76 3.27, 10.63 -0.03 M0.13 12.04 C2.94 8.81, 5.75 5.58, 10.63 -0.03 M-0.13 18.44 C4.36 13.28, 8.84 8.12, 15.62 0.33 M-0.13 18.44 C5.89 11.52, 11.91 4.59, 15.62 0.33 M0.27 24.08 C7.91 15.29, 15.55 6.51, 19.95 1.44 M0.27 24.08 C7.48 15.79, 14.69 7.49, 19.95 1.44 M0 30.48 C4.73 25.05, 9.45 19.61, 19.69 7.84 M0 30.48 C5.79 23.83, 11.57 17.18, 19.69 7.84 M1.71 34.61 C8.24 27.1, 14.78 19.58, 20.08 13.48 M1.71 34.61 C6.4 29.21, 11.1 23.82, 20.08 13.48 M7.35 34.22 C10.06 31.1, 12.77 27.99, 19.82 19.88 M7.35 34.22 C10.36 30.76, 13.37 27.3, 19.82 19.88 M12.34 34.58 C14.46 32.15, 16.57 29.72, 19.56 26.28 M12.34 34.58 C13.94 32.75, 15.53 30.91, 19.56 26.28" stroke="#ffc9c9" stroke-width="0.5" fill="none"></path><path d="M0 0 C4.54 0, 9.08 0, 18 0 M0 0 C3.98 0, 7.96 0, 18 0 M18 0 C18 8.22, 18 16.44, 18 32.75 M18 0 C18 10.89, 18 21.77, 18 32.75 M18 32.75 C12.73 32.75, 7.46 32.75, 0 32.75 M18 32.75 C12.86 32.75, 7.72 32.75, 0 32.75 M0 32.75 C0 24.6, 0 16.45, 0 0 M0 32.75 C0 21.07, 0 9.4, 0 0" stroke="#1e1e1e" stroke-width="1" fill="none"></path></g><g stroke-linecap="round" transform="translate(137.04842243484882 100.27330148446089) rotate(0 9 16.3745056463909)"><path d="M0 0 C0 0, 0 0, 0 0 M0 0 C0 0, 0 0, 0 0 M-0.26 6.4 C0.85 5.12, 1.97 3.83, 4.99 0.36 M-0.26 6.4 C1.62 4.23, 3.5 2.07, 4.99 0.36 M0.13 12.04 C3.4 8.28, 6.67 4.52, 10.63 -0.03 M0.13 12.04 C3 8.75, 5.86 5.45, 10.63 -0.03 M-0.13 18.44 C4.44 13.18, 9.01 7.93, 15.62 0.33 M-0.13 18.44 C4.3 13.34, 8.74 8.24, 15.62 0.33 M0.27 24.08 C7.53 15.72, 14.8 7.36, 19.95 1.44 M0.27 24.08 C5.87 17.64, 11.47 11.19, 19.95 1.44 M0 30.48 C4.41 25.42, 8.81 20.35, 19.69 7.84 M0 30.48 C6.14 23.42, 12.28 16.35, 19.69 7.84 M1.71 34.61 C6.57 29.02, 11.43 23.43, 20.08 13.48 M1.71 34.61 C7.97 27.41, 14.23 20.21, 20.08 13.48 M7.35 34.22 C11.35 29.62, 15.35 25.03, 19.82 19.88 M7.35 34.22 C11.3 29.69, 15.24 25.15, 19.82 19.88 M12.34 34.58 C14.64 31.93, 16.95 29.28, 19.56 26.28 M12.34 34.58 C15 31.52, 17.66 28.46, 19.56 26.28" stroke="#b2f2bb" stroke-width="0.5" fill="none"></path><path d="M0 0 C3.8 0, 7.61 0, 18 0 M0 0 C3.78 0, 7.56 0, 18 0 M18 0 C18 12.48, 18 24.96, 18 32.75 M18 0 C18 10.84, 18 21.68, 18 32.75 M18 32.75 C12.44 32.75, 6.87 32.75, 0 32.75 M18 32.75 C12.01 32.75, 6.01 32.75, 0 32.75 M0 32.75 C0 20.97, 0 9.18, 0 0 M0 32.75 C0 21.31, 0 9.86, 0 0" stroke="#1e1e1e" stroke-width="1" fill="none"></path></g><g stroke-linecap="round" transform="translate(137.04842243484904 137.6772871456621) rotate(0 9 16.3745056463909)"><path d="M0 0 C0 0, 0 0, 0 0 M0 0 C0 0, 0 0, 0 0 M-0.26 6.4 C1.67 4.18, 3.59 1.96, 4.99 0.36 M-0.26 6.4 C1.5 4.37, 3.26 2.35, 4.99 0.36 M0.13 12.04 C4.31 7.24, 8.48 2.44, 10.63 -0.03 M0.13 12.04 C2.95 8.8, 5.77 5.56, 10.63 -0.03 M-0.13 18.44 C3.47 14.29, 7.08 10.15, 15.62 0.33 M-0.13 18.44 C3.49 14.28, 7.11 10.11, 15.62 0.33 M0.27 24.08 C4.63 19.06, 9 14.04, 19.95 1.44 M0.27 24.08 C8.13 15.04, 15.99 6, 19.95 1.44 M0 30.48 C5.62 24.02, 11.24 17.55, 19.69 7.84 M0 30.48 C7.38 22, 14.75 13.52, 19.69 7.84 M1.71 34.61 C7.14 28.36, 12.58 22.12, 20.08 13.48 M1.71 34.61 C6.33 29.3, 10.94 23.99, 20.08 13.48 M7.35 34.22 C11.27 29.71, 15.19 25.21, 19.82 19.88 M7.35 34.22 C11.16 29.84, 14.97 25.46, 19.82 19.88 M12.34 34.58 C13.84 32.86, 15.33 31.14, 19.56 26.28 M12.34 34.58 C14.32 32.3, 16.3 30.02, 19.56 26.28" stroke="#a5d8ff" stroke-width="0.5" fill="none"></path><path d="M0 0 C3.96 0, 7.92 0, 18 0 M0 0 C6.7 0, 13.39 0, 18 0 M18 0 C18 12.45, 18 24.89, 18 32.75 M18 0 C18 11.24, 18 22.49, 18 32.75 M18 32.75 C12.51 32.75, 7.02 32.75, 0 32.75 M18 32.75 C13.32 32.75, 8.65 32.75, 0 32.75 M0 32.75 C0 23.07, 0 13.4, 0 0 M0 32.75 C0 25.11, 0 17.47, 0 0" stroke="#1e1e1e" stroke-width="1" fill="none"></path></g><g stroke-linecap="round"><g transform="translate(74.74385472809581 96.81046290102194) rotate(0 29.729888125406774 -28.152085822963386)"><path d="M-1.11 -0.13 C16.46 -15.7, 28.86 -29.64, 60.57 -55.72 M-0.39 0.36 C18.88 -17.6, 37.02 -35.34, 58.72 -56.66" stroke="#1e1e1e" stroke-width="1" fill="none"></path></g><g transform="translate(74.74385472809581 96.81046290102194) rotate(0 29.729888125406774 -28.152085822963386)"><path d="M60.18 -56.79 L53.32 -43.16 L45.95 -51.27 L57.42 -57.89" stroke="none" stroke-width="0" fill="#1e1e1e" fill-rule="evenodd"></path><path d="M57.89 -56.76 C58.56 -53.98, 55.58 -50.45, 54.37 -41.66 M58.43 -56.39 C57.05 -52.07, 55.17 -47.71, 52.98 -42.36 M52.64 -41.91 C49.59 -46.85, 46.17 -50.13, 44.28 -51.73 M52.9 -42.72 C51.06 -45.01, 47.3 -48.12, 45.1 -51.8 M43.81 -51.18 C46.77 -53.72, 50.06 -53.18, 58.06 -57.82 M44.33 -51.65 C48.52 -52.6, 51.53 -53.74, 59.03 -56.38 M58.72 -56.66 C58.72 -56.66, 58.72 -56.66, 58.72 -56.66 M58.72 -56.66 C58.72 -56.66, 58.72 -56.66, 58.72 -56.66" stroke="#1e1e1e" stroke-width="1" fill="none"></path></g></g><mask></mask><g stroke-linecap="round"><g transform="translate(72.629030396634 98.3067778862279) rotate(0 30.188323288738957 -9.538693785459202)"><path d="M-1.08 0.78 C14.4 -4.48, 33.5 -12.5, 60.79 -19.31 M0.23 -0.98 C24.59 -9.59, 50.1 -16.99, 61.45 -19.85" stroke="#1e1e1e" stroke-width="1" fill="none"></path></g><g transform="translate(72.629030396634 98.3067778862279) rotate(0 30.188323288738957 -9.538693785459202)"><path d="M63.16 -21.09 L50.94 -10.44 L45.18 -21.64 L59.79 -20.11" stroke="none" stroke-width="0" fill="#1e1e1e" fill-rule="evenodd"></path><path d="M60.65 -19.27 C57.06 -16.11, 56.22 -15.5, 49.23 -9.1 M61.62 -20.59 C57.07 -16.5, 53.15 -11.99, 49.72 -9.51 M50.64 -10.07 C47.75 -15.2, 48.54 -18.58, 47.74 -22.81 M50.15 -10.53 C49.12 -12.88, 48.45 -15.82, 46.58 -22.67 M46.1 -21.56 C51.31 -20.4, 53.71 -20.4, 62.86 -18.35 M46.16 -21.71 C51.67 -22.15, 57.54 -20.08, 60.74 -20.05 M61.45 -19.85 C61.45 -19.85, 61.45 -19.85, 61.45 -19.85 M61.45 -19.85 C61.45 -19.85, 61.45 -19.85, 61.45 -19.85" stroke="#1e1e1e" stroke-width="1" fill="none"></path></g></g><mask></mask><g stroke-linecap="round"><g transform="translate(71.75843010204869 97.83792577718884) rotate(0 32.00345759762769 7.6583431269487505)"><path d="M0.78 1.03 C22.32 6.88, 48.46 11.24, 63.8 15.3 M0.21 0.01 C21.66 5.53, 42.14 8.61, 63.34 14.57" stroke="#1e1e1e" stroke-width="1" fill="none"></path></g><g transform="translate(71.75843010204869 97.83792577718884) rotate(0 32.00345759762769 7.6583431269487505)"><path d="M63.75 16.43 L47.09 18.01 L51.87 6.14 L61.76 13.18" stroke="none" stroke-width="0" fill="#1e1e1e" fill-rule="evenodd"></path><path d="M63.93 15.35 C56.94 16.83, 53.47 17.37, 48.24 18.6 M63.5 14.58 C58.48 15.99, 52.72 15.8, 47.9 18.06 M48.96 18.47 C50 12.74, 49.81 9.1, 51.2 5.45 M48.36 16.84 C50.05 12.8, 51.53 8.08, 51.23 4.76 M51.19 4.13 C54.69 6.22, 57.37 10.34, 62.27 14.28 M51.2 5.08 C55.96 7.9, 60.41 12.45, 63.01 14.73 M63.34 14.57 C63.34 14.57, 63.34 14.57, 63.34 14.57 M63.34 14.57 C63.34 14.57, 63.34 14.57, 63.34 14.57" stroke="#1e1e1e" stroke-width="1" fill="none"></path></g></g><mask></mask><g stroke-linecap="round"><g transform="translate(73.64889790310929 100.02889823267037) rotate(0 30.484102106319654 26.823216425084468)"><path d="M1.83 -1.19 C15.8 16.42, 36.08 32.7, 60.43 54.2 M-0.92 0.44 C23.55 21.12, 45.78 40.65, 61.89 54.84" stroke="#1e1e1e" stroke-width="1" fill="none"></path></g><g transform="translate(73.64889790310929 100.02889823267037) rotate(0 30.484102106319654 26.823216425084468)"><path d="M62.96 53.62 L49.28 52.19 L56.91 39.61 L62.7 53.97" stroke="none" stroke-width="0" fill="#1e1e1e" fill-rule="evenodd"></path><path d="M63.26 53.94 C56.58 54.26, 54.44 53.43, 46.75 50.08 M61.2 55.16 C56.98 53.91, 51.26 51.74, 47.85 50.56 M47.24 49.59 C50.57 47.83, 51.91 43.39, 55.72 41.83 M47.26 50.02 C49.8 48.1, 51.6 46.69, 55.61 40.86 M55.42 41.24 C59.32 45.19, 59.98 48.79, 63.1 53.96 M55.99 41.11 C58.49 45.37, 59.77 49.96, 61.46 54.97 M61.89 54.84 C61.89 54.84, 61.89 54.84, 61.89 54.84 M61.89 54.84 C61.89 54.84, 61.89 54.84, 61.89 54.84" stroke="#1e1e1e" stroke-width="1" fill="none"></path></g></g><mask></mask><g transform="translate(158.825541503689 35.863441405282) rotate(0 86.22994232177734 12.5)"><text x="0" y="0" font-family="Virgil, Segoe UI Emoji" font-size="20px" fill="#1e1e1e" text-anchor="start" style="white-space: pre;" direction="ltr" dominant-baseline="text-before-edge">} program_id = 0</text></g><g transform="translate(158.7864584701856 71.99892689312509) rotate(0 82.05994415283203 12.5)"><text x="0" y="0" font-family="Virgil, Segoe UI Emoji" font-size="20px" fill="#1e1e1e" text-anchor="start" style="white-space: pre;" direction="ltr" dominant-baseline="text-before-edge">} program_id = 1</text></g><g transform="translate(159.1986236014385 111.15461436215128) rotate(0 86.46994018554688 12.5)"><text x="0" y="0" font-family="Virgil, Segoe UI Emoji" font-size="20px" fill="#1e1e1e" text-anchor="start" style="white-space: pre;" direction="ltr" dominant-baseline="text-before-edge">} program_id = 2</text></g><g transform="translate(161.25944925770284 148.6616413061659) rotate(0 86.15994262695312 12.5)"><text x="0" y="0" font-family="Virgil, Segoe UI Emoji" font-size="20px" fill="#1e1e1e" text-anchor="start" style="white-space: pre;" direction="ltr" dominant-baseline="text-before-edge">} program_id = 3</text></g><g transform="translate(159.64987176619456 25.637746685163847) rotate(0 3.2095184326171875 5.831306135176959)"><text x="0" y="0" font-family="Virgil, Segoe UI Emoji" font-size="9.330089816283126px" fill="#1e1e1e" text-anchor="start" style="white-space: pre;" direction="ltr" dominant-baseline="text-before-edge">0</text></g><g transform="translate(158.29189150059165 63.05968512989887) rotate(0 8.154411315917969 5.831306135176959)"><text x="0" y="0" font-family="Virgil, Segoe UI Emoji" font-size="9.330089816283126px" fill="#1e1e1e" text-anchor="start" style="white-space: pre;" direction="ltr" dominant-baseline="text-before-edge">128</text></g><g transform="translate(160.10984156654592 98.50588641764881) rotate(0 9.190040588378906 5.831306135176959)"><text x="0" y="0" font-family="Virgil, Segoe UI Emoji" font-size="9.330089816283126px" fill="#1e1e1e" text-anchor="start" style="white-space: pre;" direction="ltr" dominant-baseline="text-before-edge">256</text></g><g transform="translate(160.52200669779882 138.073739017928) rotate(0 9.731178283691406 5.831306135176959)"><text x="0" y="0" font-family="Virgil, Segoe UI Emoji" font-size="9.330089816283126px" fill="#1e1e1e" text-anchor="start" style="white-space: pre;" direction="ltr" dominant-baseline="text-before-edge">384</text></g><g transform="translate(89.67069076234054 55.17420827653228) rotate(313.8766972859244 8.154411315917969 5.831306135176959)"><text x="0" y="0" font-family="Virgil, Segoe UI Emoji" font-size="9.330089816283126px" fill="#1e1e1e" text-anchor="start" style="white-space: pre;" direction="ltr" dominant-baseline="text-before-edge">128</text></g><g transform="translate(97.91399338739882 72.0729786579015) rotate(343.3007557660063 8.154411315917969 5.831306135176959)"><text x="0" y="0" font-family="Virgil, Segoe UI Emoji" font-size="9.330089816283126px" fill="#1e1e1e" text-anchor="start" style="white-space: pre;" direction="ltr" dominant-baseline="text-before-edge">128</text></g><g transform="translate(104.0964703561923 93.5055654830528) rotate(10.491477012331618 8.154411315917969 5.831306135176959)"><text x="0" y="0" font-family="Virgil, Segoe UI Emoji" font-size="9.330089816283126px" fill="#1e1e1e" text-anchor="start" style="white-space: pre;" direction="ltr" dominant-baseline="text-before-edge">128</text></g><g transform="translate(97.91399338739882 112.05299638943353) rotate(41.82016988013584 8.154411315917969 5.831306135176959)"><text x="0" y="0" font-family="Virgil, Segoe UI Emoji" font-size="9.330089816283126px" fill="#1e1e1e" text-anchor="start" style="white-space: pre;" direction="ltr" dominant-baseline="text-before-edge">128</text></g></svg>