<svg version="1.1" viewBox="0.0 0.0 440.6719160104987 153.6246719160105" fill="none" stroke="none" stroke-linecap="square" stroke-miterlimit="10" xmlns:xlink="http://www.w3.org/1999/xlink" xmlns="http://www.w3.org/2000/svg"><clipPath id="p.0"><path d="m0 0l440.6719 0l0 153.62466l-440.6719 0l0 -153.62466z" clip-rule="nonzero"/></clipPath><g clip-path="url(#p.0)"><path fill="#000000" fill-opacity="0.0" d="m0 0l440.6719 0l0 153.62466l-440.6719 0z" fill-rule="evenodd"/><path fill="#cc0000" d="m36.183727 122.9042l71.62204 0l0 17.98426l-71.62204 0z" fill-rule="evenodd"/><path stroke="#000000" stroke-width="1.0" stroke-linejoin="round" stroke-linecap="butt" d="m36.183727 122.9042l71.62204 0l0 17.98426l-71.62204 0z" fill-rule="evenodd"/><path fill="#e06666" d="m36.183727 98.96982l71.62204 0l0 17.984253l-71.62204 0z" fill-rule="evenodd"/><path stroke="#000000" stroke-width="1.0" stroke-linejoin="round" stroke-linecap="butt" d="m36.183727 98.96982l71.62204 0l0 17.984253l-71.62204 0z" fill-rule="evenodd"/><path fill="#ea9999" d="m36.183727 75.03543l71.62204 0l0 17.984253l-71.62204 0z" fill-rule="evenodd"/><path stroke="#000000" stroke-width="1.0" stroke-linejoin="round" stroke-linecap="butt" d="m36.183727 75.03543l71.62204 0l0 17.984253l-71.62204 0z" fill-rule="evenodd"/><path fill="#f4cccc" d="m36.093174 51.10105l71.622055 0l0 17.984253l-71.622055 0z" fill-rule="evenodd"/><path stroke="#000000" stroke-width="1.0" stroke-linejoin="round" stroke-linecap="butt" d="m36.093174 51.10105l71.622055 0l0 17.984253l-71.622055 0z" fill-rule="evenodd"/><path fill="#000000" fill-opacity="0.0" d="m36.09449 33.11811l71.62205 0l0 17.984253l-71.62205 0z" fill-rule="evenodd"/><path fill="#000000" d="m67.28832 47.870235l2.390625 -11.453125l1.53125 0l-1.15625 5.515625l6.21875 -5.515625l2.15625 0l-5.3125 4.65625l3.890625 6.796875l-1.703125 0l-3.3125 -5.8125l-2.390625 2.09375l-0.78125 3.71875l-1.53125 0z" fill-rule="nonzero"/><path fill="#000000" fill-opacity="0.0" d="m0 51.102364l36.09449 0l0 17.984253l-36.09449 0z" fill-rule="evenodd"/><path fill="#000000" d="m12.373724 64.894485l2.0 -9.546871l2.953125 0q0.8125 0 1.203125 0.078125q0.625 0.109375 1.0625 0.390625q0.453125 0.265625 0.6875 0.75q0.25 0.46875 0.25 1.046875q0 0.796875 -0.4375 1.390625q-0.4375 0.59375 -1.328125 0.90625q0.78125 0.265625 1.15625 0.78125q0.390625 0.5 0.390625 1.1875q0 0.78125 -0.453125 1.515625q-0.453125 0.7187462 -1.203125 1.1093712q-0.734375 0.390625 -1.65625 0.390625l-4.625 0zm2.421875 -5.468746l1.9375 0q1.375 0 1.984375 -0.4375q0.609375 -0.453125 0.609375 -1.296875q0 -0.390625 -0.1875 -0.6875q-0.1875 -0.296875 -0.5 -0.421875q-0.3125 -0.140625 -1.1875 -0.140625l-2.03125 0l-0.625 2.984375zm-0.921875 4.390625l2.171875 0q0.875 0 1.171875 -0.0625q0.609375 -0.109375 0.984375 -0.359375q0.375 -0.25 0.578125 -0.65625q0.21875 -0.40625 0.21875 -0.859375q0 -0.671875 -0.421875 -1.015625q-0.40625 -0.34375 -1.59375 -0.34375l-2.421875 0l-0.6875 3.296875z" fill-rule="nonzero"/><path fill="#000000" d="m21.122854 69.894485l1.328125 -6.359371l0.828125 0l1.0625 2.3906212q0.484375 1.09375 0.78125 1.84375q0.15625 0.421875 0.375 1.15625q0.125 -0.796875 0.296875 -1.65625l0.78125 -3.7343712l0.828125 0l-1.328125 6.359371l-0.84375 0l-1.578125 -3.671875q-0.421875 -0.96875 -0.65625 -1.703125q-0.0625 0.609375 -0.25 1.515625l-0.796875 3.859375l-0.828125 0z" fill-rule="nonzero"/><path fill="#000000" fill-opacity="0.0" d="m0 75.03674l36.09449 0l0 17.984253l-36.09449 0z" fill-rule="evenodd"/><path fill="#000000" d="m12.373724 88.82887l2.0 -9.546875l2.953125 0q0.8125 0 1.203125 0.078125q0.625 0.109375 1.0625 0.390625q0.453125 0.265625 0.6875 0.75q0.25 0.46875 0.25 1.046875q0 0.796875 -0.4375 1.390625q-0.4375 0.59375 -1.328125 0.90625q0.78125 0.265625 1.15625 0.78125q0.390625 0.5 0.390625 1.1875q0 0.78125 -0.453125 1.515625q-0.453125 0.71875 -1.203125 1.109375q-0.734375 0.390625 -1.65625 0.390625l-4.625 0zm2.421875 -5.46875l1.9375 0q1.375 0 1.984375 -0.4375q0.609375 -0.453125 0.609375 -1.296875q0 -0.390625 -0.1875 -0.6875q-0.1875 -0.296875 -0.5 -0.421875q-0.3125 -0.140625 -1.1875 -0.140625l-2.03125 0l-0.625 2.984375zm-0.921875 4.390625l2.171875 0q0.875 0 1.171875 -0.0625q0.609375 -0.109375 0.984375 -0.359375q0.375 -0.25 0.578125 -0.65625q0.21875 -0.40625 0.21875 -0.859375q0 -0.671875 -0.421875 -1.015625q-0.40625 -0.34375 -1.59375 -0.34375l-2.421875 0l-0.6875 3.296875z" fill-rule="nonzero"/><path fill="#000000" d="m21.122854 93.82887l1.328125 -6.359375l0.828125 0l1.0625 2.390625q0.484375 1.09375 0.78125 1.84375q0.15625 0.421875 0.375 1.15625q0.125 -0.796875 0.296875 -1.65625l0.78125 -3.734375l0.828125 0l-1.328125 6.359375l-0.84375 0l-1.578125 -3.671875q-0.421875 -0.96875 -0.65625 -1.703125q-0.0625 0.609375 -0.25 1.515625l-0.796875 3.859375l-0.828125 0z" fill-rule="nonzero"/><path fill="#000000" fill-opacity="0.0" d="m0 98.97113l36.09449 0l0 17.984253l-36.09449 0z" fill-rule="evenodd"/><path fill="#000000" d="m12.373724 112.76325l2.0 -9.546875l2.953125 0q0.8125 0 1.203125 0.078125q0.625 0.109375 1.0625 0.390625q0.453125 0.265625 0.6875 0.75q0.25 0.46875 0.25 1.046875q0 0.796875 -0.4375 1.390625q-0.4375 0.59375 -1.328125 0.90625q0.78125 0.265625 1.15625 0.78125q0.390625 0.5 0.390625 1.1875q0 0.78125 -0.453125 1.515625q-0.453125 0.71875 -1.203125 1.109375q-0.734375 0.390625 -1.65625 0.390625l-4.625 0zm2.421875 -5.46875l1.9375 0q1.375 0 1.984375 -0.4375q0.609375 -0.453125 0.609375 -1.296875q0 -0.390625 -0.1875 -0.6875q-0.1875 -0.296875 -0.5 -0.421875q-0.3125 -0.140625 -1.1875 -0.140625l-2.03125 0l-0.625 2.984375zm-0.921875 4.390625l2.171875 0q0.875 0 1.171875 -0.0625q0.609375 -0.109375 0.984375 -0.359375q0.375 -0.25 0.578125 -0.65625q0.21875 -0.40625 0.21875 -0.859375q0 -0.671875 -0.421875 -1.015625q-0.40625 -0.34375 -1.59375 -0.34375l-2.421875 0l-0.6875 3.296875z" fill-rule="nonzero"/><path fill="#000000" d="m21.122854 117.76325l1.328125 -6.359375l0.828125 0l1.0625 2.390625q0.484375 1.09375 0.78125 1.84375q0.15625 0.421875 0.375 1.15625q0.125 -0.796875 0.296875 -1.65625l0.78125 -3.734375l0.828125 0l-1.328125 6.359375l-0.84375 0l-1.578125 -3.671875q-0.421875 -0.96875 -0.65625 -1.703125q-0.0625 0.609375 -0.25 1.515625l-0.796875 3.859375l-0.828125 0z" fill-rule="nonzero"/><path fill="#000000" fill-opacity="0.0" d="m0 122.90551l36.09449 0l0 17.98426l-36.09449 0z" fill-rule="evenodd"/><path fill="#000000" d="m12.373724 136.69763l2.0 -9.546867l2.953125 0q0.8125 0 1.203125 0.078125q0.625 0.109375 1.0625 0.390625q0.453125 0.265625 0.6875 0.7499924q0.25 0.46875 0.25 1.046875q0 0.796875 -0.4375 1.390625q-0.4375 0.59375 -1.328125 0.90625q0.78125 0.265625 1.15625 0.78125q0.390625 0.5 0.390625 1.1875q0 0.78125 -0.453125 1.515625q-0.453125 0.71875 -1.203125 1.109375q-0.734375 0.390625 -1.65625 0.390625l-4.625 0zm2.421875 -5.46875l1.9375 0q1.375 0 1.984375 -0.4375q0.609375 -0.453125 0.609375 -1.296875q0 -0.390625 -0.1875 -0.6875q-0.1875 -0.296875 -0.5 -0.421875q-0.3125 -0.140625 -1.1875 -0.140625l-2.03125 0l-0.625 2.984375zm-0.921875 4.390625l2.171875 0q0.875 0 1.171875 -0.0625q0.609375 -0.109375 0.984375 -0.359375q0.375 -0.25 0.578125 -0.65625q0.21875 -0.40625 0.21875 -0.859375q0 -0.671875 -0.421875 -1.015625q-0.40625 -0.34375 -1.59375 -0.34375l-2.421875 0l-0.6875 3.296875z" fill-rule="nonzero"/><path fill="#000000" d="m21.122854 141.69763l1.328125 -6.359375l0.828125 0l1.0625 2.390625q0.484375 1.09375 0.78125 1.84375q0.15625 0.421875 0.375 1.15625q0.125 -0.796875 0.296875 -1.65625l0.78125 -3.734375l0.828125 0l-1.328125 6.359375l-0.84375 0l-1.578125 -3.671875q-0.421875 -0.96875 -0.65625 -1.703125q-0.0625 0.609375 -0.25 1.515625l-0.796875 3.859375l-0.828125 0z" fill-rule="nonzero"/><path fill="#000000" fill-opacity="0.0" d="m142.75197 42.181103l36.094482 0l0 27.086613l-36.094482 0z" fill-rule="evenodd"/><path fill="#000000" d="m152.3301 60.52441l2.0 -9.546875l2.953125 0q0.8125 0 1.203125 0.078125q0.625 0.109375 1.0625 0.390625q0.453125 0.265625 0.6875 0.75q0.25 0.46875 0.25 1.046875q0 0.796875 -0.4375 1.390625q-0.4375 0.59375 -1.328125 0.90625q0.78125 0.265625 1.15625 0.78125q0.390625 0.5 0.390625 1.1875q0 0.78125 -0.453125 1.515625q-0.453125 0.71875 -1.203125 1.109375q-0.734375 0.390625 -1.65625 0.390625l-4.625 0zm2.421875 -5.46875l1.9375 0q1.375 0 1.984375 -0.4375q0.609375 -0.453125 0.609375 -1.296875q0 -0.390625 -0.1875 -0.6875q-0.1875 -0.296875 -0.5 -0.421875q-0.3125 -0.140625 -1.1875 -0.140625l-2.03125 0l-0.625 2.984375zm-0.921875 4.390625l2.171875 0q0.875 0 1.171875 -0.0625q0.609375 -0.109375 0.984375 -0.359375q0.375 -0.25 0.578125 -0.65625q0.21875 -0.40625 0.21875 -0.859375q0 -0.671875 -0.421875 -1.015625q-0.40625 -0.34375 -1.59375 -0.34375l-2.421875 0l-0.6875 3.296875z" fill-rule="nonzero"/><path fill="#000000" d="m161.03235 65.52441l1.328125 -6.359371l1.046875 0l0.640625 4.125q0.125 0.8124962 0.15625 1.5468712q0.265625 -0.640625 0.890625 -1.7343712l2.21875 -3.9375l1.0625 0l-1.328125 6.359371l-0.828125 0l0.65625 -3.0937462q0.234375 -1.0625 0.671875 -2.390625q-0.28125 0.609375 -0.6875 1.328125l-2.359375 4.156246l-0.828125 0l-0.625 -4.078121q-0.09375 -0.546875 -0.125 -1.296875q-0.109375 0.828125 -0.21875 1.328125l-0.84375 4.046871l-0.828125 0z" fill-rule="nonzero"/><path fill="#d9ead3" d="m169.79002 69.085304l0 71.62205l-17.984253 0l0 -71.62205z" fill-rule="evenodd"/><path stroke="#000000" stroke-width="1.0" stroke-linejoin="round" stroke-linecap="butt" d="m169.79002 69.085304l0 71.62205l-17.984253 0l0 -71.62205z" fill-rule="evenodd"/><path fill="#b6d7a8" d="m193.72441 69.085304l0 71.62205l-17.984253 0l0 -71.62205z" fill-rule="evenodd"/><path stroke="#000000" stroke-width="1.0" stroke-linejoin="round" stroke-linecap="butt" d="m193.72441 69.085304l0 71.62205l-17.984253 0l0 -71.62205z" fill-rule="evenodd"/><path fill="#93c47d" d="m217.6588 69.085304l0 71.62205l-17.984253 0l0 -71.62205z" fill-rule="evenodd"/><path stroke="#000000" stroke-width="1.0" stroke-linejoin="round" stroke-linecap="butt" d="m217.6588 69.085304l0 71.62205l-17.984253 0l0 -71.62205z" fill-rule="evenodd"/><path fill="#6aa84f" d="m241.59317 69.2664l0 71.622055l-17.984253 0l0 -71.622055z" fill-rule="evenodd"/><path stroke="#000000" stroke-width="1.0" stroke-linejoin="round" stroke-linecap="butt" d="m241.59317 69.2664l0 71.622055l-17.984253 0l0 -71.622055z" fill-rule="evenodd"/><path fill="#000000" fill-opacity="0.0" d="m125.885826 69.085304l25.921257 0l0 71.62205l-25.921257 0z" fill-rule="evenodd"/><path fill="#000000" d="m135.60458 110.65633l2.390625 -11.453125l1.53125 0l-1.15625 5.515625l6.21875 -5.515625l2.15625 0l-5.3125 4.65625l3.890625 6.796875l-1.703125 0l-3.3125 -5.8125l-2.390625 2.09375l-0.78125 3.71875l-1.53125 0z" fill-rule="nonzero"/><path fill="#000000" fill-opacity="0.0" d="m166.68636 42.181103l36.094482 0l0 27.086613l-36.094482 0z" fill-rule="evenodd"/><path fill="#000000" d="m176.26448 60.52441l2.0 -9.546875l2.953125 0q0.8125 0 1.203125 0.078125q0.625 0.109375 1.0625 0.390625q0.453125 0.265625 0.6875 0.75q0.25 0.46875 0.25 1.046875q0 0.796875 -0.4375 1.390625q-0.4375 0.59375 -1.328125 0.90625q0.78125 0.265625 1.15625 0.78125q0.390625 0.5 0.390625 1.1875q0 0.78125 -0.453125 1.515625q-0.453125 0.71875 -1.203125 1.109375q-0.734375 0.390625 -1.65625 0.390625l-4.625 0zm2.421875 -5.46875l1.9375 0q1.375 0 1.984375 -0.4375q0.609375 -0.453125 0.609375 -1.296875q0 -0.390625 -0.1875 -0.6875q-0.1875 -0.296875 -0.5 -0.421875q-0.3125 -0.140625 -1.1875 -0.140625l-2.03125 0l-0.625 2.984375zm-0.921875 4.390625l2.171875 0q0.875 0 1.171875 -0.0625q0.609375 -0.109375 0.984375 -0.359375q0.375 -0.25 0.578125 -0.65625q0.21875 -0.40625 0.21875 -0.859375q0 -0.671875 -0.421875 -1.015625q-0.40625 -0.34375 -1.59375 -0.34375l-2.421875 0l-0.6875 3.296875z" fill-rule="nonzero"/><path fill="#000000" d="m184.96674 65.52441l1.328125 -6.359371l1.046875 0l0.640625 4.125q0.125 0.8124962 0.15625 1.5468712q0.265625 -0.640625 0.890625 -1.7343712l2.21875 -3.9375l1.0625 0l-1.328125 6.359371l-0.828125 0l0.65625 -3.0937462q0.234375 -1.0625 0.671875 -2.390625q-0.28125 0.609375 -0.6875 1.328125l-2.359375 4.156246l-0.828125 0l-0.625 -4.078121q-0.09375 -0.546875 -0.125 -1.296875q-0.109375 0.828125 -0.21875 1.328125l-0.84375 4.046871l-0.828125 0z" fill-rule="nonzero"/><path fill="#000000" fill-opacity="0.0" d="m190.62073 42.181103l36.094498 0l0 27.086613l-36.094498 0z" fill-rule="evenodd"/><path fill="#000000" d="m200.19885 60.52441l2.0 -9.546875l2.953125 0q0.8125 0 1.203125 0.078125q0.625 0.109375 1.0625 0.390625q0.453125 0.265625 0.6875 0.75q0.25 0.46875 0.25 1.046875q0 0.796875 -0.4375 1.390625q-0.4375 0.59375 -1.328125 0.90625q0.78125 0.265625 1.15625 0.78125q0.390625 0.5 0.390625 1.1875q0 0.78125 -0.453125 1.515625q-0.453125 0.71875 -1.203125 1.109375q-0.734375 0.390625 -1.65625 0.390625l-4.625 0zm2.421875 -5.46875l1.9375 0q1.375 0 1.984375 -0.4375q0.609375 -0.453125 0.609375 -1.296875q0 -0.390625 -0.1875 -0.6875q-0.1875 -0.296875 -0.5 -0.421875q-0.3125 -0.140625 -1.1875 -0.140625l-2.03125 0l-0.625 2.984375zm-0.921875 4.390625l2.171875 0q0.875 0 1.171875 -0.0625q0.609375 -0.109375 0.984375 -0.359375q0.375 -0.25 0.578125 -0.65625q0.21875 -0.40625 0.21875 -0.859375q0 -0.671875 -0.421875 -1.015625q-0.40625 -0.34375 -1.59375 -0.34375l-2.421875 0l-0.6875 3.296875z" fill-rule="nonzero"/><path fill="#000000" d="m208.90111 65.52441l1.328125 -6.359371l1.046875 0l0.640625 4.125q0.125 0.8124962 0.15625 1.5468712q0.265625 -0.640625 0.890625 -1.7343712l2.21875 -3.9375l1.0625 0l-1.328125 6.359371l-0.828125 0l0.65625 -3.0937462q0.234375 -1.0625 0.671875 -2.390625q-0.28125 0.609375 -0.6875 1.328125l-2.359375 4.156246l-0.828125 0l-0.625 -4.078121q-0.09375 -0.546875 -0.125 -1.296875q-0.109375 0.828125 -0.21875 1.328125l-0.84375 4.046871l-0.828125 0z" fill-rule="nonzero"/><path fill="#000000" fill-opacity="0.0" d="m214.55511 42.181103l36.094498 0l0 27.086613l-36.094498 0z" fill-rule="evenodd"/><path fill="#000000" d="m224.13324 60.52441l2.0 -9.546875l2.953125 0q0.8125 0 1.203125 0.078125q0.625 0.109375 1.0625 0.390625q0.453125 0.265625 0.6875 0.75q0.25 0.46875 0.25 1.046875q0 0.796875 -0.4375 1.390625q-0.4375 0.59375 -1.328125 0.90625q0.78125 0.265625 1.15625 0.78125q0.390625 0.5 0.390625 1.1875q0 0.78125 -0.453125 1.515625q-0.453125 0.71875 -1.203125 1.109375q-0.734375 0.390625 -1.65625 0.390625l-4.625 0zm2.421875 -5.46875l1.9375 0q1.375 0 1.984375 -0.4375q0.609375 -0.453125 0.609375 -1.296875q0 -0.390625 -0.1875 -0.6875q-0.1875 -0.296875 -0.5 -0.421875q-0.3125 -0.140625 -1.1875 -0.140625l-2.03125 0l-0.625 2.984375zm-0.921875 4.390625l2.171875 0q0.875 0 1.171875 -0.0625q0.609375 -0.109375 0.984375 -0.359375q0.375 -0.25 0.578125 -0.65625q0.21875 -0.40625 0.21875 -0.859375q0 -0.671875 -0.421875 -1.015625q-0.40625 -0.34375 -1.59375 -0.34375l-2.421875 0l-0.6875 3.296875z" fill-rule="nonzero"/><path fill="#000000" d="m232.8355 65.52441l1.328125 -6.359371l1.046875 0l0.640625 4.125q0.125 0.8124962 0.15625 1.5468712q0.265625 -0.640625 0.890625 -1.7343712l2.21875 -3.9375l1.0625 0l-1.328125 6.359371l-0.828125 0l0.65625 -3.0937462q0.234375 -1.0625 0.671875 -2.390625q-0.28125 0.609375 -0.6875 1.328125l-2.359375 4.156246l-0.828125 0l-0.625 -4.078121q-0.09375 -0.546875 -0.125 -1.296875q-0.109375 0.828125 -0.21875 1.328125l-0.84375 4.046871l-0.828125 0z" fill-rule="nonzero"/><path fill="#f4cccc" d="m330.3281 51.052494l17.984253 0l-17.984253 17.98425z" fill-rule="evenodd"/><path stroke="#000000" stroke-width="1.0" stroke-linejoin="round" stroke-linecap="butt" d="m330.3281 51.052494l17.984253 0l-17.984253 17.98425z" fill-rule="evenodd"/><path fill="#d9ead3" d="m348.31235 69.03674l-17.984253 0l17.984253 -17.98425z" fill-rule="evenodd"/><path stroke="#000000" stroke-width="1.0" stroke-linejoin="round" stroke-linecap="butt" d="m348.31235 69.03674l-17.984253 0l17.984253 -17.98425z" fill-rule="evenodd"/><path fill="#f4cccc" d="m352.72046 51.052494l17.984253 0l-17.984253 17.98425z" fill-rule="evenodd"/><path stroke="#000000" stroke-width="1.0" stroke-linejoin="round" stroke-linecap="butt" d="m352.72046 51.052494l17.984253 0l-17.984253 17.98425z" fill-rule="evenodd"/><path fill="#b6d7a8" d="m370.7047 69.03674l-17.984253 0l17.984253 -17.98425z" fill-rule="evenodd"/><path stroke="#000000" stroke-width="1.0" stroke-linejoin="round" stroke-linecap="butt" d="m370.7047 69.03674l-17.984253 0l17.984253 -17.98425z" fill-rule="evenodd"/><path fill="#f4cccc" d="m375.01968 51.052494l17.984253 0l-17.984253 17.98425z" fill-rule="evenodd"/><path stroke="#000000" stroke-width="1.0" stroke-linejoin="round" stroke-linecap="butt" d="m375.01968 51.052494l17.984253 0l-17.984253 17.98425z" fill-rule="evenodd"/><path fill="#93c47d" d="m393.00394 69.03674l-17.984253 0l17.984253 -17.98425z" fill-rule="evenodd"/><path stroke="#000000" stroke-width="1.0" stroke-linejoin="round" stroke-linecap="butt" d="m393.00394 69.03674l-17.984253 0l17.984253 -17.98425z" fill-rule="evenodd"/><path fill="#f4cccc" d="m397.3189 51.052494l17.984253 0l-17.984253 17.98425z" fill-rule="evenodd"/><path stroke="#000000" stroke-width="1.0" stroke-linejoin="round" stroke-linecap="butt" d="m397.3189 51.052494l17.984253 0l-17.984253 17.98425z" fill-rule="evenodd"/><path fill="#6aa84f" d="m415.30316 69.03674l-17.984253 0l17.984253 -17.98425z" fill-rule="evenodd"/><path stroke="#000000" stroke-width="1.0" stroke-linejoin="round" stroke-linecap="butt" d="m415.30316 69.03674l-17.984253 0l17.984253 -17.98425z" fill-rule="evenodd"/><path fill="#000000" fill-opacity="0.0" d="m323.45013 22.257217l36.094482 0l0 27.086617l-36.094482 0z" fill-rule="evenodd"/><path fill="#000000" d="m333.02826 40.600525l2.0 -9.546875l2.953125 0q0.8125 0 1.203125 0.078125q0.625 0.109375 1.0625 0.390625q0.453125 0.265625 0.6875 0.75q0.25 0.46875 0.25 1.046875q0 0.796875 -0.4375 1.390625q-0.4375 0.59375 -1.328125 0.90625q0.78125 0.265625 1.15625 0.78125q0.390625 0.5 0.390625 1.1875q0 0.78125 -0.453125 1.515625q-0.453125 0.71875 -1.203125 1.109375q-0.734375 0.390625 -1.65625 0.390625l-4.625 0zm2.421875 -5.46875l1.9375 0q1.375 0 1.984375 -0.4375q0.609375 -0.453125 0.609375 -1.296875q0 -0.390625 -0.1875 -0.6875q-0.1875 -0.296875 -0.5 -0.421875q-0.3125 -0.140625 -1.1875 -0.140625l-2.03125 0l-0.625 2.984375zm-0.921875 4.390625l2.171875 0q0.875 0 1.171875 -0.0625q0.609375 -0.109375 0.984375 -0.359375q0.375 -0.25 0.578125 -0.65625q0.21875 -0.40625 0.21875 -0.859375q0 -0.671875 -0.421875 -1.015625q-0.40625 -0.34375 -1.59375 -0.34375l-2.421875 0l-0.6875 3.296875z" fill-rule="nonzero"/><path fill="#000000" d="m341.7305 45.600525l1.328125 -6.359375l1.046875 0l0.640625 4.125q0.125 0.8125 0.15625 1.546875q0.265625 -0.640625 0.890625 -1.734375l2.21875 -3.9375l1.0625 0l-1.328125 6.359375l-0.828125 0l0.65625 -3.09375q0.234375 -1.0625 0.671875 -2.390625q-0.28125 0.609375 -0.6875 1.328125l-2.359375 4.15625l-0.828125 0l-0.625 -4.078125q-0.09375 -0.546875 -0.125 -1.296875q-0.109375 0.828125 -0.21875 1.328125l-0.84375 4.046875l-0.828125 0z" fill-rule="nonzero"/><path fill="#000000" fill-opacity="0.0" d="m347.38452 22.257217l36.094482 0l0 27.086617l-36.094482 0z" fill-rule="evenodd"/><path fill="#000000" d="m356.96265 40.600525l2.0 -9.546875l2.953125 0q0.8125 0 1.203125 0.078125q0.625 0.109375 1.0625 0.390625q0.453125 0.265625 0.6875 0.75q0.25 0.46875 0.25 1.046875q0 0.796875 -0.4375 1.390625q-0.4375 0.59375 -1.328125 0.90625q0.78125 0.265625 1.15625 0.78125q0.390625 0.5 0.390625 1.1875q0 0.78125 -0.453125 1.515625q-0.453125 0.71875 -1.203125 1.109375q-0.734375 0.390625 -1.65625 0.390625l-4.625 0zm2.421875 -5.46875l1.9375 0q1.375 0 1.984375 -0.4375q0.609375 -0.453125 0.609375 -1.296875q0 -0.390625 -0.1875 -0.6875q-0.1875 -0.296875 -0.5 -0.421875q-0.3125 -0.140625 -1.1875 -0.140625l-2.03125 0l-0.625 2.984375zm-0.921875 4.390625l2.171875 0q0.875 0 1.171875 -0.0625q0.609375 -0.109375 0.984375 -0.359375q0.375 -0.25 0.578125 -0.65625q0.21875 -0.40625 0.21875 -0.859375q0 -0.671875 -0.421875 -1.015625q-0.40625 -0.34375 -1.59375 -0.34375l-2.421875 0l-0.6875 3.296875z" fill-rule="nonzero"/><path fill="#000000" d="m365.6649 45.600525l1.328125 -6.359375l1.046875 0l0.640625 4.125q0.125 0.8125 0.15625 1.546875q0.265625 -0.640625 0.890625 -1.734375l2.21875 -3.9375l1.0625 0l-1.328125 6.359375l-0.828125 0l0.65625 -3.09375q0.234375 -1.0625 0.671875 -2.390625q-0.28125 0.609375 -0.6875 1.328125l-2.359375 4.15625l-0.828125 0l-0.625 -4.078125q-0.09375 -0.546875 -0.125 -1.296875q-0.109375 0.828125 -0.21875 1.328125l-0.84375 4.046875l-0.828125 0z" fill-rule="nonzero"/><path fill="#000000" fill-opacity="0.0" d="m371.3189 22.257217l36.094482 0l0 27.086617l-36.094482 0z" fill-rule="evenodd"/><path fill="#000000" d="m380.89703 40.600525l2.0 -9.546875l2.953125 0q0.8125 0 1.203125 0.078125q0.625 0.109375 1.0625 0.390625q0.453125 0.265625 0.6875 0.75q0.25 0.46875 0.25 1.046875q0 0.796875 -0.4375 1.390625q-0.4375 0.59375 -1.328125 0.90625q0.78125 0.265625 1.15625 0.78125q0.390625 0.5 0.390625 1.1875q0 0.78125 -0.453125 1.515625q-0.453125 0.71875 -1.203125 1.109375q-0.734375 0.390625 -1.65625 0.390625l-4.625 0zm2.421875 -5.46875l1.9375 0q1.375 0 1.984375 -0.4375q0.609375 -0.453125 0.609375 -1.296875q0 -0.390625 -0.1875 -0.6875q-0.1875 -0.296875 -0.5 -0.421875q-0.3125 -0.140625 -1.1875 -0.140625l-2.03125 0l-0.625 2.984375zm-0.921875 4.390625l2.171875 0q0.875 0 1.171875 -0.0625q0.609375 -0.109375 0.984375 -0.359375q0.375 -0.25 0.578125 -0.65625q0.21875 -0.40625 0.21875 -0.859375q0 -0.671875 -0.421875 -1.015625q-0.40625 -0.34375 -1.59375 -0.34375l-2.421875 0l-0.6875 3.296875z" fill-rule="nonzero"/><path fill="#000000" d="m389.59927 45.600525l1.328125 -6.359375l1.046875 0l0.640625 4.125q0.125 0.8125 0.15625 1.546875q0.265625 -0.640625 0.890625 -1.734375l2.21875 -3.9375l1.0625 0l-1.328125 6.359375l-0.828125 0l0.65625 -3.09375q0.234375 -1.0625 0.671875 -2.390625q-0.28125 0.609375 -0.6875 1.328125l-2.359375 4.15625l-0.828125 0l-0.625 -4.078125q-0.09375 -0.546875 -0.125 -1.296875q-0.109375 0.828125 -0.21875 1.328125l-0.84375 4.046875l-0.828125 0z" fill-rule="nonzero"/><path fill="#000000" fill-opacity="0.0" d="m395.2533 22.257217l36.094482 0l0 27.086617l-36.094482 0z" fill-rule="evenodd"/><path fill="#000000" d="m404.83142 40.600525l2.0 -9.546875l2.953125 0q0.8125 0 1.203125 0.078125q0.625 0.109375 1.0625 0.390625q0.453125 0.265625 0.6875 0.75q0.25 0.46875 0.25 1.046875q0 0.796875 -0.4375 1.390625q-0.4375 0.59375 -1.328125 0.90625q0.78125 0.265625 1.15625 0.78125q0.390625 0.5 0.390625 1.1875q0 0.78125 -0.453125 1.515625q-0.453125 0.71875 -1.203125 1.109375q-0.734375 0.390625 -1.65625 0.390625l-4.625 0zm2.421875 -5.46875l1.9375 0q1.375 0 1.984375 -0.4375q0.609375 -0.453125 0.609375 -1.296875q0 -0.390625 -0.1875 -0.6875q-0.1875 -0.296875 -0.5 -0.421875q-0.3125 -0.140625 -1.1875 -0.140625l-2.03125 0l-0.625 2.984375zm-0.921875 4.390625l2.171875 0q0.875 0 1.171875 -0.0625q0.609375 -0.109375 0.984375 -0.359375q0.375 -0.25 0.578125 -0.65625q0.21875 -0.40625 0.21875 -0.859375q0 -0.671875 -0.421875 -1.015625q-0.40625 -0.34375 -1.59375 -0.34375l-2.421875 0l-0.6875 3.296875z" fill-rule="nonzero"/><path fill="#000000" d="m413.53366 45.600525l1.328125 -6.359375l1.046875 0l0.640625 4.125q0.125 0.8125 0.15625 1.546875q0.265625 -0.640625 0.890625 -1.734375l2.21875 -3.9375l1.0625 0l-1.328125 6.359375l-0.828125 0l0.65625 -3.09375q0.234375 -1.0625 0.671875 -2.390625q-0.28125 0.609375 -0.6875 1.328125l-2.359375 4.15625l-0.828125 0l-0.625 -4.078125q-0.09375 -0.546875 -0.125 -1.296875q-0.109375 0.828125 -0.21875 1.328125l-0.84375 4.046875l-0.828125 0z" fill-rule="nonzero"/><path fill="#000000" fill-opacity="0.0" d="m295.41733 49.343834l36.094482 0l0 17.984253l-36.094482 0z" fill-rule="evenodd"/><path fill="#000000" d="m307.79105 63.13596l2.0 -9.546875l2.953125 0q0.8125 0 1.203125 0.078125q0.625 0.109375 1.0625 0.390625q0.453125 0.265625 0.6875 0.75q0.25 0.46875 0.25 1.046875q0 0.796875 -0.4375 1.390625q-0.4375 0.59375 -1.328125 0.90625q0.78125 0.265625 1.15625 0.78125q0.390625 0.5 0.390625 1.1875q0 0.78125 -0.453125 1.515625q-0.453125 0.71875 -1.203125 1.109375q-0.734375 0.390625 -1.65625 0.390625l-4.625 0zm2.421875 -5.46875l1.9375 0q1.375 0 1.984375 -0.4375q0.609375 -0.453125 0.609375 -1.296875q0 -0.390625 -0.1875 -0.6875q-0.1875 -0.296875 -0.5 -0.421875q-0.3125 -0.140625 -1.1875 -0.140625l-2.03125 0l-0.625 2.984375zm-0.921875 4.390625l2.171875 0q0.875 0 1.171875 -0.0625q0.609375 -0.109375 0.984375 -0.359375q0.375 -0.25 0.578125 -0.65625q0.21875 -0.40625 0.21875 -0.859375q0 -0.671875 -0.421875 -1.015625q-0.40625 -0.34375 -1.59375 -0.34375l-2.421875 0l-0.6875 3.296875z" fill-rule="nonzero"/><path fill="#000000" d="m316.5402 68.135956l1.328125 -6.359371l0.828125 0l1.0625 2.3906212q0.484375 1.09375 0.78125 1.84375q0.15625 0.421875 0.375 1.15625q0.125 -0.796875 0.296875 -1.65625l0.78125 -3.7343712l0.828125 0l-1.328125 6.359371l-0.84375 0l-1.578125 -3.671875q-0.421875 -0.9687462 -0.65625 -1.7031212q-0.0625 0.609375 -0.25 1.5156212l-0.796875 3.859375l-0.828125 0z" fill-rule="nonzero"/><path fill="#000000" fill-opacity="0.0" d="m295.41733 73.27821l36.094482 0l0 17.984253l-36.094482 0z" fill-rule="evenodd"/><path fill="#000000" d="m307.79105 87.07034l2.0 -9.546875l2.953125 0q0.8125 0 1.203125 0.078125q0.625 0.109375 1.0625 0.390625q0.453125 0.265625 0.6875 0.75q0.25 0.46875 0.25 1.046875q0 0.796875 -0.4375 1.390625q-0.4375 0.59375 -1.328125 0.90625q0.78125 0.265625 1.15625 0.78125q0.390625 0.5 0.390625 1.1875q0 0.78125 -0.453125 1.515625q-0.453125 0.71875 -1.203125 1.109375q-0.734375 0.390625 -1.65625 0.390625l-4.625 0zm2.421875 -5.46875l1.9375 0q1.375 0 1.984375 -0.4375q0.609375 -0.453125 0.609375 -1.296875q0 -0.390625 -0.1875 -0.6875q-0.1875 -0.296875 -0.5 -0.421875q-0.3125 -0.140625 -1.1875 -0.140625l-2.03125 0l-0.625 2.984375zm-0.921875 4.390625l2.171875 0q0.875 0 1.171875 -0.0625q0.609375 -0.109375 0.984375 -0.359375q0.375 -0.25 0.578125 -0.65625q0.21875 -0.40625 0.21875 -0.859375q0 -0.671875 -0.421875 -1.015625q-0.40625 -0.34375 -1.59375 -0.34375l-2.421875 0l-0.6875 3.296875z" fill-rule="nonzero"/><path fill="#000000" d="m316.5402 92.07034l1.328125 -6.359375l0.828125 0l1.0625 2.390625q0.484375 1.09375 0.78125 1.84375q0.15625 0.421875 0.375 1.15625q0.125 -0.796875 0.296875 -1.65625l0.78125 -3.734375l0.828125 0l-1.328125 6.359375l-0.84375 0l-1.578125 -3.671875q-0.421875 -0.96875 -0.65625 -1.703125q-0.0625 0.609375 -0.25 1.515625l-0.796875 3.859375l-0.828125 0z" fill-rule="nonzero"/><path fill="#000000" fill-opacity="0.0" d="m295.41733 97.2126l36.094482 0l0 17.984253l-36.094482 0z" fill-rule="evenodd"/><path fill="#000000" d="m307.79105 111.00472l2.0 -9.546875l2.953125 0q0.8125 0 1.203125 0.078125q0.625 0.109375 1.0625 0.390625q0.453125 0.265625 0.6875 0.75q0.25 0.46875 0.25 1.046875q0 0.796875 -0.4375 1.390625q-0.4375 0.59375 -1.328125 0.90625q0.78125 0.265625 1.15625 0.78125q0.390625 0.5 0.390625 1.1875q0 0.78125 -0.453125 1.515625q-0.453125 0.71875 -1.203125 1.109375q-0.734375 0.390625 -1.65625 0.390625l-4.625 0zm2.421875 -5.46875l1.9375 0q1.375 0 1.984375 -0.4375q0.609375 -0.453125 0.609375 -1.296875q0 -0.390625 -0.1875 -0.6875q-0.1875 -0.296875 -0.5 -0.421875q-0.3125 -0.140625 -1.1875 -0.140625l-2.03125 0l-0.625 2.984375zm-0.921875 4.390625l2.171875 0q0.875 0 1.171875 -0.0625q0.609375 -0.109375 0.984375 -0.359375q0.375 -0.25 0.578125 -0.65625q0.21875 -0.40625 0.21875 -0.859375q0 -0.671875 -0.421875 -1.015625q-0.40625 -0.34375 -1.59375 -0.34375l-2.421875 0l-0.6875 3.296875z" fill-rule="nonzero"/><path fill="#000000" d="m316.5402 116.00472l1.328125 -6.359375l0.828125 0l1.0625 2.390625q0.484375 1.09375 0.78125 1.84375q0.15625 0.421875 0.375 1.15625q0.125 -0.796875 0.296875 -1.65625l0.78125 -3.734375l0.828125 0l-1.328125 6.359375l-0.84375 0l-1.578125 -3.671875q-0.421875 -0.96875 -0.65625 -1.703125q-0.0625 0.609375 -0.25 1.515625l-0.796875 3.859375l-0.828125 0z" fill-rule="nonzero"/><path fill="#000000" fill-opacity="0.0" d="m295.41733 121.14698l36.094482 0l0 17.98426l-36.094482 0z" fill-rule="evenodd"/><path fill="#000000" d="m307.79105 134.9391l2.0 -9.546867l2.953125 0q0.8125 0 1.203125 0.078125q0.625 0.109375 1.0625 0.390625q0.453125 0.265625 0.6875 0.75q0.25 0.46875 0.25 1.046875q0 0.7968674 -0.4375 1.3906174q-0.4375 0.59375 -1.328125 0.90625q0.78125 0.265625 1.15625 0.78125q0.390625 0.5 0.390625 1.1875q0 0.78125 -0.453125 1.515625q-0.453125 0.71875 -1.203125 1.109375q-0.734375 0.390625 -1.65625 0.390625l-4.625 0zm2.421875 -5.46875l1.9375 0q1.375 0 1.984375 -0.4375q0.609375 -0.453125 0.609375 -1.2968674q0 -0.390625 -0.1875 -0.6875q-0.1875 -0.296875 -0.5 -0.421875q-0.3125 -0.140625 -1.1875 -0.140625l-2.03125 0l-0.625 2.9843674zm-0.921875 4.390625l2.171875 0q0.875 0 1.171875 -0.0625q0.609375 -0.109375 0.984375 -0.359375q0.375 -0.25 0.578125 -0.65625q0.21875 -0.40625 0.21875 -0.859375q0 -0.671875 -0.421875 -1.015625q-0.40625 -0.34375 -1.59375 -0.34375l-2.421875 0l-0.6875 3.296875z" fill-rule="nonzero"/><path fill="#000000" d="m316.5402 139.9391l1.328125 -6.359375l0.828125 0l1.0625 2.390625q0.484375 1.09375 0.78125 1.84375q0.15625 0.421875 0.375 1.15625q0.125 -0.796875 0.296875 -1.65625l0.78125 -3.734375l0.828125 0l-1.328125 6.359375l-0.84375 0l-1.578125 -3.671875q-0.421875 -0.96875 -0.65625 -1.703125q-0.0625 0.609375 -0.25 1.515625l-0.796875 3.859375l-0.828125 0z" fill-rule="nonzero"/><path fill="#000000" fill-opacity="0.0" d="m307.0525 140.87927c-2.348297 0 -4.251953 -1.9036713 -4.251953 -4.2519684l0 -39.086624c0 -2.348297 -1.9036865 -4.2519684 -4.2519836 -4.2519684l0 0c2.348297 0 4.2519836 -1.9036713 4.2519836 -4.2519684l0 -39.086613l0 0c0 -2.348297 1.903656 -4.2519684 4.251953 -4.2519684z" fill-rule="evenodd"/><path fill="#000000" fill-opacity="0.0" d="m307.0525 140.87927c-2.348297 0 -4.251953 -1.9036713 -4.251953 -4.2519684l0 -39.086624c0 -2.348297 -1.9036865 -4.2519684 -4.2519836 -4.2519684l0 0c2.348297 0 4.2519836 -1.9036713 4.2519836 -4.2519684l0 -39.086613l0 0c0 -2.348297 1.903656 -4.2519684 4.251953 -4.2519684" fill-rule="evenodd"/><path stroke="#000000" stroke-width="1.0" stroke-linejoin="round" stroke-linecap="butt" d="m307.0525 140.87927c-2.348297 0 -4.251953 -1.9036713 -4.251953 -4.2519684l0 -39.086624c0 -2.348297 -1.9036865 -4.2519684 -4.2519836 -4.2519684l0 0c2.348297 0 4.2519836 -1.9036713 4.2519836 -4.2519684l0 -39.086613l0 0c0 -2.348297 1.903656 -4.2519684 4.251953 -4.2519684" fill-rule="evenodd"/><path fill="#000000" fill-opacity="0.0" d="m274.09055 45.69819l25.921265 0l0 95.1811l-25.921265 0z" fill-rule="evenodd"/><path fill="#000000" d="m283.8718 99.04874l2.40625 -11.453125l1.484375 0l1.921875 4.296875q0.890625 1.96875 1.40625 3.3125q0.296875 0.78125 0.6875 2.109375q0.203125 -1.453125 0.53125 -2.984375l1.40625 -6.734375l1.484375 0l-2.390625 11.453125l-1.515625 0l-2.84375 -6.625q-0.75 -1.75 -1.171875 -3.078125q-0.125 1.109375 -0.453125 2.734375l-1.453125 6.96875l-1.5 0z" fill-rule="nonzero"/><path fill="#000000" fill-opacity="0.0" d="m328.8294 30.761154c0 -2.348297 1.903656 -4.2519684 4.251953 -4.2519684l39.08661 0c2.348297 0 4.2519836 -1.9036713 4.2519836 -4.2519684l0 0c0 2.348297 1.903656 4.2519684 4.251953 4.2519684l39.08664 0l0 0c2.348297 0 4.251953 1.9036713 4.251953 4.2519684z" fill-rule="evenodd"/><path fill="#000000" fill-opacity="0.0" d="m328.8294 30.761154c0 -2.348297 1.903656 -4.2519684 4.251953 -4.2519684l39.08661 0c2.348297 0 4.2519836 -1.9036713 4.2519836 -4.2519684l0 0c0 2.348297 1.903656 4.2519684 4.251953 4.2519684l39.08664 0l0 0c2.348297 0 4.251953 1.9036713 4.251953 4.2519684" fill-rule="evenodd"/><path stroke="#000000" stroke-width="1.0" stroke-linejoin="round" stroke-linecap="butt" d="m328.8294 30.761154c0 -2.348297 1.903656 -4.2519684 4.251953 -4.2519684l39.08661 0c2.348297 0 4.2519836 -1.9036713 4.2519836 -4.2519684l0 0c0 2.348297 1.903656 4.2519684 4.251953 4.2519684l39.08664 0l0 0c2.348297 0 4.251953 1.9036713 4.251953 4.2519684" fill-rule="evenodd"/><path fill="#000000" fill-opacity="0.0" d="m328.13123 0l95.18112 0l0 27.086615l-95.18112 0z" fill-rule="evenodd"/><path fill="#000000" d="m369.76083 19.303307l2.390625 -11.453125l1.890625 0l1.15625 7.421875q0.21875 1.453125 0.296875 2.796875q0.46875 -1.15625 1.59375 -3.125l4.015625 -7.09375l1.90625 0l-2.390625 11.453125l-1.5 0l1.1875 -5.578125q0.421875 -1.921875 1.1875 -4.328125q-0.484375 1.125 -1.21875 2.40625l-4.265625 7.5l-1.46875 0l-1.15625 -7.34375q-0.15625 -1.015625 -0.21875 -2.359375q-0.203125 1.515625 -0.390625 2.390625l-1.515625 7.3125l-1.5 0z" fill-rule="nonzero"/><path fill="#ea9999" d="m330.27036 74.34121l17.984253 0l-17.984253 17.984253z" fill-rule="evenodd"/><path stroke="#000000" stroke-width="1.0" stroke-linejoin="round" stroke-linecap="butt" d="m330.27036 74.34121l17.984253 0l-17.984253 17.984253z" fill-rule="evenodd"/><path fill="#d9ead3" d="m348.2546 92.32546l-17.984253 0l17.984253 -17.984253z" fill-rule="evenodd"/><path stroke="#000000" stroke-width="1.0" stroke-linejoin="round" stroke-linecap="butt" d="m348.2546 92.32546l-17.984253 0l17.984253 -17.984253z" fill-rule="evenodd"/><path fill="#ea9999" d="m352.66272 74.34121l17.984253 0l-17.984253 17.984253z" fill-rule="evenodd"/><path stroke="#000000" stroke-width="1.0" stroke-linejoin="round" stroke-linecap="butt" d="m352.66272 74.34121l17.984253 0l-17.984253 17.984253z" fill-rule="evenodd"/><path fill="#b6d7a8" d="m370.64697 92.32546l-17.984253 0l17.984253 -17.984253z" fill-rule="evenodd"/><path stroke="#000000" stroke-width="1.0" stroke-linejoin="round" stroke-linecap="butt" d="m370.64697 92.32546l-17.984253 0l17.984253 -17.984253z" fill-rule="evenodd"/><path fill="#ea9999" d="m374.96194 74.34121l17.984253 0l-17.984253 17.984253z" fill-rule="evenodd"/><path stroke="#000000" stroke-width="1.0" stroke-linejoin="round" stroke-linecap="butt" d="m374.96194 74.34121l17.984253 0l-17.984253 17.984253z" fill-rule="evenodd"/><path fill="#93c47d" d="m392.9462 92.32546l-17.984253 0l17.984253 -17.984253z" fill-rule="evenodd"/><path stroke="#000000" stroke-width="1.0" stroke-linejoin="round" stroke-linecap="butt" d="m392.9462 92.32546l-17.984253 0l17.984253 -17.984253z" fill-rule="evenodd"/><path fill="#ea9999" d="m397.26117 74.34121l17.984222 0l-17.984222 17.984253z" fill-rule="evenodd"/><path stroke="#000000" stroke-width="1.0" stroke-linejoin="round" stroke-linecap="butt" d="m397.26117 74.34121l17.984222 0l-17.984222 17.984253z" fill-rule="evenodd"/><path fill="#6aa84f" d="m415.2454 92.32546l-17.984222 0l17.984222 -17.984253z" fill-rule="evenodd"/><path stroke="#000000" stroke-width="1.0" stroke-linejoin="round" stroke-linecap="butt" d="m415.2454 92.32546l-17.984222 0l17.984222 -17.984253z" fill-rule="evenodd"/><path fill="#e06666" d="m330.2126 97.2126l17.984253 0l-17.984253 17.984253z" fill-rule="evenodd"/><path stroke="#000000" stroke-width="1.0" stroke-linejoin="round" stroke-linecap="butt" d="m330.2126 97.2126l17.984253 0l-17.984253 17.984253z" fill-rule="evenodd"/><path fill="#d9ead3" d="m348.19684 115.19685l-17.984253 0l17.984253 -17.984253z" fill-rule="evenodd"/><path stroke="#000000" stroke-width="1.0" stroke-linejoin="round" stroke-linecap="butt" d="m348.19684 115.19685l-17.984253 0l17.984253 -17.984253z" fill-rule="evenodd"/><path fill="#e06666" d="m352.60498 97.2126l17.984253 0l-17.984253 17.984253z" fill-rule="evenodd"/><path stroke="#000000" stroke-width="1.0" stroke-linejoin="round" stroke-linecap="butt" d="m352.60498 97.2126l17.984253 0l-17.984253 17.984253z" fill-rule="evenodd"/><path fill="#b6d7a8" d="m370.58923 115.19685l-17.984253 0l17.984253 -17.984253z" fill-rule="evenodd"/><path stroke="#000000" stroke-width="1.0" stroke-linejoin="round" stroke-linecap="butt" d="m370.58923 115.19685l-17.984253 0l17.984253 -17.984253z" fill-rule="evenodd"/><path fill="#e06666" d="m374.9042 97.2126l17.984253 0l-17.984253 17.984253z" fill-rule="evenodd"/><path stroke="#000000" stroke-width="1.0" stroke-linejoin="round" stroke-linecap="butt" d="m374.9042 97.2126l17.984253 0l-17.984253 17.984253z" fill-rule="evenodd"/><path fill="#93c47d" d="m392.88846 115.19685l-17.984253 0l17.984253 -17.984253z" fill-rule="evenodd"/><path stroke="#000000" stroke-width="1.0" stroke-linejoin="round" stroke-linecap="butt" d="m392.88846 115.19685l-17.984253 0l17.984253 -17.984253z" fill-rule="evenodd"/><path fill="#e06666" d="m397.2034 97.2126l17.984253 0l-17.984253 17.984253z" fill-rule="evenodd"/><path stroke="#000000" stroke-width="1.0" stroke-linejoin="round" stroke-linecap="butt" d="m397.2034 97.2126l17.984253 0l-17.984253 17.984253z" fill-rule="evenodd"/><path fill="#6aa84f" d="m415.18765 115.19685l-17.984253 0l17.984253 -17.984253z" fill-rule="evenodd"/><path stroke="#000000" stroke-width="1.0" stroke-linejoin="round" stroke-linecap="butt" d="m415.18765 115.19685l-17.984253 0l17.984253 -17.984253z" fill-rule="evenodd"/><path fill="#cc0000" d="m330.15485 119.83727l17.984253 0l-17.984253 17.984245z" fill-rule="evenodd"/><path stroke="#000000" stroke-width="1.0" stroke-linejoin="round" stroke-linecap="butt" d="m330.15485 119.83727l17.984253 0l-17.984253 17.984245z" fill-rule="evenodd"/><path fill="#d9ead3" d="m348.1391 137.82152l-17.984253 0l17.984253 -17.984245z" fill-rule="evenodd"/><path stroke="#000000" stroke-width="1.0" stroke-linejoin="round" stroke-linecap="butt" d="m348.1391 137.82152l-17.984253 0l17.984253 -17.984245z" fill-rule="evenodd"/><path fill="#cc0000" d="m352.54724 119.83727l17.984253 0l-17.984253 17.984245z" fill-rule="evenodd"/><path stroke="#000000" stroke-width="1.0" stroke-linejoin="round" stroke-linecap="butt" d="m352.54724 119.83727l17.984253 0l-17.984253 17.984245z" fill-rule="evenodd"/><path fill="#b6d7a8" d="m370.5315 137.82152l-17.984253 0l17.984253 -17.984245z" fill-rule="evenodd"/><path stroke="#000000" stroke-width="1.0" stroke-linejoin="round" stroke-linecap="butt" d="m370.5315 137.82152l-17.984253 0l17.984253 -17.984245z" fill-rule="evenodd"/><path fill="#cc0000" d="m374.84647 119.83727l17.984253 0l-17.984253 17.984245z" fill-rule="evenodd"/><path stroke="#000000" stroke-width="1.0" stroke-linejoin="round" stroke-linecap="butt" d="m374.84647 119.83727l17.984253 0l-17.984253 17.984245z" fill-rule="evenodd"/><path fill="#93c47d" d="m392.83072 137.82152l-17.984253 0l17.984253 -17.984245z" fill-rule="evenodd"/><path stroke="#000000" stroke-width="1.0" stroke-linejoin="round" stroke-linecap="butt" d="m392.83072 137.82152l-17.984253 0l17.984253 -17.984245z" fill-rule="evenodd"/><path fill="#cc0000" d="m397.14566 119.83727l17.984253 0l-17.984253 17.984245z" fill-rule="evenodd"/><path stroke="#000000" stroke-width="1.0" stroke-linejoin="round" stroke-linecap="butt" d="m397.14566 119.83727l17.984253 0l-17.984253 17.984245z" fill-rule="evenodd"/><path fill="#6aa84f" d="m415.1299 137.82152l-17.984253 0l17.984253 -17.984245z" fill-rule="evenodd"/><path stroke="#000000" stroke-width="1.0" stroke-linejoin="round" stroke-linecap="butt" d="m415.1299 137.82152l-17.984253 0l17.984253 -17.984245z" fill-rule="evenodd"/></g></svg>