<svg version="1.1" viewBox="0.0 0.0 498.73490813648294 155.35433070866142" fill="none" stroke="none" stroke-linecap="square" stroke-miterlimit="10" xmlns:xlink="http://www.w3.org/1999/xlink" xmlns="http://www.w3.org/2000/svg"><clipPath id="p.0"><path d="m0 0l498.7349 0l0 155.35432l-498.7349 0l0 -155.35432z" clip-rule="nonzero"/></clipPath><g clip-path="url(#p.0)"><path fill="#000000" fill-opacity="0.0" d="m0 0l498.7349 0l0 155.35432l-498.7349 0z" fill-rule="evenodd"/><path fill="#000000" fill-opacity="0.0" d="m26.338583 18.165354l71.62205 0l0 17.984251l-71.62205 0z" fill-rule="evenodd"/><path fill="#000000" d="m57.532417 32.91748l2.390625 -11.453125l1.53125 0l-1.15625 5.515625l6.21875 -5.515625l2.15625 0l-5.3125 4.65625l3.890625 6.796875l-1.703125 0l-3.3125 -5.8125l-2.390625 2.09375l-0.78125 3.71875l-1.53125 0z" fill-rule="nonzero"/><path fill="#cc0000" d="m153.17586 89.784775l71.62204 0l0 17.984253l-71.62204 0z" fill-rule="evenodd"/><path stroke="#000000" stroke-width="1.0" stroke-linejoin="round" stroke-linecap="butt" d="m153.17586 89.784775l71.62204 0l0 17.984253l-71.62204 0z" fill-rule="evenodd"/><path fill="#e06666" d="m153.17586 65.850395l71.62204 0l0 17.984253l-71.62204 0z" fill-rule="evenodd"/><path stroke="#000000" stroke-width="1.0" stroke-linejoin="round" stroke-linecap="butt" d="m153.17586 65.850395l71.62204 0l0 17.984253l-71.62204 0z" fill-rule="evenodd"/><path fill="#ea9999" d="m153.17586 41.91601l71.62204 0l0 17.98425l-71.62204 0z" fill-rule="evenodd"/><path stroke="#000000" stroke-width="1.0" stroke-linejoin="round" stroke-linecap="butt" d="m153.17586 41.91601l71.62204 0l0 17.98425l-71.62204 0z" fill-rule="evenodd"/><path fill="#f4cccc" d="m153.0853 17.981627l71.622055 0l0 17.984251l-71.622055 0z" fill-rule="evenodd"/><path stroke="#000000" stroke-width="1.0" stroke-linejoin="round" stroke-linecap="butt" d="m153.0853 17.981627l71.622055 0l0 17.984251l-71.622055 0z" fill-rule="evenodd"/><path fill="#000000" fill-opacity="0.0" d="m0 36.149605l25.921259 0l0 71.62205l-25.921259 0z" fill-rule="evenodd"/><path fill="#000000" d="m9.78125 77.72063l2.40625 -11.453125l1.484375 0l1.921875 4.296875q0.890625 1.96875 1.40625 3.3125q0.296875 0.78125 0.6875 2.109375q0.203125 -1.453125 0.53125 -2.984375l1.40625 -6.734375l1.484375 0l-2.390625 11.453125l-1.515625 0l-2.84375 -6.625q-0.75 -1.75 -1.171875 -3.078125q-0.125 1.109375 -0.453125 2.734375l-1.453125 6.96875l-1.5 0z" fill-rule="nonzero"/><path fill="#000000" fill-opacity="0.0" d="m393.42258 9.251968l36.094482 0l0 27.086613l-36.094482 0z" fill-rule="evenodd"/><path fill="#000000" d="m403.0007 27.595276l2.0 -9.546875l2.953125 0q0.8125 0 1.203125 0.078125q0.625 0.109375 1.0625 0.390625q0.453125 0.265625 0.6875 0.75q0.25 0.46875 0.25 1.046875q0 0.796875 -0.4375 1.390625q-0.4375 0.59375 -1.328125 0.90625q0.78125 0.265625 1.15625 0.78125q0.390625 0.5 0.390625 1.1875q0 0.78125 -0.453125 1.515625q-0.453125 0.71875 -1.203125 1.109375q-0.734375 0.390625 -1.65625 0.390625l-4.625 0zm2.421875 -5.46875l1.9375 0q1.375 0 1.984375 -0.4375q0.609375 -0.453125 0.609375 -1.296875q0 -0.390625 -0.1875 -0.6875q-0.1875 -0.296875 -0.5 -0.421875q-0.3125 -0.140625 -1.1875 -0.140625l-2.03125 0l-0.625 2.984375zm-0.921875 4.390625l2.171875 0q0.875 0 1.171875 -0.0625q0.609375 -0.109375 0.984375 -0.359375q0.375 -0.25 0.578125 -0.65625q0.21875 -0.40625 0.21875 -0.859375q0 -0.671875 -0.421875 -1.015625q-0.40625 -0.34375 -1.59375 -0.34375l-2.421875 0l-0.6875 3.296875z" fill-rule="nonzero"/><path fill="#000000" d="m411.70294 32.595276l1.328125 -6.359375l1.046875 0l0.640625 4.125q0.125 0.8125 0.15625 1.546875q0.265625 -0.640625 0.890625 -1.734375l2.21875 -3.9375l1.0625 0l-1.328125 6.359375l-0.828125 0l0.65625 -3.09375q0.234375 -1.0625 0.671875 -2.390625q-0.28125 0.609375 -0.6875 1.328125l-2.359375 4.15625l-0.828125 0l-0.625 -4.078125q-0.09375 -0.546875 -0.125 -1.296875q-0.109375 0.828125 -0.21875 1.328125l-0.84375 4.046875l-0.828125 0z" fill-rule="nonzero"/><path fill="#d9ead3" d="m420.46063 36.156166l0 71.62205l-17.984253 0l0 -71.62205z" fill-rule="evenodd"/><path stroke="#000000" stroke-width="1.0" stroke-linejoin="round" stroke-linecap="butt" d="m420.46063 36.156166l0 71.62205l-17.984253 0l0 -71.62205z" fill-rule="evenodd"/><path fill="#b6d7a8" d="m444.39502 36.156166l0 71.62205l-17.984253 0l0 -71.62205z" fill-rule="evenodd"/><path stroke="#000000" stroke-width="1.0" stroke-linejoin="round" stroke-linecap="butt" d="m444.39502 36.156166l0 71.62205l-17.984253 0l0 -71.62205z" fill-rule="evenodd"/><path fill="#93c47d" d="m468.3294 36.156166l0 71.62205l-17.984253 0l0 -71.62205z" fill-rule="evenodd"/><path stroke="#000000" stroke-width="1.0" stroke-linejoin="round" stroke-linecap="butt" d="m468.3294 36.156166l0 71.62205l-17.984253 0l0 -71.62205z" fill-rule="evenodd"/><path fill="#6aa84f" d="m492.2638 36.33727l0 71.622055l-17.984253 0l0 -71.622055z" fill-rule="evenodd"/><path stroke="#000000" stroke-width="1.0" stroke-linejoin="round" stroke-linecap="butt" d="m492.2638 36.33727l0 71.622055l-17.984253 0l0 -71.622055z" fill-rule="evenodd"/><path fill="#f4cccc" d="m26.338583 36.149605l71.62205 0l0 71.62205l-71.62205 0z" fill-rule="evenodd"/><path stroke="#000000" stroke-width="1.0" stroke-linejoin="round" stroke-linecap="butt" d="m26.338583 36.149605l71.62205 0l0 71.62205l-71.62205 0z" fill-rule="evenodd"/><path fill="#000000" fill-opacity="0.0" d="m153.08661 -0.001312336l71.622055 0l0 17.984251l-71.622055 0z" fill-rule="evenodd"/><path fill="#000000" d="m184.28046 14.750814l2.390625 -11.453125l1.53125 0l-1.15625 5.515625l6.21875 -5.515625l2.15625 0l-5.3125 4.65625l3.890625 6.796875l-1.703125 0l-3.3125 -5.8125l-2.390625 2.09375l-0.78125 3.71875l-1.53125 0z" fill-rule="nonzero"/><path fill="#000000" fill-opacity="0.0" d="m116.99213 17.982939l36.094482 0l0 17.984251l-36.094482 0z" fill-rule="evenodd"/><path fill="#000000" d="m129.36584 31.775064l2.0 -9.546875l2.953125 0q0.8125 0 1.203125 0.078125q0.625 0.109375 1.0625 0.390625q0.453125 0.265625 0.6875 0.75q0.25 0.46875 0.25 1.046875q0 0.796875 -0.4375 1.390625q-0.4375 0.59375 -1.328125 0.90625q0.78125 0.265625 1.15625 0.78125q0.390625 0.5 0.390625 1.1875q0 0.78125 -0.453125 1.515625q-0.453125 0.71875 -1.203125 1.109375q-0.734375 0.390625 -1.65625 0.390625l-4.625 0zm2.421875 -5.46875l1.9375 0q1.375 0 1.984375 -0.4375q0.609375 -0.453125 0.609375 -1.296875q0 -0.390625 -0.1875 -0.6875q-0.1875 -0.296875 -0.5 -0.421875q-0.3125 -0.140625 -1.1875 -0.140625l-2.03125 0l-0.625 2.984375zm-0.921875 4.390625l2.171875 0q0.875 0 1.171875 -0.0625q0.609375 -0.109375 0.984375 -0.359375q0.375 -0.25 0.578125 -0.65625q0.21875 -0.40625 0.21875 -0.859375q0 -0.671875 -0.421875 -1.015625q-0.40625 -0.34375 -1.59375 -0.34375l-2.421875 0l-0.6875 3.296875z" fill-rule="nonzero"/><path fill="#000000" d="m138.11497 36.775066l1.328125 -6.359377l0.828125 0l1.0625 2.390627q0.484375 1.09375 0.78125 1.84375q0.15625 0.421875 0.375 1.15625q0.125 -0.796875 0.296875 -1.65625l0.78125 -3.734377l0.828125 0l-1.328125 6.359377l-0.84375 0l-1.578125 -3.671875q-0.421875 -0.96875 -0.65625 -1.7031269q-0.0625 0.6093769 -0.25 1.5156269l-0.796875 3.859375l-0.828125 0z" fill-rule="nonzero"/><path fill="#000000" fill-opacity="0.0" d="m116.99213 41.917324l36.094482 0l0 17.98425l-36.094482 0z" fill-rule="evenodd"/><path fill="#000000" d="m129.36584 55.70945l2.0 -9.546875l2.953125 0q0.8125 0 1.203125 0.078125q0.625 0.109375 1.0625 0.390625q0.453125 0.265625 0.6875 0.75q0.25 0.46875 0.25 1.046875q0 0.796875 -0.4375 1.390625q-0.4375 0.59375 -1.328125 0.90625q0.78125 0.265625 1.15625 0.78125q0.390625 0.5 0.390625 1.1875q0 0.78125 -0.453125 1.515625q-0.453125 0.71875 -1.203125 1.109375q-0.734375 0.390625 -1.65625 0.390625l-4.625 0zm2.421875 -5.46875l1.9375 0q1.375 0 1.984375 -0.4375q0.609375 -0.453125 0.609375 -1.296875q0 -0.390625 -0.1875 -0.6875q-0.1875 -0.296875 -0.5 -0.421875q-0.3125 -0.140625 -1.1875 -0.140625l-2.03125 0l-0.625 2.984375zm-0.921875 4.390625l2.171875 0q0.875 0 1.171875 -0.0625q0.609375 -0.109375 0.984375 -0.359375q0.375 -0.25 0.578125 -0.65625q0.21875 -0.40625 0.21875 -0.859375q0 -0.671875 -0.421875 -1.015625q-0.40625 -0.34375 -1.59375 -0.34375l-2.421875 0l-0.6875 3.296875z" fill-rule="nonzero"/><path fill="#000000" d="m138.11497 60.70945l1.328125 -6.359375l0.828125 0l1.0625 2.390625q0.484375 1.09375 0.78125 1.84375q0.15625 0.421875 0.375 1.15625q0.125 -0.796875 0.296875 -1.65625l0.78125 -3.734375l0.828125 0l-1.328125 6.359375l-0.84375 0l-1.578125 -3.671875q-0.421875 -0.96875 -0.65625 -1.703125q-0.0625 0.609375 -0.25 1.515625l-0.796875 3.859375l-0.828125 0z" fill-rule="nonzero"/><path fill="#000000" fill-opacity="0.0" d="m116.99213 65.85171l36.094482 0l0 17.984253l-36.094482 0z" fill-rule="evenodd"/><path fill="#000000" d="m129.36584 79.64383l2.0 -9.546875l2.953125 0q0.8125 0 1.203125 0.078125q0.625 0.109375 1.0625 0.390625q0.453125 0.265625 0.6875 0.75q0.25 0.46875 0.25 1.046875q0 0.796875 -0.4375 1.390625q-0.4375 0.59375 -1.328125 0.90625q0.78125 0.265625 1.15625 0.78125q0.390625 0.5 0.390625 1.1875q0 0.78125 -0.453125 1.515625q-0.453125 0.71875 -1.203125 1.109375q-0.734375 0.390625 -1.65625 0.390625l-4.625 0zm2.421875 -5.46875l1.9375 0q1.375 0 1.984375 -0.4375q0.609375 -0.453125 0.609375 -1.296875q0 -0.390625 -0.1875 -0.6875q-0.1875 -0.296875 -0.5 -0.421875q-0.3125 -0.140625 -1.1875 -0.140625l-2.03125 0l-0.625 2.984375zm-0.921875 4.390625l2.171875 0q0.875 0 1.171875 -0.0625q0.609375 -0.109375 0.984375 -0.359375q0.375 -0.25 0.578125 -0.65625q0.21875 -0.40625 0.21875 -0.859375q0 -0.671875 -0.421875 -1.015625q-0.40625 -0.34375 -1.59375 -0.34375l-2.421875 0l-0.6875 3.296875z" fill-rule="nonzero"/><path fill="#000000" d="m138.11497 84.64383l1.328125 -6.359375l0.828125 0l1.0625 2.390625q0.484375 1.09375 0.78125 1.84375q0.15625 0.421875 0.375 1.15625q0.125 -0.796875 0.296875 -1.65625l0.78125 -3.734375l0.828125 0l-1.328125 6.359375l-0.84375 0l-1.578125 -3.671875q-0.421875 -0.96875 -0.65625 -1.703125q-0.0625 0.609375 -0.25 1.515625l-0.796875 3.859375l-0.828125 0z" fill-rule="nonzero"/><path fill="#000000" fill-opacity="0.0" d="m116.99213 89.78609l36.094482 0l0 17.984253l-36.094482 0z" fill-rule="evenodd"/><path fill="#000000" d="m129.36584 103.57822l2.0 -9.546875l2.953125 0q0.8125 0 1.203125 0.078125q0.625 0.109375 1.0625 0.390625q0.453125 0.265625 0.6875 0.75q0.25 0.46875 0.25 1.046875q0 0.796875 -0.4375 1.390625q-0.4375 0.59375 -1.328125 0.90625q0.78125 0.265625 1.15625 0.78125q0.390625 0.5 0.390625 1.1875q0 0.78125 -0.453125 1.515625q-0.453125 0.71875 -1.203125 1.109375q-0.734375 0.390625 -1.65625 0.390625l-4.625 0zm2.421875 -5.46875l1.9375 0q1.375 0 1.984375 -0.4375q0.609375 -0.453125 0.609375 -1.296875q0 -0.390625 -0.1875 -0.6875q-0.1875 -0.296875 -0.5 -0.421875q-0.3125 -0.140625 -1.1875 -0.140625l-2.03125 0l-0.625 2.984375zm-0.921875 4.390625l2.171875 0q0.875 0 1.171875 -0.0625q0.609375 -0.109375 0.984375 -0.359375q0.375 -0.25 0.578125 -0.65625q0.21875 -0.40625 0.21875 -0.859375q0 -0.671875 -0.421875 -1.015625q-0.40625 -0.34375 -1.59375 -0.34375l-2.421875 0l-0.6875 3.296875z" fill-rule="nonzero"/><path fill="#000000" d="m138.11497 108.57822l1.328125 -6.359375l0.828125 0l1.0625 2.390625q0.484375 1.09375 0.78125 1.84375q0.15625 0.421875 0.375 1.15625q0.125 -0.796875 0.296875 -1.65625l0.78125 -3.734375l0.828125 0l-1.328125 6.359375l-0.84375 0l-1.578125 -3.671875q-0.421875 -0.96875 -0.65625 -1.703125q-0.0625 0.609375 -0.25 1.515625l-0.796875 3.859375l-0.828125 0z" fill-rule="nonzero"/><path fill="#000000" fill-opacity="0.0" d="m62.149605 117.937004c0 16.206047 31.708664 32.404198 63.417328 32.41207c31.708656 0.007873535 63.41732 -16.17453 63.41732 -32.349075" fill-rule="evenodd"/><path stroke="#000000" stroke-width="1.0" stroke-linejoin="round" stroke-linecap="butt" d="m62.149605 117.937004c0 16.206047 31.708664 32.404198 63.417328 32.41207c15.854332 0.0039367676 31.708656 -4.039688 43.599403 -10.106125c5.9453735 -3.0332184 10.899857 -6.5721436 14.367996 -10.363663c1.7340546 -1.8957672 3.096527 -3.854683 4.0254974 -5.845108c0.23225403 -0.49759674 0.43740845 -0.9971771 0.6144867 -1.4982376c0.08854675 -0.2505188 0.17007446 -0.50141144 0.24446106 -0.75260925c0.03717041 -0.12560272 0.07258606 -0.25128174 0.10621643 -0.37702942l0.002456665 -0.009796143" fill-rule="evenodd"/><path fill="#000000" stroke="#000000" stroke-width="1.0" stroke-linecap="butt" d="m188.52747 121.39651l0.9646454 1.2644424l-0.702713 -3.2120895l-1.5263824 2.9123z" fill-rule="evenodd"/><path fill="#000000" fill-opacity="0.0" d="m281.54068 17.835958l71.62204 0l0 17.984251l-71.62204 0z" fill-rule="evenodd"/><path fill="#000000" d="m311.39078 32.588085l2.390625 -11.453125l1.890625 0l1.15625 7.421875q0.21875 1.453125 0.296875 2.796875q0.46875 -1.15625 1.59375 -3.125l4.015625 -7.09375l1.90625 0l-2.390625 11.453125l-1.5 0l1.1875 -5.578125q0.421875 -1.921875 1.1875 -4.328125q-0.484375 1.125 -1.21875 2.40625l-4.265625 7.5l-1.46875 0l-1.15625 -7.34375q-0.15625 -1.015625 -0.21875 -2.359375q-0.203125 1.515625 -0.390625 2.390625l-1.515625 7.3125l-1.5 0z" fill-rule="nonzero"/><path fill="#000000" fill-opacity="0.0" d="m376.55643 36.156166l25.921265 0l0 71.62205l-25.921265 0z" fill-rule="evenodd"/><path fill="#000000" d="m386.27518 77.72719l2.390625 -11.453125l1.53125 0l-1.15625 5.515625l6.21875 -5.515625l2.15625 0l-5.3125 4.65625l3.890625 6.796875l-1.703125 0l-3.3125 -5.8125l-2.390625 2.09375l-0.78125 3.71875l-1.53125 0z" fill-rule="nonzero"/><path fill="#d9ead3" d="m281.54068 35.82021l71.62204 0l0 71.622055l-71.62204 0z" fill-rule="evenodd"/><path stroke="#000000" stroke-width="1.0" stroke-linejoin="round" stroke-linecap="butt" d="m281.54068 35.82021l71.62204 0l0 71.622055l-71.62204 0z" fill-rule="evenodd"/><path fill="#000000" fill-opacity="0.0" d="m317.3517 117.60761c0 16.206032 31.708649 32.404198 63.417328 32.41207c31.708649 0.007873535 63.417297 -16.174545 63.417297 -32.349083" fill-rule="evenodd"/><path stroke="#000000" stroke-width="1.0" stroke-linejoin="round" stroke-linecap="butt" d="m317.3517 117.60761c0 16.206032 31.708649 32.404198 63.417328 32.41207c15.854309 0.0039367676 31.708649 -4.0397034 43.599396 -10.10614c5.9453735 -3.0332184 10.899841 -6.5721283 14.367981 -10.363647c1.7340393 -1.8957672 3.0965576 -3.854683 4.0255127 -5.845108c0.23223877 -0.49760437 0.43737793 -0.99718475 0.61447144 -1.4982376c0.088531494 -0.25052643 0.17007446 -0.50141907 0.2444458 -0.7526169c0.037200928 -0.12560272 0.072631836 -0.25128174 0.10623169 -0.37702942l0.0025024414 -0.009788513" fill-rule="evenodd"/><path fill="#000000" stroke="#000000" stroke-width="1.0" stroke-linecap="butt" d="m443.72955 121.06711l0.96466064 1.2644424l-0.7027283 -3.2120895l-1.5263672 2.9123077z" fill-rule="evenodd"/><path fill="#000000" fill-opacity="0.0" d="m417.35696 9.251968l36.094482 0l0 27.086613l-36.094482 0z" fill-rule="evenodd"/><path fill="#000000" d="m426.9351 27.595276l2.0 -9.546875l2.953125 0q0.8125 0 1.203125 0.078125q0.625 0.109375 1.0625 0.390625q0.453125 0.265625 0.6875 0.75q0.25 0.46875 0.25 1.046875q0 0.796875 -0.4375 1.390625q-0.4375 0.59375 -1.328125 0.90625q0.78125 0.265625 1.15625 0.78125q0.390625 0.5 0.390625 1.1875q0 0.78125 -0.453125 1.515625q-0.453125 0.71875 -1.203125 1.109375q-0.734375 0.390625 -1.65625 0.390625l-4.625 0zm2.421875 -5.46875l1.9375 0q1.375 0 1.984375 -0.4375q0.609375 -0.453125 0.609375 -1.296875q0 -0.390625 -0.1875 -0.6875q-0.1875 -0.296875 -0.5 -0.421875q-0.3125 -0.140625 -1.1875 -0.140625l-2.03125 0l-0.625 2.984375zm-0.921875 4.390625l2.171875 0q0.875 0 1.171875 -0.0625q0.609375 -0.109375 0.984375 -0.359375q0.375 -0.25 0.578125 -0.65625q0.21875 -0.40625 0.21875 -0.859375q0 -0.671875 -0.421875 -1.015625q-0.40625 -0.34375 -1.59375 -0.34375l-2.421875 0l-0.6875 3.296875z" fill-rule="nonzero"/><path fill="#000000" d="m435.63733 32.595276l1.328125 -6.359375l1.046875 0l0.640625 4.125q0.125 0.8125 0.15625 1.546875q0.265625 -0.640625 0.890625 -1.734375l2.21875 -3.9375l1.0625 0l-1.328125 6.359375l-0.828125 0l0.65625 -3.09375q0.234375 -1.0625 0.671875 -2.390625q-0.28125 0.609375 -0.6875 1.328125l-2.359375 4.15625l-0.828125 0l-0.625 -4.078125q-0.09375 -0.546875 -0.125 -1.296875q-0.109375 0.828125 -0.21875 1.328125l-0.84375 4.046875l-0.828125 0z" fill-rule="nonzero"/><path fill="#000000" fill-opacity="0.0" d="m441.29135 9.251968l36.094482 0l0 27.086613l-36.094482 0z" fill-rule="evenodd"/><path fill="#000000" d="m450.86948 27.595276l2.0 -9.546875l2.953125 0q0.8125 0 1.203125 0.078125q0.625 0.109375 1.0625 0.390625q0.453125 0.265625 0.6875 0.75q0.25 0.46875 0.25 1.046875q0 0.796875 -0.4375 1.390625q-0.4375 0.59375 -1.328125 0.90625q0.78125 0.265625 1.15625 0.78125q0.390625 0.5 0.390625 1.1875q0 0.78125 -0.453125 1.515625q-0.453125 0.71875 -1.203125 1.109375q-0.734375 0.390625 -1.65625 0.390625l-4.625 0zm2.421875 -5.46875l1.9375 0q1.375 0 1.984375 -0.4375q0.609375 -0.453125 0.609375 -1.296875q0 -0.390625 -0.1875 -0.6875q-0.1875 -0.296875 -0.5 -0.421875q-0.3125 -0.140625 -1.1875 -0.140625l-2.03125 0l-0.625 2.984375zm-0.921875 4.390625l2.171875 0q0.875 0 1.171875 -0.0625q0.609375 -0.109375 0.984375 -0.359375q0.375 -0.25 0.578125 -0.65625q0.21875 -0.40625 0.21875 -0.859375q0 -0.671875 -0.421875 -1.015625q-0.40625 -0.34375 -1.59375 -0.34375l-2.421875 0l-0.6875 3.296875z" fill-rule="nonzero"/><path fill="#000000" d="m459.57172 32.595276l1.328125 -6.359375l1.046875 0l0.640625 4.125q0.125 0.8125 0.15625 1.546875q0.265625 -0.640625 0.890625 -1.734375l2.21875 -3.9375l1.0625 0l-1.328125 6.359375l-0.828125 0l0.65625 -3.09375q0.234375 -1.0625 0.671875 -2.390625q-0.28125 0.609375 -0.6875 1.328125l-2.359375 4.15625l-0.828125 0l-0.625 -4.078125q-0.09375 -0.546875 -0.125 -1.296875q-0.109375 0.828125 -0.21875 1.328125l-0.84375 4.046875l-0.828125 0z" fill-rule="nonzero"/><path fill="#000000" fill-opacity="0.0" d="m465.2257 9.251968l36.094513 0l0 27.086613l-36.094513 0z" fill-rule="evenodd"/><path fill="#000000" d="m474.80383 27.595276l2.0 -9.546875l2.953125 0q0.8125 0 1.203125 0.078125q0.625 0.109375 1.0625 0.390625q0.453125 0.265625 0.6875 0.75q0.25 0.46875 0.25 1.046875q0 0.796875 -0.4375 1.390625q-0.4375 0.59375 -1.328125 0.90625q0.78125 0.265625 1.15625 0.78125q0.390625 0.5 0.390625 1.1875q0 0.78125 -0.453125 1.515625q-0.453125 0.71875 -1.203125 1.109375q-0.734375 0.390625 -1.65625 0.390625l-4.625 0zm2.421875 -5.46875l1.9375 0q1.375 0 1.984375 -0.4375q0.609375 -0.453125 0.609375 -1.296875q0 -0.390625 -0.1875 -0.6875q-0.1875 -0.296875 -0.5 -0.421875q-0.3125 -0.140625 -1.1875 -0.140625l-2.03125 0l-0.625 2.984375zm-0.921875 4.390625l2.171875 0q0.875 0 1.171875 -0.0625q0.609375 -0.109375 0.984375 -0.359375q0.375 -0.25 0.578125 -0.65625q0.21875 -0.40625 0.21875 -0.859375q0 -0.671875 -0.421875 -1.015625q-0.40625 -0.34375 -1.59375 -0.34375l-2.421875 0l-0.6875 3.296875z" fill-rule="nonzero"/><path fill="#000000" d="m483.5061 32.595276l1.328125 -6.359375l1.046875 0l0.640625 4.125q0.125 0.8125 0.15625 1.546875q0.265625 -0.640625 0.890625 -1.734375l2.21875 -3.9375l1.0625 0l-1.328125 6.359375l-0.828125 0l0.65625 -3.09375q0.234375 -1.0625 0.671875 -2.390625q-0.28125 0.609375 -0.6875 1.328125l-2.359375 4.15625l-0.828125 0l-0.625 -4.078125q-0.09375 -0.546875 -0.125 -1.296875q-0.109375 0.828125 -0.21875 1.328125l-0.84375 4.046875l-0.828125 0z" fill-rule="nonzero"/></g></svg>