<svg version="1.1" viewBox="0.0 0.0 493.53805774278214 182.51443569553805" fill="none" stroke="none" stroke-linecap="square" stroke-miterlimit="10" xmlns:xlink="http://www.w3.org/1999/xlink" xmlns="http://www.w3.org/2000/svg"><clipPath id="p.0"><path d="m0 0l493.53806 0l0 182.51443l-493.53806 0l0 -182.51443z" clip-rule="nonzero"/></clipPath><g clip-path="url(#p.0)"><path fill="#000000" fill-opacity="0.0" d="m0 0l493.53806 0l0 182.51443l-493.53806 0z" fill-rule="evenodd"/><path fill="#e06666" d="m36.09974 59.707348l71.62205 0l0 17.984257l-71.62205 0z" fill-rule="evenodd"/><path stroke="#000000" stroke-width="1.0" stroke-linejoin="round" stroke-linecap="butt" d="m36.09974 59.707348l71.62205 0l0 17.984257l-71.62205 0z" fill-rule="evenodd"/><path fill="#000000" fill-opacity="0.0" d="m36.09974 32.58394l71.62205 0l0 17.984253l-71.62205 0z" fill-rule="evenodd"/><path fill="#000000" d="m67.29357 47.336067l2.390625 -11.453125l1.53125 0l-1.15625 5.515625l6.21875 -5.515625l2.15625 0l-5.3125 4.65625l3.890625 6.796875l-1.703125 0l-3.3125 -5.8125l-2.390625 2.09375l-0.78125 3.71875l-1.53125 0z" fill-rule="nonzero"/><path fill="#000000" fill-opacity="0.0" d="m-0.0839895 59.67061l36.094486 0l0 17.984253l-36.094486 0z" fill-rule="evenodd"/><path fill="#000000" d="m12.289735 73.46274l2.0 -9.546879l2.953124 0q0.8125 0 1.203125 0.078125q0.625 0.109378815 1.0625 0.3906288q0.453125 0.265625 0.6875 0.75q0.25 0.46875 0.25 1.046875q0 0.796875 -0.4375 1.390625q-0.4375 0.59375 -1.328125 0.90625q0.78125 0.265625 1.15625 0.78125q0.390625 0.5 0.390625 1.1875q0 0.78125 -0.453125 1.515625q-0.453125 0.71875 -1.203125 1.109375q-0.734375 0.390625 -1.65625 0.390625l-4.624999 0zm2.421875 -5.46875l1.937499 0q1.375 0 1.984375 -0.4375q0.609375 -0.453125 0.609375 -1.296875q0 -0.390625 -0.1875 -0.6875q-0.1875 -0.296875 -0.5 -0.421875q-0.3125 -0.140625 -1.1875 -0.140625l-2.031249 0l-0.625 2.984375zm-0.921875 4.390625l2.171875 0q0.87499905 0 1.171874 -0.0625q0.609375 -0.109375 0.984375 -0.359375q0.375 -0.25 0.578125 -0.65625q0.21875 -0.40625 0.21875 -0.859375q0 -0.671875 -0.421875 -1.015625q-0.40625 -0.34375 -1.59375 -0.34375l-2.421874 0l-0.6875 3.296875z" fill-rule="nonzero"/><path fill="#000000" d="m21.038864 78.46274l1.328125 -6.359375l0.828125 0l1.0625 2.390625q0.484375 1.09375 0.78125 1.84375q0.15625 0.421875 0.375 1.15625q0.125 -0.796875 0.296875 -1.65625l0.78125 -3.734375l0.828125 0l-1.328125 6.359375l-0.84375 0l-1.578125 -3.671875q-0.421875 -0.96875 -0.65625 -1.703125q-0.0625 0.609375 -0.25 1.515625l-0.796875 3.859375l-0.828125 0z" fill-rule="nonzero"/><path fill="#b6d7a8" d="m36.09974 95.838585l71.62205 0l0 17.984253l-71.62205 0z" fill-rule="evenodd"/><path stroke="#000000" stroke-width="1.0" stroke-linejoin="round" stroke-linecap="butt" d="m36.09974 95.838585l71.62205 0l0 17.984253l-71.62205 0z" fill-rule="evenodd"/><path fill="#000000" fill-opacity="0.0" d="m208.74817 46.002625l36.094482 0l0 17.984253l-36.094482 0z" fill-rule="evenodd"/><path fill="#000000" d="m220.1382 59.79475l2.0 -9.546875l2.953125 0q0.8125 0 1.203125 0.078125q0.625 0.109375 1.0625 0.390625q0.453125 0.265625 0.6875 0.75q0.25 0.46875 0.25 1.046875q0 0.796875 -0.4375 1.390625q-0.4375 0.59375 -1.328125 0.90625q0.78125 0.265625 1.15625 0.78125q0.390625 0.5 0.390625 1.1875q0 0.78125 -0.453125 1.515625q-0.453125 0.71875 -1.203125 1.109375q-0.734375 0.390625 -1.65625 0.390625l-4.625 0zm2.421875 -5.46875l1.9375 0q1.375 0 1.984375 -0.4375q0.609375 -0.453125 0.609375 -1.296875q0 -0.390625 -0.1875 -0.6875q-0.1875 -0.296875 -0.5 -0.421875q-0.3125 -0.140625 -1.1875 -0.140625l-2.03125 0l-0.625 2.984375zm-0.921875 4.390625l2.171875 0q0.875 0 1.171875 -0.0625q0.609375 -0.109375 0.984375 -0.359375q0.375 -0.25 0.578125 -0.65625q0.21875 -0.40625 0.21875 -0.859375q0 -0.671875 -0.421875 -1.015625q-0.40625 -0.34375 -1.59375 -0.34375l-2.421875 0l-0.6875 3.296875z" fill-rule="nonzero"/><path fill="#000000" d="m228.84045 64.794754l1.328125 -6.359379l1.046875 0l0.640625 4.125q0.125 0.8125 0.15625 1.5468788q0.265625 -0.6406288 0.890625 -1.7343788l2.21875 -3.9375l1.0625 0l-1.328125 6.359379l-0.828125 0l0.65625 -3.0937538q0.234375 -1.0625 0.671875 -2.390625q-0.28125 0.609375 -0.6875 1.328125l-2.359375 4.156254l-0.828125 0l-0.625 -4.078129q-0.09375 -0.546875 -0.125 -1.296875q-0.109375 0.828125 -0.21875 1.328125l-0.84375 4.046879l-0.828125 0z" fill-rule="nonzero"/><path fill="#000000" fill-opacity="0.0" d="m0.7454068 95.83859l36.094486 0l0 17.984245l-36.094486 0z" fill-rule="evenodd"/><path fill="#000000" d="m12.135443 109.630714l2.0 -9.546875l2.953125 0q0.8125 0 1.203125 0.078125q0.625 0.109375 1.0625 0.390625q0.453125 0.265625 0.6875 0.75q0.25 0.46875 0.25 1.046875q0 0.796875 -0.4375 1.390625q-0.4375 0.59375 -1.328125 0.90625q0.78125 0.265625 1.15625 0.78125q0.390625 0.5 0.390625 1.1875q0 0.78125 -0.453125 1.515625q-0.453125 0.71875 -1.203125 1.109375q-0.734375 0.390625 -1.65625 0.390625l-4.625 0zm2.421875 -5.46875l1.9375 0q1.375 0 1.984375 -0.4375q0.609375 -0.453125 0.609375 -1.296875q0 -0.390625 -0.1875 -0.6875q-0.1875 -0.296875 -0.5 -0.421875q-0.3125 -0.140625 -1.1875 -0.140625l-2.03125 0l-0.625 2.984375zm-0.921875 4.390625l2.171875 0q0.875 0 1.171875 -0.0625q0.609375 -0.109375 0.984375 -0.359375q0.375 -0.25 0.578125 -0.65625q0.21875 -0.40625 0.21875 -0.859375q0 -0.671875 -0.421875 -1.015625q-0.40625 -0.34375 -1.59375 -0.34375l-2.421875 0l-0.6875 3.296875z" fill-rule="nonzero"/><path fill="#000000" d="m20.837698 114.630714l1.328125 -6.359375l1.046875 0l0.640625 4.125q0.125 0.8125 0.15625 1.546875q0.265625 -0.640625 0.890625 -1.734375l2.21875 -3.9375l1.0625 0l-1.328125 6.359375l-0.828125 0l0.65625 -3.09375q0.234375 -1.0625 0.671875 -2.390625q-0.28125 0.609375 -0.6875 1.328125l-2.359375 4.15625l-0.828125 0l-0.625 -4.078125q-0.09375 -0.546875 -0.125 -1.296875q-0.109375 0.828125 -0.21875 1.328125l-0.84375 4.046875l-0.828125 0z" fill-rule="nonzero"/><path fill="#000000" fill-opacity="0.0" d="m54.910763 140.87796c0 16.206024 31.70866 32.40419 63.417324 32.412064c31.708656 0.007873535 63.41732 -16.174545 63.41732 -32.349075" fill-rule="evenodd"/><path stroke="#000000" stroke-width="1.0" stroke-linejoin="round" stroke-linecap="butt" d="m54.910763 140.87796c0 16.206024 31.70866 32.40419 63.417324 32.412064c15.854332 0.0039367676 31.708656 -4.039688 43.599403 -10.10614c5.9453735 -3.0332184 10.899857 -6.5721283 14.367996 -10.363647c1.7340546 -1.8957672 3.096527 -3.8546906 4.0254974 -5.845108c0.23225403 -0.49760437 0.43740845 -0.9971771 0.6144867 -1.49823c0.08854675 -0.25053406 0.17007446 -0.50141907 0.24446106 -0.7526245c0.03717041 -0.1255951 0.07258606 -0.25128174 0.10621643 -0.37702942l0.002456665 -0.009796143" fill-rule="evenodd"/><path fill="#000000" stroke="#000000" stroke-width="1.0" stroke-linecap="butt" d="m181.28862 144.33745l0.96466064 1.2644501l-0.7027283 -3.2120972l-1.5263824 2.9123077z" fill-rule="evenodd"/><path fill="#000000" fill-opacity="0.0" d="m317.2139 50.51706l0.12600708 75.11811" fill-rule="evenodd"/><path stroke="#000000" stroke-width="1.0" stroke-linejoin="round" stroke-linecap="butt" d="m317.2139 50.51706l0.11593628 69.11812" fill-rule="evenodd"/><path fill="#000000" stroke="#000000" stroke-width="1.0" stroke-linecap="butt" d="m315.6781 119.63795l1.6593323 4.535324l1.6441345 -4.540863z" fill-rule="evenodd"/><path fill="#000000" fill-opacity="0.0" d="m317.2139 50.51706l13.8897705 0l0 75.11811l-13.8897705 0z" fill-rule="evenodd"/><path fill="#000000" d="m324.77554 90.68174l0 -2.09375l-2.078125 0l0 -0.875l2.078125 0l0 -2.078125l0.875 0l0 2.078125l2.078125 0l0 0.875l-2.078125 0l0 2.09375l-0.875 0z" fill-rule="nonzero"/><path fill="#000000" fill-opacity="0.0" d="m182.0971 17.410757l36.094498 0l0 28.72441l-36.094498 0z" fill-rule="evenodd"/><path fill="#000000" d="m194.96051 36.572964l2.0 -9.546877l2.953125 0q0.8125 0 1.203125 0.078125q0.625 0.109375 1.0625 0.390625q0.453125 0.265625 0.6875 0.75q0.25 0.46875 0.25 1.046875q0 0.796875 -0.4375 1.390625q-0.4375 0.59375 -1.328125 0.90625q0.78125 0.265625 1.15625 0.7812519q0.390625 0.5 0.390625 1.1875q0 0.78125 -0.453125 1.515625q-0.453125 0.71875 -1.203125 1.109375q-0.734375 0.390625 -1.65625 0.390625l-4.625 0zm2.421875 -5.468752l1.9375 0q1.375 0 1.984375 -0.4375q0.609375 -0.453125 0.609375 -1.296875q0 -0.390625 -0.1875 -0.6875q-0.1875 -0.296875 -0.5 -0.421875q-0.3125 -0.140625 -1.1875 -0.140625l-2.03125 0l-0.625 2.984375zm-0.921875 4.390627l2.171875 0q0.875 0 1.171875 -0.0625q0.609375 -0.109375 0.984375 -0.359375q0.375 -0.25 0.578125 -0.65625q0.21875 -0.40625 0.21875 -0.859375q0 -0.671875 -0.421875 -1.015625q-0.40625 -0.34375 -1.59375 -0.34375l-2.421875 0l-0.6875 3.296875z" fill-rule="nonzero"/><path fill="#000000" d="m203.66277 41.572964l1.328125 -6.359375l0.84375 0l-0.625 3.0625l3.4375 -3.0625l1.203125 0l-2.953125 2.59375l2.171875 3.765625l-0.953125 0l-1.84375 -3.21875l-1.328125 1.15625l-0.421875 2.0625l-0.859375 0z" fill-rule="nonzero"/><path fill="#000000" fill-opacity="0.0" d="m145.65092 19.048553l36.094482 0l0 27.086613l-36.094482 0z" fill-rule="evenodd"/><path fill="#000000" d="m158.51431 37.39186l2.0 -9.546875l2.953125 0q0.8125 0 1.203125 0.078125q0.625 0.109375 1.0625 0.390625q0.453125 0.265625 0.6875 0.75q0.25 0.46875 0.25 1.046875q0 0.796875 -0.4375 1.390625q-0.4375 0.59375 -1.328125 0.90625q0.78125 0.265625 1.15625 0.78125q0.390625 0.5 0.390625 1.1875q0 0.78125 -0.453125 1.515625q-0.453125 0.71875 -1.203125 1.109375q-0.734375 0.390625 -1.65625 0.390625l-4.625 0zm2.421875 -5.46875l1.9375 0q1.375 0 1.984375 -0.4375q0.609375 -0.453125 0.609375 -1.296875q0 -0.390625 -0.1875 -0.6875q-0.1875 -0.296875 -0.5 -0.421875q-0.3125 -0.140625 -1.1875 -0.140625l-2.03125 0l-0.625 2.984375zm-0.921875 4.390625l2.171875 0q0.875 0 1.171875 -0.0625q0.609375 -0.109375 0.984375 -0.359375q0.375 -0.25 0.578125 -0.65625q0.21875 -0.40625 0.21875 -0.859375q0 -0.671875 -0.421875 -1.015625q-0.40625 -0.34375 -1.59375 -0.34375l-2.421875 0l-0.6875 3.296875z" fill-rule="nonzero"/><path fill="#000000" d="m167.21657 42.39186l1.328125 -6.359375l0.84375 0l-0.625 3.0625l3.4375 -3.0625l1.203125 0l-2.953125 2.59375l2.171875 3.765625l-0.953125 0l-1.84375 -3.21875l-1.328125 1.15625l-0.421875 2.0625l-0.859375 0z" fill-rule="nonzero"/><path fill="#000000" fill-opacity="0.0" d="m209.13661 68.47244l36.094482 0l0 17.984253l-36.094482 0z" fill-rule="evenodd"/><path fill="#000000" d="m220.52664 82.264565l2.0 -9.546875l2.953125 0q0.8125 0 1.203125 0.078125q0.625 0.109375 1.0625 0.390625q0.453125 0.265625 0.6875 0.75q0.25 0.46875 0.25 1.046875q0 0.796875 -0.4375 1.390625q-0.4375 0.59375 -1.328125 0.90625q0.78125 0.265625 1.15625 0.78125q0.390625 0.5 0.390625 1.1875q0 0.78125 -0.453125 1.515625q-0.453125 0.71875 -1.203125 1.109375q-0.734375 0.390625 -1.65625 0.390625l-4.625 0zm2.421875 -5.46875l1.9375 0q1.375 0 1.984375 -0.4375q0.609375 -0.453125 0.609375 -1.296875q0 -0.390625 -0.1875 -0.6875q-0.1875 -0.296875 -0.5 -0.421875q-0.3125 -0.140625 -1.1875 -0.140625l-2.03125 0l-0.625 2.984375zm-0.921875 4.390625l2.171875 0q0.875 0 1.171875 -0.0625q0.609375 -0.109375 0.984375 -0.359375q0.375 -0.25 0.578125 -0.65625q0.21875 -0.40625 0.21875 -0.859375q0 -0.671875 -0.421875 -1.015625q-0.40625 -0.34375 -1.59375 -0.34375l-2.421875 0l-0.6875 3.296875z" fill-rule="nonzero"/><path fill="#000000" d="m229.2289 87.264565l1.328125 -6.359375l1.046875 0l0.640625 4.125q0.125 0.8125 0.15625 1.546875q0.265625 -0.640625 0.890625 -1.734375l2.21875 -3.9375l1.0625 0l-1.328125 6.359375l-0.828125 0l0.65625 -3.09375q0.234375 -1.0625 0.671875 -2.390625q-0.28125 0.609375 -0.6875 1.328125l-2.359375 4.15625l-0.828125 0l-0.625 -4.078125q-0.09375 -0.546875 -0.125 -1.296875q-0.109375 0.828125 -0.21875 1.328125l-0.84375 4.046875l-0.828125 0z" fill-rule="nonzero"/><path fill="#000000" fill-opacity="0.0" d="m209.16287 90.94226l36.094482 0l0 17.984245l-36.094482 0z" fill-rule="evenodd"/><path fill="#000000" d="m220.5529 104.73438l2.0 -9.546875l2.953125 0q0.8125 0 1.203125 0.078125q0.625 0.109375 1.0625 0.390625q0.453125 0.265625 0.6875 0.75q0.25 0.46875 0.25 1.046875q0 0.796875 -0.4375 1.390625q-0.4375 0.59375 -1.328125 0.90625q0.78125 0.265625 1.15625 0.78125q0.390625 0.5 0.390625 1.1875q0 0.78125 -0.453125 1.515625q-0.453125 0.71875 -1.203125 1.109375q-0.734375 0.390625 -1.65625 0.390625l-4.625 0zm2.421875 -5.46875l1.9375 0q1.375 0 1.984375 -0.4375q0.609375 -0.453125 0.609375 -1.296875q0 -0.390625 -0.1875 -0.6875q-0.1875 -0.296875 -0.5 -0.421875q-0.3125 -0.140625 -1.1875 -0.140625l-2.03125 0l-0.625 2.984375zm-0.921875 4.390625l2.171875 0q0.875 0 1.171875 -0.0625q0.609375 -0.109375 0.984375 -0.359375q0.375 -0.25 0.578125 -0.65625q0.21875 -0.40625 0.21875 -0.859375q0 -0.671875 -0.421875 -1.015625q-0.40625 -0.34375 -1.59375 -0.34375l-2.421875 0l-0.6875 3.296875z" fill-rule="nonzero"/><path fill="#000000" d="m229.25516 109.73438l1.328125 -6.359375l1.046875 0l0.640625 4.125q0.125 0.8125 0.15625 1.546875q0.265625 -0.640625 0.890625 -1.734375l2.21875 -3.9375l1.0625 0l-1.328125 6.359375l-0.828125 0l0.65625 -3.09375q0.234375 -1.0625 0.671875 -2.390625q-0.28125 0.609375 -0.6875 1.328125l-2.359375 4.15625l-0.828125 0l-0.625 -4.078125q-0.09375 -0.546875 -0.125 -1.296875q-0.109375 0.828125 -0.21875 1.328125l-0.84375 4.046875l-0.828125 0z" fill-rule="nonzero"/><path fill="#000000" fill-opacity="0.0" d="m209.16281 113.41207l36.094498 0l0 17.98426l-36.094498 0z" fill-rule="evenodd"/><path fill="#000000" d="m220.55286 127.2042l2.0 -9.546875l2.953125 0q0.8125 0 1.203125 0.078125q0.625 0.109375 1.0625 0.390625q0.453125 0.265625 0.6875 0.75q0.25 0.46875 0.25 1.046875q0 0.796875 -0.4375 1.390625q-0.4375 0.59375 -1.328125 0.90625q0.78125 0.265625 1.15625 0.78125q0.390625 0.5 0.390625 1.1875q0 0.78125 -0.453125 1.515625q-0.453125 0.71875 -1.203125 1.109375q-0.734375 0.390625 -1.65625 0.390625l-4.625 0zm2.421875 -5.46875l1.9375 0q1.375 0 1.984375 -0.4375q0.609375 -0.453125 0.609375 -1.296875q0 -0.390625 -0.1875 -0.6875q-0.1875 -0.296875 -0.5 -0.421875q-0.3125 -0.140625 -1.1875 -0.140625l-2.03125 0l-0.625 2.984375zm-0.921875 4.390625l2.171875 0q0.875 0 1.171875 -0.0625q0.609375 -0.109375 0.984375 -0.359375q0.375 -0.25 0.578125 -0.65625q0.21875 -0.40625 0.21875 -0.859375q0 -0.671875 -0.421875 -1.015625q-0.40625 -0.34375 -1.59375 -0.34375l-2.421875 0l-0.6875 3.296875z" fill-rule="nonzero"/><path fill="#000000" d="m229.25511 132.2042l1.328125 -6.3593674l1.046875 0l0.640625 4.1249924q0.125 0.8125 0.15625 1.546875q0.265625 -0.640625 0.890625 -1.734375l2.21875 -3.9374924l1.0625 0l-1.328125 6.3593674l-0.828125 0l0.65625 -3.09375q0.234375 -1.0625 0.671875 -2.3906174q-0.28125 0.609375 -0.6875 1.3281174l-2.359375 4.15625l-0.828125 0l-0.625 -4.078125q-0.09375 -0.5468674 -0.125 -1.2968674q-0.109375 0.828125 -0.21875 1.3281174l-0.84375 4.046875l-0.828125 0z" fill-rule="nonzero"/><path fill="#000000" fill-opacity="0.0" d="m154.70604 45.769028l55.27559 0l0 18.047245l-55.27559 0z" fill-rule="evenodd"/><path fill="#000000" d="m182.98193 57.788902q-0.34375 0.390625 -0.765625 0.625q-0.421875 0.234375 -0.84375 0.234375q-0.453125 0 -0.890625 -0.265625q-0.4375 -0.28125 -0.71875 -0.84375q-0.265625 -0.5625 -0.265625 -1.234375q0 -0.8125 0.421875 -1.640625q0.421875 -0.84375 1.046875 -1.25q0.640625 -0.421875 1.234375 -0.421875q0.453125 0 0.859375 0.234375q0.40625 0.234375 0.703125 0.71875l0.1875 -0.796875l0.921875 0l-0.75 3.484375q-0.15625 0.734375 -0.15625 0.8125q0 0.140625 0.109375 0.25q0.109375 0.09375 0.265625 0.09375q0.265625 0 0.71875 -0.328125q0.59375 -0.40625 0.9375 -1.109375q0.34375 -0.703125 0.34375 -1.4375q0 -0.875 -0.453125 -1.625q-0.4375 -0.765625 -1.328125 -1.21875q-0.875 -0.453125 -1.9375 -0.453125q-1.21875 0 -2.234375 0.578125q-1.0 0.5625 -1.5625 1.640625q-0.546875 1.0625 -0.546875 2.265625q0 1.28125 0.546875 2.203125q0.5625 0.921875 1.609375 1.359375q1.046875 0.4375 2.328125 0.4375q1.359375 0 2.28125 -0.453125q0.921875 -0.453125 1.375 -1.109375l0.953125 0q-0.265625 0.546875 -0.921875 1.109375q-0.640625 0.5625 -1.53125 0.890625q-0.890625 0.34375 -2.140625 0.34375q-1.15625 0 -2.140625 -0.296875q-0.96875 -0.296875 -1.65625 -0.90625q-0.6875 -0.59375 -1.03125 -1.359375q-0.4375 -0.984375 -0.4375 -2.125q0 -1.265625 0.515625 -2.421875q0.640625 -1.40625 1.796875 -2.15625q1.171875 -0.75 2.84375 -0.75q1.296875 0 2.3125 0.53125q1.03125 0.515625 1.625 1.5625q0.5 0.90625 0.5 1.96875q0 1.5 -1.0625 2.671875q-0.9375 1.046875 -2.0625 1.046875q-0.359375 0 -0.578125 -0.109375q-0.21875 -0.109375 -0.328125 -0.3125q-0.0625 -0.125 -0.09375 -0.4375zm-2.53125 -1.421875q0 0.71875 0.34375 1.125q0.34375 0.390625 0.78125 0.390625q0.28125 0 0.609375 -0.171875q0.328125 -0.1875 0.609375 -0.53125q0.296875 -0.34375 0.484375 -0.859375q0.1875 -0.53125 0.1875 -1.0625q0 -0.703125 -0.359375 -1.09375q-0.34375 -0.390625 -0.84375 -0.390625q-0.328125 0 -0.625 0.171875q-0.296875 0.15625 -0.578125 0.53125q-0.265625 0.375 -0.4375 0.921875q-0.171875 0.53125 -0.171875 0.96875z" fill-rule="nonzero"/><path fill="#000000" fill-opacity="0.0" d="m154.70604 68.29921l55.27559 0l0 18.047249l-55.27559 0z" fill-rule="evenodd"/><path fill="#000000" d="m182.98193 80.319084q-0.34375 0.390625 -0.765625 0.625q-0.421875 0.234375 -0.84375 0.234375q-0.453125 0 -0.890625 -0.265625q-0.4375 -0.28125 -0.71875 -0.84375q-0.265625 -0.5625 -0.265625 -1.234375q0 -0.8125 0.421875 -1.640625q0.421875 -0.84375 1.046875 -1.25q0.640625 -0.421875 1.234375 -0.421875q0.453125 0 0.859375 0.234375q0.40625 0.234375 0.703125 0.71875l0.1875 -0.796875l0.921875 0l-0.75 3.484375q-0.15625 0.734375 -0.15625 0.8125q0 0.140625 0.109375 0.25q0.109375 0.09375 0.265625 0.09375q0.265625 0 0.71875 -0.328125q0.59375 -0.40625 0.9375 -1.109375q0.34375 -0.703125 0.34375 -1.4375q0 -0.875 -0.453125 -1.625q-0.4375 -0.765625 -1.328125 -1.21875q-0.875 -0.453125 -1.9375 -0.453125q-1.21875 0 -2.234375 0.578125q-1.0 0.5625 -1.5625 1.640625q-0.546875 1.0625 -0.546875 2.265625q0 1.28125 0.546875 2.203125q0.5625 0.921875 1.609375 1.359375q1.046875 0.4375 2.328125 0.4375q1.359375 0 2.28125 -0.453125q0.921875 -0.453125 1.375 -1.109375l0.953125 0q-0.265625 0.546875 -0.921875 1.109375q-0.640625 0.5625 -1.53125 0.890625q-0.890625 0.34375 -2.140625 0.34375q-1.15625 0 -2.140625 -0.296875q-0.96875 -0.296875 -1.65625 -0.90625q-0.6875 -0.59375 -1.03125 -1.359375q-0.4375 -0.984375 -0.4375 -2.125q0 -1.265625 0.515625 -2.421875q0.640625 -1.40625 1.796875 -2.15625q1.171875 -0.75 2.84375 -0.75q1.296875 0 2.3125 0.53125q1.03125 0.515625 1.625 1.5625q0.5 0.90625 0.5 1.96875q0 1.5 -1.0625 2.671875q-0.9375 1.046875 -2.0625 1.046875q-0.359375 0 -0.578125 -0.109375q-0.21875 -0.109375 -0.328125 -0.3125q-0.0625 -0.125 -0.09375 -0.4375zm-2.53125 -1.421875q0 0.71875 0.34375 1.125q0.34375 0.390625 0.78125 0.390625q0.28125 0 0.609375 -0.171875q0.328125 -0.1875 0.609375 -0.53125q0.296875 -0.34375 0.484375 -0.859375q0.1875 -0.53125 0.1875 -1.0625q0 -0.703125 -0.359375 -1.09375q-0.34375 -0.390625 -0.84375 -0.390625q-0.328125 0 -0.625 0.171875q-0.296875 0.15625 -0.578125 0.53125q-0.265625 0.375 -0.4375 0.921875q-0.171875 0.53125 -0.171875 0.96875z" fill-rule="nonzero"/><path fill="#000000" fill-opacity="0.0" d="m154.70604 90.83202l55.27559 0l0 18.047241l-55.27559 0z" fill-rule="evenodd"/><path fill="#000000" d="m182.98193 102.85189q-0.34375 0.390625 -0.765625 0.625q-0.421875 0.234375 -0.84375 0.234375q-0.453125 0 -0.890625 -0.265625q-0.4375 -0.28125 -0.71875 -0.84375q-0.265625 -0.5625 -0.265625 -1.234375q0 -0.8125 0.421875 -1.640625q0.421875 -0.84375 1.046875 -1.25q0.640625 -0.421875 1.234375 -0.421875q0.453125 0 0.859375 0.234375q0.40625 0.234375 0.703125 0.71875l0.1875 -0.796875l0.921875 0l-0.75 3.484375q-0.15625 0.734375 -0.15625 0.8125q0 0.140625 0.109375 0.25q0.109375 0.09375 0.265625 0.09375q0.265625 0 0.71875 -0.328125q0.59375 -0.40625 0.9375 -1.109375q0.34375 -0.703125 0.34375 -1.4375q0 -0.875 -0.453125 -1.625q-0.4375 -0.765625 -1.328125 -1.21875q-0.875 -0.453125 -1.9375 -0.453125q-1.21875 0 -2.234375 0.578125q-1.0 0.5625 -1.5625 1.640625q-0.546875 1.0625 -0.546875 2.265625q0 1.28125 0.546875 2.203125q0.5625 0.921875 1.609375 1.359375q1.046875 0.4375 2.328125 0.4375q1.359375 0 2.28125 -0.453125q0.921875 -0.453125 1.375 -1.109375l0.953125 0q-0.265625 0.546875 -0.921875 1.109375q-0.640625 0.5625 -1.53125 0.890625q-0.890625 0.34375 -2.140625 0.34375q-1.15625 0 -2.140625 -0.296875q-0.96875 -0.296875 -1.65625 -0.90625q-0.6875 -0.59375 -1.03125 -1.359375q-0.4375 -0.984375 -0.4375 -2.125q0 -1.265625 0.515625 -2.421875q0.640625 -1.40625 1.796875 -2.15625q1.171875 -0.75 2.84375 -0.75q1.296875 0 2.3125 0.53125q1.03125 0.515625 1.625 1.5625q0.5 0.90625 0.5 1.96875q0 1.5 -1.0625 2.671875q-0.9375 1.046875 -2.0625 1.046875q-0.359375 0 -0.578125 -0.109375q-0.21875 -0.109375 -0.328125 -0.3125q-0.0625 -0.125 -0.09375 -0.4375zm-2.53125 -1.421875q0 0.71875 0.34375 1.125q0.34375 0.390625 0.78125 0.390625q0.28125 0 0.609375 -0.171875q0.328125 -0.1875 0.609375 -0.53125q0.296875 -0.34375 0.484375 -0.859375q0.1875 -0.53125 0.1875 -1.0625q0 -0.703125 -0.359375 -1.09375q-0.34375 -0.390625 -0.84375 -0.390625q-0.328125 0 -0.625 0.171875q-0.296875 0.15625 -0.578125 0.53125q-0.265625 0.375 -0.4375 0.921875q-0.171875 0.53125 -0.171875 0.96875z" fill-rule="nonzero"/><path fill="#000000" fill-opacity="0.0" d="m154.70604 113.362206l55.27559 0l0 18.047249l-55.27559 0z" fill-rule="evenodd"/><path fill="#000000" d="m182.98193 125.38208q-0.34375 0.390625 -0.765625 0.625q-0.421875 0.234375 -0.84375 0.234375q-0.453125 0 -0.890625 -0.265625q-0.4375 -0.28125 -0.71875 -0.84375q-0.265625 -0.5625 -0.265625 -1.234375q0 -0.8125 0.421875 -1.640625q0.421875 -0.84375 1.046875 -1.25q0.640625 -0.421875 1.234375 -0.421875q0.453125 0 0.859375 0.234375q0.40625 0.234375 0.703125 0.71875l0.1875 -0.796875l0.921875 0l-0.75 3.484375q-0.15625 0.734375 -0.15625 0.8125q0 0.140625 0.109375 0.25q0.109375 0.09375 0.265625 0.09375q0.265625 0 0.71875 -0.328125q0.59375 -0.40625 0.9375 -1.109375q0.34375 -0.703125 0.34375 -1.4375q0 -0.875 -0.453125 -1.625q-0.4375 -0.765625 -1.328125 -1.21875q-0.875 -0.453125 -1.9375 -0.453125q-1.21875 0 -2.234375 0.578125q-1.0 0.5625 -1.5625 1.640625q-0.546875 1.0625 -0.546875 2.265625q0 1.28125 0.546875 2.203125q0.5625 0.921875 1.609375 1.359375q1.046875 0.4375 2.328125 0.4375q1.359375 0 2.28125 -0.453125q0.921875 -0.453125 1.375 -1.109375l0.953125 0q-0.265625 0.546875 -0.921875 1.109375q-0.640625 0.5625 -1.53125 0.890625q-0.890625 0.34375 -2.140625 0.34375q-1.15625 0 -2.140625 -0.296875q-0.96875 -0.296875 -1.65625 -0.90625q-0.6875 -0.59375 -1.03125 -1.359375q-0.4375 -0.984375 -0.4375 -2.125q0 -1.265625 0.515625 -2.421875q0.640625 -1.40625 1.796875 -2.15625q1.171875 -0.75 2.84375 -0.75q1.296875 0 2.3125 0.53125q1.03125 0.515625 1.625 1.5625q0.5 0.90625 0.5 1.96875q0 1.5 -1.0625 2.671875q-0.9375 1.046875 -2.0625 1.046875q-0.359375 0 -0.578125 -0.109375q-0.21875 -0.109375 -0.328125 -0.3125q-0.0625 -0.125 -0.09375 -0.4375zm-2.53125 -1.421875q0 0.71875 0.34375 1.125q0.34375 0.390625 0.78125 0.390625q0.28125 0 0.609375 -0.171875q0.328125 -0.1875 0.609375 -0.53125q0.296875 -0.34375 0.484375 -0.859375q0.1875 -0.53125 0.1875 -1.0625q0 -0.703125 -0.359375 -1.09375q-0.34375 -0.390625 -0.84375 -0.390625q-0.328125 0 -0.625 0.171875q-0.296875 0.15625 -0.578125 0.53125q-0.265625 0.375 -0.4375 0.921875q-0.171875 0.53125 -0.171875 0.96875z" fill-rule="nonzero"/><path fill="#f4cccc" d="m389.63516 51.052494l17.984253 0l-17.984253 17.98425z" fill-rule="evenodd"/><path stroke="#000000" stroke-width="1.0" stroke-linejoin="round" stroke-linecap="butt" d="m389.63516 51.052494l17.984253 0l-17.984253 17.98425z" fill-rule="evenodd"/><path fill="#d9ead3" d="m407.61942 69.03674l-17.984253 0l17.984253 -17.98425z" fill-rule="evenodd"/><path stroke="#000000" stroke-width="1.0" stroke-linejoin="round" stroke-linecap="butt" d="m407.61942 69.03674l-17.984253 0l17.984253 -17.98425z" fill-rule="evenodd"/><path fill="#f4cccc" d="m412.02756 51.052494l17.984253 0l-17.984253 17.98425z" fill-rule="evenodd"/><path stroke="#000000" stroke-width="1.0" stroke-linejoin="round" stroke-linecap="butt" d="m412.02756 51.052494l17.984253 0l-17.984253 17.98425z" fill-rule="evenodd"/><path fill="#b6d7a8" d="m430.0118 69.03674l-17.984253 0l17.984253 -17.98425z" fill-rule="evenodd"/><path stroke="#000000" stroke-width="1.0" stroke-linejoin="round" stroke-linecap="butt" d="m430.0118 69.03674l-17.984253 0l17.984253 -17.98425z" fill-rule="evenodd"/><path fill="#f4cccc" d="m434.32678 51.052494l17.984253 0l-17.984253 17.98425z" fill-rule="evenodd"/><path stroke="#000000" stroke-width="1.0" stroke-linejoin="round" stroke-linecap="butt" d="m434.32678 51.052494l17.984253 0l-17.984253 17.98425z" fill-rule="evenodd"/><path fill="#93c47d" d="m452.31104 69.03674l-17.984253 0l17.984253 -17.98425z" fill-rule="evenodd"/><path stroke="#000000" stroke-width="1.0" stroke-linejoin="round" stroke-linecap="butt" d="m452.31104 69.03674l-17.984253 0l17.984253 -17.98425z" fill-rule="evenodd"/><path fill="#f4cccc" d="m456.62598 51.052494l17.984253 0l-17.984253 17.98425z" fill-rule="evenodd"/><path stroke="#000000" stroke-width="1.0" stroke-linejoin="round" stroke-linecap="butt" d="m456.62598 51.052494l17.984253 0l-17.984253 17.98425z" fill-rule="evenodd"/><path fill="#6aa84f" d="m474.61023 69.03674l-17.984253 0l17.984253 -17.98425z" fill-rule="evenodd"/><path stroke="#000000" stroke-width="1.0" stroke-linejoin="round" stroke-linecap="butt" d="m474.61023 69.03674l-17.984253 0l17.984253 -17.98425z" fill-rule="evenodd"/><path fill="#000000" fill-opacity="0.0" d="m382.75723 22.257217l36.094482 0l0 27.086617l-36.094482 0z" fill-rule="evenodd"/><path fill="#000000" d="m392.33536 40.600525l2.0 -9.546875l2.953125 0q0.8125 0 1.203125 0.078125q0.625 0.109375 1.0625 0.390625q0.453125 0.265625 0.6875 0.75q0.25 0.46875 0.25 1.046875q0 0.796875 -0.4375 1.390625q-0.4375 0.59375 -1.328125 0.90625q0.78125 0.265625 1.15625 0.78125q0.390625 0.5 0.390625 1.1875q0 0.78125 -0.453125 1.515625q-0.453125 0.71875 -1.203125 1.109375q-0.734375 0.390625 -1.65625 0.390625l-4.625 0zm2.421875 -5.46875l1.9375 0q1.375 0 1.984375 -0.4375q0.609375 -0.453125 0.609375 -1.296875q0 -0.390625 -0.1875 -0.6875q-0.1875 -0.296875 -0.5 -0.421875q-0.3125 -0.140625 -1.1875 -0.140625l-2.03125 0l-0.625 2.984375zm-0.921875 4.390625l2.171875 0q0.875 0 1.171875 -0.0625q0.609375 -0.109375 0.984375 -0.359375q0.375 -0.25 0.578125 -0.65625q0.21875 -0.40625 0.21875 -0.859375q0 -0.671875 -0.421875 -1.015625q-0.40625 -0.34375 -1.59375 -0.34375l-2.421875 0l-0.6875 3.296875z" fill-rule="nonzero"/><path fill="#000000" d="m401.0376 45.600525l1.328125 -6.359375l1.046875 0l0.640625 4.125q0.125 0.8125 0.15625 1.546875q0.265625 -0.640625 0.890625 -1.734375l2.21875 -3.9375l1.0625 0l-1.328125 6.359375l-0.828125 0l0.65625 -3.09375q0.234375 -1.0625 0.671875 -2.390625q-0.28125 0.609375 -0.6875 1.328125l-2.359375 4.15625l-0.828125 0l-0.625 -4.078125q-0.09375 -0.546875 -0.125 -1.296875q-0.109375 0.828125 -0.21875 1.328125l-0.84375 4.046875l-0.828125 0z" fill-rule="nonzero"/><path fill="#000000" fill-opacity="0.0" d="m406.6916 22.257217l36.094513 0l0 27.086617l-36.094513 0z" fill-rule="evenodd"/><path fill="#000000" d="m416.2697 40.600525l2.0 -9.546875l2.953125 0q0.8125 0 1.203125 0.078125q0.625 0.109375 1.0625 0.390625q0.453125 0.265625 0.6875 0.75q0.25 0.46875 0.25 1.046875q0 0.796875 -0.4375 1.390625q-0.4375 0.59375 -1.328125 0.90625q0.78125 0.265625 1.15625 0.78125q0.390625 0.5 0.390625 1.1875q0 0.78125 -0.453125 1.515625q-0.453125 0.71875 -1.203125 1.109375q-0.734375 0.390625 -1.65625 0.390625l-4.625 0zm2.421875 -5.46875l1.9375 0q1.375 0 1.984375 -0.4375q0.609375 -0.453125 0.609375 -1.296875q0 -0.390625 -0.1875 -0.6875q-0.1875 -0.296875 -0.5 -0.421875q-0.3125 -0.140625 -1.1875 -0.140625l-2.03125 0l-0.625 2.984375zm-0.921875 4.390625l2.171875 0q0.875 0 1.171875 -0.0625q0.609375 -0.109375 0.984375 -0.359375q0.375 -0.25 0.578125 -0.65625q0.21875 -0.40625 0.21875 -0.859375q0 -0.671875 -0.421875 -1.015625q-0.40625 -0.34375 -1.59375 -0.34375l-2.421875 0l-0.6875 3.296875z" fill-rule="nonzero"/><path fill="#000000" d="m424.972 45.600525l1.328125 -6.359375l1.046875 0l0.640625 4.125q0.125 0.8125 0.15625 1.546875q0.265625 -0.640625 0.890625 -1.734375l2.21875 -3.9375l1.0625 0l-1.328125 6.359375l-0.828125 0l0.65625 -3.09375q0.234375 -1.0625 0.671875 -2.390625q-0.28125 0.609375 -0.6875 1.328125l-2.359375 4.15625l-0.828125 0l-0.625 -4.078125q-0.09375 -0.546875 -0.125 -1.296875q-0.109375 0.828125 -0.21875 1.328125l-0.84375 4.046875l-0.828125 0z" fill-rule="nonzero"/><path fill="#000000" fill-opacity="0.0" d="m430.62598 22.257217l36.094482 0l0 27.086617l-36.094482 0z" fill-rule="evenodd"/><path fill="#000000" d="m440.2041 40.600525l2.0 -9.546875l2.953125 0q0.8125 0 1.203125 0.078125q0.625 0.109375 1.0625 0.390625q0.453125 0.265625 0.6875 0.75q0.25 0.46875 0.25 1.046875q0 0.796875 -0.4375 1.390625q-0.4375 0.59375 -1.328125 0.90625q0.78125 0.265625 1.15625 0.78125q0.390625 0.5 0.390625 1.1875q0 0.78125 -0.453125 1.515625q-0.453125 0.71875 -1.203125 1.109375q-0.734375 0.390625 -1.65625 0.390625l-4.625 0zm2.421875 -5.46875l1.9375 0q1.375 0 1.984375 -0.4375q0.609375 -0.453125 0.609375 -1.296875q0 -0.390625 -0.1875 -0.6875q-0.1875 -0.296875 -0.5 -0.421875q-0.3125 -0.140625 -1.1875 -0.140625l-2.03125 0l-0.625 2.984375zm-0.921875 4.390625l2.171875 0q0.875 0 1.171875 -0.0625q0.609375 -0.109375 0.984375 -0.359375q0.375 -0.25 0.578125 -0.65625q0.21875 -0.40625 0.21875 -0.859375q0 -0.671875 -0.421875 -1.015625q-0.40625 -0.34375 -1.59375 -0.34375l-2.421875 0l-0.6875 3.296875z" fill-rule="nonzero"/><path fill="#000000" d="m448.90637 45.600525l1.328125 -6.359375l1.046875 0l0.640625 4.125q0.125 0.8125 0.15625 1.546875q0.265625 -0.640625 0.890625 -1.734375l2.21875 -3.9375l1.0625 0l-1.328125 6.359375l-0.828125 0l0.65625 -3.09375q0.234375 -1.0625 0.671875 -2.390625q-0.28125 0.609375 -0.6875 1.328125l-2.359375 4.15625l-0.828125 0l-0.625 -4.078125q-0.09375 -0.546875 -0.125 -1.296875q-0.109375 0.828125 -0.21875 1.328125l-0.84375 4.046875l-0.828125 0z" fill-rule="nonzero"/><path fill="#000000" fill-opacity="0.0" d="m454.56036 22.257217l36.094482 0l0 27.086617l-36.094482 0z" fill-rule="evenodd"/><path fill="#000000" d="m464.1385 40.600525l2.0 -9.546875l2.953125 0q0.8125 0 1.203125 0.078125q0.625 0.109375 1.0625 0.390625q0.453125 0.265625 0.6875 0.75q0.25 0.46875 0.25 1.046875q0 0.796875 -0.4375 1.390625q-0.4375 0.59375 -1.328125 0.90625q0.78125 0.265625 1.15625 0.78125q0.390625 0.5 0.390625 1.1875q0 0.78125 -0.453125 1.515625q-0.453125 0.71875 -1.203125 1.109375q-0.734375 0.390625 -1.65625 0.390625l-4.625 0zm2.421875 -5.46875l1.9375 0q1.375 0 1.984375 -0.4375q0.609375 -0.453125 0.609375 -1.296875q0 -0.390625 -0.1875 -0.6875q-0.1875 -0.296875 -0.5 -0.421875q-0.3125 -0.140625 -1.1875 -0.140625l-2.03125 0l-0.625 2.984375zm-0.921875 4.390625l2.171875 0q0.875 0 1.171875 -0.0625q0.609375 -0.109375 0.984375 -0.359375q0.375 -0.25 0.578125 -0.65625q0.21875 -0.40625 0.21875 -0.859375q0 -0.671875 -0.421875 -1.015625q-0.40625 -0.34375 -1.59375 -0.34375l-2.421875 0l-0.6875 3.296875z" fill-rule="nonzero"/><path fill="#000000" d="m472.84076 45.600525l1.328125 -6.359375l1.046875 0l0.640625 4.125q0.125 0.8125 0.15625 1.546875q0.265625 -0.640625 0.890625 -1.734375l2.21875 -3.9375l1.0625 0l-1.328125 6.359375l-0.828125 0l0.65625 -3.09375q0.234375 -1.0625 0.671875 -2.390625q-0.28125 0.609375 -0.6875 1.328125l-2.359375 4.15625l-0.828125 0l-0.625 -4.078125q-0.09375 -0.546875 -0.125 -1.296875q-0.109375 0.828125 -0.21875 1.328125l-0.84375 4.046875l-0.828125 0z" fill-rule="nonzero"/><path fill="#000000" fill-opacity="0.0" d="m354.7244 49.343834l36.094513 0l0 17.984253l-36.094513 0z" fill-rule="evenodd"/><path fill="#000000" d="m367.09814 63.13596l2.0 -9.546875l2.953125 0q0.8125 0 1.203125 0.078125q0.625 0.109375 1.0625 0.390625q0.453125 0.265625 0.6875 0.75q0.25 0.46875 0.25 1.046875q0 0.796875 -0.4375 1.390625q-0.4375 0.59375 -1.328125 0.90625q0.78125 0.265625 1.15625 0.78125q0.390625 0.5 0.390625 1.1875q0 0.78125 -0.453125 1.515625q-0.453125 0.71875 -1.203125 1.109375q-0.734375 0.390625 -1.65625 0.390625l-4.625 0zm2.421875 -5.46875l1.9375 0q1.375 0 1.984375 -0.4375q0.609375 -0.453125 0.609375 -1.296875q0 -0.390625 -0.1875 -0.6875q-0.1875 -0.296875 -0.5 -0.421875q-0.3125 -0.140625 -1.1875 -0.140625l-2.03125 0l-0.625 2.984375zm-0.921875 4.390625l2.171875 0q0.875 0 1.171875 -0.0625q0.609375 -0.109375 0.984375 -0.359375q0.375 -0.25 0.578125 -0.65625q0.21875 -0.40625 0.21875 -0.859375q0 -0.671875 -0.421875 -1.015625q-0.40625 -0.34375 -1.59375 -0.34375l-2.421875 0l-0.6875 3.296875z" fill-rule="nonzero"/><path fill="#000000" d="m375.84726 68.135956l1.328125 -6.359371l0.828125 0l1.0625 2.3906212q0.484375 1.09375 0.78125 1.84375q0.15625 0.421875 0.375 1.15625q0.125 -0.796875 0.296875 -1.65625l0.78125 -3.7343712l0.828125 0l-1.328125 6.359371l-0.84375 0l-1.578125 -3.671875q-0.421875 -0.9687462 -0.65625 -1.7031212q-0.0625 0.609375 -0.25 1.5156212l-0.796875 3.859375l-0.828125 0z" fill-rule="nonzero"/><path fill="#000000" fill-opacity="0.0" d="m354.7244 73.27821l36.094513 0l0 17.984253l-36.094513 0z" fill-rule="evenodd"/><path fill="#000000" d="m367.09814 87.07034l2.0 -9.546875l2.953125 0q0.8125 0 1.203125 0.078125q0.625 0.109375 1.0625 0.390625q0.453125 0.265625 0.6875 0.75q0.25 0.46875 0.25 1.046875q0 0.796875 -0.4375 1.390625q-0.4375 0.59375 -1.328125 0.90625q0.78125 0.265625 1.15625 0.78125q0.390625 0.5 0.390625 1.1875q0 0.78125 -0.453125 1.515625q-0.453125 0.71875 -1.203125 1.109375q-0.734375 0.390625 -1.65625 0.390625l-4.625 0zm2.421875 -5.46875l1.9375 0q1.375 0 1.984375 -0.4375q0.609375 -0.453125 0.609375 -1.296875q0 -0.390625 -0.1875 -0.6875q-0.1875 -0.296875 -0.5 -0.421875q-0.3125 -0.140625 -1.1875 -0.140625l-2.03125 0l-0.625 2.984375zm-0.921875 4.390625l2.171875 0q0.875 0 1.171875 -0.0625q0.609375 -0.109375 0.984375 -0.359375q0.375 -0.25 0.578125 -0.65625q0.21875 -0.40625 0.21875 -0.859375q0 -0.671875 -0.421875 -1.015625q-0.40625 -0.34375 -1.59375 -0.34375l-2.421875 0l-0.6875 3.296875z" fill-rule="nonzero"/><path fill="#000000" d="m375.84726 92.07034l1.328125 -6.359375l0.828125 0l1.0625 2.390625q0.484375 1.09375 0.78125 1.84375q0.15625 0.421875 0.375 1.15625q0.125 -0.796875 0.296875 -1.65625l0.78125 -3.734375l0.828125 0l-1.328125 6.359375l-0.84375 0l-1.578125 -3.671875q-0.421875 -0.96875 -0.65625 -1.703125q-0.0625 0.609375 -0.25 1.515625l-0.796875 3.859375l-0.828125 0z" fill-rule="nonzero"/><path fill="#000000" fill-opacity="0.0" d="m354.7244 97.2126l36.094513 0l0 17.984253l-36.094513 0z" fill-rule="evenodd"/><path fill="#000000" d="m367.09814 111.00472l2.0 -9.546875l2.953125 0q0.8125 0 1.203125 0.078125q0.625 0.109375 1.0625 0.390625q0.453125 0.265625 0.6875 0.75q0.25 0.46875 0.25 1.046875q0 0.796875 -0.4375 1.390625q-0.4375 0.59375 -1.328125 0.90625q0.78125 0.265625 1.15625 0.78125q0.390625 0.5 0.390625 1.1875q0 0.78125 -0.453125 1.515625q-0.453125 0.71875 -1.203125 1.109375q-0.734375 0.390625 -1.65625 0.390625l-4.625 0zm2.421875 -5.46875l1.9375 0q1.375 0 1.984375 -0.4375q0.609375 -0.453125 0.609375 -1.296875q0 -0.390625 -0.1875 -0.6875q-0.1875 -0.296875 -0.5 -0.421875q-0.3125 -0.140625 -1.1875 -0.140625l-2.03125 0l-0.625 2.984375zm-0.921875 4.390625l2.171875 0q0.875 0 1.171875 -0.0625q0.609375 -0.109375 0.984375 -0.359375q0.375 -0.25 0.578125 -0.65625q0.21875 -0.40625 0.21875 -0.859375q0 -0.671875 -0.421875 -1.015625q-0.40625 -0.34375 -1.59375 -0.34375l-2.421875 0l-0.6875 3.296875z" fill-rule="nonzero"/><path fill="#000000" d="m375.84726 116.00472l1.328125 -6.359375l0.828125 0l1.0625 2.390625q0.484375 1.09375 0.78125 1.84375q0.15625 0.421875 0.375 1.15625q0.125 -0.796875 0.296875 -1.65625l0.78125 -3.734375l0.828125 0l-1.328125 6.359375l-0.84375 0l-1.578125 -3.671875q-0.421875 -0.96875 -0.65625 -1.703125q-0.0625 0.609375 -0.25 1.515625l-0.796875 3.859375l-0.828125 0z" fill-rule="nonzero"/><path fill="#000000" fill-opacity="0.0" d="m354.7244 121.14698l36.094513 0l0 17.98426l-36.094513 0z" fill-rule="evenodd"/><path fill="#000000" d="m367.09814 134.9391l2.0 -9.546867l2.953125 0q0.8125 0 1.203125 0.078125q0.625 0.109375 1.0625 0.390625q0.453125 0.265625 0.6875 0.75q0.25 0.46875 0.25 1.046875q0 0.7968674 -0.4375 1.3906174q-0.4375 0.59375 -1.328125 0.90625q0.78125 0.265625 1.15625 0.78125q0.390625 0.5 0.390625 1.1875q0 0.78125 -0.453125 1.515625q-0.453125 0.71875 -1.203125 1.109375q-0.734375 0.390625 -1.65625 0.390625l-4.625 0zm2.421875 -5.46875l1.9375 0q1.375 0 1.984375 -0.4375q0.609375 -0.453125 0.609375 -1.2968674q0 -0.390625 -0.1875 -0.6875q-0.1875 -0.296875 -0.5 -0.421875q-0.3125 -0.140625 -1.1875 -0.140625l-2.03125 0l-0.625 2.9843674zm-0.921875 4.390625l2.171875 0q0.875 0 1.171875 -0.0625q0.609375 -0.109375 0.984375 -0.359375q0.375 -0.25 0.578125 -0.65625q0.21875 -0.40625 0.21875 -0.859375q0 -0.671875 -0.421875 -1.015625q-0.40625 -0.34375 -1.59375 -0.34375l-2.421875 0l-0.6875 3.296875z" fill-rule="nonzero"/><path fill="#000000" d="m375.84726 139.9391l1.328125 -6.359375l0.828125 0l1.0625 2.390625q0.484375 1.09375 0.78125 1.84375q0.15625 0.421875 0.375 1.15625q0.125 -0.796875 0.296875 -1.65625l0.78125 -3.734375l0.828125 0l-1.328125 6.359375l-0.84375 0l-1.578125 -3.671875q-0.421875 -0.96875 -0.65625 -1.703125q-0.0625 0.609375 -0.25 1.515625l-0.796875 3.859375l-0.828125 0z" fill-rule="nonzero"/><path fill="#000000" fill-opacity="0.0" d="m366.3596 140.87927c-2.348297 0 -4.2519836 -1.9036713 -4.2519836 -4.2519684l0 -39.086624c0 -2.348297 -1.903656 -4.2519684 -4.251953 -4.2519684l0 0c2.348297 0 4.251953 -1.9036713 4.251953 -4.2519684l0 -39.086613l0 0c0 -2.348297 1.9036865 -4.2519684 4.2519836 -4.2519684z" fill-rule="evenodd"/><path fill="#000000" fill-opacity="0.0" d="m366.3596 140.87927c-2.348297 0 -4.2519836 -1.9036713 -4.2519836 -4.2519684l0 -39.086624c0 -2.348297 -1.903656 -4.2519684 -4.251953 -4.2519684l0 0c2.348297 0 4.251953 -1.9036713 4.251953 -4.2519684l0 -39.086613l0 0c0 -2.348297 1.9036865 -4.2519684 4.2519836 -4.2519684" fill-rule="evenodd"/><path stroke="#000000" stroke-width="1.0" stroke-linejoin="round" stroke-linecap="butt" d="m366.3596 140.87927c-2.348297 0 -4.2519836 -1.9036713 -4.2519836 -4.2519684l0 -39.086624c0 -2.348297 -1.903656 -4.2519684 -4.251953 -4.2519684l0 0c2.348297 0 4.251953 -1.9036713 4.251953 -4.2519684l0 -39.086613l0 0c0 -2.348297 1.9036865 -4.2519684 4.2519836 -4.2519684" fill-rule="evenodd"/><path fill="#000000" fill-opacity="0.0" d="m333.39764 45.69819l25.921265 0l0 95.1811l-25.921265 0z" fill-rule="evenodd"/><path fill="#000000" d="m343.1789 99.04874l2.40625 -11.453125l1.484375 0l1.921875 4.296875q0.890625 1.96875 1.40625 3.3125q0.296875 0.78125 0.6875 2.109375q0.203125 -1.453125 0.53125 -2.984375l1.40625 -6.734375l1.484375 0l-2.390625 11.453125l-1.515625 0l-2.84375 -6.625q-0.75 -1.75 -1.171875 -3.078125q-0.125 1.109375 -0.453125 2.734375l-1.453125 6.96875l-1.5 0z" fill-rule="nonzero"/><path fill="#000000" fill-opacity="0.0" d="m388.13647 30.761154c0 -2.348297 1.9036865 -4.2519684 4.2519836 -4.2519684l39.08661 0c2.348297 0 4.251953 -1.9036713 4.251953 -4.2519684l0 0c0 2.348297 1.9036865 4.2519684 4.2519836 4.2519684l39.08661 0l0 0c2.348297 0 4.2519836 1.9036713 4.2519836 4.2519684z" fill-rule="evenodd"/><path fill="#000000" fill-opacity="0.0" d="m388.13647 30.761154c0 -2.348297 1.9036865 -4.2519684 4.2519836 -4.2519684l39.08661 0c2.348297 0 4.251953 -1.9036713 4.251953 -4.2519684l0 0c0 2.348297 1.9036865 4.2519684 4.2519836 4.2519684l39.08661 0l0 0c2.348297 0 4.2519836 1.9036713 4.2519836 4.2519684" fill-rule="evenodd"/><path stroke="#000000" stroke-width="1.0" stroke-linejoin="round" stroke-linecap="butt" d="m388.13647 30.761154c0 -2.348297 1.9036865 -4.2519684 4.2519836 -4.2519684l39.08661 0c2.348297 0 4.251953 -1.9036713 4.251953 -4.2519684l0 0c0 2.348297 1.9036865 4.2519684 4.2519836 4.2519684l39.08661 0l0 0c2.348297 0 4.2519836 1.9036713 4.2519836 4.2519684" fill-rule="evenodd"/><path fill="#000000" fill-opacity="0.0" d="m387.43832 0l95.18109 0l0 27.086615l-95.18109 0z" fill-rule="evenodd"/><path fill="#000000" d="m429.06793 19.303307l2.390625 -11.453125l1.890625 0l1.15625 7.421875q0.21875 1.453125 0.296875 2.796875q0.46875 -1.15625 1.59375 -3.125l4.015625 -7.09375l1.90625 0l-2.390625 11.453125l-1.5 0l1.1875 -5.578125q0.421875 -1.921875 1.1875 -4.328125q-0.484375 1.125 -1.21875 2.40625l-4.265625 7.5l-1.46875 0l-1.15625 -7.34375q-0.15625 -1.015625 -0.21875 -2.359375q-0.203125 1.515625 -0.390625 2.390625l-1.515625 7.3125l-1.5 0z" fill-rule="nonzero"/><path fill="#ea9999" d="m389.57742 74.34121l17.984253 0l-17.984253 17.984253z" fill-rule="evenodd"/><path stroke="#000000" stroke-width="1.0" stroke-linejoin="round" stroke-linecap="butt" d="m389.57742 74.34121l17.984253 0l-17.984253 17.984253z" fill-rule="evenodd"/><path fill="#d9ead3" d="m407.56168 92.32546l-17.984253 0l17.984253 -17.984253z" fill-rule="evenodd"/><path stroke="#000000" stroke-width="1.0" stroke-linejoin="round" stroke-linecap="butt" d="m407.56168 92.32546l-17.984253 0l17.984253 -17.984253z" fill-rule="evenodd"/><path fill="#ea9999" d="m411.96982 74.34121l17.984253 0l-17.984253 17.984253z" fill-rule="evenodd"/><path stroke="#000000" stroke-width="1.0" stroke-linejoin="round" stroke-linecap="butt" d="m411.96982 74.34121l17.984253 0l-17.984253 17.984253z" fill-rule="evenodd"/><path fill="#b6d7a8" d="m429.95407 92.32546l-17.984253 0l17.984253 -17.984253z" fill-rule="evenodd"/><path stroke="#000000" stroke-width="1.0" stroke-linejoin="round" stroke-linecap="butt" d="m429.95407 92.32546l-17.984253 0l17.984253 -17.984253z" fill-rule="evenodd"/><path fill="#ea9999" d="m434.26904 74.34121l17.984253 0l-17.984253 17.984253z" fill-rule="evenodd"/><path stroke="#000000" stroke-width="1.0" stroke-linejoin="round" stroke-linecap="butt" d="m434.26904 74.34121l17.984253 0l-17.984253 17.984253z" fill-rule="evenodd"/><path fill="#93c47d" d="m452.2533 92.32546l-17.984253 0l17.984253 -17.984253z" fill-rule="evenodd"/><path stroke="#000000" stroke-width="1.0" stroke-linejoin="round" stroke-linecap="butt" d="m452.2533 92.32546l-17.984253 0l17.984253 -17.984253z" fill-rule="evenodd"/><path fill="#ea9999" d="m456.56824 74.34121l17.984253 0l-17.984253 17.984253z" fill-rule="evenodd"/><path stroke="#000000" stroke-width="1.0" stroke-linejoin="round" stroke-linecap="butt" d="m456.56824 74.34121l17.984253 0l-17.984253 17.984253z" fill-rule="evenodd"/><path fill="#6aa84f" d="m474.5525 92.32546l-17.984253 0l17.984253 -17.984253z" fill-rule="evenodd"/><path stroke="#000000" stroke-width="1.0" stroke-linejoin="round" stroke-linecap="butt" d="m474.5525 92.32546l-17.984253 0l17.984253 -17.984253z" fill-rule="evenodd"/><path fill="#e06666" d="m389.51968 97.2126l17.984253 0l-17.984253 17.984253z" fill-rule="evenodd"/><path stroke="#000000" stroke-width="1.0" stroke-linejoin="round" stroke-linecap="butt" d="m389.51968 97.2126l17.984253 0l-17.984253 17.984253z" fill-rule="evenodd"/><path fill="#d9ead3" d="m407.50394 115.19685l-17.984253 0l17.984253 -17.984253z" fill-rule="evenodd"/><path stroke="#000000" stroke-width="1.0" stroke-linejoin="round" stroke-linecap="butt" d="m407.50394 115.19685l-17.984253 0l17.984253 -17.984253z" fill-rule="evenodd"/><path fill="#e06666" d="m411.91208 97.2126l17.984253 0l-17.984253 17.984253z" fill-rule="evenodd"/><path stroke="#000000" stroke-width="1.0" stroke-linejoin="round" stroke-linecap="butt" d="m411.91208 97.2126l17.984253 0l-17.984253 17.984253z" fill-rule="evenodd"/><path fill="#b6d7a8" d="m429.89633 115.19685l-17.984253 0l17.984253 -17.984253z" fill-rule="evenodd"/><path stroke="#000000" stroke-width="1.0" stroke-linejoin="round" stroke-linecap="butt" d="m429.89633 115.19685l-17.984253 0l17.984253 -17.984253z" fill-rule="evenodd"/><path fill="#e06666" d="m434.21127 97.2126l17.984253 0l-17.984253 17.984253z" fill-rule="evenodd"/><path stroke="#000000" stroke-width="1.0" stroke-linejoin="round" stroke-linecap="butt" d="m434.21127 97.2126l17.984253 0l-17.984253 17.984253z" fill-rule="evenodd"/><path fill="#93c47d" d="m452.19553 115.19685l-17.984253 0l17.984253 -17.984253z" fill-rule="evenodd"/><path stroke="#000000" stroke-width="1.0" stroke-linejoin="round" stroke-linecap="butt" d="m452.19553 115.19685l-17.984253 0l17.984253 -17.984253z" fill-rule="evenodd"/><path fill="#e06666" d="m456.5105 97.2126l17.984253 0l-17.984253 17.984253z" fill-rule="evenodd"/><path stroke="#000000" stroke-width="1.0" stroke-linejoin="round" stroke-linecap="butt" d="m456.5105 97.2126l17.984253 0l-17.984253 17.984253z" fill-rule="evenodd"/><path fill="#6aa84f" d="m474.49475 115.19685l-17.984253 0l17.984253 -17.984253z" fill-rule="evenodd"/><path stroke="#000000" stroke-width="1.0" stroke-linejoin="round" stroke-linecap="butt" d="m474.49475 115.19685l-17.984253 0l17.984253 -17.984253z" fill-rule="evenodd"/><path fill="#cc0000" d="m389.46194 119.83727l17.984253 0l-17.984253 17.984245z" fill-rule="evenodd"/><path stroke="#000000" stroke-width="1.0" stroke-linejoin="round" stroke-linecap="butt" d="m389.46194 119.83727l17.984253 0l-17.984253 17.984245z" fill-rule="evenodd"/><path fill="#d9ead3" d="m407.4462 137.82152l-17.984253 0l17.984253 -17.984245z" fill-rule="evenodd"/><path stroke="#000000" stroke-width="1.0" stroke-linejoin="round" stroke-linecap="butt" d="m407.4462 137.82152l-17.984253 0l17.984253 -17.984245z" fill-rule="evenodd"/><path fill="#cc0000" d="m411.85434 119.83727l17.984253 0l-17.984253 17.984245z" fill-rule="evenodd"/><path stroke="#000000" stroke-width="1.0" stroke-linejoin="round" stroke-linecap="butt" d="m411.85434 119.83727l17.984253 0l-17.984253 17.984245z" fill-rule="evenodd"/><path fill="#b6d7a8" d="m429.8386 137.82152l-17.984253 0l17.984253 -17.984245z" fill-rule="evenodd"/><path stroke="#000000" stroke-width="1.0" stroke-linejoin="round" stroke-linecap="butt" d="m429.8386 137.82152l-17.984253 0l17.984253 -17.984245z" fill-rule="evenodd"/><path fill="#cc0000" d="m434.15353 119.83727l17.984253 0l-17.984253 17.984245z" fill-rule="evenodd"/><path stroke="#000000" stroke-width="1.0" stroke-linejoin="round" stroke-linecap="butt" d="m434.15353 119.83727l17.984253 0l-17.984253 17.984245z" fill-rule="evenodd"/><path fill="#93c47d" d="m452.1378 137.82152l-17.984253 0l17.984253 -17.984245z" fill-rule="evenodd"/><path stroke="#000000" stroke-width="1.0" stroke-linejoin="round" stroke-linecap="butt" d="m452.1378 137.82152l-17.984253 0l17.984253 -17.984245z" fill-rule="evenodd"/><path fill="#cc0000" d="m456.45276 119.83727l17.984253 0l-17.984253 17.984245z" fill-rule="evenodd"/><path stroke="#000000" stroke-width="1.0" stroke-linejoin="round" stroke-linecap="butt" d="m456.45276 119.83727l17.984253 0l-17.984253 17.984245z" fill-rule="evenodd"/><path fill="#6aa84f" d="m474.437 137.82152l-17.984253 0l17.984253 -17.984245z" fill-rule="evenodd"/><path stroke="#000000" stroke-width="1.0" stroke-linejoin="round" stroke-linecap="butt" d="m474.437 137.82152l-17.984253 0l17.984253 -17.984245z" fill-rule="evenodd"/><path fill="#ffffff" fill-opacity="0.9" d="m387.96588 49.55643l20.97638 0l0 20.976376l-20.97638 0z" fill-rule="evenodd"/><path fill="#ffffff" fill-opacity="0.9" d="m410.3596 49.55643l20.97638 0l0 20.976376l-20.97638 0z" fill-rule="evenodd"/><path fill="#ffffff" fill-opacity="0.9" d="m432.83203 49.55643l20.97638 0l0 20.976376l-20.97638 0z" fill-rule="evenodd"/><path fill="#ffffff" fill-opacity="0.9" d="m455.30447 49.55643l20.97638 0l0 20.976376l-20.97638 0z" fill-rule="evenodd"/><path fill="#ffffff" fill-opacity="0.9" d="m387.96588 72.845146l20.97638 0l0 20.97638l-20.97638 0z" fill-rule="evenodd"/><path fill="#ffffff" fill-opacity="0.9" d="m410.3596 72.845146l20.97638 0l0 20.97638l-20.97638 0z" fill-rule="evenodd"/><path fill="#ffffff" fill-opacity="0.9" d="m432.83203 72.845146l20.97638 0l0 20.97638l-20.97638 0z" fill-rule="evenodd"/><path fill="#ffffff" fill-opacity="0.9" d="m455.30447 72.845146l20.97638 0l0 20.97638l-20.97638 0z" fill-rule="evenodd"/><path fill="#ffffff" fill-opacity="0.9" d="m387.43832 118.58793l20.97638 0l0 20.976372l-20.97638 0z" fill-rule="evenodd"/><path fill="#ffffff" fill-opacity="0.9" d="m409.83203 118.58793l20.97638 0l0 20.976372l-20.97638 0z" fill-rule="evenodd"/><path fill="#ffffff" fill-opacity="0.9" d="m432.30447 118.58793l20.97638 0l0 20.976372l-20.97638 0z" fill-rule="evenodd"/><path fill="#ffffff" fill-opacity="0.9" d="m454.77692 118.58793l20.97638 0l0 20.976372l-20.97638 0z" fill-rule="evenodd"/><path fill="#ffffff" fill-opacity="0.9" d="m387.96588 95.71654l20.97638 0l0 20.97638l-20.97638 0z" fill-rule="evenodd"/><path fill="#ffffff" fill-opacity="0.9" d="m432.83203 95.71654l20.97638 0l0 20.97638l-20.97638 0z" fill-rule="evenodd"/><path fill="#ffffff" fill-opacity="0.9" d="m455.30447 95.71654l20.97638 0l0 20.97638l-20.97638 0z" fill-rule="evenodd"/><path fill="#000000" fill-opacity="0.0" d="m118.19698 45.767715l36.09449 0l0 17.984253l-36.09449 0z" fill-rule="evenodd"/><path fill="#000000" d="m130.57071 59.55984l2.0 -9.546875l2.953125 0q0.8125 0 1.203125 0.078125q0.625 0.109375 1.0625 0.390625q0.453125 0.265625 0.6875 0.75q0.25 0.46875 0.25 1.046875q0 0.796875 -0.4375 1.390625q-0.4375 0.59375 -1.328125 0.90625q0.78125 0.265625 1.15625 0.78125q0.390625 0.5 0.390625 1.1875q0 0.78125 -0.453125 1.515625q-0.453125 0.71875 -1.203125 1.109375q-0.734375 0.390625 -1.65625 0.390625l-4.625 0zm2.421875 -5.46875l1.9375 0q1.375 0 1.984375 -0.4375q0.609375 -0.453125 0.609375 -1.296875q0 -0.390625 -0.1875 -0.6875q-0.1875 -0.296875 -0.5 -0.421875q-0.3125 -0.140625 -1.1875 -0.140625l-2.03125 0l-0.625 2.984375zm-0.921875 4.390625l2.171875 0q0.875 0 1.171875 -0.0625q0.609375 -0.109375 0.984375 -0.359375q0.375 -0.25 0.578125 -0.65625q0.21875 -0.40625 0.21875 -0.859375q0 -0.671875 -0.421875 -1.015625q-0.40625 -0.34375 -1.59375 -0.34375l-2.421875 0l-0.6875 3.296875z" fill-rule="nonzero"/><path fill="#000000" d="m139.31984 64.559845l1.328125 -6.359379l0.828125 0l1.0625 2.390625q0.484375 1.09375 0.78125 1.84375q0.15625 0.421875 0.375 1.15625q0.125 -0.796875 0.296875 -1.65625l0.78125 -3.734375l0.828125 0l-1.328125 6.359379l-0.84375 0l-1.578125 -3.6718788q-0.421875 -0.96875 -0.65625 -1.703125q-0.0625 0.609375 -0.25 1.515625l-0.796875 3.8593788l-0.828125 0z" fill-rule="nonzero"/><path fill="#000000" fill-opacity="0.0" d="m118.58543 68.23753l36.09449 0l0 17.984253l-36.09449 0z" fill-rule="evenodd"/><path fill="#000000" d="m130.95915 82.029655l2.0 -9.546875l2.953125 0q0.8125 0 1.203125 0.078125q0.625 0.109375 1.0625 0.390625q0.453125 0.265625 0.6875 0.75q0.25 0.46875 0.25 1.046875q0 0.796875 -0.4375 1.390625q-0.4375 0.59375 -1.328125 0.90625q0.78125 0.265625 1.15625 0.78125q0.390625 0.5 0.390625 1.1875q0 0.78125 -0.453125 1.515625q-0.453125 0.71875 -1.203125 1.109375q-0.734375 0.390625 -1.65625 0.390625l-4.625 0zm2.421875 -5.46875l1.9375 0q1.375 0 1.984375 -0.4375q0.609375 -0.453125 0.609375 -1.296875q0 -0.390625 -0.1875 -0.6875q-0.1875 -0.296875 -0.5 -0.421875q-0.3125 -0.140625 -1.1875 -0.140625l-2.03125 0l-0.625 2.984375zm-0.921875 4.390625l2.171875 0q0.875 0 1.171875 -0.0625q0.609375 -0.109375 0.984375 -0.359375q0.375 -0.25 0.578125 -0.65625q0.21875 -0.40625 0.21875 -0.859375q0 -0.671875 -0.421875 -1.015625q-0.40625 -0.34375 -1.59375 -0.34375l-2.421875 0l-0.6875 3.296875z" fill-rule="nonzero"/><path fill="#000000" d="m139.70828 87.029655l1.328125 -6.359375l0.828125 0l1.0625 2.390625q0.484375 1.09375 0.78125 1.84375q0.15625 0.421875 0.375 1.15625q0.125 -0.796875 0.296875 -1.65625l0.78125 -3.734375l0.828125 0l-1.328125 6.359375l-0.84375 0l-1.578125 -3.671875q-0.421875 -0.96875 -0.65625 -1.703125q-0.0625 0.609375 -0.25 1.515625l-0.796875 3.859375l-0.828125 0z" fill-rule="nonzero"/><path fill="#000000" fill-opacity="0.0" d="m118.61169 90.70735l36.09449 0l0 17.984253l-36.09449 0z" fill-rule="evenodd"/><path fill="#000000" d="m130.98541 104.49947l2.0 -9.546875l2.953125 0q0.8125 0 1.203125 0.078125q0.625 0.109375 1.0625 0.390625q0.453125 0.265625 0.6875 0.75q0.25 0.46875 0.25 1.046875q0 0.796875 -0.4375 1.390625q-0.4375 0.59375 -1.328125 0.90625q0.78125 0.265625 1.15625 0.78125q0.390625 0.5 0.390625 1.1875q0 0.78125 -0.453125 1.515625q-0.453125 0.71875 -1.203125 1.109375q-0.734375 0.390625 -1.65625 0.390625l-4.625 0zm2.421875 -5.46875l1.9375 0q1.375 0 1.984375 -0.4375q0.609375 -0.453125 0.609375 -1.296875q0 -0.390625 -0.1875 -0.6875q-0.1875 -0.296875 -0.5 -0.421875q-0.3125 -0.140625 -1.1875 -0.140625l-2.03125 0l-0.625 2.984375zm-0.921875 4.390625l2.171875 0q0.875 0 1.171875 -0.0625q0.609375 -0.109375 0.984375 -0.359375q0.375 -0.25 0.578125 -0.65625q0.21875 -0.40625 0.21875 -0.859375q0 -0.671875 -0.421875 -1.015625q-0.40625 -0.34375 -1.59375 -0.34375l-2.421875 0l-0.6875 3.296875z" fill-rule="nonzero"/><path fill="#000000" d="m139.73454 109.49947l1.328125 -6.359375l0.828125 0l1.0625 2.390625q0.484375 1.09375 0.78125 1.84375q0.15625 0.421875 0.375 1.15625q0.125 -0.796875 0.296875 -1.65625l0.78125 -3.734375l0.828125 0l-1.328125 6.359375l-0.84375 0l-1.578125 -3.671875q-0.421875 -0.96875 -0.65625 -1.703125q-0.0625 0.609375 -0.25 1.515625l-0.796875 3.859375l-0.828125 0z" fill-rule="nonzero"/><path fill="#000000" fill-opacity="0.0" d="m118.61163 113.17716l36.094482 0l0 17.98426l-36.094482 0z" fill-rule="evenodd"/><path fill="#000000" d="m130.98535 126.96929l2.0 -9.546875l2.953125 0q0.8125 0 1.203125 0.078125q0.625 0.109375 1.0625 0.390625q0.453125 0.265625 0.6875 0.75q0.25 0.46875 0.25 1.046875q0 0.796875 -0.4375 1.390625q-0.4375 0.59375 -1.328125 0.90625q0.78125 0.265625 1.15625 0.78125q0.390625 0.5 0.390625 1.1875q0 0.78125 -0.453125 1.515625q-0.453125 0.71875 -1.203125 1.109375q-0.734375 0.390625 -1.65625 0.390625l-4.625 0zm2.421875 -5.46875l1.9375 0q1.375 0 1.984375 -0.4375q0.609375 -0.453125 0.609375 -1.296875q0 -0.390625 -0.1875 -0.6875q-0.1875 -0.296875 -0.5 -0.421875q-0.3125 -0.140625 -1.1875 -0.140625l-2.03125 0l-0.625 2.984375zm-0.921875 4.390625l2.171875 0q0.875 0 1.171875 -0.0625q0.609375 -0.109375 0.984375 -0.359375q0.375 -0.25 0.578125 -0.65625q0.21875 -0.40625 0.21875 -0.859375q0 -0.671875 -0.421875 -1.015625q-0.40625 -0.34375 -1.59375 -0.34375l-2.421875 0l-0.6875 3.296875z" fill-rule="nonzero"/><path fill="#000000" d="m139.73448 131.96928l1.328125 -6.3593674l0.828125 0l1.0625 2.3906174q0.484375 1.09375 0.78125 1.84375q0.15625 0.421875 0.375 1.15625q0.125 -0.796875 0.296875 -1.65625l0.78125 -3.7343674l0.828125 0l-1.328125 6.3593674l-0.84375 0l-1.578125 -3.671875q-0.421875 -0.9687424 -0.65625 -1.7031174q-0.0625 0.609375 -0.25 1.5156174l-0.796875 3.859375l-0.828125 0z" fill-rule="nonzero"/><path fill="#e06666" d="m282.8737 45.94126l0 17.102364l17.952759 -17.102364z" fill-rule="evenodd"/><path stroke="#000000" stroke-width="1.0" stroke-linejoin="round" stroke-linecap="butt" d="m282.8737 45.94126l0 17.102364l17.952759 -17.102364z" fill-rule="evenodd"/><path fill="#b6d7a8" d="m300.85352 63.031334l0 -17.10236l-17.952759 17.10236z" fill-rule="evenodd"/><path stroke="#000000" stroke-width="1.0" stroke-linejoin="round" stroke-linecap="butt" d="m300.85352 63.031334l0 -17.10236l-17.952759 17.10236z" fill-rule="evenodd"/><path fill="#e06666" d="m282.86975 68.41097l0 17.102364l17.952759 -17.102364z" fill-rule="evenodd"/><path stroke="#000000" stroke-width="1.0" stroke-linejoin="round" stroke-linecap="butt" d="m282.86975 68.41097l0 17.102364l17.952759 -17.102364z" fill-rule="evenodd"/><path fill="#b6d7a8" d="m300.84958 85.501045l0 -17.102364l-17.952759 17.102364z" fill-rule="evenodd"/><path stroke="#000000" stroke-width="1.0" stroke-linejoin="round" stroke-linecap="butt" d="m300.84958 85.501045l0 -17.102364l-17.952759 17.102364z" fill-rule="evenodd"/><path fill="#e06666" d="m282.86975 90.880684l0 17.102364l17.952759 -17.102364z" fill-rule="evenodd"/><path stroke="#000000" stroke-width="1.0" stroke-linejoin="round" stroke-linecap="butt" d="m282.86975 90.880684l0 17.102364l17.952759 -17.102364z" fill-rule="evenodd"/><path fill="#b6d7a8" d="m300.84958 107.97076l0 -17.102364l-17.952759 17.102364z" fill-rule="evenodd"/><path stroke="#000000" stroke-width="1.0" stroke-linejoin="round" stroke-linecap="butt" d="m300.84958 107.97076l0 -17.102364l-17.952759 17.102364z" fill-rule="evenodd"/><path fill="#e06666" d="m282.8552 113.35827l0 17.102364l17.952759 -17.102364z" fill-rule="evenodd"/><path stroke="#000000" stroke-width="1.0" stroke-linejoin="round" stroke-linecap="butt" d="m282.8552 113.35827l0 17.102364l17.952759 -17.102364z" fill-rule="evenodd"/><path fill="#b6d7a8" d="m300.83502 130.44833l0 -17.102356l-17.952759 17.102356z" fill-rule="evenodd"/><path stroke="#000000" stroke-width="1.0" stroke-linejoin="round" stroke-linecap="butt" d="m300.83502 130.44833l0 -17.102356l-17.952759 17.102356z" fill-rule="evenodd"/><path fill="#ffffff" fill-opacity="0.25" d="m281.5958 89.44467l20.97638 0l0 19.968506l-20.97638 0z" fill-rule="evenodd"/><path fill="#ffffff" fill-opacity="0.5" d="m281.59448 66.97496l20.97638 0l0 19.968506l-20.97638 0z" fill-rule="evenodd"/><path fill="#ffffff" fill-opacity="0.75" d="m281.5971 44.50525l20.97638 0l0 19.968506l-20.97638 0z" fill-rule="evenodd"/><path fill="#e06666" d="m172.54462 46.133858l0 17.984253l-17.984253 0l0 -17.984253z" fill-rule="evenodd"/><path stroke="#000000" stroke-width="1.0" stroke-linejoin="round" stroke-linecap="butt" d="m172.54462 46.133858l0 17.984253l-17.984253 0l0 -17.984253z" fill-rule="evenodd"/><path fill="#e06666" d="m172.54462 68.603676l0 17.984253l-17.984253 0l0 -17.984253z" fill-rule="evenodd"/><path stroke="#000000" stroke-width="1.0" stroke-linejoin="round" stroke-linecap="butt" d="m172.54462 68.603676l0 17.984253l-17.984253 0l0 -17.984253z" fill-rule="evenodd"/><path fill="#e06666" d="m172.54462 91.073494l0 17.984245l-17.984253 0l0 -17.984245z" fill-rule="evenodd"/><path stroke="#000000" stroke-width="1.0" stroke-linejoin="round" stroke-linecap="butt" d="m172.54462 91.073494l0 17.984245l-17.984253 0l0 -17.984245z" fill-rule="evenodd"/><path fill="#e06666" d="m172.54462 113.543304l0 17.984253l-17.984253 0l0 -17.984253z" fill-rule="evenodd"/><path stroke="#000000" stroke-width="1.0" stroke-linejoin="round" stroke-linecap="butt" d="m172.54462 113.543304l0 17.984253l-17.984253 0l0 -17.984253z" fill-rule="evenodd"/><path fill="#b6d7a8" d="m209.97113 45.766403l0 17.984253l-17.984253 0l0 -17.984253z" fill-rule="evenodd"/><path stroke="#000000" stroke-width="1.0" stroke-linejoin="round" stroke-linecap="butt" d="m209.97113 45.766403l0 17.984253l-17.984253 0l0 -17.984253z" fill-rule="evenodd"/><path fill="#b6d7a8" d="m209.97113 68.23622l0 17.984253l-17.984253 0l0 -17.984253z" fill-rule="evenodd"/><path stroke="#000000" stroke-width="1.0" stroke-linejoin="round" stroke-linecap="butt" d="m209.97113 68.23622l0 17.984253l-17.984253 0l0 -17.984253z" fill-rule="evenodd"/><path fill="#b6d7a8" d="m209.97113 90.70604l0 17.984253l-17.984253 0l0 -17.984253z" fill-rule="evenodd"/><path stroke="#000000" stroke-width="1.0" stroke-linejoin="round" stroke-linecap="butt" d="m209.97113 90.70604l0 17.984253l-17.984253 0l0 -17.984253z" fill-rule="evenodd"/><path fill="#b6d7a8" d="m209.97113 113.17585l0 17.98426l-17.984253 0l0 -17.98426z" fill-rule="evenodd"/><path stroke="#000000" stroke-width="1.0" stroke-linejoin="round" stroke-linecap="butt" d="m209.97113 113.17585l0 17.98426l-17.984253 0l0 -17.98426z" fill-rule="evenodd"/><path fill="#000000" fill-opacity="0.0" d="m244.84251 88.07612l25.007889 0" fill-rule="evenodd"/><path stroke="#000000" stroke-width="1.0" stroke-linejoin="round" stroke-linecap="butt" d="m244.84251 88.07612l19.007889 0" fill-rule="evenodd"/><path fill="#000000" stroke="#000000" stroke-width="1.0" stroke-linecap="butt" d="m263.8504 89.727844l4.538086 -1.6517258l-4.538086 -1.6517334z" fill-rule="evenodd"/><path fill="#000000" fill-opacity="0.0" d="m292.01837 140.38715c0 16.206024 31.708649 32.40419 63.417328 32.412064c31.708649 0.007873535 63.417328 -16.17453 63.417328 -32.349075" fill-rule="evenodd"/><path stroke="#000000" stroke-width="1.0" stroke-linejoin="round" stroke-linecap="butt" d="m292.01837 140.38715c0 16.206024 31.708649 32.40419 63.417328 32.412064c15.85434 0.0039367676 31.708649 -4.039688 43.599396 -10.106125c5.9453735 -3.0332184 10.899872 -6.5721436 14.368011 -10.363663c1.7340393 -1.8957672 3.096527 -3.8546906 4.025482 -5.845108c0.23226929 -0.49760437 0.43737793 -0.9971771 0.61447144 -1.49823c0.088531494 -0.25053406 0.17007446 -0.50141907 0.24447632 -0.7526245c0.03717041 -0.1255951 0.072631836 -0.25128174 0.10620117 -0.37702942l0.0025024414 -0.009796143" fill-rule="evenodd"/><path fill="#000000" stroke="#000000" stroke-width="1.0" stroke-linecap="butt" d="m418.39624 143.84663l0.9646301 1.2644501l-0.70269775 -3.2120972l-1.5263977 2.9123077z" fill-rule="evenodd"/></g></svg>