<svg version="1.1" viewBox="0.0 0.0 264.750656167979 303.5800524934383" fill="none" stroke="none" stroke-linecap="square" stroke-miterlimit="10" xmlns:xlink="http://www.w3.org/1999/xlink" xmlns="http://www.w3.org/2000/svg"><clipPath id="p.0"><path d="m0 0l264.75067 0l0 303.58005l-264.75067 0l0 -303.58005z" clip-rule="nonzero"/></clipPath><g clip-path="url(#p.0)"><path fill="#000000" fill-opacity="0.0" d="m0 0l264.75067 0l0 303.58005l-264.75067 0z" fill-rule="evenodd"/><path fill="#000000" fill-opacity="0.0" d="m41.761154 9.847769l71.62205 0l0 17.984253l-71.62205 0z" fill-rule="evenodd"/><path fill="#000000" d="m72.954994 24.599895l2.390625 -11.453125l1.53125 0l-1.15625 5.515625l6.21875 -5.515625l2.15625 0l-5.3125 4.65625l3.890625 6.796875l-1.703125 0l-3.3125 -5.8125l-2.390625 2.09375l-0.78125 3.71875l-1.53125 0z" fill-rule="nonzero"/><path fill="#f4cccc" d="m41.58005 99.855644l71.622055 0l0 17.984253l-71.622055 0z" fill-rule="evenodd"/><path stroke="#000000" stroke-width="1.0" stroke-linejoin="round" stroke-linecap="butt" d="m41.58005 99.855644l71.622055 0l0 17.984253l-71.622055 0z" fill-rule="evenodd"/><path fill="#f4cccc" d="m41.58005 75.92126l71.622055 0l0 17.984253l-71.622055 0z" fill-rule="evenodd"/><path stroke="#000000" stroke-width="1.0" stroke-linejoin="round" stroke-linecap="butt" d="m41.58005 75.92126l71.622055 0l0 17.984253l-71.622055 0z" fill-rule="evenodd"/><path fill="#f4cccc" d="m41.58005 51.986877l71.622055 0l0 17.984253l-71.622055 0z" fill-rule="evenodd"/><path stroke="#000000" stroke-width="1.0" stroke-linejoin="round" stroke-linecap="butt" d="m41.58005 51.986877l71.622055 0l0 17.984253l-71.622055 0z" fill-rule="evenodd"/><path fill="#f4cccc" d="m41.489502 28.052494l71.62205 0l0 17.984253l-71.62205 0z" fill-rule="evenodd"/><path stroke="#000000" stroke-width="1.0" stroke-linejoin="round" stroke-linecap="butt" d="m41.489502 28.052494l71.62205 0l0 17.984253l-71.62205 0z" fill-rule="evenodd"/><path fill="#000000" fill-opacity="0.0" d="m40.946194 28.052494l71.622055 0l0 17.984253l-71.622055 0z" fill-rule="evenodd"/><path fill="#000000" d="m71.21085 40.88462l2.921875 -7.625l1.09375 0l3.125 7.625l-1.15625 0l-0.890625 -2.3125l-3.1875 0l-0.828125 2.3125l-1.078125 0zm2.203125 -3.125l2.578125 0l-0.796875 -2.125q-0.359375 -0.953125 -0.53125 -1.578125q-0.15625 0.734375 -0.421875 1.453125l-0.828125 2.25z" fill-rule="nonzero"/><path fill="#000000" d="m78.63099 42.368996q0 -0.890625 0.1875 -1.4375q0.1875 -0.5625 0.546875 -0.859375q0.375 -0.296875 0.921875 -0.296875q0.40625 0 0.71875 0.171875q0.3125 0.15625 0.515625 0.46875q0.203125 0.3125 0.3125 0.765625q0.109375 0.4375 0.109375 1.1875q0 0.90625 -0.1875 1.453125q-0.171875 0.546875 -0.546875 0.859375q-0.359375 0.296875 -0.921875 0.296875q-0.734375 0 -1.15625 -0.53125q-0.5 -0.640625 -0.5 -2.078125zm0.640625 0q0 1.265625 0.296875 1.6875q0.296875 0.40625 0.71875 0.40625q0.4375 0 0.71875 -0.421875q0.296875 -0.421875 0.296875 -1.671875q0 -1.25 -0.296875 -1.65625q-0.28125 -0.421875 -0.71875 -0.421875q-0.4375 0 -0.6875 0.359375q-0.328125 0.46875 -0.328125 1.71875z" fill-rule="nonzero"/><path fill="#000000" fill-opacity="0.0" d="m41.217846 51.986877l71.622055 0l0 17.984253l-71.622055 0z" fill-rule="evenodd"/><path fill="#000000" d="m71.482506 64.819l2.921875 -7.624996l1.09375 0l3.125 7.624996l-1.15625 0l-0.890625 -2.3124962l-3.1875 0l-0.828125 2.3124962l-1.078125 0zm2.203125 -3.1249962l2.578125 0l-0.796875 -2.125q-0.359375 -0.953125 -0.53125 -1.578125q-0.15625 0.734375 -0.421875 1.453125l-0.828125 2.25z" fill-rule="nonzero"/><path fill="#000000" d="m81.26202 68.819l-0.625 0l0 -3.984375q-0.234375 0.21875 -0.609375 0.4375q-0.359375 0.203125 -0.640625 0.3125l0 -0.59375q0.515625 -0.25 0.90625 -0.59375q0.390625 -0.359375 0.5625 -0.6874962l0.40625 0l0 5.109371z" fill-rule="nonzero"/><path fill="#000000" fill-opacity="0.0" d="m41.58005 75.92126l71.622055 0l0 17.984253l-71.622055 0z" fill-rule="evenodd"/><path fill="#000000" d="m71.84471 88.75339l2.921875 -7.625l1.09375 0l3.125 7.625l-1.15625 0l-0.890625 -2.3125l-3.1875 0l-0.828125 2.3125l-1.078125 0zm2.203125 -3.125l2.578125 0l-0.796875 -2.125q-0.359375 -0.953125 -0.53125 -1.578125q-0.15625 0.734375 -0.421875 1.453125l-0.828125 2.25z" fill-rule="nonzero"/><path fill="#000000" d="m82.5461 92.15964l0 0.59375l-3.359375 0q-0.015625 -0.21875 0.0625 -0.4375q0.140625 -0.34375 0.421875 -0.671875q0.28125 -0.328125 0.8125 -0.765625q0.828125 -0.6875 1.125 -1.078125q0.296875 -0.40625 0.296875 -0.75q0 -0.375 -0.265625 -0.625q-0.265625 -0.265625 -0.703125 -0.265625q-0.453125 0 -0.71875 0.28125q-0.265625 0.265625 -0.28125 0.734375l-0.640625 -0.0625q0.078125 -0.71875 0.5 -1.09375q0.4375 -0.375 1.15625 -0.375q0.734375 0 1.15625 0.40625q0.4375 0.40625 0.4375 1.0q0 0.3125 -0.125 0.609375q-0.125 0.296875 -0.421875 0.625q-0.28125 0.3125 -0.96875 0.890625q-0.5625 0.46875 -0.71875 0.640625q-0.15625 0.171875 -0.265625 0.34375l2.5 0z" fill-rule="nonzero"/><path fill="#000000" fill-opacity="0.0" d="m41.217846 99.855644l71.622055 0l0 17.984253l-71.622055 0z" fill-rule="evenodd"/><path fill="#000000" d="m71.482506 112.68777l2.921875 -7.625l1.09375 0l3.125 7.625l-1.15625 0l-0.890625 -2.3125l-3.1875 0l-0.828125 2.3125l-1.078125 0zm2.203125 -3.125l2.578125 0l-0.796875 -2.125q-0.359375 -0.953125 -0.53125 -1.578125q-0.15625 0.734375 -0.421875 1.453125l-0.828125 2.25z" fill-rule="nonzero"/><path fill="#000000" d="m78.90264 115.34402l0.625 -0.078125q0.109375 0.53125 0.359375 0.765625q0.265625 0.234375 0.640625 0.234375q0.4375 0 0.734375 -0.296875q0.3125 -0.3125 0.3125 -0.765625q0 -0.4375 -0.28125 -0.71875q-0.28125 -0.28125 -0.71875 -0.28125q-0.171875 0 -0.4375 0.078125l0.0625 -0.546875q0.0625 0 0.109375 0q0.390625 0 0.703125 -0.203125q0.328125 -0.21875 0.328125 -0.640625q0 -0.34375 -0.234375 -0.5625q-0.21875 -0.234375 -0.59375 -0.234375q-0.359375 0 -0.609375 0.234375q-0.234375 0.21875 -0.3125 0.6875l-0.625 -0.125q0.109375 -0.625 0.515625 -0.96875q0.40625 -0.34375 1.015625 -0.34375q0.421875 0 0.765625 0.1875q0.359375 0.171875 0.53125 0.484375q0.1875 0.296875 0.1875 0.65625q0 0.328125 -0.171875 0.59375q-0.171875 0.265625 -0.515625 0.4375q0.4375 0.09375 0.6875 0.421875q0.25 0.328125 0.25 0.828125q0 0.65625 -0.484375 1.125q-0.484375 0.46875 -1.21875 0.46875q-0.671875 0 -1.125 -0.390625q-0.4375 -0.40625 -0.5 -1.046875z" fill-rule="nonzero"/><path fill="#000000" fill-opacity="0.0" d="m12.708661 28.052494l28.692913 0l0 89.79527l-28.692913 0z" fill-rule="evenodd"/><path fill="#000000" d="m22.489912 78.71013l2.40625 -11.453125l1.484375 0l1.921875 4.296875q0.890625 1.96875 1.40625 3.3125q0.296875 0.78125 0.6875 2.109375q0.203125 -1.453125 0.53125 -2.984375l1.4062481 -6.734375l1.484375 0l-2.390623 11.453125l-1.515625 0l-2.84375 -6.625q-0.75 -1.75 -1.171875 -3.078125q-0.125 1.109375 -0.453125 2.734375l-1.453125 6.96875l-1.5 0z" fill-rule="nonzero"/><path fill="#000000" fill-opacity="0.0" d="m152.22047 17.984251l91.81102 0l0 17.984251l-91.81102 0z" fill-rule="evenodd"/><path fill="#000000" d="m192.16504 32.736378l2.390625 -11.453125l1.890625 0l1.15625 7.421875q0.21875 1.453125 0.296875 2.796875q0.46875 -1.15625 1.59375 -3.125l4.015625 -7.09375l1.90625 0l-2.390625 11.453125l-1.5 0l1.1875 -5.578125q0.421875 -1.921875 1.1875 -4.328125q-0.484375 1.125 -1.21875 2.40625l-4.265625 7.5l-1.46875 0l-1.15625 -7.34375q-0.15625 -1.015625 -0.21875 -2.359375q-0.203125 1.515625 -0.390625 2.390625l-1.515625 7.3125l-1.5 0z" fill-rule="nonzero"/><path fill="#000000" fill-opacity="0.0" d="m115.7664 36.188976l36.094482 0l0 72.031494l-36.094482 0z" fill-rule="evenodd"/><path fill="#000000" d="m132.90776 77.96473l2.390625 -11.453125l1.53125 0l-1.15625 5.515625l6.21875 -5.515625l2.15625 0l-5.3125 4.65625l3.890625 6.796875l-1.703125 0l-3.3125 -5.8125l-2.390625 2.09375l-0.78125 3.71875l-1.53125 0z" fill-rule="nonzero"/><path fill="#f4cccc" d="m108.60097 173.83655l47.74803 0l0 11.149612l-47.74803 0z" fill-rule="evenodd"/><path stroke="#000000" stroke-width="1.0" stroke-linejoin="round" stroke-linecap="butt" d="m108.60097 173.83655l47.74803 0l0 11.149612l-47.74803 0z" fill-rule="evenodd"/><path fill="#d9ead3" d="m178.659 140.91183l0 44.409454l-12.0 0l0 -44.409454z" fill-rule="evenodd"/><path stroke="#000000" stroke-width="1.0" stroke-linejoin="round" stroke-linecap="butt" d="m178.659 140.91183l0 44.409454l-12.0 0l0 -44.409454z" fill-rule="evenodd"/><path fill="#cfe2f3" d="m196.26146 140.45787l47.74803 0l0 44.62993l-47.74803 0z" fill-rule="evenodd"/><path stroke="#000000" stroke-width="1.0" stroke-linejoin="round" stroke-linecap="butt" d="m196.26146 140.45787l47.74803 0l0 44.62993l-47.74803 0z" fill-rule="evenodd"/><path fill="#cfe2f3" d="m232.02995 173.96347l12.0 0l0 11.149597l-12.0 0z" fill-rule="evenodd"/><path stroke="#000000" stroke-width="1.0" stroke-linejoin="round" stroke-linecap="butt" d="m232.02995 173.96347l12.0 0l0 11.149597l-12.0 0z" fill-rule="evenodd"/><path fill="#cfe2f3" d="m196.26146 173.96347l12.0 0l0 11.149597l-12.0 0z" fill-rule="evenodd"/><path stroke="#000000" stroke-width="1.0" stroke-linejoin="round" stroke-linecap="butt" d="m196.26146 173.96347l12.0 0l0 11.149597l-12.0 0z" fill-rule="evenodd"/><path fill="#cfe2f3" d="m220.24715 173.96347l12.0 0l0 11.149597l-12.0 0z" fill-rule="evenodd"/><path stroke="#000000" stroke-width="1.0" stroke-linejoin="round" stroke-linecap="butt" d="m220.24715 173.96347l12.0 0l0 11.149597l-12.0 0z" fill-rule="evenodd"/><path fill="#cfe2f3" d="m208.2543 173.96347l12.0 0l0 11.149597l-12.0 0z" fill-rule="evenodd"/><path stroke="#000000" stroke-width="1.0" stroke-linejoin="round" stroke-linecap="butt" d="m208.2543 173.96347l12.0 0l0 11.149597l-12.0 0z" fill-rule="evenodd"/><path fill="#cfe2f3" d="m232.02995 162.81445l12.0 0l0 11.149612l-12.0 0z" fill-rule="evenodd"/><path stroke="#000000" stroke-width="1.0" stroke-linejoin="round" stroke-linecap="butt" d="m232.02995 162.81445l12.0 0l0 11.149612l-12.0 0z" fill-rule="evenodd"/><path fill="#cfe2f3" d="m196.26146 162.81445l12.0 0l0 11.149612l-12.0 0z" fill-rule="evenodd"/><path stroke="#000000" stroke-width="1.0" stroke-linejoin="round" stroke-linecap="butt" d="m196.26146 162.81445l12.0 0l0 11.149612l-12.0 0z" fill-rule="evenodd"/><path fill="#cfe2f3" d="m220.24715 162.81445l12.0 0l0 11.149612l-12.0 0z" fill-rule="evenodd"/><path stroke="#000000" stroke-width="1.0" stroke-linejoin="round" stroke-linecap="butt" d="m220.24715 162.81445l12.0 0l0 11.149612l-12.0 0z" fill-rule="evenodd"/><path fill="#cfe2f3" d="m208.2543 162.81445l12.0 0l0 11.149612l-12.0 0z" fill-rule="evenodd"/><path stroke="#000000" stroke-width="1.0" stroke-linejoin="round" stroke-linecap="butt" d="m208.2543 162.81445l12.0 0l0 11.149612l-12.0 0z" fill-rule="evenodd"/><path fill="#cfe2f3" d="m232.02995 151.60687l12.0 0l0 11.149612l-12.0 0z" fill-rule="evenodd"/><path stroke="#000000" stroke-width="1.0" stroke-linejoin="round" stroke-linecap="butt" d="m232.02995 151.60687l12.0 0l0 11.149612l-12.0 0z" fill-rule="evenodd"/><path fill="#cfe2f3" d="m196.26146 151.60687l12.0 0l0 11.149612l-12.0 0z" fill-rule="evenodd"/><path stroke="#000000" stroke-width="1.0" stroke-linejoin="round" stroke-linecap="butt" d="m196.26146 151.60687l12.0 0l0 11.149612l-12.0 0z" fill-rule="evenodd"/><path fill="#cfe2f3" d="m220.24715 151.60687l12.0 0l0 11.149612l-12.0 0z" fill-rule="evenodd"/><path stroke="#000000" stroke-width="1.0" stroke-linejoin="round" stroke-linecap="butt" d="m220.24715 151.60687l12.0 0l0 11.149612l-12.0 0z" fill-rule="evenodd"/><path fill="#cfe2f3" d="m208.2543 151.60687l12.0 0l0 11.149612l-12.0 0z" fill-rule="evenodd"/><path stroke="#000000" stroke-width="1.0" stroke-linejoin="round" stroke-linecap="butt" d="m208.2543 151.60687l12.0 0l0 11.149612l-12.0 0z" fill-rule="evenodd"/><path fill="#cfe2f3" d="m232.02995 140.45787l12.0 0l0 11.149612l-12.0 0z" fill-rule="evenodd"/><path stroke="#000000" stroke-width="1.0" stroke-linejoin="round" stroke-linecap="butt" d="m232.02995 140.45787l12.0 0l0 11.149612l-12.0 0z" fill-rule="evenodd"/><path fill="#4a86e8" d="m196.26146 140.45787l12.0 0l0 11.149612l-12.0 0z" fill-rule="evenodd"/><path stroke="#000000" stroke-width="1.0" stroke-linejoin="round" stroke-linecap="butt" d="m196.26146 140.45787l12.0 0l0 11.149612l-12.0 0z" fill-rule="evenodd"/><path fill="#cfe2f3" d="m220.24715 140.45787l12.0 0l0 11.149612l-12.0 0z" fill-rule="evenodd"/><path stroke="#000000" stroke-width="1.0" stroke-linejoin="round" stroke-linecap="butt" d="m220.24715 140.45787l12.0 0l0 11.149612l-12.0 0z" fill-rule="evenodd"/><path fill="#cfe2f3" d="m208.2543 140.45787l12.0 0l0 11.149612l-12.0 0z" fill-rule="evenodd"/><path stroke="#000000" stroke-width="1.0" stroke-linejoin="round" stroke-linecap="butt" d="m208.2543 140.45787l12.0 0l0 11.149612l-12.0 0z" fill-rule="evenodd"/><path fill="#d9ead3" d="m172.22704 36.30315l0 71.62204l-17.984253 0l0 -71.62204z" fill-rule="evenodd"/><path stroke="#000000" stroke-width="1.0" stroke-linejoin="round" stroke-linecap="butt" d="m172.22704 36.30315l0 71.62204l-17.984253 0l0 -71.62204z" fill-rule="evenodd"/><path fill="#d9ead3" d="m196.16142 36.30315l0 71.62204l-17.984253 0l0 -71.62204z" fill-rule="evenodd"/><path stroke="#000000" stroke-width="1.0" stroke-linejoin="round" stroke-linecap="butt" d="m196.16142 36.30315l0 71.62204l-17.984253 0l0 -71.62204z" fill-rule="evenodd"/><path fill="#d9ead3" d="m220.0958 36.30315l0 71.62204l-17.984253 0l0 -71.62204z" fill-rule="evenodd"/><path stroke="#000000" stroke-width="1.0" stroke-linejoin="round" stroke-linecap="butt" d="m220.0958 36.30315l0 71.62204l-17.984253 0l0 -71.62204z" fill-rule="evenodd"/><path fill="#d9ead3" d="m244.03018 36.484253l0 71.62205l-17.984253 0l0 -71.62205z" fill-rule="evenodd"/><path stroke="#000000" stroke-width="1.0" stroke-linejoin="round" stroke-linecap="butt" d="m244.03018 36.484253l0 71.62205l-17.984253 0l0 -71.62205z" fill-rule="evenodd"/><path fill="#000000" fill-opacity="0.0" d="m145.18767 36.30315l36.094482 0l0 71.62204l-36.094482 0z" fill-rule="evenodd"/><path fill="#000000" d="m158.48541 75.95417l0 -7.625l2.8593903 0q0.875 0 1.40625 0.234375q0.53125 0.21875 0.828125 0.703125q0.296875 0.484375 0.296875 1.015625q0 0.484375 -0.265625 0.921875q-0.265625 0.421875 -0.796875 0.6875q0.6875 0.203125 1.0625 0.703125q0.375 0.484375 0.375 1.140625q0 0.546875 -0.234375 1.015625q-0.21875 0.453125 -0.5625 0.703125q-0.328125 0.25 -0.828125 0.375q-0.5 0.125 -1.234375 0.125l-2.9062653 0zm1.015625 -4.421875l1.640625 0q0.67189026 0 0.96876526 -0.09375q0.375 -0.109375 0.5625 -0.375q0.203125 -0.265625 0.203125 -0.671875q0 -0.375 -0.1875 -0.65625q-0.171875 -0.296875 -0.515625 -0.40625q-0.328125 -0.109375 -1.1562653 -0.109375l-1.515625 0l0 2.3125zm0 3.515625l1.8906403 0q0.484375 0 0.6875 -0.03125q0.34375 -0.0625 0.578125 -0.203125q0.234375 -0.15625 0.390625 -0.421875q0.15625 -0.28125 0.15625 -0.65625q0 -0.421875 -0.21875 -0.734375q-0.21875 -0.3125 -0.609375 -0.4375q-0.390625 -0.125 -1.125 -0.125l-1.7500153 0l0 2.609375z" fill-rule="nonzero"/><path fill="#000000" d="m165.10869 77.438545q0 -0.890625 0.1875 -1.4375q0.1875 -0.5625 0.546875 -0.859375q0.375 -0.296875 0.921875 -0.296875q0.40625 0 0.71875 0.171875q0.3125 0.15625 0.515625 0.46875q0.203125 0.3125 0.3125 0.765625q0.109375 0.4375 0.109375 1.1875q0 0.90625 -0.1875 1.453125q-0.171875 0.546875 -0.546875 0.859375q-0.359375 0.296875 -0.921875 0.296875q-0.734375 0 -1.15625 -0.53125q-0.5 -0.640625 -0.5 -2.078125zm0.640625 0q0 1.265625 0.296875 1.6875q0.296875 0.40625 0.71875 0.40625q0.4375 0 0.71875 -0.421875q0.296875 -0.421875 0.296875 -1.671875q0 -1.25 -0.296875 -1.65625q-0.28125 -0.421875 -0.71875 -0.421875q-0.4375 0 -0.6875 0.359375q-0.328125 0.46875 -0.328125 1.71875z" fill-rule="nonzero"/><path fill="#000000" fill-opacity="0.0" d="m169.12204 36.30315l36.094498 0l0 71.62204l-36.094498 0z" fill-rule="evenodd"/><path fill="#000000" d="m182.4198 75.95417l0 -7.625l2.859375 0q0.875 0 1.40625 0.234375q0.53125 0.21875 0.828125 0.703125q0.296875 0.484375 0.296875 1.015625q0 0.484375 -0.265625 0.921875q-0.265625 0.421875 -0.796875 0.6875q0.6875 0.203125 1.0625 0.703125q0.375 0.484375 0.375 1.140625q0 0.546875 -0.234375 1.015625q-0.21875 0.453125 -0.5625 0.703125q-0.328125 0.25 -0.828125 0.375q-0.5 0.125 -1.234375 0.125l-2.90625 0zm1.015625 -4.421875l1.640625 0q0.671875 0 0.96875 -0.09375q0.375 -0.109375 0.5625 -0.375q0.203125 -0.265625 0.203125 -0.671875q0 -0.375 -0.1875 -0.65625q-0.171875 -0.296875 -0.515625 -0.40625q-0.328125 -0.109375 -1.15625 -0.109375l-1.515625 0l0 2.3125zm0 3.515625l1.890625 0q0.484375 0 0.6875 -0.03125q0.34375 -0.0625 0.578125 -0.203125q0.234375 -0.15625 0.390625 -0.421875q0.15625 -0.28125 0.15625 -0.65625q0 -0.421875 -0.21875 -0.734375q-0.21875 -0.3125 -0.609375 -0.4375q-0.390625 -0.125 -1.125 -0.125l-1.75 0l0 2.609375z" fill-rule="nonzero"/><path fill="#000000" d="m191.40244 79.95417l-0.625 0l0 -3.984375q-0.234375 0.21875 -0.609375 0.4375q-0.359375 0.203125 -0.640625 0.3125l0 -0.59375q0.515625 -0.25 0.90625 -0.59375q0.390625 -0.359375 0.5625 -0.6875l0.40625 0l0 5.109375z" fill-rule="nonzero"/><path fill="#000000" fill-opacity="0.0" d="m194.10104 36.48294l36.094498 0l0 71.62205l-36.094498 0z" fill-rule="evenodd"/><path fill="#000000" d="m207.3988 76.133965l0 -7.625l2.859375 0q0.875 0 1.40625 0.234375q0.53125 0.21875 0.828125 0.703125q0.296875 0.484375 0.296875 1.015625q0 0.484375 -0.265625 0.921875q-0.265625 0.421875 -0.796875 0.6875q0.6875 0.203125 1.0625 0.703125q0.375 0.484375 0.375 1.140625q0 0.546875 -0.234375 1.015625q-0.21875 0.453125 -0.5625 0.703125q-0.328125 0.25 -0.828125 0.375q-0.5 0.125 -1.234375 0.125l-2.90625 0zm1.015625 -4.421875l1.640625 0q0.671875 0 0.96875 -0.09375q0.375 -0.109375 0.5625 -0.375q0.203125 -0.265625 0.203125 -0.671875q0 -0.375 -0.1875 -0.65625q-0.171875 -0.296875 -0.515625 -0.40625q-0.328125 -0.109375 -1.15625 -0.109375l-1.515625 0l0 2.3125zm0 3.515625l1.890625 0q0.484375 0 0.6875 -0.03125q0.34375 -0.0625 0.578125 -0.203125q0.234375 -0.15625 0.390625 -0.421875q0.15625 -0.28125 0.15625 -0.65625q0 -0.421875 -0.21875 -0.734375q-0.21875 -0.3125 -0.609375 -0.4375q-0.390625 -0.125 -1.125 -0.125l-1.75 0l0 2.609375z" fill-rule="nonzero"/><path fill="#000000" d="m217.30331 79.540215l0 0.59375l-3.359375 0q-0.015625 -0.21875 0.0625 -0.4375q0.140625 -0.34375 0.421875 -0.671875q0.28125 -0.328125 0.8125 -0.765625q0.828125 -0.6875 1.125 -1.078125q0.296875 -0.40625 0.296875 -0.75q0 -0.375 -0.265625 -0.625q-0.265625 -0.265625 -0.703125 -0.265625q-0.453125 0 -0.71875 0.28125q-0.265625 0.265625 -0.28125 0.734375l-0.640625 -0.0625q0.078125 -0.71875 0.5 -1.09375q0.4375 -0.375 1.15625 -0.375q0.734375 0 1.15625 0.40625q0.4375 0.40625 0.4375 1.0q0 0.3125 -0.125 0.609375q-0.125 0.296875 -0.421875 0.625q-0.28125 0.3125 -0.96875 0.890625q-0.5625 0.46875 -0.71875 0.640625q-0.15625 0.171875 -0.265625 0.34375l2.5 0z" fill-rule="nonzero"/><path fill="#000000" fill-opacity="0.0" d="m216.99081 36.301838l36.094482 0l0 71.62204l-36.094482 0z" fill-rule="evenodd"/><path fill="#000000" d="m230.28857 75.95286l0 -7.625l2.859375 0q0.875 0 1.40625 0.234375q0.53125 0.21875 0.828125 0.703125q0.296875 0.484375 0.296875 1.015625q0 0.484375 -0.265625 0.921875q-0.265625 0.421875 -0.796875 0.6875q0.6875 0.203125 1.0625 0.703125q0.375 0.484375 0.375 1.140625q0 0.546875 -0.234375 1.015625q-0.21875 0.453125 -0.5625 0.703125q-0.328125 0.25 -0.828125 0.375q-0.5 0.125 -1.234375 0.125l-2.90625 0zm1.015625 -4.421875l1.640625 0q0.671875 0 0.96875 -0.09375q0.375 -0.109375 0.5625 -0.375q0.203125 -0.265625 0.203125 -0.671875q0 -0.375 -0.1875 -0.65625q-0.171875 -0.296875 -0.515625 -0.40625q-0.328125 -0.109375 -1.15625 -0.109375l-1.515625 0l0 2.3125zm0 3.515625l1.890625 0q0.484375 0 0.6875 -0.03125q0.34375 -0.0625 0.578125 -0.203125q0.234375 -0.15625 0.390625 -0.421875q0.15625 -0.28125 0.15625 -0.65625q0 -0.421875 -0.21875 -0.734375q-0.21875 -0.3125 -0.609375 -0.4375q-0.390625 -0.125 -1.125 -0.125l-1.75 0l0 2.609375z" fill-rule="nonzero"/><path fill="#000000" d="m236.91183 78.60911l0.625 -0.078125q0.109375 0.53125 0.359375 0.765625q0.265625 0.234375 0.640625 0.234375q0.4375 0 0.734375 -0.296875q0.3125 -0.3125 0.3125 -0.765625q0 -0.4375 -0.28125 -0.71875q-0.28125 -0.28125 -0.71875 -0.28125q-0.171875 0 -0.4375 0.078125l0.0625 -0.546875q0.0625 0 0.109375 0q0.390625 0 0.703125 -0.203125q0.328125 -0.21875 0.328125 -0.640625q0 -0.34375 -0.234375 -0.5625q-0.21875 -0.234375 -0.59375 -0.234375q-0.359375 0 -0.609375 0.234375q-0.234375 0.21875 -0.3125 0.6875l-0.625 -0.125q0.109375 -0.625 0.515625 -0.96875q0.40625 -0.34375 1.015625 -0.34375q0.421875 0 0.765625 0.1875q0.359375 0.171875 0.53125 0.484375q0.1875 0.296875 0.1875 0.65625q0 0.328125 -0.171875 0.59375q-0.171875 0.265625 -0.515625 0.4375q0.4375 0.09375 0.6875 0.421875q0.25 0.328125 0.25 0.828125q0 0.65625 -0.484375 1.125q-0.484375 0.46875 -1.21875 0.46875q-0.671875 0 -1.125 -0.390625q-0.4375 -0.40625 -0.5 -1.046875z" fill-rule="nonzero"/><path fill="#f4cccc" d="m108.60097 227.78143l47.74803 0l0 11.149597l-47.74803 0z" fill-rule="evenodd"/><path stroke="#000000" stroke-width="1.0" stroke-linejoin="round" stroke-linecap="butt" d="m108.60097 227.78143l47.74803 0l0 11.149597l-47.74803 0z" fill-rule="evenodd"/><path fill="#d9ead3" d="m178.659 194.85672l0 44.409454l-12.0 0l0 -44.409454z" fill-rule="evenodd"/><path stroke="#000000" stroke-width="1.0" stroke-linejoin="round" stroke-linecap="butt" d="m178.659 194.85672l0 44.409454l-12.0 0l0 -44.409454z" fill-rule="evenodd"/><path fill="#cfe2f3" d="m196.26146 194.40276l47.74803 0l0 44.62993l-47.74803 0z" fill-rule="evenodd"/><path stroke="#000000" stroke-width="1.0" stroke-linejoin="round" stroke-linecap="butt" d="m196.26146 194.40276l47.74803 0l0 44.62993l-47.74803 0z" fill-rule="evenodd"/><path fill="#cfe2f3" d="m232.02995 227.90834l12.0 0l0 11.149612l-12.0 0z" fill-rule="evenodd"/><path stroke="#000000" stroke-width="1.0" stroke-linejoin="round" stroke-linecap="butt" d="m232.02995 227.90834l12.0 0l0 11.149612l-12.0 0z" fill-rule="evenodd"/><path fill="#cfe2f3" d="m196.26146 227.90834l12.0 0l0 11.149612l-12.0 0z" fill-rule="evenodd"/><path stroke="#000000" stroke-width="1.0" stroke-linejoin="round" stroke-linecap="butt" d="m196.26146 227.90834l12.0 0l0 11.149612l-12.0 0z" fill-rule="evenodd"/><path fill="#cfe2f3" d="m220.24715 227.90834l12.0 0l0 11.149612l-12.0 0z" fill-rule="evenodd"/><path stroke="#000000" stroke-width="1.0" stroke-linejoin="round" stroke-linecap="butt" d="m220.24715 227.90834l12.0 0l0 11.149612l-12.0 0z" fill-rule="evenodd"/><path fill="#cfe2f3" d="m208.2543 227.90834l12.0 0l0 11.149612l-12.0 0z" fill-rule="evenodd"/><path stroke="#000000" stroke-width="1.0" stroke-linejoin="round" stroke-linecap="butt" d="m208.2543 227.90834l12.0 0l0 11.149612l-12.0 0z" fill-rule="evenodd"/><path fill="#cfe2f3" d="m232.02995 216.75934l12.0 0l0 11.149612l-12.0 0z" fill-rule="evenodd"/><path stroke="#000000" stroke-width="1.0" stroke-linejoin="round" stroke-linecap="butt" d="m232.02995 216.75934l12.0 0l0 11.149612l-12.0 0z" fill-rule="evenodd"/><path fill="#cfe2f3" d="m196.26146 216.75934l12.0 0l0 11.149612l-12.0 0z" fill-rule="evenodd"/><path stroke="#000000" stroke-width="1.0" stroke-linejoin="round" stroke-linecap="butt" d="m196.26146 216.75934l12.0 0l0 11.149612l-12.0 0z" fill-rule="evenodd"/><path fill="#cfe2f3" d="m220.24715 216.75934l12.0 0l0 11.149612l-12.0 0z" fill-rule="evenodd"/><path stroke="#000000" stroke-width="1.0" stroke-linejoin="round" stroke-linecap="butt" d="m220.24715 216.75934l12.0 0l0 11.149612l-12.0 0z" fill-rule="evenodd"/><path fill="#cfe2f3" d="m208.2543 216.75934l12.0 0l0 11.149612l-12.0 0z" fill-rule="evenodd"/><path stroke="#000000" stroke-width="1.0" stroke-linejoin="round" stroke-linecap="butt" d="m208.2543 216.75934l12.0 0l0 11.149612l-12.0 0z" fill-rule="evenodd"/><path fill="#cfe2f3" d="m232.02995 205.55176l12.0 0l0 11.149612l-12.0 0z" fill-rule="evenodd"/><path stroke="#000000" stroke-width="1.0" stroke-linejoin="round" stroke-linecap="butt" d="m232.02995 205.55176l12.0 0l0 11.149612l-12.0 0z" fill-rule="evenodd"/><path fill="#cfe2f3" d="m196.26146 205.55176l12.0 0l0 11.149612l-12.0 0z" fill-rule="evenodd"/><path stroke="#000000" stroke-width="1.0" stroke-linejoin="round" stroke-linecap="butt" d="m196.26146 205.55176l12.0 0l0 11.149612l-12.0 0z" fill-rule="evenodd"/><path fill="#cfe2f3" d="m220.24715 205.55176l12.0 0l0 11.149612l-12.0 0z" fill-rule="evenodd"/><path stroke="#000000" stroke-width="1.0" stroke-linejoin="round" stroke-linecap="butt" d="m220.24715 205.55176l12.0 0l0 11.149612l-12.0 0z" fill-rule="evenodd"/><path fill="#cfe2f3" d="m208.2543 205.55176l12.0 0l0 11.149612l-12.0 0z" fill-rule="evenodd"/><path stroke="#000000" stroke-width="1.0" stroke-linejoin="round" stroke-linecap="butt" d="m208.2543 205.55176l12.0 0l0 11.149612l-12.0 0z" fill-rule="evenodd"/><path fill="#cfe2f3" d="m232.02995 194.40276l12.0 0l0 11.149612l-12.0 0z" fill-rule="evenodd"/><path stroke="#000000" stroke-width="1.0" stroke-linejoin="round" stroke-linecap="butt" d="m232.02995 194.40276l12.0 0l0 11.149612l-12.0 0z" fill-rule="evenodd"/><path fill="#cfe2f3" d="m196.26146 194.40276l12.0 0l0 11.149612l-12.0 0z" fill-rule="evenodd"/><path stroke="#000000" stroke-width="1.0" stroke-linejoin="round" stroke-linecap="butt" d="m196.26146 194.40276l12.0 0l0 11.149612l-12.0 0z" fill-rule="evenodd"/><path fill="#cfe2f3" d="m220.24715 194.40276l12.0 0l0 11.149612l-12.0 0z" fill-rule="evenodd"/><path stroke="#000000" stroke-width="1.0" stroke-linejoin="round" stroke-linecap="butt" d="m220.24715 194.40276l12.0 0l0 11.149612l-12.0 0z" fill-rule="evenodd"/><path fill="#4a86e8" d="m208.2543 194.40276l12.0 0l0 11.149612l-12.0 0z" fill-rule="evenodd"/><path stroke="#000000" stroke-width="1.0" stroke-linejoin="round" stroke-linecap="butt" d="m208.2543 194.40276l12.0 0l0 11.149612l-12.0 0z" fill-rule="evenodd"/><path fill="#f4cccc" d="m108.60097 282.1804l47.74803 0l0 11.149597l-47.74803 0z" fill-rule="evenodd"/><path stroke="#000000" stroke-width="1.0" stroke-linejoin="round" stroke-linecap="butt" d="m108.60097 282.1804l47.74803 0l0 11.149597l-47.74803 0z" fill-rule="evenodd"/><path fill="#d9ead3" d="m178.659 249.25568l0 44.409454l-12.0 0l0 -44.409454z" fill-rule="evenodd"/><path stroke="#000000" stroke-width="1.0" stroke-linejoin="round" stroke-linecap="butt" d="m178.659 249.25568l0 44.409454l-12.0 0l0 -44.409454z" fill-rule="evenodd"/><path fill="#cfe2f3" d="m196.26146 248.80171l47.74803 0l0 44.62993l-47.74803 0z" fill-rule="evenodd"/><path stroke="#000000" stroke-width="1.0" stroke-linejoin="round" stroke-linecap="butt" d="m196.26146 248.80171l47.74803 0l0 44.62993l-47.74803 0z" fill-rule="evenodd"/><path fill="#4a86e8" d="m232.02995 282.30728l12.0 0l0 11.149628l-12.0 0z" fill-rule="evenodd"/><path stroke="#000000" stroke-width="1.0" stroke-linejoin="round" stroke-linecap="butt" d="m232.02995 282.30728l12.0 0l0 11.149628l-12.0 0z" fill-rule="evenodd"/><path fill="#cfe2f3" d="m196.26146 282.30728l12.0 0l0 11.149628l-12.0 0z" fill-rule="evenodd"/><path stroke="#000000" stroke-width="1.0" stroke-linejoin="round" stroke-linecap="butt" d="m196.26146 282.30728l12.0 0l0 11.149628l-12.0 0z" fill-rule="evenodd"/><path fill="#cfe2f3" d="m220.24715 282.30728l12.0 0l0 11.149628l-12.0 0z" fill-rule="evenodd"/><path stroke="#000000" stroke-width="1.0" stroke-linejoin="round" stroke-linecap="butt" d="m220.24715 282.30728l12.0 0l0 11.149628l-12.0 0z" fill-rule="evenodd"/><path fill="#cfe2f3" d="m208.2543 282.30728l12.0 0l0 11.149628l-12.0 0z" fill-rule="evenodd"/><path stroke="#000000" stroke-width="1.0" stroke-linejoin="round" stroke-linecap="butt" d="m208.2543 282.30728l12.0 0l0 11.149628l-12.0 0z" fill-rule="evenodd"/><path fill="#cfe2f3" d="m232.02995 271.1583l12.0 0l0 11.149597l-12.0 0z" fill-rule="evenodd"/><path stroke="#000000" stroke-width="1.0" stroke-linejoin="round" stroke-linecap="butt" d="m232.02995 271.1583l12.0 0l0 11.149597l-12.0 0z" fill-rule="evenodd"/><path fill="#cfe2f3" d="m196.26146 271.1583l12.0 0l0 11.149597l-12.0 0z" fill-rule="evenodd"/><path stroke="#000000" stroke-width="1.0" stroke-linejoin="round" stroke-linecap="butt" d="m196.26146 271.1583l12.0 0l0 11.149597l-12.0 0z" fill-rule="evenodd"/><path fill="#cfe2f3" d="m220.24715 271.1583l12.0 0l0 11.149597l-12.0 0z" fill-rule="evenodd"/><path stroke="#000000" stroke-width="1.0" stroke-linejoin="round" stroke-linecap="butt" d="m220.24715 271.1583l12.0 0l0 11.149597l-12.0 0z" fill-rule="evenodd"/><path fill="#cfe2f3" d="m208.2543 271.1583l12.0 0l0 11.149597l-12.0 0z" fill-rule="evenodd"/><path stroke="#000000" stroke-width="1.0" stroke-linejoin="round" stroke-linecap="butt" d="m208.2543 271.1583l12.0 0l0 11.149597l-12.0 0z" fill-rule="evenodd"/><path fill="#cfe2f3" d="m232.02995 259.9507l12.0 0l0 11.149597l-12.0 0z" fill-rule="evenodd"/><path stroke="#000000" stroke-width="1.0" stroke-linejoin="round" stroke-linecap="butt" d="m232.02995 259.9507l12.0 0l0 11.149597l-12.0 0z" fill-rule="evenodd"/><path fill="#cfe2f3" d="m196.26146 259.9507l12.0 0l0 11.149597l-12.0 0z" fill-rule="evenodd"/><path stroke="#000000" stroke-width="1.0" stroke-linejoin="round" stroke-linecap="butt" d="m196.26146 259.9507l12.0 0l0 11.149597l-12.0 0z" fill-rule="evenodd"/><path fill="#cfe2f3" d="m220.24715 259.9507l12.0 0l0 11.149597l-12.0 0z" fill-rule="evenodd"/><path stroke="#000000" stroke-width="1.0" stroke-linejoin="round" stroke-linecap="butt" d="m220.24715 259.9507l12.0 0l0 11.149597l-12.0 0z" fill-rule="evenodd"/><path fill="#cfe2f3" d="m208.2543 259.9507l12.0 0l0 11.149597l-12.0 0z" fill-rule="evenodd"/><path stroke="#000000" stroke-width="1.0" stroke-linejoin="round" stroke-linecap="butt" d="m208.2543 259.9507l12.0 0l0 11.149597l-12.0 0z" fill-rule="evenodd"/><path fill="#cfe2f3" d="m232.02995 248.80171l12.0 0l0 11.149612l-12.0 0z" fill-rule="evenodd"/><path stroke="#000000" stroke-width="1.0" stroke-linejoin="round" stroke-linecap="butt" d="m232.02995 248.80171l12.0 0l0 11.149612l-12.0 0z" fill-rule="evenodd"/><path fill="#cfe2f3" d="m196.26146 248.80171l12.0 0l0 11.149612l-12.0 0z" fill-rule="evenodd"/><path stroke="#000000" stroke-width="1.0" stroke-linejoin="round" stroke-linecap="butt" d="m196.26146 248.80171l12.0 0l0 11.149612l-12.0 0z" fill-rule="evenodd"/><path fill="#cfe2f3" d="m220.24715 248.80171l12.0 0l0 11.149612l-12.0 0z" fill-rule="evenodd"/><path stroke="#000000" stroke-width="1.0" stroke-linejoin="round" stroke-linecap="butt" d="m220.24715 248.80171l12.0 0l0 11.149612l-12.0 0z" fill-rule="evenodd"/><path fill="#cfe2f3" d="m208.2543 248.80171l12.0 0l0 11.149612l-12.0 0z" fill-rule="evenodd"/><path stroke="#000000" stroke-width="1.0" stroke-linejoin="round" stroke-linecap="butt" d="m208.2543 248.80171l12.0 0l0 11.149612l-12.0 0z" fill-rule="evenodd"/><path fill="#000000" fill-opacity="0.0" d="m108.50088 170.41995l47.74804 0l0 17.984253l-47.74804 0z" fill-rule="evenodd"/><path fill="#000000" d="m128.9055 181.81207l1.828125 -4.765625l0.6875 0l1.953125 4.765625l-0.71875 0l-0.5625 -1.4375l-1.984375 0l-0.53125 1.4375l-0.671875 0zm1.375 -1.953125l1.625 0l-0.5 -1.328125q-0.234375 -0.59375 -0.34375 -0.984375q-0.09375 0.453125 -0.25 0.90625l-0.53125 1.40625z" fill-rule="nonzero"/><path fill="#000000" d="m133.5483 182.74957q0 -0.5625 0.109375 -0.90625q0.125 -0.34375 0.34375 -0.53125q0.234375 -0.1875 0.578125 -0.1875q0.25 0 0.4375 0.109375q0.203125 0.09375 0.328125 0.296875q0.125 0.1875 0.1875 0.46875q0.078125 0.28125 0.078125 0.75q0 0.5625 -0.109375 0.90625q-0.109375 0.328125 -0.34375 0.515625q-0.234375 0.1875 -0.578125 0.1875q-0.453125 0 -0.71875 -0.328125q-0.3125 -0.390625 -0.3125 -1.28125zm0.390625 0q0 0.78125 0.1875 1.046875q0.1875 0.25 0.453125 0.25q0.265625 0 0.453125 -0.25q0.1875 -0.265625 0.1875 -1.046875q0 -0.78125 -0.1875 -1.03125q-0.1875 -0.265625 -0.453125 -0.265625q-0.265625 0 -0.4375 0.21875q-0.203125 0.296875 -0.203125 1.078125z" fill-rule="nonzero"/><path fill="#000000" fill-opacity="0.0" d="m108.50088 224.59186l47.74804 0l0 17.984253l-47.74804 0z" fill-rule="evenodd"/><path fill="#000000" d="m128.9055 235.984l1.828125 -4.765625l0.6875 0l1.953125 4.765625l-0.71875 0l-0.5625 -1.4375l-1.984375 0l-0.53125 1.4375l-0.671875 0zm1.375 -1.953125l1.625 0l-0.5 -1.328125q-0.234375 -0.59375 -0.34375 -0.984375q-0.09375 0.453125 -0.25 0.90625l-0.53125 1.40625z" fill-rule="nonzero"/><path fill="#000000" d="m133.5483 236.9215q0 -0.5625 0.109375 -0.90625q0.125 -0.34375 0.34375 -0.53125q0.234375 -0.1875 0.578125 -0.1875q0.25 0 0.4375 0.109375q0.203125 0.09375 0.328125 0.296875q0.125 0.1875 0.1875 0.46875q0.078125 0.28125 0.078125 0.75q0 0.5625 -0.109375 0.90625q-0.109375 0.328125 -0.34375 0.515625q-0.234375 0.1875 -0.578125 0.1875q-0.453125 0 -0.71875 -0.328125q-0.3125 -0.390625 -0.3125 -1.28125zm0.390625 0q0 0.78125 0.1875 1.046875q0.1875 0.25 0.453125 0.25q0.265625 0 0.453125 -0.25q0.1875 -0.265625 0.1875 -1.046875q0 -0.78125 -0.1875 -1.03125q-0.1875 -0.265625 -0.453125 -0.265625q-0.265625 0 -0.4375 0.21875q-0.203125 0.296875 -0.203125 1.078125z" fill-rule="nonzero"/><path fill="#000000" fill-opacity="0.0" d="m108.50088 278.76642l47.74804 0l0 17.984253l-47.74804 0z" fill-rule="evenodd"/><path fill="#000000" d="m128.9055 290.15854l1.828125 -4.765625l0.6875 0l1.953125 4.765625l-0.71875 0l-0.5625 -1.4375l-1.984375 0l-0.53125 1.4375l-0.671875 0zm1.375 -1.953125l1.625 0l-0.5 -1.328125q-0.234375 -0.59375 -0.34375 -0.984375q-0.09375 0.453125 -0.25 0.90625l-0.53125 1.40625z" fill-rule="nonzero"/><path fill="#000000" d="m133.5483 291.8148l0.390625 -0.046875q0.0625 0.328125 0.21875 0.484375q0.171875 0.140625 0.40625 0.140625q0.265625 0 0.453125 -0.1875q0.203125 -0.1875 0.203125 -0.46875q0 -0.28125 -0.1875 -0.453125q-0.171875 -0.171875 -0.4375 -0.171875q-0.109375 0 -0.28125 0.046875l0.046875 -0.34375q0.03125 0 0.0625 0q0.25 0 0.4375 -0.125q0.203125 -0.140625 0.203125 -0.40625q0 -0.21875 -0.140625 -0.359375q-0.140625 -0.140625 -0.375 -0.140625q-0.21875 0 -0.375 0.15625q-0.15625 0.140625 -0.203125 0.421875l-0.390625 -0.0625q0.078125 -0.40625 0.328125 -0.609375q0.25 -0.21875 0.640625 -0.21875q0.25 0 0.46875 0.109375q0.21875 0.109375 0.328125 0.3125q0.125 0.1875 0.125 0.40625q0 0.203125 -0.109375 0.375q-0.109375 0.171875 -0.328125 0.265625q0.28125 0.0625 0.4375 0.265625q0.15625 0.203125 0.15625 0.515625q0 0.421875 -0.3125 0.71875q-0.296875 0.28125 -0.75 0.28125q-0.421875 0 -0.703125 -0.25q-0.28125 -0.25 -0.3125 -0.65625z" fill-rule="nonzero"/><path fill="#000000" fill-opacity="0.0" d="m158.31232 140.89764l28.692902 0l0 43.96849l-28.692902 0z" fill-rule="evenodd"/><path fill="#000000" d="m169.68938 165.28189l0 -4.765625l1.796875 0q0.546875 0 0.875 0.15625q0.328125 0.140625 0.515625 0.4375q0.1875 0.296875 0.1875 0.625q0 0.3125 -0.171875 0.578125q-0.171875 0.265625 -0.5 0.4375q0.4375 0.125 0.65625 0.4375q0.234375 0.296875 0.234375 0.71875q0 0.328125 -0.140625 0.625q-0.140625 0.28125 -0.34375 0.4375q-0.203125 0.15625 -0.515625 0.234375q-0.3125 0.078125 -0.78125 0.078125l-1.8125 0zm0.640625 -2.765625l1.015625 0q0.421875 0 0.609375 -0.046875q0.234375 -0.078125 0.359375 -0.234375q0.125 -0.171875 0.125 -0.421875q0 -0.234375 -0.125 -0.40625q-0.109375 -0.1875 -0.328125 -0.25q-0.203125 -0.078125 -0.703125 -0.078125l-0.953125 0l0 1.4375zm0 2.203125l1.171875 0q0.3125 0 0.4375 -0.015625q0.21875 -0.046875 0.359375 -0.140625q0.15625 -0.09375 0.25 -0.265625q0.09375 -0.171875 0.09375 -0.390625q0 -0.265625 -0.140625 -0.46875q-0.140625 -0.203125 -0.390625 -0.28125q-0.234375 -0.078125 -0.6875 -0.078125l-1.09375 0l0 1.640625z" fill-rule="nonzero"/><path fill="#000000" d="m173.83217 166.21939q0 -0.5625 0.109375 -0.90625q0.125 -0.34375 0.34375 -0.53125q0.234375 -0.1875 0.578125 -0.1875q0.25 0 0.4375 0.109375q0.203125 0.09375 0.328125 0.296875q0.125 0.1875 0.1875 0.46875q0.078125 0.28125 0.078125 0.75q0 0.5625 -0.109375 0.90625q-0.109375 0.328125 -0.34375 0.515625q-0.234375 0.1875 -0.578125 0.1875q-0.453125 0 -0.71875 -0.328125q-0.3125 -0.390625 -0.3125 -1.28125zm0.390625 0q0 0.78125 0.1875 1.046875q0.1875 0.25 0.453125 0.25q0.265625 0 0.453125 -0.25q0.1875 -0.265625 0.1875 -1.046875q0 -0.78125 -0.1875 -1.03125q-0.1875 -0.265625 -0.453125 -0.265625q-0.265625 0 -0.4375 0.21875q-0.203125 0.296875 -0.203125 1.078125z" fill-rule="nonzero"/><path fill="#000000" fill-opacity="0.0" d="m158.31232 195.07611l28.692902 0l0 43.968506l-28.692902 0z" fill-rule="evenodd"/><path fill="#000000" d="m169.68938 219.46037l0 -4.765625l1.796875 0q0.546875 0 0.875 0.15625q0.328125 0.140625 0.515625 0.4375q0.1875 0.296875 0.1875 0.625q0 0.3125 -0.171875 0.578125q-0.171875 0.265625 -0.5 0.4375q0.4375 0.125 0.65625 0.4375q0.234375 0.296875 0.234375 0.71875q0 0.328125 -0.140625 0.625q-0.140625 0.28125 -0.34375 0.4375q-0.203125 0.15625 -0.515625 0.234375q-0.3125 0.078125 -0.78125 0.078125l-1.8125 0zm0.640625 -2.765625l1.015625 0q0.421875 0 0.609375 -0.046875q0.234375 -0.078125 0.359375 -0.234375q0.125 -0.171875 0.125 -0.421875q0 -0.234375 -0.125 -0.40625q-0.109375 -0.1875 -0.328125 -0.25q-0.203125 -0.078125 -0.703125 -0.078125l-0.953125 0l0 1.4375zm0 2.203125l1.171875 0q0.3125 0 0.4375 -0.015625q0.21875 -0.046875 0.359375 -0.140625q0.15625 -0.09375 0.25 -0.265625q0.09375 -0.171875 0.09375 -0.390625q0 -0.265625 -0.140625 -0.46875q-0.140625 -0.203125 -0.390625 -0.28125q-0.234375 -0.078125 -0.6875 -0.078125l-1.09375 0l0 1.640625z" fill-rule="nonzero"/><path fill="#000000" d="m175.30092 221.96037l-0.390625 0l0 -2.484375q-0.140625 0.140625 -0.375 0.28125q-0.21875 0.125 -0.40625 0.1875l0 -0.375q0.328125 -0.15625 0.5625 -0.375q0.25 -0.21875 0.359375 -0.421875l0.25 0l0 3.1875z" fill-rule="nonzero"/><path fill="#000000" fill-opacity="0.0" d="m158.31232 249.2546l28.692902 0l0 43.96849l-28.692902 0z" fill-rule="evenodd"/><path fill="#000000" d="m169.68938 273.63885l0 -4.765625l1.796875 0q0.546875 0 0.875 0.15625q0.328125 0.140625 0.515625 0.4375q0.1875 0.296875 0.1875 0.625q0 0.3125 -0.171875 0.578125q-0.171875 0.265625 -0.5 0.4375q0.4375 0.125 0.65625 0.4375q0.234375 0.296875 0.234375 0.71875q0 0.328125 -0.140625 0.625q-0.140625 0.28125 -0.34375 0.4375q-0.203125 0.15625 -0.515625 0.234375q-0.3125 0.078125 -0.78125 0.078125l-1.8125 0zm0.640625 -2.765625l1.015625 0q0.421875 0 0.609375 -0.046875q0.234375 -0.078125 0.359375 -0.234375q0.125 -0.171875 0.125 -0.421875q0 -0.234375 -0.125 -0.40625q-0.109375 -0.1875 -0.328125 -0.25q-0.203125 -0.078125 -0.703125 -0.078125l-0.953125 0l0 1.4375zm0 2.203125l1.171875 0q0.3125 0 0.4375 -0.015625q0.21875 -0.046875 0.359375 -0.140625q0.15625 -0.09375 0.25 -0.265625q0.09375 -0.171875 0.09375 -0.390625q0 -0.265625 -0.140625 -0.46875q-0.140625 -0.203125 -0.390625 -0.28125q-0.234375 -0.078125 -0.6875 -0.078125l-1.09375 0l0 1.640625z" fill-rule="nonzero"/><path fill="#000000" d="m173.83217 275.2951l0.390625 -0.046875q0.0625 0.328125 0.21875 0.484375q0.171875 0.140625 0.40625 0.140625q0.265625 0 0.453125 -0.1875q0.203125 -0.1875 0.203125 -0.46875q0 -0.28125 -0.1875 -0.453125q-0.171875 -0.171875 -0.4375 -0.171875q-0.109375 0 -0.28125 0.046875l0.046875 -0.34375q0.03125 0 0.0625 0q0.25 0 0.4375 -0.125q0.203125 -0.140625 0.203125 -0.40625q0 -0.21875 -0.140625 -0.359375q-0.140625 -0.140625 -0.375 -0.140625q-0.21875 0 -0.375 0.15625q-0.15625 0.140625 -0.203125 0.421875l-0.390625 -0.0625q0.078125 -0.40625 0.328125 -0.609375q0.25 -0.21875 0.640625 -0.21875q0.25 0 0.46875 0.109375q0.21875 0.109375 0.328125 0.3125q0.125 0.1875 0.125 0.40625q0 0.203125 -0.109375 0.375q-0.109375 0.171875 -0.328125 0.265625q0.28125 0.0625 0.4375 0.265625q0.15625 0.203125 0.15625 0.515625q0 0.421875 -0.3125 0.71875q-0.296875 0.28125 -0.75 0.28125q-0.421875 0 -0.703125 -0.25q-0.28125 -0.25 -0.3125 -0.65625z" fill-rule="nonzero"/><path fill="#000000" fill-opacity="0.0" d="m12.721785 140.68767l183.74803 0l0 43.968506l-183.74803 0z" fill-rule="evenodd"/><path fill="#000000" d="m23.159285 169.39192l0 -13.359375l5.046875 0q1.328125 0 2.03125 0.125q0.96875 0.171875 1.640625 0.640625q0.6718769 0.453125 1.0781269 1.28125q0.40625 0.828125 0.40625 1.828125q0 1.703125 -1.09375 2.890625q-1.0781269 1.171875 -3.921877 1.171875l-3.421875 0l0 5.421875l-1.765625 0zm1.765625 -7.0l3.453125 0q1.71875 0 2.4375 -0.640625q0.71875 -0.640625 0.71875 -1.796875q0 -0.84375 -0.421875 -1.4375q-0.421875 -0.59375 -1.125 -0.78125q-0.4375 -0.125 -1.640625 -0.125l-3.421875 0l0 4.78125zm10.974825 7.0l0 -13.359375l1.765625 0l0 13.359375l-1.765625 0zm4.886429 0l0 -13.359375l4.609375 0q1.546875 0 2.375 0.203125q1.140625 0.25 1.953125 0.953125q1.0625 0.890625 1.578125 2.28125q0.53125 1.390625 0.53125 3.171875q0 1.515625 -0.359375 2.703125q-0.359375 1.171875 -0.921875 1.9375q-0.546875 0.765625 -1.203125 1.21875q-0.65625 0.4375 -1.59375 0.671875q-0.9375 0.21875 -2.140625 0.21875l-4.828125 0zm1.765625 -1.578125l2.859375 0q1.3125 0 2.0625 -0.234375q0.75 -0.25 1.203125 -0.703125q0.625 -0.625 0.96875 -1.6875q0.359375 -1.0625 0.359375 -2.578125q0 -2.09375 -0.6875 -3.21875q-0.6875 -1.125 -1.671875 -1.5q-0.703125 -0.28125 -2.28125 -0.28125l-2.8125 0l0 10.203125zm25.3125 -6.28125l-8.828125 0l0 -1.515625l8.828125 0l0 1.515625zm0 4.0625l-8.828125 0l0 -1.53125l8.828125 0l0 1.53125zm7.0001373 -2.796875q0 -2.359375 0.484375 -3.796875q0.484375 -1.453125 1.4375 -2.234375q0.96875 -0.78125 2.421875 -0.78125q1.078125 0 1.890625 0.4375q0.8125 0.421875 1.328125 1.25q0.53125 0.8125 0.828125 1.984375q0.3125 1.15625 0.3125 3.140625q0 2.359375 -0.484375 3.8125q-0.484375 1.4375 -1.453125 2.234375q-0.953125 0.78125 -2.421875 0.78125q-1.921875 0 -3.03125 -1.390625q-1.3125 -1.671875 -1.3125 -5.4375zm1.671875 0q0 3.296875 0.765625 4.390625q0.78125 1.078125 1.90625 1.078125q1.140625 0 1.90625 -1.09375q0.765625 -1.09375 0.765625 -4.375q0 -3.296875 -0.765625 -4.375q-0.765625 -1.078125 -1.921875 -1.078125q-1.125 0 -1.796875 0.953125q-0.859375 1.21875 -0.859375 4.5z" fill-rule="nonzero"/><path fill="#000000" fill-opacity="0.0" d="m12.732284 194.7454l183.74803 0l0 43.968506l-183.74803 0z" fill-rule="evenodd"/><path fill="#000000" d="m23.169783 223.44966l0 -13.359375l5.046875 0q1.328125 0 2.03125 0.125q0.96875 0.171875 1.640625 0.640625q0.6718769 0.453125 1.0781269 1.28125q0.40625 0.828125 0.40625 1.828125q0 1.703125 -1.09375 2.890625q-1.0781269 1.171875 -3.921877 1.171875l-3.421875 0l0 5.421875l-1.765625 0zm1.765625 -7.0l3.453125 0q1.71875 0 2.4375 -0.640625q0.71875 -0.640625 0.71875 -1.796875q0 -0.84375 -0.421875 -1.4375q-0.421875 -0.59375 -1.125 -0.78125q-0.4375 -0.125 -1.640625 -0.125l-3.421875 0l0 4.78125zm10.974825 7.0l0 -13.359375l1.765625 0l0 13.359375l-1.765625 0zm4.886429 0l0 -13.359375l4.609375 0q1.546875 0 2.375 0.203125q1.140625 0.25 1.953125 0.953125q1.0625 0.890625 1.578125 2.28125q0.53125 1.390625 0.53125 3.171875q0 1.515625 -0.359375 2.703125q-0.359375 1.171875 -0.921875 1.9375q-0.546875 0.765625 -1.203125 1.21875q-0.65625 0.4375 -1.59375 0.671875q-0.9375 0.21875 -2.140625 0.21875l-4.828125 0zm1.765625 -1.578125l2.859375 0q1.3125 0 2.0625 -0.234375q0.75 -0.25 1.203125 -0.703125q0.625 -0.625 0.96875 -1.6875q0.359375 -1.0625 0.359375 -2.578125q0 -2.09375 -0.6875 -3.21875q-0.6875 -1.125 -1.671875 -1.5q-0.703125 -0.28125 -2.28125 -0.28125l-2.8125 0l0 10.203125zm25.3125 -6.28125l-8.828125 0l0 -1.515625l8.828125 0l0 1.515625zm0 4.0625l-8.828125 0l0 -1.53125l8.828125 0l0 1.53125zm13.172012 3.796875l-1.640625 0l0 -10.453125q-0.59375 0.5625 -1.5625 1.140625q-0.953125 0.5625 -1.71875 0.84375l0 -1.59375q1.375 -0.640625 2.40625 -1.5625q1.03125 -0.921875 1.453125 -1.78125l1.0625 0l0 13.40625z" fill-rule="nonzero"/><path fill="#000000" fill-opacity="0.0" d="m12.708661 249.2546l183.74803 0l0 43.96849l-183.74803 0z" fill-rule="evenodd"/><path fill="#000000" d="m23.146162 277.95883l0 -13.359375l5.046875 0q1.328125 0 2.03125 0.125q0.96875 0.171875 1.640625 0.640625q0.6718731 0.453125 1.0781231 1.28125q0.40625 0.828125 0.40625 1.828125q0 1.703125 -1.09375 2.890625q-1.0781231 1.171875 -3.921873 1.171875l-3.421875 0l0 5.421875l-1.765625 0zm1.765625 -7.0l3.453125 0q1.71875 0 2.4375 -0.640625q0.71875 -0.640625 0.71875 -1.796875q0 -0.84375 -0.421875 -1.4375q-0.421875 -0.59375 -1.125 -0.78125q-0.4375 -0.125 -1.640625 -0.125l-3.421875 0l0 4.78125zm10.974821 7.0l0 -13.359375l1.765625 0l0 13.359375l-1.765625 0zm4.886429 0l0 -13.359375l4.609375 0q1.546875 0 2.375 0.203125q1.140625 0.25 1.953125 0.953125q1.0625 0.890625 1.578125 2.28125q0.53125 1.390625 0.53125 3.171875q0 1.515625 -0.359375 2.703125q-0.359375 1.171875 -0.921875 1.9375q-0.546875 0.765625 -1.203125 1.21875q-0.65625 0.4375 -1.59375 0.671875q-0.9375 0.21875 -2.140625 0.21875l-4.828125 0zm1.765625 -1.578125l2.859375 0q1.3125 0 2.0625 -0.234375q0.75 -0.25 1.203125 -0.703125q0.625 -0.625 0.96875 -1.6875q0.359375 -1.0625 0.359375 -2.578125q0 -2.09375 -0.6875 -3.21875q-0.6875 -1.125 -1.671875 -1.5q-0.703125 -0.28125 -2.28125 -0.28125l-2.8125 0l0 10.203125zm25.312504 -6.28125l-8.828129 0l0 -1.515625l8.828129 0l0 1.515625zm0 4.0625l-8.828129 0l0 -1.53125l8.828129 0l0 1.53125zm13.172012 3.796875l-1.640625 0l0 -10.453125q-0.59375 0.5625 -1.5625 1.140625q-0.953125 0.5625 -1.71875 0.84375l0 -1.59375q1.375 -0.640625 2.40625 -1.5625q1.03125 -0.921875 1.453125 -1.78125l1.0625 0l0 13.40625zm4.203842 -3.5l1.71875 -0.140625q0.1875 1.25 0.875 1.890625q0.703125 0.625 1.6875 0.625q1.1875 0 2.0 -0.890625q0.828125 -0.890625 0.828125 -2.359375q0 -1.40625 -0.796875 -2.21875q-0.78125 -0.8125 -2.0625 -0.8125q-0.78125 0 -1.421875 0.359375q-0.640625 0.359375 -1.0 0.9375l-1.546875 -0.203125l1.296875 -6.859375l6.640625 0l0 1.5625l-5.328125 0l-0.71875 3.59375q1.203125 -0.84375 2.515625 -0.84375q1.75 0 2.953125 1.21875q1.203125 1.203125 1.203125 3.109375q0 1.8125 -1.046875 3.140625q-1.296875 1.625 -3.515625 1.625q-1.8125 0 -2.96875 -1.015625q-1.15625 -1.03125 -1.3125 -2.71875z" fill-rule="nonzero"/></g></svg>