<svg version="1.1" viewBox="0.0 0.0 512.0 165.33333333333334" fill="none" stroke="none" stroke-linecap="square" stroke-miterlimit="10" xmlns:xlink="http://www.w3.org/1999/xlink" xmlns="http://www.w3.org/2000/svg"><clipPath id="p.0"><path d="m0 0l512.0 0l0 165.33333l-512.0 0l0 -165.33333z" clip-rule="nonzero"/></clipPath><g clip-path="url(#p.0)"><path fill="#000000" fill-opacity="0.0" d="m0 0l512.0 0l0 165.33333l-512.0 0z" fill-rule="evenodd"/><path fill="#000000" fill-opacity="0.0" d="m26.338583 18.165354l71.62205 0l0 17.984251l-71.62205 0z" fill-rule="evenodd"/><path fill="#000000" d="m56.188667 32.91748l2.390625 -11.453125l1.890625 0l1.15625 7.421875q0.21875 1.453125 0.296875 2.796875q0.46875 -1.15625 1.59375 -3.125l4.015625 -7.09375l1.90625 0l-2.390625 11.453125l-1.5 0l1.1875 -5.578125q0.421875 -1.921875 1.1875 -4.328125q-0.484375 1.125 -1.21875 2.40625l-4.265625 7.5l-1.46875 0l-1.15625 -7.34375q-0.15625 -1.015625 -0.21875 -2.359375q-0.203125 1.515625 -0.390625 2.390625l-1.515625 7.3125l-1.5 0z" fill-rule="nonzero"/><path fill="#cc0000" d="m216.57283 107.68044l0 -71.62204l17.984253 0l0 71.62204z" fill-rule="evenodd"/><path stroke="#000000" stroke-width="1.0" stroke-linejoin="round" stroke-linecap="butt" d="m216.57283 107.68044l0 -71.62204l17.984253 0l0 71.62204z" fill-rule="evenodd"/><path fill="#e06666" d="m192.63846 107.68044l0 -71.62204l17.984238 0l0 71.62204z" fill-rule="evenodd"/><path stroke="#000000" stroke-width="1.0" stroke-linejoin="round" stroke-linecap="butt" d="m192.63846 107.68044l0 -71.62204l17.984238 0l0 71.62204z" fill-rule="evenodd"/><path fill="#ea9999" d="m168.70407 107.68044l0 -71.62204l17.984253 0l0 71.62204z" fill-rule="evenodd"/><path stroke="#000000" stroke-width="1.0" stroke-linejoin="round" stroke-linecap="butt" d="m168.70407 107.68044l0 -71.62204l17.984253 0l0 71.62204z" fill-rule="evenodd"/><path fill="#f4cccc" d="m144.76968 107.770996l0 -71.62205l17.984253 0l0 71.62205z" fill-rule="evenodd"/><path stroke="#000000" stroke-width="1.0" stroke-linejoin="round" stroke-linecap="butt" d="m144.76968 107.770996l0 -71.62205l17.984253 0l0 71.62205z" fill-rule="evenodd"/><path fill="#000000" fill-opacity="0.0" d="m0 36.149605l25.921259 0l0 71.62205l-25.921259 0z" fill-rule="evenodd"/><path fill="#000000" d="m9.78125 77.72063l2.40625 -11.453125l1.484375 0l1.921875 4.296875q0.890625 1.96875 1.40625 3.3125q0.296875 0.78125 0.6875 2.109375q0.203125 -1.453125 0.53125 -2.984375l1.40625 -6.734375l1.484375 0l-2.390625 11.453125l-1.515625 0l-2.84375 -6.625q-0.75 -1.75 -1.171875 -3.078125q-0.125 1.109375 -0.453125 2.734375l-1.453125 6.96875l-1.5 0z" fill-rule="nonzero"/><path fill="#f4cccc" d="m26.338583 36.149605l71.62205 0l0 71.62205l-71.62205 0z" fill-rule="evenodd"/><path stroke="#000000" stroke-width="1.0" stroke-linejoin="round" stroke-linecap="butt" d="m26.338583 36.149605l71.62205 0l0 71.62205l-71.62205 0z" fill-rule="evenodd"/><path fill="#000000" fill-opacity="0.0" d="m62.149605 117.937004c0 16.206047 31.708664 32.404198 63.417328 32.41207c31.708656 0.007873535 63.41732 -16.17453 63.41732 -32.349075" fill-rule="evenodd"/><path stroke="#000000" stroke-width="1.0" stroke-linejoin="round" stroke-linecap="butt" d="m62.149605 117.937004c0 16.206047 31.708664 32.404198 63.417328 32.41207c15.854332 0.0039367676 31.708656 -4.039688 43.599403 -10.106125c5.9453735 -3.0332184 10.899857 -6.5721436 14.367996 -10.363663c1.7340546 -1.8957672 3.096527 -3.854683 4.0254974 -5.845108c0.23225403 -0.49759674 0.43740845 -0.9971771 0.6144867 -1.4982376c0.08854675 -0.2505188 0.17007446 -0.50141144 0.24446106 -0.75260925c0.03717041 -0.12560272 0.07258606 -0.25128174 0.10621643 -0.37702942l0.002456665 -0.009796143" fill-rule="evenodd"/><path fill="#000000" stroke="#000000" stroke-width="1.0" stroke-linecap="butt" d="m188.52747 121.39651l0.9646454 1.2644424l-0.702713 -3.2120895l-1.5263824 2.9123z" fill-rule="evenodd"/><path fill="#000000" fill-opacity="0.0" d="m136.3412 7.9396324l36.094498 0l0 27.086613l-36.094498 0z" fill-rule="evenodd"/><path fill="#000000" d="m145.91933 26.28294l2.0 -9.546875l2.953125 0q0.8125 0 1.203125 0.078125q0.625 0.109375 1.0625 0.390625q0.453125 0.265625 0.6875 0.75q0.25 0.46875 0.25 1.046875q0 0.796875 -0.4375 1.390625q-0.4375 0.59375 -1.328125 0.90625q0.78125 0.265625 1.15625 0.78125q0.390625 0.5 0.390625 1.1875q0 0.78125 -0.453125 1.515625q-0.453125 0.71875 -1.203125 1.109375q-0.734375 0.390625 -1.65625 0.390625l-4.625 0zm2.421875 -5.46875l1.9375 0q1.375 0 1.984375 -0.4375q0.609375 -0.453125 0.609375 -1.296875q0 -0.390625 -0.1875 -0.6875q-0.1875 -0.296875 -0.5 -0.421875q-0.3125 -0.140625 -1.1875 -0.140625l-2.03125 0l-0.625 2.984375zm-0.921875 4.390625l2.171875 0q0.875 0 1.171875 -0.0625q0.609375 -0.109375 0.984375 -0.359375q0.375 -0.25 0.578125 -0.65625q0.21875 -0.40625 0.21875 -0.859375q0 -0.671875 -0.421875 -1.015625q-0.40625 -0.34375 -1.59375 -0.34375l-2.421875 0l-0.6875 3.296875z" fill-rule="nonzero"/><path fill="#000000" d="m154.62158 31.28294l1.328125 -6.359375l1.046875 0l0.640625 4.125q0.125 0.8125 0.15625 1.546875q0.265625 -0.640625 0.890625 -1.734375l2.21875 -3.9375l1.0625 0l-1.328125 6.359375l-0.828125 0l0.65625 -3.09375q0.234375 -1.0625 0.671875 -2.390625q-0.28125 0.609375 -0.6875 1.328125l-2.359375 4.15625l-0.828125 0l-0.625 -4.078125q-0.09375 -0.546875 -0.125 -1.296875q-0.109375 0.828125 -0.21875 1.328125l-0.84375 4.046875l-0.828125 0z" fill-rule="nonzero"/><path fill="#000000" fill-opacity="0.0" d="m160.27559 7.9396324l36.094482 0l0 27.086613l-36.094482 0z" fill-rule="evenodd"/><path fill="#000000" d="m169.85371 26.28294l2.0 -9.546875l2.953125 0q0.8125 0 1.203125 0.078125q0.625 0.109375 1.0625 0.390625q0.453125 0.265625 0.6875 0.75q0.25 0.46875 0.25 1.046875q0 0.796875 -0.4375 1.390625q-0.4375 0.59375 -1.328125 0.90625q0.78125 0.265625 1.15625 0.78125q0.390625 0.5 0.390625 1.1875q0 0.78125 -0.453125 1.515625q-0.453125 0.71875 -1.203125 1.109375q-0.734375 0.390625 -1.65625 0.390625l-4.625 0zm2.421875 -5.46875l1.9375 0q1.375 0 1.984375 -0.4375q0.609375 -0.453125 0.609375 -1.296875q0 -0.390625 -0.1875 -0.6875q-0.1875 -0.296875 -0.5 -0.421875q-0.3125 -0.140625 -1.1875 -0.140625l-2.03125 0l-0.625 2.984375zm-0.921875 4.390625l2.171875 0q0.875 0 1.171875 -0.0625q0.609375 -0.109375 0.984375 -0.359375q0.375 -0.25 0.578125 -0.65625q0.21875 -0.40625 0.21875 -0.859375q0 -0.671875 -0.421875 -1.015625q-0.40625 -0.34375 -1.59375 -0.34375l-2.421875 0l-0.6875 3.296875z" fill-rule="nonzero"/><path fill="#000000" d="m178.55597 31.28294l1.328125 -6.359375l1.046875 0l0.640625 4.125q0.125 0.8125 0.15625 1.546875q0.265625 -0.640625 0.890625 -1.734375l2.21875 -3.9375l1.0625 0l-1.328125 6.359375l-0.828125 0l0.65625 -3.09375q0.234375 -1.0625 0.671875 -2.390625q-0.28125 0.609375 -0.6875 1.328125l-2.359375 4.15625l-0.828125 0l-0.625 -4.078125q-0.09375 -0.546875 -0.125 -1.296875q-0.109375 0.828125 -0.21875 1.328125l-0.84375 4.046875l-0.828125 0z" fill-rule="nonzero"/><path fill="#000000" fill-opacity="0.0" d="m184.20998 7.9396324l36.094482 0l0 27.086613l-36.094482 0z" fill-rule="evenodd"/><path fill="#000000" d="m193.7881 26.28294l2.0 -9.546875l2.953125 0q0.8125 0 1.203125 0.078125q0.625 0.109375 1.0625 0.390625q0.453125 0.265625 0.6875 0.75q0.25 0.46875 0.25 1.046875q0 0.796875 -0.4375 1.390625q-0.4375 0.59375 -1.328125 0.90625q0.78125 0.265625 1.15625 0.78125q0.390625 0.5 0.390625 1.1875q0 0.78125 -0.453125 1.515625q-0.453125 0.71875 -1.203125 1.109375q-0.734375 0.390625 -1.65625 0.390625l-4.625 0zm2.421875 -5.46875l1.9375 0q1.375 0 1.984375 -0.4375q0.609375 -0.453125 0.609375 -1.296875q0 -0.390625 -0.1875 -0.6875q-0.1875 -0.296875 -0.5 -0.421875q-0.3125 -0.140625 -1.1875 -0.140625l-2.03125 0l-0.625 2.984375zm-0.921875 4.390625l2.171875 0q0.875 0 1.171875 -0.0625q0.609375 -0.109375 0.984375 -0.359375q0.375 -0.25 0.578125 -0.65625q0.21875 -0.40625 0.21875 -0.859375q0 -0.671875 -0.421875 -1.015625q-0.40625 -0.34375 -1.59375 -0.34375l-2.421875 0l-0.6875 3.296875z" fill-rule="nonzero"/><path fill="#000000" d="m202.49036 31.28294l1.328125 -6.359375l1.046875 0l0.640625 4.125q0.125 0.8125 0.15625 1.546875q0.265625 -0.640625 0.890625 -1.734375l2.21875 -3.9375l1.0625 0l-1.328125 6.359375l-0.828125 0l0.65625 -3.09375q0.234375 -1.0625 0.671875 -2.390625q-0.28125 0.609375 -0.6875 1.328125l-2.359375 4.15625l-0.828125 0l-0.625 -4.078125q-0.09375 -0.546875 -0.125 -1.296875q-0.109375 0.828125 -0.21875 1.328125l-0.84375 4.046875l-0.828125 0z" fill-rule="nonzero"/><path fill="#000000" fill-opacity="0.0" d="m208.14436 7.9396324l36.094482 0l0 27.086613l-36.094482 0z" fill-rule="evenodd"/><path fill="#000000" d="m217.72249 26.28294l2.0 -9.546875l2.953125 0q0.8125 0 1.203125 0.078125q0.625 0.109375 1.0625 0.390625q0.453125 0.265625 0.6875 0.75q0.25 0.46875 0.25 1.046875q0 0.796875 -0.4375 1.390625q-0.4375 0.59375 -1.328125 0.90625q0.78125 0.265625 1.15625 0.78125q0.390625 0.5 0.390625 1.1875q0 0.78125 -0.453125 1.515625q-0.453125 0.71875 -1.203125 1.109375q-0.734375 0.390625 -1.65625 0.390625l-4.625 0zm2.421875 -5.46875l1.9375 0q1.375 0 1.984375 -0.4375q0.609375 -0.453125 0.609375 -1.296875q0 -0.390625 -0.1875 -0.6875q-0.1875 -0.296875 -0.5 -0.421875q-0.3125 -0.140625 -1.1875 -0.140625l-2.03125 0l-0.625 2.984375zm-0.921875 4.390625l2.171875 0q0.875 0 1.171875 -0.0625q0.609375 -0.109375 0.984375 -0.359375q0.375 -0.25 0.578125 -0.65625q0.21875 -0.40625 0.21875 -0.859375q0 -0.671875 -0.421875 -1.015625q-0.40625 -0.34375 -1.59375 -0.34375l-2.421875 0l-0.6875 3.296875z" fill-rule="nonzero"/><path fill="#000000" d="m226.42474 31.28294l1.328125 -6.359375l1.046875 0l0.640625 4.125q0.125 0.8125 0.15625 1.546875q0.265625 -0.640625 0.890625 -1.734375l2.21875 -3.9375l1.0625 0l-1.328125 6.359375l-0.828125 0l0.65625 -3.09375q0.234375 -1.0625 0.671875 -2.390625q-0.28125 0.609375 -0.6875 1.328125l-2.359375 4.15625l-0.828125 0l-0.625 -4.078125q-0.09375 -0.546875 -0.125 -1.296875q-0.109375 0.828125 -0.21875 1.328125l-0.84375 4.046875l-0.828125 0z" fill-rule="nonzero"/><path fill="#000000" fill-opacity="0.0" d="m296.84528 28.986877l36.094482 0l0 17.984253l-36.094482 0z" fill-rule="evenodd"/><path fill="#000000" d="m309.219 42.779003l2.0 -9.546875l2.953125 0q0.8125 0 1.203125 0.078125q0.625 0.109375 1.0625 0.390625q0.453125 0.265625 0.6875 0.75q0.25 0.46875 0.25 1.046875q0 0.796875 -0.4375 1.390625q-0.4375 0.59375 -1.328125 0.90625q0.78125 0.265625 1.15625 0.78125q0.390625 0.5 0.390625 1.1875q0 0.78125 -0.453125 1.515625q-0.453125 0.71875 -1.203125 1.109375q-0.734375 0.390625 -1.65625 0.390625l-4.625 0zm2.421875 -5.46875l1.9375 0q1.375 0 1.984375 -0.4375q0.609375 -0.453125 0.609375 -1.296875q0 -0.390625 -0.1875 -0.6875q-0.1875 -0.296875 -0.5 -0.421875q-0.3125 -0.140625 -1.1875 -0.140625l-2.03125 0l-0.625 2.984375zm-0.921875 4.390625l2.171875 0q0.875 0 1.171875 -0.0625q0.609375 -0.109375 0.984375 -0.359375q0.375 -0.25 0.578125 -0.65625q0.21875 -0.40625 0.21875 -0.859375q0 -0.671875 -0.421875 -1.015625q-0.40625 -0.34375 -1.59375 -0.34375l-2.421875 0l-0.6875 3.296875z" fill-rule="nonzero"/><path fill="#000000" d="m317.96814 47.779003l1.328125 -6.359375l0.828125 0l1.0625 2.390625q0.484375 1.09375 0.78125 1.84375q0.15625 0.421875 0.375 1.15625q0.125 -0.796875 0.296875 -1.65625l0.78125 -3.734375l0.828125 0l-1.328125 6.359375l-0.84375 0l-1.578125 -3.671875q-0.421875 -0.96875 -0.65625 -1.703125q-0.0625 0.609375 -0.25 1.515625l-0.796875 3.859375l-0.828125 0z" fill-rule="nonzero"/><path fill="#000000" fill-opacity="0.0" d="m297.23373 51.45669l36.094482 0l0 17.984257l-36.094482 0z" fill-rule="evenodd"/><path fill="#000000" d="m309.60745 65.24882l2.0 -9.546875l2.953125 0q0.8125 0 1.203125 0.078125q0.625 0.109375 1.0625 0.390625q0.453125 0.265625 0.6875 0.75q0.25 0.46875 0.25 1.046875q0 0.796875 -0.4375 1.390625q-0.4375 0.59375 -1.328125 0.90625q0.78125 0.265625 1.15625 0.78125q0.390625 0.5 0.390625 1.1875q0 0.78125 -0.453125 1.515625q-0.453125 0.71875 -1.203125 1.109375q-0.734375 0.390625 -1.65625 0.390625l-4.625 0zm2.421875 -5.46875l1.9375 0q1.375 0 1.984375 -0.4375q0.609375 -0.453125 0.609375 -1.296875q0 -0.390625 -0.1875 -0.6875q-0.1875 -0.296875 -0.5 -0.421875q-0.3125 -0.140625 -1.1875 -0.140625l-2.03125 0l-0.625 2.984375zm-0.921875 4.390625l2.171875 0q0.875 0 1.171875 -0.0625q0.609375 -0.109375 0.984375 -0.359375q0.375 -0.25 0.578125 -0.65625q0.21875 -0.40625 0.21875 -0.859375q0 -0.671875 -0.421875 -1.015625q-0.40625 -0.34375 -1.59375 -0.34375l-2.421875 0l-0.6875 3.296875z" fill-rule="nonzero"/><path fill="#000000" d="m318.35657 70.24882l1.328125 -6.359375l0.828125 0l1.0625 2.390625q0.484375 1.09375 0.78125 1.84375q0.15625 0.421875 0.375 1.15625q0.125 -0.796875 0.296875 -1.65625l0.78125 -3.734375l0.828125 0l-1.328125 6.359375l-0.84375 0l-1.578125 -3.671875q-0.421875 -0.96875 -0.65625 -1.703125q-0.0625 0.609375 -0.25 1.515625l-0.796875 3.859375l-0.828125 0z" fill-rule="nonzero"/><path fill="#000000" fill-opacity="0.0" d="m297.25998 73.926506l36.094482 0l0 17.984253l-36.094482 0z" fill-rule="evenodd"/><path fill="#000000" d="m309.6337 87.718636l2.0 -9.546875l2.953125 0q0.8125 0 1.203125 0.078125q0.625 0.109375 1.0625 0.390625q0.453125 0.265625 0.6875 0.75q0.25 0.46875 0.25 1.046875q0 0.796875 -0.4375 1.390625q-0.4375 0.59375 -1.328125 0.90625q0.78125 0.265625 1.15625 0.78125q0.390625 0.5 0.390625 1.1875q0 0.78125 -0.453125 1.515625q-0.453125 0.71875 -1.203125 1.109375q-0.734375 0.390625 -1.65625 0.390625l-4.625 0zm2.421875 -5.46875l1.9375 0q1.375 0 1.984375 -0.4375q0.609375 -0.453125 0.609375 -1.296875q0 -0.390625 -0.1875 -0.6875q-0.1875 -0.296875 -0.5 -0.421875q-0.3125 -0.140625 -1.1875 -0.140625l-2.03125 0l-0.625 2.984375zm-0.921875 4.390625l2.171875 0q0.875 0 1.171875 -0.0625q0.609375 -0.109375 0.984375 -0.359375q0.375 -0.25 0.578125 -0.65625q0.21875 -0.40625 0.21875 -0.859375q0 -0.671875 -0.421875 -1.015625q-0.40625 -0.34375 -1.59375 -0.34375l-2.421875 0l-0.6875 3.296875z" fill-rule="nonzero"/><path fill="#000000" d="m318.38284 92.718636l1.328125 -6.359375l0.828125 0l1.0625 2.390625q0.484375 1.09375 0.78125 1.84375q0.15625 0.421875 0.375 1.15625q0.125 -0.796875 0.296875 -1.65625l0.78125 -3.734375l0.828125 0l-1.328125 6.359375l-0.84375 0l-1.578125 -3.671875q-0.421875 -0.96875 -0.65625 -1.703125q-0.0625 0.609375 -0.25 1.515625l-0.796875 3.859375l-0.828125 0z" fill-rule="nonzero"/><path fill="#000000" fill-opacity="0.0" d="m297.25992 96.396324l36.094482 0l0 17.984253l-36.094482 0z" fill-rule="evenodd"/><path fill="#000000" d="m309.63364 110.18845l2.0 -9.546875l2.953125 0q0.8125 0 1.203125 0.078125q0.625 0.109375 1.0625 0.390625q0.453125 0.265625 0.6875 0.75q0.25 0.46875 0.25 1.046875q0 0.796875 -0.4375 1.390625q-0.4375 0.59375 -1.328125 0.90625q0.78125 0.265625 1.15625 0.78125q0.390625 0.5 0.390625 1.1875q0 0.78125 -0.453125 1.515625q-0.453125 0.71875 -1.203125 1.109375q-0.734375 0.390625 -1.65625 0.390625l-4.625 0zm2.421875 -5.46875l1.9375 0q1.375 0 1.984375 -0.4375q0.609375 -0.453125 0.609375 -1.296875q0 -0.390625 -0.1875 -0.6875q-0.1875 -0.296875 -0.5 -0.421875q-0.3125 -0.140625 -1.1875 -0.140625l-2.03125 0l-0.625 2.984375zm-0.921875 4.390625l2.171875 0q0.875 0 1.171875 -0.0625q0.609375 -0.109375 0.984375 -0.359375q0.375 -0.25 0.578125 -0.65625q0.21875 -0.40625 0.21875 -0.859375q0 -0.671875 -0.421875 -1.015625q-0.40625 -0.34375 -1.59375 -0.34375l-2.421875 0l-0.6875 3.296875z" fill-rule="nonzero"/><path fill="#000000" d="m318.38278 115.18845l1.328125 -6.359375l0.828125 0l1.0625 2.390625q0.484375 1.09375 0.78125 1.84375q0.15625 0.421875 0.375 1.15625q0.125 -0.796875 0.296875 -1.65625l0.78125 -3.734375l0.828125 0l-1.328125 6.359375l-0.84375 0l-1.578125 -3.671875q-0.421875 -0.96875 -0.65625 -1.703125q-0.0625 0.609375 -0.25 1.515625l-0.796875 3.859375l-0.828125 0z" fill-rule="nonzero"/><path fill="#e06666" d="m351.1929 29.353018l0 17.984251l-17.984253 0l0 -17.984251z" fill-rule="evenodd"/><path stroke="#000000" stroke-width="1.0" stroke-linejoin="round" stroke-linecap="butt" d="m351.1929 29.353018l0 17.984251l-17.984253 0l0 -17.984251z" fill-rule="evenodd"/><path fill="#e06666" d="m351.1929 51.822834l0 17.98425l-17.984253 0l0 -17.98425z" fill-rule="evenodd"/><path stroke="#000000" stroke-width="1.0" stroke-linejoin="round" stroke-linecap="butt" d="m351.1929 51.822834l0 17.98425l-17.984253 0l0 -17.98425z" fill-rule="evenodd"/><path fill="#e06666" d="m351.1929 74.29265l0 17.984253l-17.984253 0l0 -17.984253z" fill-rule="evenodd"/><path stroke="#000000" stroke-width="1.0" stroke-linejoin="round" stroke-linecap="butt" d="m351.1929 74.29265l0 17.984253l-17.984253 0l0 -17.984253z" fill-rule="evenodd"/><path fill="#e06666" d="m351.1929 96.76247l0 17.984253l-17.984253 0l0 -17.984253z" fill-rule="evenodd"/><path stroke="#000000" stroke-width="1.0" stroke-linejoin="round" stroke-linecap="butt" d="m351.1929 96.76247l0 17.984253l-17.984253 0l0 -17.984253z" fill-rule="evenodd"/><path fill="#000000" fill-opacity="0.0" d="m324.15485 -0.001312336l36.094482 0l0 27.086615l-36.094482 0z" fill-rule="evenodd"/><path fill="#000000" d="m333.73297 18.341995l2.0 -9.546875l2.953125 0q0.8125 0 1.203125 0.078125q0.625 0.109375 1.0625 0.390625q0.453125 0.265625 0.6875 0.75q0.25 0.46875 0.25 1.046875q0 0.796875 -0.4375 1.390625q-0.4375 0.59375 -1.328125 0.90625q0.78125 0.265625 1.15625 0.78125q0.390625 0.5 0.390625 1.1875q0 0.78125 -0.453125 1.515625q-0.453125 0.71875 -1.203125 1.109375q-0.734375 0.390625 -1.65625 0.390625l-4.625 0zm2.421875 -5.46875l1.9375 0q1.375 0 1.984375 -0.4375q0.609375 -0.453125 0.609375 -1.296875q0 -0.390625 -0.1875 -0.6875q-0.1875 -0.296875 -0.5 -0.421875q-0.3125 -0.140625 -1.1875 -0.140625l-2.03125 0l-0.625 2.984375zm-0.921875 4.390625l2.171875 0q0.875 0 1.171875 -0.0625q0.609375 -0.109375 0.984375 -0.359375q0.375 -0.25 0.578125 -0.65625q0.21875 -0.40625 0.21875 -0.859375q0 -0.671875 -0.421875 -1.015625q-0.40625 -0.34375 -1.59375 -0.34375l-2.421875 0l-0.6875 3.296875z" fill-rule="nonzero"/><path fill="#000000" d="m342.43524 23.341995l1.328125 -6.359375l1.046875 0l0.640625 4.125q0.125 0.8125 0.15625 1.546875q0.265625 -0.640625 0.890625 -1.734375l2.21875 -3.9375l1.0625 0l-1.328125 6.359375l-0.828125 0l0.65625 -3.09375q0.234375 -1.0625 0.671875 -2.390625q-0.28125 0.609375 -0.6875 1.328125l-2.359375 4.15625l-0.828125 0l-0.625 -4.078125q-0.09375 -0.546875 -0.125 -1.296875q-0.109375 0.828125 -0.21875 1.328125l-0.84375 4.046875l-0.828125 0z" fill-rule="nonzero"/><path fill="#000000" fill-opacity="0.0" d="m327.83466 118.69423c0 16.20604 31.708649 32.40419 63.417328 32.412064c31.708649 0.007873535 63.417297 -16.17453 63.417297 -32.349075" fill-rule="evenodd"/><path stroke="#000000" stroke-width="1.0" stroke-linejoin="round" stroke-linecap="butt" d="m327.83466 118.69423c0 16.20604 31.708649 32.40419 63.417328 32.412064c15.854309 0.0039367676 31.708649 -4.039688 43.599396 -10.106125c5.9453735 -3.0332184 10.899841 -6.5721436 14.367981 -10.363663c1.7340393 -1.8957672 3.0965576 -3.854683 4.0255127 -5.845108c0.23223877 -0.49759674 0.43737793 -0.9971771 0.61447144 -1.49823c0.088531494 -0.25052643 0.17007446 -0.50141907 0.2444458 -0.7526169c0.037200928 -0.12560272 0.072631836 -0.25128174 0.10623169 -0.37702942l0.0025024414 -0.009796143" fill-rule="evenodd"/><path fill="#000000" stroke="#000000" stroke-width="1.0" stroke-linecap="butt" d="m454.2125 122.153725l0.96466064 1.2644424l-0.7027283 -3.2120895l-1.5263672 2.9123z" fill-rule="evenodd"/><path fill="#000000" fill-opacity="0.0" d="m469.77823 31.321522l0.12597656 75.11812" fill-rule="evenodd"/><path stroke="#000000" stroke-width="1.0" stroke-linejoin="round" stroke-linecap="butt" d="m469.77823 31.321522l0.11593628 69.11812" fill-rule="evenodd"/><path fill="#000000" stroke="#000000" stroke-width="1.0" stroke-linecap="butt" d="m468.2424 100.44241l1.6593323 4.5353165l1.6441345 -4.5408554z" fill-rule="evenodd"/><path fill="#000000" fill-opacity="0.0" d="m460.74182 31.322834l47.18112 0l0 75.11812l-47.18112 0z" fill-rule="evenodd"/><path fill="#000000" d="m480.7812 71.48752l0 -2.09375l-2.078125 0l0 -0.875l2.078125 0l0 -2.078125l0.875 0l0 2.078125l2.078125 0l0 0.875l-2.078125 0l0 2.09375l-0.875 0zm9.1762085 -3.25l-5.03125 0l0 -0.875l5.03125 0l0 0.875zm0 2.3125l-5.03125 0l0 -0.875l5.03125 0l0 0.875z" fill-rule="nonzero"/><path fill="#a4c2f4" d="m459.41733 29.353714l0 9.543308l-17.984253 0l0 -9.543308z" fill-rule="evenodd"/><path stroke="#000000" stroke-width="1.0" stroke-linejoin="round" stroke-linecap="butt" d="m459.41733 29.353714l0 9.543308l-17.984253 0l0 -9.543308z" fill-rule="evenodd"/><path fill="#a4c2f4" d="m459.41733 51.456078l0 9.543304l-17.984253 0l0 -9.543304z" fill-rule="evenodd"/><path stroke="#000000" stroke-width="1.0" stroke-linejoin="round" stroke-linecap="butt" d="m459.41733 51.456078l0 9.543304l-17.984253 0l0 -9.543304z" fill-rule="evenodd"/><path fill="#a4c2f4" d="m459.41733 74.29335l0 9.543304l-17.984253 0l0 -9.543304z" fill-rule="evenodd"/><path stroke="#000000" stroke-width="1.0" stroke-linejoin="round" stroke-linecap="butt" d="m459.41733 74.29335l0 9.543304l-17.984253 0l0 -9.543304z" fill-rule="evenodd"/><path fill="#a4c2f4" d="m459.41733 97.83403l0 9.543304l-17.984253 0l0 -9.543304z" fill-rule="evenodd"/><path stroke="#000000" stroke-width="1.0" stroke-linejoin="round" stroke-linecap="butt" d="m459.41733 97.83403l0 9.543304l-17.984253 0l0 -9.543304z" fill-rule="evenodd"/><path fill="#ffffff" fill-opacity="0.75" d="m440.16534 27.148472l20.97638 0l0 13.543308l-20.97638 0z" fill-rule="evenodd"/><path fill="#ffffff" fill-opacity="0.5" d="m440.16534 49.211716l20.97638 0l0 13.543308l-20.97638 0z" fill-rule="evenodd"/><path fill="#ffffff" fill-opacity="0.25" d="m440.16534 71.7641l20.97638 0l0 13.543312l-20.97638 0z" fill-rule="evenodd"/><path fill="#000000" fill-opacity="0.0" d="m432.37796 1.8989501l36.094482 0l0 27.086615l-36.094482 0z" fill-rule="evenodd"/><path fill="#000000" d="m441.9561 20.242258l2.0 -9.546875l2.953125 0q0.8125 0 1.203125 0.078125q0.625 0.109375 1.0625 0.390625q0.453125 0.265625 0.6875 0.75q0.25 0.46875 0.25 1.046875q0 0.796875 -0.4375 1.390625q-0.4375 0.59375 -1.328125 0.90625q0.78125 0.265625 1.15625 0.78125q0.390625 0.5 0.390625 1.1875q0 0.78125 -0.453125 1.515625q-0.453125 0.71875 -1.203125 1.109375q-0.734375 0.390625 -1.65625 0.390625l-4.625 0zm2.421875 -5.46875l1.9375 0q1.375 0 1.984375 -0.4375q0.609375 -0.453125 0.609375 -1.296875q0 -0.390625 -0.1875 -0.6875q-0.1875 -0.296875 -0.5 -0.421875q-0.3125 -0.140625 -1.1875 -0.140625l-2.03125 0l-0.625 2.984375zm-0.921875 4.390625l2.171875 0q0.875 0 1.171875 -0.0625q0.609375 -0.109375 0.984375 -0.359375q0.375 -0.25 0.578125 -0.65625q0.21875 -0.40625 0.21875 -0.859375q0 -0.671875 -0.421875 -1.015625q-0.40625 -0.34375 -1.59375 -0.34375l-2.421875 0l-0.6875 3.296875z" fill-rule="nonzero"/><path fill="#000000" d="m450.65833 25.242258l1.328125 -6.359375l1.046875 0l0.640625 4.125q0.125 0.8125 0.15625 1.546875q0.265625 -0.640625 0.890625 -1.734375l2.21875 -3.9375l1.0625 0l-1.328125 6.359375l-0.828125 0l0.65625 -3.09375q0.234375 -1.0625 0.671875 -2.390625q-0.28125 0.609375 -0.6875 1.328125l-2.359375 4.15625l-0.828125 0l-0.625 -4.078125q-0.09375 -0.546875 -0.125 -1.296875q-0.109375 0.828125 -0.21875 1.328125l-0.84375 4.046875l-0.828125 0z" fill-rule="nonzero"/><path fill="#000000" fill-opacity="0.0" d="m408.16025 25.913385l36.094482 0l0 17.984251l-36.094482 0z" fill-rule="evenodd"/><path fill="#000000" d="m431.89072 38.745514l1.203125 -5.765625q-0.78125 0.625 -2.1875 0.984375l0.171875 -0.84375q0.703125 -0.28125 1.390625 -0.734375q0.6875 -0.4531269 1.03125 -0.7968769q0.203125 -0.203125 0.390625 -0.5l0.546875 0l-1.59375 7.656252l-0.953125 0z" fill-rule="nonzero"/><path fill="#000000" fill-opacity="0.0" d="m408.16025 48.221786l36.094482 0l0 17.984253l-36.094482 0z" fill-rule="evenodd"/><path fill="#000000" d="m431.89072 61.053913l1.203125 -5.765625q-0.78125 0.625 -2.1875 0.984375l0.171875 -0.84375q0.703125 -0.28125 1.390625 -0.734375q0.6875 -0.453125 1.03125 -0.796875q0.203125 -0.203125 0.390625 -0.5l0.546875 0l-1.59375 7.65625l-0.953125 0z" fill-rule="nonzero"/><path fill="#000000" fill-opacity="0.0" d="m408.16025 71.149605l36.094482 0l0 17.984253l-36.094482 0z" fill-rule="evenodd"/><path fill="#000000" d="m431.89072 83.981735l1.203125 -5.765625q-0.78125 0.625 -2.1875 0.984375l0.171875 -0.84375q0.703125 -0.28125 1.390625 -0.734375q0.6875 -0.453125 1.03125 -0.796875q0.203125 -0.203125 0.390625 -0.5l0.546875 0l-1.59375 7.65625l-0.953125 0z" fill-rule="nonzero"/><path fill="#000000" fill-opacity="0.0" d="m408.16025 93.86483l36.094482 0l0 17.984253l-36.094482 0z" fill-rule="evenodd"/><path fill="#000000" d="m431.89072 106.69695l1.203125 -5.765625q-0.78125 0.625 -2.1875 0.984375l0.171875 -0.84375q0.703125 -0.28125 1.390625 -0.734375q0.6875 -0.453125 1.03125 -0.796875q0.203125 -0.203125 0.390625 -0.5l0.546875 0l-1.59375 7.65625l-0.953125 0z" fill-rule="nonzero"/></g></svg>