<svg version="1.1" viewBox="0.0 0.0 253.31758530183728 100.0" fill="none" stroke="none" stroke-linecap="square" stroke-miterlimit="10" xmlns:xlink="http://www.w3.org/1999/xlink" xmlns="http://www.w3.org/2000/svg"><clipPath id="p.0"><path d="m0 0l253.31758 0l0 100.0l-253.31758 0l0 -100.0z" clip-rule="nonzero"/></clipPath><g clip-path="url(#p.0)"><path fill="#000000" fill-opacity="0.0" d="m0 0l253.31758 0l0 100.0l-253.31758 0z" fill-rule="evenodd"/><path fill="#f4cccc" d="m1.363517 6.0904384l35.811024 0l0 35.90551l-35.811024 0z" fill-rule="evenodd"/><path fill="#000000" d="m21.965464 30.521942l0.28125 1.765625q-0.84375 0.171875 -1.5 0.171875q-1.078125 0 -1.6875 -0.34375q-0.59375 -0.34375 -0.84375 -0.890625q-0.234375 -0.5625 -0.234375 -2.359375l0 -6.765625l-1.46875 0l0 -1.546875l1.46875 0l0 -2.90625l1.984375 -1.203125l0 4.109375l2.0 0l0 1.546875l-2.0 0l0 6.875q0 0.84375 0.09375 1.09375q0.109375 0.25 0.34375 0.390625q0.25 0.140625 0.6875 0.140625q0.328125 0 0.875 -0.078125z" fill-rule="nonzero"/><path fill="#f4cccc" d="m37.16008 6.0904384l35.81102 0l0 35.90551l-35.81102 0z" fill-rule="evenodd"/><path fill="#000000" d="m52.761986 32.303192l0 -11.75l1.796875 0l0 1.78125q0.6875 -1.25 1.265625 -1.640625q0.578125 -0.40625 1.28125 -0.40625q1.0 0 2.046875 0.640625l-0.6875 1.84375q-0.734375 -0.421875 -1.46875 -0.421875q-0.640625 0 -1.171875 0.390625q-0.515625 0.390625 -0.734375 1.09375q-0.328125 1.0625 -0.328125 2.3125l0 6.15625l-2.0 0z" fill-rule="nonzero"/><path fill="#f4cccc" d="m72.95664 6.0904384l35.81102 0l0 35.90551l-35.81102 0z" fill-rule="evenodd"/><path fill="#000000" d="m89.845406 18.381317l0 -2.296875l2.0 0l0 2.296875l-2.0 0zm0 13.921875l0 -11.75l2.0 0l0 11.75l-2.0 0z" fill-rule="nonzero"/><path fill="#d9ead3" d="m108.7532 6.0904384l35.811028 0l0 35.90551l-35.811028 0z" fill-rule="evenodd"/><path fill="#000000" d="m129.35515 30.521942l0.28125 1.765625q-0.84375 0.171875 -1.5 0.171875q-1.078125 0 -1.6875 -0.34375q-0.59375 -0.34375 -0.84375 -0.890625q-0.234375 -0.5625 -0.234375 -2.359375l0 -6.765625l-1.46875 0l0 -1.546875l1.46875 0l0 -2.90625l1.984375 -1.203125l0 4.109375l2.0 0l0 1.546875l-2.0 0l0 6.875q0 0.84375 0.09375 1.09375q0.109375 0.25 0.34375 0.390625q0.25 0.140625 0.6875 0.140625q0.328125 0 0.875 -0.078125z" fill-rule="nonzero"/><path fill="#d9ead3" d="m144.54976 6.0904384l35.81102 0l0 35.90551l-35.81102 0z" fill-rule="evenodd"/><path fill="#000000" d="m156.9051 26.428192q0 -3.265625 1.8125 -4.828125q1.515625 -1.3125 3.703125 -1.3125q2.421875 0 3.953125 1.59375q1.546875 1.578125 1.546875 4.375q0 2.28125 -0.6875 3.578125q-0.671875 1.296875 -1.984375 2.015625q-1.296875 0.71875 -2.828125 0.71875q-2.46875 0 -4.0 -1.578125q-1.515625 -1.578125 -1.515625 -4.5625zm2.046875 0q0 2.25 0.984375 3.375q0.984375 1.125 2.484375 1.125q1.484375 0 2.46875 -1.125q0.984375 -1.125 0.984375 -3.4375q0 -2.1875 -1.0 -3.296875q-0.984375 -1.125 -2.453125 -1.125q-1.5 0 -2.484375 1.125q-0.984375 1.109375 -0.984375 3.359375z" fill-rule="nonzero"/><path fill="#d9ead3" d="m180.34633 6.0904384l35.81102 0l0 35.90551l-35.81102 0z" fill-rule="evenodd"/><path fill="#000000" d="m193.45168 32.303192l0 -11.75l1.78125 0l0 1.671875q1.296875 -1.9375 3.75 -1.9375q1.0625 0 1.953125 0.390625q0.890625 0.375 1.328125 1.0q0.4375 0.609375 0.625 1.46875q0.109375 0.546875 0.109375 1.9375l0 7.21875l-2.0 0l0 -7.140625q0 -1.21875 -0.234375 -1.8125q-0.234375 -0.609375 -0.828125 -0.96875q-0.578125 -0.359375 -1.375 -0.359375q-1.28125 0 -2.203125 0.8125q-0.921875 0.796875 -0.921875 3.046875l0 6.421875l-1.984375 0z" fill-rule="nonzero"/><path fill="#d9d2e9" d="m216.14288 6.0904384l35.81102 0l0 35.90551l-35.81102 0z" fill-rule="evenodd"/><path fill="#000000" d="m232.98477 32.303192l0 -16.21875l1.984375 0l0 16.21875l-1.984375 0z" fill-rule="nonzero"/><path fill="#f4cccc" d="m1.363517 58.00486l35.811024 0l0 35.90551l-35.811024 0z" fill-rule="evenodd"/><path fill="#000000" d="m22.125116 82.76449q-1.109375 0.9375 -2.140625 1.328125q-1.015625 0.390625 -2.1875 0.390625q-1.937501 0 -2.984376 -0.9375q-1.03125 -0.953125 -1.03125 -2.421875q0 -0.859375 0.390625 -1.578125q0.40625 -0.71875 1.03125 -1.140625q0.640625 -0.4375 1.437501 -0.65625q0.59375 -0.15625 1.765625 -0.296875q2.421875 -0.296875 3.5625 -0.6875q0 -0.40625 0 -0.515625q0 -1.21875 -0.5625 -1.71875q-0.765625 -0.671875 -2.265625 -0.671875q-1.40625 0 -2.078125 0.5q-0.671875 0.484375 -0.984375 1.734375l-1.953126 -0.265625q0.265625 -1.25 0.875 -2.015625q0.609375 -0.78125 1.750001 -1.1875q1.15625 -0.421875 2.671875 -0.421875q1.515625 0 2.453125 0.359375q0.9375 0.34375 1.375 0.890625q0.453125 0.53125 0.625 1.34375q0.09375 0.515625 0.09375 1.84375l0 2.65625q0 2.78125 0.125 3.515625q0.140625 0.734375 0.515625 1.40625l-2.078125 0q-0.3125 -0.625 -0.40625 -1.453125zm-0.15625 -4.4375q-1.09375 0.4375 -3.265625 0.75q-1.21875 0.171875 -1.734375 0.390625q-0.5 0.21875 -0.78125 0.65625q-0.28125095 0.421875 -0.28125095 0.9375q0 0.796875 0.60937595 1.328125q0.609375 0.53125 1.765625 0.53125q1.140625 0 2.03125 -0.5q0.90625 -0.5 1.328125 -1.375q0.328125 -0.671875 0.328125 -2.0l0 -0.71875z" fill-rule="nonzero"/><path fill="#f4cccc" d="m37.16008 58.00486l35.81102 0l0 35.90551l-35.81102 0z" fill-rule="evenodd"/><path fill="#000000" d="m50.265427 84.21761l0 -11.75l1.78125 0l0 1.671875q1.296875 -1.9375 3.75 -1.9375q1.0625 0 1.953125 0.390625q0.890625 0.375 1.328125 1.0q0.4375 0.609375 0.625 1.46875q0.109375 0.546875 0.109375 1.9375l0 7.21875l-2.0 0l0 -7.140625q0 -1.21875 -0.234375 -1.8125q-0.234375 -0.609375 -0.828125 -0.96875q-0.578125 -0.359375 -1.375 -0.359375q-1.28125 0 -2.203125 0.8125q-0.921875 0.796875 -0.921875 3.046875l0 6.421875l-1.984375 0z" fill-rule="nonzero"/><path fill="#f4cccc" d="m72.95664 58.00486l35.81102 0l0 35.90551l-35.81102 0z" fill-rule="evenodd"/><path fill="#000000" d="m85.68699 85.18636l1.9375 0.296875q0.125 0.890625 0.671875 1.296875q0.75 0.5625 2.03125 0.5625q1.375 0 2.125 -0.5625q0.765625 -0.546875 1.03125 -1.546875q0.15625 -0.609375 0.140625 -2.546875q-1.3125 1.53125 -3.25 1.53125q-2.421875 0 -3.75 -1.75q-1.328125 -1.75 -1.328125 -4.1875q0 -1.6875 0.609375 -3.109375q0.609375 -1.421875 1.765625 -2.1875q1.15625 -0.78125 2.703125 -0.78125q2.09375 0 3.4375 1.6875l0 -1.421875l1.828125 0l0 10.15625q0 2.75 -0.5625 3.890625q-0.546875 1.140625 -1.765625 1.796875q-1.203125 0.671875 -2.96875 0.671875q-2.109375 0 -3.40625 -0.953125q-1.296875 -0.9375 -1.25 -2.84375zm1.65625 -7.046875q0 2.3125 0.90625 3.375q0.921875 1.0625 2.3125 1.0625q1.375 0 2.296875 -1.0625q0.921875 -1.0625 0.921875 -3.3125q0 -2.15625 -0.953125 -3.25q-0.953125 -1.09375 -2.296875 -1.09375q-1.328125 0 -2.265625 1.078125q-0.921875 1.078125 -0.921875 3.203125z" fill-rule="nonzero"/><path fill="#d9ead3" d="m108.7532 58.00486l35.811028 0l0 35.90551l-35.811028 0z" fill-rule="evenodd"/><path fill="#000000" d="m129.54605 84.21761l0 -1.71875q-1.359375 1.984375 -3.71875 1.984375q-1.046875 0 -1.953125 -0.390625q-0.890625 -0.40625 -1.328125 -1.0q-0.4375 -0.609375 -0.609375 -1.484375q-0.125 -0.59375 -0.125 -1.859375l0 -7.28125l1.984375 0l0 6.515625q0 1.5625 0.125 2.109375q0.1875 0.78125 0.796875 1.234375q0.609375 0.4375 1.5 0.4375q0.90625 0 1.6875 -0.453125q0.78125 -0.46875 1.109375 -1.25q0.328125 -0.796875 0.328125 -2.296875l0 -6.296875l1.984375 0l0 11.75l-1.78125 0z" fill-rule="nonzero"/><path fill="#d9ead3" d="m144.54976 58.00486l35.81102 0l0 35.90551l-35.81102 0z" fill-rule="evenodd"/><path fill="#000000" d="m165.31136 82.76449q-1.109375 0.9375 -2.140625 1.328125q-1.015625 0.390625 -2.1875 0.390625q-1.9375 0 -2.984375 -0.9375q-1.03125 -0.953125 -1.03125 -2.421875q0 -0.859375 0.390625 -1.578125q0.40625 -0.71875 1.03125 -1.140625q0.640625 -0.4375 1.4375 -0.65625q0.59375 -0.15625 1.765625 -0.296875q2.421875 -0.296875 3.5625 -0.6875q0 -0.40625 0 -0.515625q0 -1.21875 -0.5625 -1.71875q-0.765625 -0.671875 -2.265625 -0.671875q-1.40625 0 -2.078125 0.5q-0.671875 0.484375 -0.984375 1.734375l-1.953125 -0.265625q0.265625 -1.25 0.875 -2.015625q0.609375 -0.78125 1.75 -1.1875q1.15625 -0.421875 2.671875 -0.421875q1.515625 0 2.453125 0.359375q0.9375 0.34375 1.375 0.890625q0.453125 0.53125 0.625 1.34375q0.09375 0.515625 0.09375 1.84375l0 2.65625q0 2.78125 0.125 3.515625q0.140625 0.734375 0.515625 1.40625l-2.078125 0q-0.3125 -0.625 -0.40625 -1.453125zm-0.15625 -4.4375q-1.09375 0.4375 -3.265625 0.75q-1.21875 0.171875 -1.734375 0.390625q-0.5 0.21875 -0.78125 0.65625q-0.28125 0.421875 -0.28125 0.9375q0 0.796875 0.609375 1.328125q0.609375 0.53125 1.765625 0.53125q1.140625 0 2.03125 -0.5q0.90625 -0.5 1.328125 -1.375q0.328125 -0.671875 0.328125 -2.0l0 -0.71875z" fill-rule="nonzero"/><path fill="#d9ead3" d="m180.34633 58.00486l35.81102 0l0 35.90551l-35.81102 0z" fill-rule="evenodd"/><path fill="#000000" d="m193.07668 85.18636l1.9375 0.296875q0.125 0.890625 0.671875 1.296875q0.75 0.5625 2.03125 0.5625q1.375 0 2.125 -0.5625q0.765625 -0.546875 1.03125 -1.546875q0.15625 -0.609375 0.140625 -2.546875q-1.3125 1.53125 -3.25 1.53125q-2.421875 0 -3.75 -1.75q-1.328125 -1.75 -1.328125 -4.1875q0 -1.6875 0.609375 -3.109375q0.609375 -1.421875 1.765625 -2.1875q1.15625 -0.78125 2.703125 -0.78125q2.09375 0 3.4375 1.6875l0 -1.421875l1.828125 0l0 10.15625q0 2.75 -0.5625 3.890625q-0.546875 1.140625 -1.765625 1.796875q-1.203125 0.671875 -2.96875 0.671875q-2.109375 0 -3.40625 -0.953125q-1.296875 -0.9375 -1.25 -2.84375zm1.65625 -7.046875q0 2.3125 0.90625 3.375q0.921875 1.0625 2.3125 1.0625q1.375 0 2.296875 -1.0625q0.921875 -1.0625 0.921875 -3.3125q0 -2.15625 -0.953125 -3.25q-0.953125 -1.09375 -2.296875 -1.09375q-1.328125 0 -2.265625 1.078125q-0.921875 1.078125 -0.921875 3.203125z" fill-rule="nonzero"/><path fill="#d9d2e9" d="m216.14288 58.00486l35.81102 0l0 35.90551l-35.81102 0z" fill-rule="evenodd"/><path fill="#000000" d="m237.27948 80.43636l2.0625 0.25q-0.484375 1.8125 -1.8125 2.8125q-1.3125 0.984375 -3.359375 0.984375q-2.578125 0 -4.09375 -1.578125q-1.5 -1.59375 -1.5 -4.46875q0 -2.953125 1.53125 -4.59375q1.53125 -1.640625 3.953125 -1.640625q2.359375 0 3.84375 1.609375q1.5 1.59375 1.5 4.515625q0 0.171875 0 0.53125l-8.765625 0q0.109375 1.9375 1.09375 2.96875q0.984375 1.015625 2.453125 1.015625q1.09375 0 1.859375 -0.5625q0.78125 -0.578125 1.234375 -1.84375zm-6.53125 -3.21875l6.5625 0q-0.140625 -1.484375 -0.75 -2.21875q-0.953125 -1.15625 -2.46875 -1.15625q-1.375 0 -2.3125 0.921875q-0.9375 0.90625 -1.03125 2.453125z" fill-rule="nonzero"/><path fill="#f4cccc" d="m48.42995 48.367348l4.672077 0l0 -4.162857l3.918766 0l0 4.162857l4.672077 0l0 3.918766l-4.672077 0l0 4.1628532l-3.918766 0l0 -4.1628532l-4.672077 0z" fill-rule="evenodd"/><path stroke="#000000" stroke-width="1.0" stroke-linejoin="round" stroke-linecap="butt" d="m48.42995 48.367348l4.672077 0l0 -4.162857l3.918766 0l0 4.162857l4.672077 0l0 3.918766l-4.672077 0l0 4.1628532l-3.918766 0l0 -4.1628532l-4.672077 0z" fill-rule="evenodd"/><path fill="#d9ead3" d="m155.81964 48.367348l4.6720734 0l0 -4.162857l3.9187622 0l0 4.162857l4.6720734 0l0 3.918766l-4.6720734 0l0 4.1628532l-3.9187622 0l0 -4.1628532l-4.6720734 0z" fill-rule="evenodd"/><path stroke="#000000" stroke-width="1.0" stroke-linejoin="round" stroke-linecap="butt" d="m155.81964 48.367348l4.6720734 0l0 -4.162857l3.9187622 0l0 4.162857l4.6720734 0l0 3.918766l-4.6720734 0l0 4.1628532l-3.9187622 0l0 -4.1628532l-4.6720734 0z" fill-rule="evenodd"/><path fill="#d9d2e9" d="m227.41275 48.367348l4.6720886 0l0 -4.162857l3.9187622 0l0 4.162857l4.6720734 0l0 3.918766l-4.6720734 0l0 4.1628532l-3.9187622 0l0 -4.1628532l-4.6720886 0z" fill-rule="evenodd"/><path stroke="#000000" stroke-width="1.0" stroke-linejoin="round" stroke-linecap="butt" d="m227.41275 48.367348l4.6720886 0l0 -4.162857l3.9187622 0l0 4.162857l4.6720734 0l0 3.918766l-4.6720734 0l0 4.1628532l-3.9187622 0l0 -4.1628532l-4.6720886 0z" fill-rule="evenodd"/></g></svg>