<svg version="1.1" viewBox="0.0 0.0 270.4750656167979 100.0" fill="none" stroke="none" stroke-linecap="square" stroke-miterlimit="10" xmlns:xlink="http://www.w3.org/1999/xlink" xmlns="http://www.w3.org/2000/svg"><clipPath id="p.0"><path d="m0 0l270.47507 0l0 100.0l-270.47507 0l0 -100.0z" clip-rule="nonzero"/></clipPath><g clip-path="url(#p.0)"><path fill="#000000" fill-opacity="0.0" d="m0 0l270.47507 0l0 100.0l-270.47507 0z" fill-rule="evenodd"/><path fill="#f4cccc" d="m4.1706038 5.927709l35.811024 0l0 35.905514l-35.811024 0z" fill-rule="evenodd"/><path stroke="#f4cccc" stroke-width="1.0" stroke-linejoin="round" stroke-linecap="butt" d="m4.1706038 5.927709l35.811024 0l0 35.905514l-35.811024 0z" fill-rule="evenodd"/><path fill="#000000" d="m24.772549 30.359213l0.28125 1.7656231q-0.84375 0.171875 -1.5 0.171875q-1.078125 0 -1.6875 -0.3437481q-0.59375 -0.34375 -0.84375 -0.890625q-0.234375 -0.5625 -0.234375 -2.359375l0 -6.765625l-1.46875 0l0 -1.546875l1.46875 0l0 -2.90625l1.984375 -1.203125l0 4.109375l2.0 0l0 1.546875l-2.0 0l0 6.875q0 0.84375 0.09375 1.09375q0.109375 0.25 0.34375 0.390625q0.25 0.140625 0.6875 0.140625q0.328125 0 0.875 -0.078125z" fill-rule="nonzero"/><path fill="#f4cccc" d="m39.988163 5.927709l35.811024 0l0 35.905514l-35.811024 0z" fill-rule="evenodd"/><path stroke="#f4cccc" stroke-width="1.0" stroke-linejoin="round" stroke-linecap="butt" d="m39.988163 5.927709l35.811024 0l0 35.905514l-35.811024 0z" fill-rule="evenodd"/><path fill="#000000" d="m55.59007 32.14046l0 -11.749998l1.796875 0l0 1.78125q0.6875 -1.25 1.265625 -1.640625q0.578125 -0.40625 1.28125 -0.40625q1.0 0 2.046875 0.640625l-0.6875 1.84375q-0.734375 -0.421875 -1.46875 -0.421875q-0.640625 0 -1.171875 0.390625q-0.515625 0.390625 -0.734375 1.09375q-0.328125 1.0625 -0.328125 2.3125l0 6.156248l-2.0 0z" fill-rule="nonzero"/><path fill="#f4cccc" d="m75.78472 5.927709l35.811028 0l0 35.905514l-35.811028 0z" fill-rule="evenodd"/><path stroke="#f4cccc" stroke-width="1.0" stroke-linejoin="round" stroke-linecap="butt" d="m75.78472 5.927709l35.811028 0l0 35.905514l-35.811028 0z" fill-rule="evenodd"/><path fill="#000000" d="m92.673485 18.218588l0 -2.296876l2.0 0l0 2.296876l-2.0 0zm0 13.921873l0 -11.749998l2.0 0l0 11.749998l-2.0 0z" fill-rule="nonzero"/><path fill="#d9ead3" d="m117.34244 6.253168l35.81102 0l0 35.90551l-35.81102 0z" fill-rule="evenodd"/><path stroke="#d9ead3" stroke-width="1.0" stroke-linejoin="round" stroke-linecap="butt" d="m117.34244 6.253168l35.81102 0l0 35.90551l-35.81102 0z" fill-rule="evenodd"/><path fill="#000000" d="m137.94438 30.684671l0.28125 1.7656269q-0.84375 0.171875 -1.5 0.171875q-1.078125 0 -1.6875 -0.34375q-0.59375 -0.3437519 -0.84375 -0.8906269q-0.234375 -0.5625 -0.234375 -2.359375l0 -6.765625l-1.46875 0l0 -1.546875l1.46875 0l0 -2.90625l1.984375 -1.203125l0 4.109375l2.0 0l0 1.546875l-2.0 0l0 6.875q0 0.84375 0.09375 1.09375q0.109375 0.25 0.34375 0.390625q0.25 0.140625 0.6875 0.140625q0.328125 0 0.875 -0.078125z" fill-rule="nonzero"/><path fill="#d9ead3" d="m153.139 6.253168l35.81102 0l0 35.90551l-35.81102 0z" fill-rule="evenodd"/><path stroke="#d9ead3" stroke-width="1.0" stroke-linejoin="round" stroke-linecap="butt" d="m153.139 6.253168l35.81102 0l0 35.90551l-35.81102 0z" fill-rule="evenodd"/><path fill="#000000" d="m165.49435 26.590921q0 -3.265625 1.8125 -4.828125q1.515625 -1.3125 3.703125 -1.3125q2.421875 0 3.953125 1.59375q1.546875 1.578125 1.546875 4.375q0 2.28125 -0.6875 3.578125q-0.671875 1.296875 -1.984375 2.015627q-1.296875 0.71875 -2.828125 0.71875q-2.46875 0 -4.0 -1.5781269q-1.515625 -1.578125 -1.515625 -4.5625zm2.046875 0q0 2.25 0.984375 3.375q0.984375 1.125 2.484375 1.125q1.484375 0 2.46875 -1.125q0.984375 -1.125 0.984375 -3.4375q0 -2.1875 -1.0 -3.296875q-0.984375 -1.125 -2.453125 -1.125q-1.5 0 -2.484375 1.125q-0.984375 1.109375 -0.984375 3.359375z" fill-rule="nonzero"/><path fill="#d9ead3" d="m188.93556 6.253168l35.81102 0l0 35.90551l-35.81102 0z" fill-rule="evenodd"/><path stroke="#d9ead3" stroke-width="1.0" stroke-linejoin="round" stroke-linecap="butt" d="m188.93556 6.253168l35.81102 0l0 35.90551l-35.81102 0z" fill-rule="evenodd"/><path fill="#000000" d="m202.04091 32.465923l0 -11.750002l1.78125 0l0 1.671875q1.296875 -1.9375 3.75 -1.9375q1.0625 0 1.953125 0.390625q0.890625 0.375 1.328125 1.0q0.4375 0.609375 0.625 1.46875q0.109375 0.546875 0.109375 1.9375l0 7.218752l-2.0 0l0 -7.140627q0 -1.21875 -0.234375 -1.8125q-0.234375 -0.609375 -0.828125 -0.96875q-0.578125 -0.359375 -1.375 -0.359375q-1.28125 0 -2.203125 0.8125q-0.921875 0.796875 -0.921875 3.046875l0 6.421877l-1.984375 0z" fill-rule="nonzero"/><path fill="#d9d2e9" d="m230.49327 5.927709l35.81102 0l0 35.905514l-35.81102 0z" fill-rule="evenodd"/><path stroke="#d9d2e9" stroke-width="1.0" stroke-linejoin="round" stroke-linecap="butt" d="m230.49327 5.927709l35.81102 0l0 35.905514l-35.81102 0z" fill-rule="evenodd"/><path fill="#000000" d="m247.33517 32.14046l0 -16.21875l1.984375 0l0 16.21875l-1.984375 0z" fill-rule="nonzero"/><path fill="#f4cccc" d="m4.1811023 57.84213l35.811024 0l0 35.905514l-35.811024 0z" fill-rule="evenodd"/><path stroke="#f4cccc" stroke-width="1.0" stroke-linejoin="round" stroke-linecap="butt" d="m4.1811023 57.84213l35.811024 0l0 35.905514l-35.811024 0z" fill-rule="evenodd"/><path fill="#000000" d="m24.942701 82.60176q-1.109375 0.9375 -2.140625 1.328125q-1.015625 0.390625 -2.1875 0.390625q-1.9375 0 -2.984375 -0.9375q-1.03125 -0.953125 -1.03125 -2.421875q0 -0.859375 0.390625 -1.578125q0.40625 -0.71875 1.03125 -1.140625q0.640625 -0.4375 1.4375 -0.65625q0.59375 -0.15625 1.765625 -0.296875q2.421875 -0.296875 3.5625 -0.6875q0 -0.40625 0 -0.515625q0 -1.21875 -0.5625 -1.71875q-0.765625 -0.671875 -2.265625 -0.671875q-1.40625 0 -2.078125 0.5q-0.671875 0.484375 -0.984375 1.734375l-1.953125 -0.265625q0.265625 -1.25 0.875 -2.015625q0.609375 -0.78125 1.75 -1.1875q1.15625 -0.421875 2.671875 -0.421875q1.515625 0 2.453125 0.359375q0.9375 0.34375 1.375 0.890625q0.453125 0.53125 0.625 1.34375q0.09375 0.515625 0.09375 1.84375l0 2.65625q0 2.78125 0.125 3.515625q0.140625 0.734375 0.515625 1.40625l-2.078125 0q-0.3125 -0.625 -0.40625 -1.453125zm-0.15625 -4.4375q-1.09375 0.4375 -3.265625 0.75q-1.21875 0.171875 -1.734375 0.390625q-0.5 0.21875 -0.78125 0.65625q-0.28125 0.421875 -0.28125 0.9375q0 0.796875 0.609375 1.328125q0.609375 0.53125 1.765625 0.53125q1.140625 0 2.03125 -0.5q0.90625 -0.5 1.328125 -1.375q0.328125 -0.671875 0.328125 -2.0l0 -0.71875z" fill-rule="nonzero"/><path fill="#f4cccc" d="m39.988163 57.84213l35.811024 0l0 35.905514l-35.811024 0z" fill-rule="evenodd"/><path stroke="#f4cccc" stroke-width="1.0" stroke-linejoin="round" stroke-linecap="butt" d="m39.988163 57.84213l35.811024 0l0 35.905514l-35.811024 0z" fill-rule="evenodd"/><path fill="#000000" d="m53.09351 84.054886l0 -11.75l1.78125 0l0 1.671875q1.296875 -1.9375 3.75 -1.9375q1.0625 0 1.953125 0.390625q0.890625 0.375 1.328125 1.0q0.4375 0.609375 0.625 1.46875q0.109375 0.546875 0.109375 1.9375l0 7.21875l-2.0 0l0 -7.140625q0 -1.21875 -0.234375 -1.8125q-0.234375 -0.609375 -0.828125 -0.96875q-0.578125 -0.359375 -1.375 -0.359375q-1.28125 0 -2.203125 0.8125q-0.921875 0.796875 -0.921875 3.046875l0 6.421875l-1.984375 0z" fill-rule="nonzero"/><path fill="#f4cccc" d="m75.78472 57.84213l35.811028 0l0 35.905514l-35.811028 0z" fill-rule="evenodd"/><path stroke="#f4cccc" stroke-width="1.0" stroke-linejoin="round" stroke-linecap="butt" d="m75.78472 57.84213l35.811028 0l0 35.905514l-35.811028 0z" fill-rule="evenodd"/><path fill="#000000" d="m88.51507 85.023636l1.9375 0.296875q0.125 0.890625 0.671875 1.296875q0.75 0.5625 2.03125 0.5625q1.375 0 2.125 -0.5625q0.765625 -0.546875 1.03125 -1.546875q0.15625 -0.609375 0.140625 -2.546875q-1.3125 1.53125 -3.25 1.53125q-2.421875 0 -3.75 -1.75q-1.328125 -1.75 -1.328125 -4.1875q0 -1.6875 0.609375 -3.109375q0.609375 -1.421875 1.765625 -2.1875q1.15625 -0.78125 2.703125 -0.78125q2.09375 0 3.4375 1.6875l0 -1.421875l1.828125 0l0 10.15625q0 2.75 -0.5625 3.890625q-0.546875 1.140625 -1.765625 1.796875q-1.203125 0.671875 -2.96875 0.671875q-2.109375 0 -3.40625 -0.953125q-1.296875 -0.9375 -1.25 -2.84375zm1.65625 -7.046875q0 2.3125 0.90625 3.375q0.921875 1.0625 2.3125 1.0625q1.375 0 2.296875 -1.0625q0.921875 -1.0625 0.921875 -3.3125q0 -2.15625 -0.953125 -3.25q-0.953125 -1.09375 -2.296875 -1.09375q-1.328125 0 -2.265625 1.078125q-0.921875 1.078125 -0.921875 3.203125z" fill-rule="nonzero"/><path fill="#d9ead3" d="m117.34244 58.167587l35.81102 0l0 35.90551l-35.81102 0z" fill-rule="evenodd"/><path stroke="#d9ead3" stroke-width="1.0" stroke-linejoin="round" stroke-linecap="butt" d="m117.34244 58.167587l35.81102 0l0 35.90551l-35.81102 0z" fill-rule="evenodd"/><path fill="#000000" d="m138.13528 84.38034l0 -1.71875q-1.359375 1.984375 -3.71875 1.984375q-1.046875 0 -1.953125 -0.390625q-0.890625 -0.40625 -1.328125 -1.0q-0.4375 -0.609375 -0.609375 -1.484375q-0.125 -0.59375 -0.125 -1.859375l0 -7.28125l1.984375 0l0 6.515625q0 1.5625 0.125 2.109375q0.1875 0.78125 0.796875 1.234375q0.609375 0.4375 1.5 0.4375q0.90625 0 1.6875 -0.453125q0.78125 -0.46875 1.109375 -1.25q0.328125 -0.796875 0.328125 -2.296875l0 -6.296875l1.984375 0l0 11.75l-1.78125 0z" fill-rule="nonzero"/><path fill="#d9ead3" d="m153.139 58.167587l35.81102 0l0 35.90551l-35.81102 0z" fill-rule="evenodd"/><path stroke="#d9ead3" stroke-width="1.0" stroke-linejoin="round" stroke-linecap="butt" d="m153.139 58.167587l35.81102 0l0 35.90551l-35.81102 0z" fill-rule="evenodd"/><path fill="#000000" d="m173.9006 82.927216q-1.109375 0.9375 -2.140625 1.328125q-1.015625 0.390625 -2.1875 0.390625q-1.9375 0 -2.984375 -0.9375q-1.03125 -0.953125 -1.03125 -2.421875q0 -0.859375 0.390625 -1.578125q0.40625 -0.71875 1.03125 -1.140625q0.640625 -0.4375 1.4375 -0.65625q0.59375 -0.15625 1.765625 -0.296875q2.421875 -0.296875 3.5625 -0.6875q0 -0.40625 0 -0.515625q0 -1.21875 -0.5625 -1.71875q-0.765625 -0.671875 -2.265625 -0.671875q-1.40625 0 -2.078125 0.5q-0.671875 0.484375 -0.984375 1.734375l-1.953125 -0.265625q0.265625 -1.25 0.875 -2.015625q0.609375 -0.78125 1.75 -1.1875q1.15625 -0.421875 2.671875 -0.421875q1.515625 0 2.453125 0.359375q0.9375 0.34375 1.375 0.890625q0.453125 0.53125 0.625 1.34375q0.09375 0.515625 0.09375 1.84375l0 2.65625q0 2.78125 0.125 3.515625q0.140625 0.734375 0.515625 1.40625l-2.078125 0q-0.3125 -0.625 -0.40625 -1.453125zm-0.15625 -4.4375q-1.09375 0.4375 -3.265625 0.75q-1.21875 0.171875 -1.734375 0.390625q-0.5 0.21875 -0.78125 0.65625q-0.28125 0.421875 -0.28125 0.9375q0 0.796875 0.609375 1.328125q0.609375 0.53125 1.765625 0.53125q1.140625 0 2.03125 -0.5q0.90625 -0.5 1.328125 -1.375q0.328125 -0.671875 0.328125 -2.0l0 -0.71875z" fill-rule="nonzero"/><path fill="#d9ead3" d="m188.93556 58.167587l35.81102 0l0 35.90551l-35.81102 0z" fill-rule="evenodd"/><path stroke="#d9ead3" stroke-width="1.0" stroke-linejoin="round" stroke-linecap="butt" d="m188.93556 58.167587l35.81102 0l0 35.90551l-35.81102 0z" fill-rule="evenodd"/><path fill="#000000" d="m201.66591 85.34909l1.9375 0.296875q0.125 0.890625 0.671875 1.296875q0.75 0.5625 2.03125 0.5625q1.375 0 2.125 -0.5625q0.765625 -0.546875 1.03125 -1.546875q0.15625 -0.609375 0.140625 -2.546875q-1.3125 1.53125 -3.25 1.53125q-2.421875 0 -3.75 -1.75q-1.328125 -1.75 -1.328125 -4.1875q0 -1.6875 0.609375 -3.109375q0.609375 -1.421875 1.765625 -2.1875q1.15625 -0.78125 2.703125 -0.78125q2.09375 0 3.4375 1.6875l0 -1.421875l1.828125 0l0 10.15625q0 2.75 -0.5625 3.890625q-0.546875 1.140625 -1.765625 1.796875q-1.203125 0.671875 -2.96875 0.671875q-2.109375 0 -3.40625 -0.953125q-1.296875 -0.9375 -1.25 -2.84375zm1.65625 -7.046875q0 2.3125 0.90625 3.375q0.921875 1.0625 2.3125 1.0625q1.375 0 2.296875 -1.0625q0.921875 -1.0625 0.921875 -3.3125q0 -2.15625 -0.953125 -3.25q-0.953125 -1.09375 -2.296875 -1.09375q-1.328125 0 -2.265625 1.078125q-0.921875 1.078125 -0.921875 3.203125z" fill-rule="nonzero"/><path fill="#d9d2e9" d="m230.49327 57.84213l35.81102 0l0 35.905514l-35.81102 0z" fill-rule="evenodd"/><path stroke="#d9d2e9" stroke-width="1.0" stroke-linejoin="round" stroke-linecap="butt" d="m230.49327 57.84213l35.81102 0l0 35.905514l-35.81102 0z" fill-rule="evenodd"/><path fill="#000000" d="m251.62988 80.273636l2.0625 0.25q-0.484375 1.8125 -1.8125 2.8125q-1.3125 0.984375 -3.359375 0.984375q-2.578125 0 -4.09375 -1.578125q-1.5 -1.59375 -1.5 -4.46875q0 -2.953125 1.53125 -4.59375q1.53125 -1.640625 3.953125 -1.640625q2.359375 0 3.84375 1.609375q1.5 1.59375 1.5 4.515625q0 0.171875 0 0.53125l-8.765625 0q0.109375 1.9375 1.09375 2.96875q0.984375 1.015625 2.453125 1.015625q1.09375 0 1.859375 -0.5625q0.78125 -0.578125 1.234375 -1.84375zm-6.53125 -3.21875l6.5625 0q-0.140625 -1.484375 -0.75 -2.21875q-0.953125 -1.15625 -2.46875 -1.15625q-1.375 0 -2.3125 0.921875q-0.9375 0.90625 -1.03125 2.453125z" fill-rule="nonzero"/><path fill="#f4cccc" d="m51.258034 48.204617l4.672077 0l0 -4.1628532l3.918766 0l0 4.1628532l4.672081 0l0 3.918766l-4.672081 0l0 4.162857l-3.918766 0l0 -4.162857l-4.672077 0z" fill-rule="evenodd"/><path fill="#d9ead3" d="m164.40887 48.53008l4.6720734 0l0 -4.162857l3.9187622 0l0 4.162857l4.6720886 0l0 3.9187622l-4.6720886 0l0 4.162857l-3.9187622 0l0 -4.162857l-4.6720734 0z" fill-rule="evenodd"/><path fill="#d9d2e9" d="m241.76315 48.204617l4.6720734 0l0 -4.1628532l3.9187622 0l0 4.1628532l4.6720886 0l0 3.918766l-4.6720886 0l0 4.162857l-3.9187622 0l0 -4.162857l-4.6720734 0z" fill-rule="evenodd"/><path fill="#000000" fill-opacity="0.0" d="m25.706038 25.622047l33.795273 0l0 25.858269l-33.795273 0z" fill-rule="evenodd"/><path fill="#000000" d="m34.924786 37.867046q0 -0.6875 0.140625 -1.09375q0.140625 -0.40625 0.40625 -0.625q0.28125 -0.234375 0.703125 -0.234375q0.296875 0 0.53125 0.125q0.234375 0.125 0.375 0.359375q0.15625 0.234375 0.234375 0.5625q0.09375 0.328125 0.09375 0.90625q0 0.671875 -0.140625 1.078125q-0.125 0.40625 -0.40625 0.640625q-0.265625 0.21875 -0.6875 0.21875q-0.5625 0 -0.875 -0.390625q-0.375 -0.484375 -0.375 -1.546875zm0.484375 0q0 0.9375 0.21875 1.25q0.21875 0.3125 0.546875 0.3125q0.3125 0 0.53125 -0.3125q0.234375 -0.3125 0.234375 -1.25q0 -0.953125 -0.234375 -1.25q-0.21875 -0.3125 -0.546875 -0.3125q-0.3125 0 -0.515625 0.265625q-0.234375 0.359375 -0.234375 1.296875z" fill-rule="nonzero"/><path fill="#000000" fill-opacity="0.0" d="m61.76298 25.622047l33.795277 0l0 25.858269l-33.795277 0z" fill-rule="evenodd"/><path fill="#000000" d="m72.74735 39.742046l-0.46875 0l0 -2.984375q-0.171875 0.15625 -0.453125 0.328125q-0.265625 0.15625 -0.484375 0.234375l0 -0.453125q0.390625 -0.1875 0.6875 -0.4375q0.296875 -0.265625 0.421875 -0.515625l0.296875 0l0 3.828125z" fill-rule="nonzero"/><path fill="#000000" fill-opacity="0.0" d="m97.57007 25.622047l33.795273 0l0 25.858269l-33.795273 0z" fill-rule="evenodd"/><path fill="#000000" d="m109.25757 39.28892l0 0.453125l-2.53125 0q0 -0.171875 0.0625 -0.328125q0.09375 -0.25 0.296875 -0.5q0.21875 -0.25 0.625 -0.578125q0.625 -0.515625 0.84375 -0.8125q0.21875 -0.296875 0.21875 -0.5625q0 -0.28125 -0.203125 -0.46875q-0.203125 -0.1875 -0.515625 -0.1875q-0.34375 0 -0.546875 0.203125q-0.203125 0.203125 -0.203125 0.5625l-0.484375 -0.046875q0.046875 -0.546875 0.359375 -0.828125q0.328125 -0.28125 0.875 -0.28125q0.546875 0 0.859375 0.3125q0.328125 0.296875 0.328125 0.75q0 0.21875 -0.09375 0.453125q-0.09375 0.21875 -0.3125 0.46875q-0.203125 0.234375 -0.71875 0.65625q-0.421875 0.359375 -0.546875 0.484375q-0.109375 0.125 -0.1875 0.25l1.875 0z" fill-rule="nonzero"/><path fill="#000000" fill-opacity="0.0" d="m138.37534 25.622047l33.795273 0l0 25.858269l-33.795273 0z" fill-rule="evenodd"/><path fill="#000000" d="m147.59409 38.742046l0.46875 -0.0625q0.078125 0.390625 0.265625 0.578125q0.203125 0.171875 0.484375 0.171875q0.328125 0 0.546875 -0.234375q0.234375 -0.234375 0.234375 -0.5625q0 -0.328125 -0.21875 -0.53125q-0.203125 -0.21875 -0.515625 -0.21875q-0.140625 0 -0.34375 0.046875l0.0625 -0.40625q0.046875 0 0.078125 0q0.296875 0 0.53125 -0.15625q0.234375 -0.15625 0.234375 -0.46875q0 -0.265625 -0.171875 -0.421875q-0.171875 -0.171875 -0.453125 -0.171875q-0.265625 0 -0.453125 0.171875q-0.171875 0.171875 -0.234375 0.515625l-0.46875 -0.09375q0.09375 -0.46875 0.390625 -0.71875q0.3125 -0.265625 0.765625 -0.265625q0.3125 0 0.5625 0.140625q0.265625 0.125 0.40625 0.359375q0.140625 0.234375 0.140625 0.484375q0 0.25 -0.140625 0.453125q-0.125 0.203125 -0.375 0.328125q0.328125 0.078125 0.515625 0.328125q0.1875 0.234375 0.1875 0.609375q0 0.5 -0.359375 0.84375q-0.359375 0.34375 -0.921875 0.34375q-0.5 0 -0.84375 -0.296875q-0.328125 -0.296875 -0.375 -0.765625z" fill-rule="nonzero"/><path fill="#000000" fill-opacity="0.0" d="m174.43227 25.622047l33.795288 0l0 25.858269l-33.795288 0z" fill-rule="evenodd"/><path fill="#000000" d="m185.15102 39.742046l0 -0.90625l-1.65625 0l0 -0.4375l1.75 -2.46875l0.375 0l0 2.46875l0.515625 0l0 0.4375l-0.515625 0l0 0.90625l-0.46875 0zm0 -1.34375l0 -1.71875l-1.1875 1.71875l1.1875 0z" fill-rule="nonzero"/><path fill="#000000" fill-opacity="0.0" d="m210.23936 25.622047l33.795273 0l0 25.858269l-33.795273 0z" fill-rule="evenodd"/><path fill="#000000" d="m219.45811 38.742046l0.5 -0.046875q0.046875 0.359375 0.25 0.546875q0.203125 0.1875 0.484375 0.1875q0.328125 0 0.5625 -0.25q0.234375 -0.265625 0.234375 -0.6875q0 -0.40625 -0.234375 -0.625q-0.21875 -0.234375 -0.578125 -0.234375q-0.21875 0 -0.40625 0.109375q-0.1875 0.09375 -0.28125 0.25l-0.453125 -0.046875l0.375 -1.96875l1.90625 0l0 0.453125l-1.53125 0l-0.203125 1.015625q0.34375 -0.234375 0.71875 -0.234375q0.5 0 0.84375 0.34375q0.34375 0.34375 0.34375 0.890625q0 0.515625 -0.296875 0.90625q-0.375 0.453125 -1.0 0.453125q-0.53125 0 -0.859375 -0.28125q-0.328125 -0.296875 -0.375 -0.78125z" fill-rule="nonzero"/><path fill="#000000" fill-opacity="0.0" d="m251.2971 25.622047l33.795273 0l0 25.858269l-33.795273 0z" fill-rule="evenodd"/><path fill="#000000" d="m262.95334 36.867046l-0.46875 0.03125q-0.0625 -0.28125 -0.171875 -0.40625q-0.203125 -0.1875 -0.46875 -0.1875q-0.234375 0 -0.40625 0.125q-0.21875 0.15625 -0.34375 0.46875q-0.125 0.296875 -0.125 0.875q0.15625 -0.25 0.40625 -0.375q0.25 -0.125 0.515625 -0.125q0.46875 0 0.796875 0.34375q0.328125 0.34375 0.328125 0.890625q0 0.359375 -0.15625 0.671875q-0.15625 0.296875 -0.421875 0.46875q-0.265625 0.15625 -0.609375 0.15625q-0.59375 0 -0.96875 -0.421875q-0.359375 -0.4375 -0.359375 -1.421875q0 -1.109375 0.40625 -1.609375q0.359375 -0.4375 0.953125 -0.4375q0.453125 0 0.734375 0.25q0.296875 0.25 0.359375 0.703125zm-1.921875 1.640625q0 0.234375 0.09375 0.46875q0.109375 0.21875 0.296875 0.34375q0.1875 0.109375 0.390625 0.109375q0.296875 0 0.5 -0.234375q0.21875 -0.25 0.21875 -0.65625q0 -0.40625 -0.21875 -0.625q-0.203125 -0.234375 -0.515625 -0.234375q-0.3125 0 -0.546875 0.234375q-0.21875 0.21875 -0.21875 0.59375z" fill-rule="nonzero"/><path fill="#000000" fill-opacity="0.0" d="m25.580053 77.04462l33.795273 0l0 25.858269l-33.795273 0z" fill-rule="evenodd"/><path fill="#000000" d="m34.7988 89.28962q0 -0.6875 0.140625 -1.09375q0.140625 -0.40625 0.40625 -0.625q0.28125 -0.234375 0.703125 -0.234375q0.296875 0 0.53125 0.125q0.234375 0.125 0.375 0.359375q0.15625 0.234375 0.234375 0.5625q0.09375 0.328125 0.09375 0.90625q0 0.671875 -0.140625 1.078125q-0.125 0.40625 -0.40625 0.640625q-0.265625 0.21875 -0.6875 0.21875q-0.5625 0 -0.875 -0.390625q-0.375 -0.484375 -0.375 -1.546875zm0.484375 0q0 0.9375 0.21875 1.25q0.21875 0.3125 0.546875 0.3125q0.3125 0 0.53125 -0.3125q0.234375 -0.3125 0.234375 -1.25q0 -0.953125 -0.234375 -1.25q-0.21875 -0.3125 -0.546875 -0.3125q-0.3125 0 -0.515625 0.265625q-0.234375 0.359375 -0.234375 1.296875z" fill-rule="nonzero"/><path fill="#000000" fill-opacity="0.0" d="m61.636997 77.04462l33.795277 0l0 25.858269l-33.795277 0z" fill-rule="evenodd"/><path fill="#000000" d="m72.62137 91.16462l-0.46875 0l0 -2.984375q-0.171875 0.15625 -0.453125 0.328125q-0.265625 0.15625 -0.484375 0.234375l0 -0.453125q0.390625 -0.1875 0.6875 -0.4375q0.296875 -0.265625 0.421875 -0.515625l0.296875 0l0 3.828125z" fill-rule="nonzero"/><path fill="#000000" fill-opacity="0.0" d="m97.444084 77.04462l33.79528 0l0 25.858269l-33.79528 0z" fill-rule="evenodd"/><path fill="#000000" d="m109.131584 90.711494l0 0.453125l-2.53125 0q0 -0.171875 0.0625 -0.328125q0.09375 -0.25 0.296875 -0.5q0.21875 -0.25 0.625 -0.578125q0.625 -0.515625 0.84375 -0.8125q0.21875 -0.296875 0.21875 -0.5625q0 -0.28125 -0.203125 -0.46875q-0.203125 -0.1875 -0.515625 -0.1875q-0.34375 0 -0.546875 0.203125q-0.203125 0.203125 -0.203125 0.5625l-0.484375 -0.046875q0.046875 -0.546875 0.359375 -0.828125q0.328125 -0.28125 0.875 -0.28125q0.546875 0 0.859375 0.3125q0.328125 0.296875 0.328125 0.75q0 0.21875 -0.09375 0.453125q-0.09375 0.21875 -0.3125 0.46875q-0.203125 0.234375 -0.71875 0.65625q-0.421875 0.359375 -0.546875 0.484375q-0.109375 0.125 -0.1875 0.25l1.875 0z" fill-rule="nonzero"/><path fill="#000000" fill-opacity="0.0" d="m138.24934 77.04462l33.795273 0l0 25.858269l-33.795273 0z" fill-rule="evenodd"/><path fill="#000000" d="m147.4681 90.16462l0.46875 -0.0625q0.078125 0.390625 0.265625 0.578125q0.203125 0.171875 0.484375 0.171875q0.328125 0 0.546875 -0.234375q0.234375 -0.234375 0.234375 -0.5625q0 -0.328125 -0.21875 -0.53125q-0.203125 -0.21875 -0.515625 -0.21875q-0.140625 0 -0.34375 0.046875l0.0625 -0.40625q0.046875 0 0.078125 0q0.296875 0 0.53125 -0.15625q0.234375 -0.15625 0.234375 -0.46875q0 -0.265625 -0.171875 -0.421875q-0.171875 -0.171875 -0.453125 -0.171875q-0.265625 0 -0.453125 0.171875q-0.171875 0.171875 -0.234375 0.515625l-0.46875 -0.09375q0.09375 -0.46875 0.390625 -0.71875q0.3125 -0.265625 0.765625 -0.265625q0.3125 0 0.5625 0.140625q0.265625 0.125 0.40625 0.359375q0.140625 0.234375 0.140625 0.484375q0 0.25 -0.140625 0.453125q-0.125 0.203125 -0.375 0.328125q0.328125 0.078125 0.515625 0.328125q0.1875 0.234375 0.1875 0.609375q0 0.5 -0.359375 0.84375q-0.359375 0.34375 -0.921875 0.34375q-0.5 0 -0.84375 -0.296875q-0.328125 -0.296875 -0.375 -0.765625z" fill-rule="nonzero"/><path fill="#000000" fill-opacity="0.0" d="m174.30629 77.04462l33.795273 0l0 25.858269l-33.795273 0z" fill-rule="evenodd"/><path fill="#000000" d="m185.02504 91.16462l0 -0.90625l-1.65625 0l0 -0.4375l1.75 -2.46875l0.375 0l0 2.46875l0.515625 0l0 0.4375l-0.515625 0l0 0.90625l-0.46875 0zm0 -1.34375l0 -1.71875l-1.1875 1.71875l1.1875 0z" fill-rule="nonzero"/><path fill="#000000" fill-opacity="0.0" d="m210.11337 77.04462l33.795273 0l0 25.858269l-33.795273 0z" fill-rule="evenodd"/><path fill="#000000" d="m219.33212 90.16462l0.5 -0.046875q0.046875 0.359375 0.25 0.546875q0.203125 0.1875 0.484375 0.1875q0.328125 0 0.5625 -0.25q0.234375 -0.265625 0.234375 -0.6875q0 -0.40625 -0.234375 -0.625q-0.21875 -0.234375 -0.578125 -0.234375q-0.21875 0 -0.40625 0.109375q-0.1875 0.09375 -0.28125 0.25l-0.453125 -0.046875l0.375 -1.96875l1.90625 0l0 0.453125l-1.53125 0l-0.203125 1.015625q0.34375 -0.234375 0.71875 -0.234375q0.5 0 0.84375 0.34375q0.34375 0.34375 0.34375 0.890625q0 0.515625 -0.296875 0.90625q-0.375 0.453125 -1.0 0.453125q-0.53125 0 -0.859375 -0.28125q-0.328125 -0.296875 -0.375 -0.78125z" fill-rule="nonzero"/><path fill="#000000" fill-opacity="0.0" d="m251.17111 77.04462l33.795288 0l0 25.858269l-33.795288 0z" fill-rule="evenodd"/><path fill="#000000" d="m262.82736 88.28962l-0.46875 0.03125q-0.0625 -0.28125 -0.171875 -0.40625q-0.203125 -0.1875 -0.46875 -0.1875q-0.234375 0 -0.40625 0.125q-0.21875 0.15625 -0.34375 0.46875q-0.125 0.296875 -0.125 0.875q0.15625 -0.25 0.40625 -0.375q0.25 -0.125 0.515625 -0.125q0.46875 0 0.796875 0.34375q0.328125 0.34375 0.328125 0.890625q0 0.359375 -0.15625 0.671875q-0.15625 0.296875 -0.421875 0.46875q-0.265625 0.15625 -0.609375 0.15625q-0.59375 0 -0.96875 -0.421875q-0.359375 -0.4375 -0.359375 -1.421875q0 -1.109375 0.40625 -1.609375q0.359375 -0.4375 0.953125 -0.4375q0.453125 0 0.734375 0.25q0.296875 0.25 0.359375 0.703125zm-1.921875 1.640625q0 0.234375 0.09375 0.46875q0.109375 0.21875 0.296875 0.34375q0.1875 0.109375 0.390625 0.109375q0.296875 0 0.5 -0.234375q0.21875 -0.25 0.21875 -0.65625q0 -0.40625 -0.21875 -0.625q-0.203125 -0.234375 -0.515625 -0.234375q-0.3125 0 -0.546875 0.234375q-0.21875 0.21875 -0.21875 0.59375z" fill-rule="nonzero"/></g></svg>