<svg version="1.1" viewBox="0.0 0.0 627.2519685039371 288.26246719160105" fill="none" stroke="none" stroke-linecap="square" stroke-miterlimit="10" xmlns:xlink="http://www.w3.org/1999/xlink" xmlns="http://www.w3.org/2000/svg"><clipPath id="p.0"><path d="m0 0l627.25195 0l0 288.26248l-627.25195 0l0 -288.26248z" clip-rule="nonzero"/></clipPath><g clip-path="url(#p.0)"><path fill="#000000" fill-opacity="0.0" d="m0 0l627.25195 0l0 288.26248l-627.25195 0z" fill-rule="evenodd"/><path fill="#000000" fill-opacity="0.0" d="m10.829396 9.28084l257.6378 0l0 129.29134l-257.6378 0z" fill-rule="evenodd"/><path stroke="#000000" stroke-width="1.0" stroke-linejoin="round" stroke-linecap="butt" stroke-dasharray="4.0,3.0" d="m10.829396 9.28084l257.6378 0l0 129.29134l-257.6378 0z" fill-rule="evenodd"/><path fill="#f4cccc" d="m19.6916 19.795275l54.771656 0l0 50.362206l-54.771656 0z" fill-rule="evenodd"/><path stroke="#000000" stroke-width="1.0" stroke-linejoin="round" stroke-linecap="butt" d="m19.6916 19.795275l54.771656 0l0 50.362206l-54.771656 0z" fill-rule="evenodd"/><path fill="#000000" d="m50.468845 55.63638l-4.03125 0l0 -15.171875q-2.203125 2.0625 -5.203125 3.0625l0 -3.65625q1.578125 -0.515625 3.421875 -1.953125q1.859375 -1.4375 2.546875 -3.359375l3.265625 0l0 21.078125z" fill-rule="nonzero"/><path fill="#f4cccc" d="m81.40551 19.795275l54.77166 0l0 50.362206l-54.77166 0z" fill-rule="evenodd"/><path stroke="#000000" stroke-width="1.0" stroke-linejoin="round" stroke-linecap="butt" d="m81.40551 19.795275l54.77166 0l0 50.362206l-54.77166 0z" fill-rule="evenodd"/><path fill="#000000" d="m115.464005 51.902004l0 3.734375l-14.09375 0q0.21875 -2.125 1.359375 -4.015625q1.15625 -1.90625 4.53125 -5.03125q2.71875 -2.53125 3.34375 -3.4375q0.828125 -1.25 0.828125 -2.46875q0 -1.34375 -0.734375 -2.0625q-0.71875 -0.734375 -1.984375 -0.734375q-1.265625 0 -2.015625 0.765625q-0.734375 0.765625 -0.84375 2.515625l-4.015625 -0.390625q0.359375 -3.328125 2.25 -4.765625q1.890625 -1.453125 4.71875 -1.453125q3.109375 0 4.875 1.671875q1.78125 1.671875 1.78125 4.171875q0 1.421875 -0.515625 2.703125q-0.5 1.28125 -1.59375 2.671875q-0.734375 0.9375 -2.640625 2.6875q-1.90625 1.75 -2.421875 2.328125q-0.5 0.5625 -0.8125 1.109375l7.984375 0z" fill-rule="nonzero"/><path fill="#d0e0e3" d="m143.11942 19.795275l54.771667 0l0 50.362206l-54.771667 0z" fill-rule="evenodd"/><path stroke="#000000" stroke-width="1.0" stroke-linejoin="round" stroke-linecap="butt" d="m143.11942 19.795275l54.771667 0l0 50.362206l-54.771667 0z" fill-rule="evenodd"/><path fill="#000000" d="m163.45917 50.058254l3.890625 -0.46875q0.1875 1.5 1.0 2.28125q0.8125 0.78125 1.96875 0.78125q1.25 0 2.09375 -0.9375q0.859375 -0.953125 0.859375 -2.546875q0 -1.515625 -0.8125 -2.40625q-0.8125 -0.890625 -1.984375 -0.890625q-0.78125 0 -1.859375 0.296875l0.453125 -3.28125q1.625 0.046875 2.484375 -0.703125q0.859375 -0.75 0.859375 -2.0q0 -1.0625 -0.625 -1.6875q-0.625 -0.625 -1.671875 -0.625q-1.03125 0 -1.765625 0.71875q-0.734375 0.703125 -0.890625 2.078125l-3.703125 -0.625q0.390625 -1.90625 1.15625 -3.046875q0.78125 -1.140625 2.171875 -1.78125q1.40625 -0.65625 3.140625 -0.65625q2.96875 0 4.75 1.890625q1.484375 1.546875 1.484375 3.5q0 2.75 -3.03125 4.40625q1.8125 0.390625 2.890625 1.734375q1.078125 1.34375 1.078125 3.25q0 2.765625 -2.015625 4.71875q-2.015625 1.9375 -5.03125 1.9375q-2.84375 0 -4.71875 -1.640625q-1.875 -1.640625 -2.171875 -4.296875z" fill-rule="nonzero"/><path fill="#d0e0e3" d="m204.83333 19.795275l54.771652 0l0 50.362206l-54.771652 0z" fill-rule="evenodd"/><path stroke="#000000" stroke-width="1.0" stroke-linejoin="round" stroke-linecap="butt" d="m204.83333 19.795275l54.771652 0l0 50.362206l-54.771652 0z" fill-rule="evenodd"/><path fill="#000000" d="m233.20433 55.63638l0 -4.21875l-8.59375 0l0 -3.53125l9.109375 -13.328125l3.375 0l0 13.3125l2.609375 0l0 3.546875l-2.609375 0l0 4.21875l-3.890625 0zm0 -7.765625l0 -7.171875l-4.828125 7.171875l4.828125 0z" fill-rule="nonzero"/><path fill="#f4cccc" d="m19.6916 77.70079l54.771656 0l0 50.362198l-54.771656 0z" fill-rule="evenodd"/><path stroke="#000000" stroke-width="1.0" stroke-linejoin="round" stroke-linecap="butt" d="m19.6916 77.70079l54.771656 0l0 50.362198l-54.771656 0z" fill-rule="evenodd"/><path fill="#000000" d="m40.218845 108.13564l4.015625 -0.40625q0.171875 1.359375 1.015625 2.15625q0.84375 0.796875 1.953125 0.796875q1.25 0 2.125 -1.015625q0.875 -1.03125 0.875 -3.09375q0 -1.9375 -0.875 -2.90625q-0.859375 -0.96875 -2.25 -0.96875q-1.71875 0 -3.09375 1.53125l-3.265625 -0.46875l2.0625 -10.921875l10.640625 0l0 3.765625l-7.59375 0l-0.640625 3.5625q1.359375 -0.671875 2.75 -0.671875q2.6875 0 4.546875 1.953125q1.859375 1.9375 1.859375 5.046875q0 2.59375 -1.5 4.625q-2.046875 2.78125 -5.6875 2.78125q-2.90625 0 -4.75 -1.5625q-1.828125 -1.5625 -2.1875 -4.203125z" fill-rule="nonzero"/><path fill="#f4cccc" d="m81.40551 77.70079l54.77166 0l0 50.362198l-54.77166 0z" fill-rule="evenodd"/><path stroke="#000000" stroke-width="1.0" stroke-linejoin="round" stroke-linecap="butt" d="m81.40551 77.70079l54.77166 0l0 50.362198l-54.77166 0z" fill-rule="evenodd"/><path fill="#000000" d="m115.51088 97.68252l-3.890625 0.4375q-0.140625 -1.203125 -0.75 -1.765625q-0.59375 -0.578125 -1.5625 -0.578125q-1.265625 0 -2.15625 1.140625q-0.875 1.140625 -1.109375 4.765625q1.515625 -1.78125 3.75 -1.78125q2.515625 0 4.3125 1.921875q1.796875 1.921875 1.796875 4.953125q0 3.234375 -1.890625 5.1875q-1.890625 1.9375 -4.859375 1.9375q-3.171875 0 -5.21875 -2.46875q-2.046875 -2.46875 -2.046875 -8.09375q0 -5.78125 2.125 -8.328125q2.140625 -2.546875 5.546875 -2.546875q2.390625 0 3.953125 1.34375q1.578125 1.328125 2.0 3.875zm-9.125 8.78125q0 1.96875 0.90625 3.03125q0.90625 1.0625 2.0625 1.0625q1.125 0 1.859375 -0.859375q0.75 -0.875 0.75 -2.875q0 -2.046875 -0.8125 -3.0q-0.796875 -0.953125 -2.0 -0.953125q-1.15625 0 -1.96875 0.921875q-0.796875 0.90625 -0.796875 2.671875z" fill-rule="nonzero"/><path fill="#d0e0e3" d="m143.11942 77.70079l54.771667 0l0 50.362198l-54.771667 0z" fill-rule="evenodd"/><path stroke="#000000" stroke-width="1.0" stroke-linejoin="round" stroke-linecap="butt" d="m143.11942 77.70079l54.771667 0l0 50.362198l-54.771667 0z" fill-rule="evenodd"/><path fill="#000000" d="m163.5998 96.57314l0 -3.734375l13.75 0l0 2.921875q-1.703125 1.671875 -3.46875 4.8125q-1.75 3.125 -2.671875 6.65625q-0.921875 3.53125 -0.90625 6.3125l-3.890625 0q0.109375 -4.359375 1.796875 -8.875q1.703125 -4.53125 4.53125 -8.09375l-9.140625 0z" fill-rule="nonzero"/><path fill="#d0e0e3" d="m204.83333 77.70079l54.771652 0l0 50.362198l-54.771652 0z" fill-rule="evenodd"/><path stroke="#000000" stroke-width="1.0" stroke-linejoin="round" stroke-linecap="butt" d="m204.83333 77.70079l54.771652 0l0 50.362198l-54.771652 0z" fill-rule="evenodd"/><path fill="#000000" d="m228.76683 102.21377q-1.5625 -0.65625 -2.28125 -1.8125q-0.703125 -1.15625 -0.703125 -2.53125q0 -2.34375 1.640625 -3.875q1.640625 -1.53125 4.65625 -1.53125q3.0 0 4.65625 1.53125q1.65625 1.53125 1.65625 3.875q0 1.46875 -0.765625 2.609375q-0.765625 1.140625 -2.140625 1.734375q1.75 0.703125 2.65625 2.046875q0.921875 1.34375 0.921875 3.109375q0 2.90625 -1.859375 4.734375q-1.859375 1.8125 -4.9375 1.8125q-2.859375 0 -4.765625 -1.5q-2.25 -1.78125 -2.25 -4.875q0 -1.703125 0.84375 -3.125q0.84375 -1.421875 2.671875 -2.203125zm0.828125 -4.046875q0 1.203125 0.671875 1.875q0.6875 0.671875 1.8125 0.671875q1.15625 0 1.84375 -0.671875q0.6875 -0.6875 0.6875 -1.890625q0 -1.140625 -0.6875 -1.8125q-0.6875 -0.6875 -1.796875 -0.6875q-1.15625 0 -1.84375 0.6875q-0.6875 0.6875 -0.6875 1.828125zm-0.375 8.984375q0 1.671875 0.84375 2.609375q0.859375 0.921875 2.140625 0.921875q1.234375 0 2.046875 -0.890625q0.828125 -0.90625 0.828125 -2.59375q0 -1.46875 -0.84375 -2.359375q-0.828125 -0.90625 -2.09375 -0.90625q-1.46875 0 -2.203125 1.015625q-0.71875 1.015625 -0.71875 2.203125z" fill-rule="nonzero"/><path fill="#000000" fill-opacity="0.0" d="m356.53543 9.28084l257.6378 0l0 129.29134l-257.6378 0z" fill-rule="evenodd"/><path stroke="#000000" stroke-width="1.0" stroke-linejoin="round" stroke-linecap="butt" stroke-dasharray="4.0,3.0" d="m356.53543 9.28084l257.6378 0l0 129.29134l-257.6378 0z" fill-rule="evenodd"/><path fill="#f4cccc" d="m365.39764 19.795275l54.771637 0l0 50.362206l-54.771637 0z" fill-rule="evenodd"/><path stroke="#000000" stroke-width="1.0" stroke-linejoin="round" stroke-linecap="butt" d="m365.39764 19.795275l54.771637 0l0 50.362206l-54.771637 0z" fill-rule="evenodd"/><path fill="#000000" d="m396.1749 55.63638l-4.03125 0l0 -15.171875q-2.203125 2.0625 -5.203125 3.0625l0 -3.65625q1.578125 -0.515625 3.421875 -1.953125q1.859375 -1.4375 2.546875 -3.359375l3.265625 0l0 21.078125z" fill-rule="nonzero"/><path fill="#f4cccc" d="m427.11154 19.795275l54.771667 0l0 50.362206l-54.771667 0z" fill-rule="evenodd"/><path stroke="#000000" stroke-width="1.0" stroke-linejoin="round" stroke-linecap="butt" d="m427.11154 19.795275l54.771667 0l0 50.362206l-54.771667 0z" fill-rule="evenodd"/><path fill="#000000" d="m461.17004 51.902004l0 3.734375l-14.09375 0q0.21875 -2.125 1.359375 -4.015625q1.15625 -1.90625 4.53125 -5.03125q2.71875 -2.53125 3.34375 -3.4375q0.828125 -1.25 0.828125 -2.46875q0 -1.34375 -0.734375 -2.0625q-0.71875 -0.734375 -1.984375 -0.734375q-1.265625 0 -2.015625 0.765625q-0.734375 0.765625 -0.84375 2.515625l-4.015625 -0.390625q0.359375 -3.328125 2.25 -4.765625q1.890625 -1.453125 4.71875 -1.453125q3.109375 0 4.875 1.671875q1.78125 1.671875 1.78125 4.171875q0 1.421875 -0.515625 2.703125q-0.5 1.28125 -1.59375 2.671875q-0.734375 0.9375 -2.640625 2.6875q-1.90625 1.75 -2.421875 2.328125q-0.5 0.5625 -0.8125 1.109375l7.984375 0z" fill-rule="nonzero"/><path fill="#d0e0e3" d="m365.39764 77.70079l54.771637 0l0 50.362198l-54.771637 0z" fill-rule="evenodd"/><path stroke="#000000" stroke-width="1.0" stroke-linejoin="round" stroke-linecap="butt" d="m365.39764 77.70079l54.771637 0l0 50.362198l-54.771637 0z" fill-rule="evenodd"/><path fill="#000000" d="m385.7374 107.96377l3.890625 -0.46875q0.1875 1.5 1.0 2.28125q0.8125 0.78125 1.96875 0.78125q1.25 0 2.09375 -0.9375q0.859375 -0.953125 0.859375 -2.546875q0 -1.515625 -0.8125 -2.40625q-0.8125 -0.890625 -1.984375 -0.890625q-0.78125 0 -1.859375 0.296875l0.453125 -3.28125q1.625 0.046875 2.484375 -0.703125q0.859375 -0.75 0.859375 -2.0q0 -1.0625 -0.625 -1.6875q-0.625 -0.625 -1.671875 -0.625q-1.03125 0 -1.765625 0.71875q-0.734375 0.703125 -0.890625 2.078125l-3.703125 -0.625q0.390625 -1.90625 1.15625 -3.046875q0.78125 -1.140625 2.171875 -1.78125q1.40625 -0.65625 3.140625 -0.65625q2.96875 0 4.75 1.890625q1.484375 1.546875 1.484375 3.5q0 2.75 -3.03125 4.40625q1.8125 0.390625 2.890625 1.734375q1.078125 1.34375 1.078125 3.25q0 2.765625 -2.015625 4.71875q-2.015625 1.9375 -5.03125 1.9375q-2.84375 0 -4.71875 -1.640625q-1.875 -1.640625 -2.171875 -4.296875z" fill-rule="nonzero"/><path fill="#d0e0e3" d="m427.11154 77.70079l54.771667 0l0 50.362198l-54.771667 0z" fill-rule="evenodd"/><path stroke="#000000" stroke-width="1.0" stroke-linejoin="round" stroke-linecap="butt" d="m427.11154 77.70079l54.771667 0l0 50.362198l-54.771667 0z" fill-rule="evenodd"/><path fill="#000000" d="m455.48254 113.54189l0 -4.21875l-8.59375 0l0 -3.53125l9.109375 -13.328125l3.375 0l0 13.3125l2.609375 0l0 3.546875l-2.609375 0l0 4.21875l-3.890625 0zm0 -7.765625l0 -7.171875l-4.828125 7.171875l4.828125 0z" fill-rule="nonzero"/><path fill="#f4cccc" d="m488.82547 19.795275l54.771637 0l0 50.362206l-54.771637 0z" fill-rule="evenodd"/><path stroke="#000000" stroke-width="1.0" stroke-linejoin="round" stroke-linecap="butt" d="m488.82547 19.795275l54.771637 0l0 50.362206l-54.771637 0z" fill-rule="evenodd"/><path fill="#000000" d="m509.3527 50.23013l4.0156555 -0.40625q0.171875 1.359375 1.015625 2.15625q0.84375 0.796875 1.953125 0.796875q1.25 0 2.125 -1.015625q0.875 -1.03125 0.875 -3.09375q0 -1.9375 -0.875 -2.90625q-0.859375 -0.96875 -2.25 -0.96875q-1.71875 0 -3.09375 1.53125l-3.2656555 -0.46875l2.0625 -10.921875l10.6406555 0l0 3.765625l-7.59375 0l-0.640625 3.5625q1.359375 -0.671875 2.75 -0.671875q2.6875 0 4.546875 1.953125q1.859375 1.9375 1.859375 5.046875q0 2.59375 -1.5 4.625q-2.046875 2.78125 -5.6875 2.78125q-2.90625 0 -4.7500305 -1.5625q-1.828125 -1.5625 -2.1875 -4.203125z" fill-rule="nonzero"/><path fill="#f4cccc" d="m550.53937 19.795275l54.771667 0l0 50.362206l-54.771667 0z" fill-rule="evenodd"/><path stroke="#000000" stroke-width="1.0" stroke-linejoin="round" stroke-linecap="butt" d="m550.53937 19.795275l54.771667 0l0 50.362206l-54.771667 0z" fill-rule="evenodd"/><path fill="#000000" d="m584.6447 39.777004l-3.890625 0.4375q-0.140625 -1.203125 -0.75 -1.765625q-0.59375 -0.578125 -1.5625 -0.578125q-1.265625 0 -2.15625 1.140625q-0.875 1.140625 -1.109375 4.765625q1.515625 -1.78125 3.75 -1.78125q2.515625 0 4.3125 1.921875q1.796875 1.921875 1.796875 4.953125q0 3.234375 -1.890625 5.1875q-1.890625 1.9375 -4.859375 1.9375q-3.171875 0 -5.21875 -2.46875q-2.046875 -2.46875 -2.046875 -8.09375q0 -5.78125 2.125 -8.328125q2.140625 -2.546875 5.546875 -2.546875q2.390625 0 3.953125 1.34375q1.578125 1.328125 2.0 3.875zm-9.125 8.78125q0 1.96875 0.90625 3.03125q0.90625 1.0625 2.0625 1.0625q1.125 0 1.859375 -0.859375q0.75 -0.875 0.75 -2.875q0 -2.046875 -0.8125 -3.0q-0.796875 -0.953125 -2.0 -0.953125q-1.15625 0 -1.96875 0.921875q-0.796875 0.90625 -0.796875 2.671875z" fill-rule="nonzero"/><path fill="#d0e0e3" d="m488.82547 77.70079l54.771637 0l0 50.362198l-54.771637 0z" fill-rule="evenodd"/><path stroke="#000000" stroke-width="1.0" stroke-linejoin="round" stroke-linecap="butt" d="m488.82547 77.70079l54.771637 0l0 50.362198l-54.771637 0z" fill-rule="evenodd"/><path fill="#000000" d="m509.30582 96.57314l0 -3.734375l13.7500305 0l0 2.921875q-1.703125 1.671875 -3.46875 4.8125q-1.75 3.125 -2.671875 6.65625q-0.921875 3.53125 -0.90625 6.3125l-3.890625 0q0.109375 -4.359375 1.796875 -8.875q1.703125 -4.53125 4.53125 -8.09375l-9.1406555 0z" fill-rule="nonzero"/><path fill="#d0e0e3" d="m550.53937 77.70079l54.771667 0l0 50.362198l-54.771667 0z" fill-rule="evenodd"/><path stroke="#000000" stroke-width="1.0" stroke-linejoin="round" stroke-linecap="butt" d="m550.53937 77.70079l54.771667 0l0 50.362198l-54.771667 0z" fill-rule="evenodd"/><path fill="#000000" d="m574.47284 102.21377q-1.5625 -0.65625 -2.28125 -1.8125q-0.703125 -1.15625 -0.703125 -2.53125q0 -2.34375 1.640625 -3.875q1.640625 -1.53125 4.65625 -1.53125q3.0 0 4.65625 1.53125q1.65625 1.53125 1.65625 3.875q0 1.46875 -0.765625 2.609375q-0.765625 1.140625 -2.140625 1.734375q1.75 0.703125 2.65625 2.046875q0.921875 1.34375 0.921875 3.109375q0 2.90625 -1.859375 4.734375q-1.859375 1.8125 -4.9375 1.8125q-2.859375 0 -4.765625 -1.5q-2.25 -1.78125 -2.25 -4.875q0 -1.703125 0.84375 -3.125q0.84375 -1.421875 2.671875 -2.203125zm0.828125 -4.046875q0 1.203125 0.671875 1.875q0.6875 0.671875 1.8125 0.671875q1.15625 0 1.84375 -0.671875q0.6875 -0.6875 0.6875 -1.890625q0 -1.140625 -0.6875 -1.8125q-0.6875 -0.6875 -1.796875 -0.6875q-1.15625 0 -1.84375 0.6875q-0.6875 0.6875 -0.6875 1.828125zm-0.375 8.984375q0 1.671875 0.84375 2.609375q0.859375 0.921875 2.140625 0.921875q1.234375 0 2.046875 -0.890625q0.828125 -0.90625 0.828125 -2.59375q0 -1.46875 -0.84375 -2.359375q-0.828125 -0.90625 -2.09375 -0.90625q-1.46875 0 -2.203125 1.015625q-0.71875 1.015625 -0.71875 2.203125z" fill-rule="nonzero"/><path fill="#f4cccc" d="m187.48163 161.98688l54.771652 0l0 50.362198l-54.771652 0z" fill-rule="evenodd"/><path stroke="#000000" stroke-width="1.0" stroke-linejoin="round" stroke-linecap="butt" d="m187.48163 161.98688l54.771652 0l0 50.362198l-54.771652 0z" fill-rule="evenodd"/><path fill="#000000" d="m218.25887 197.82797l-4.03125 0l0 -15.171875q-2.203125 2.0625 -5.203125 3.0625l0 -3.65625q1.578125 -0.515625 3.421875 -1.953125q1.859375 -1.4375 2.546875 -3.359375l3.265625 0l0 21.078125z" fill-rule="nonzero"/><path fill="#f4cccc" d="m249.19554 161.98688l54.771652 0l0 50.362198l-54.771652 0z" fill-rule="evenodd"/><path stroke="#000000" stroke-width="1.0" stroke-linejoin="round" stroke-linecap="butt" d="m249.19554 161.98688l54.771652 0l0 50.362198l-54.771652 0z" fill-rule="evenodd"/><path fill="#000000" d="m283.25403 194.0936l0 3.734375l-14.09375 0q0.21875 -2.125 1.359375 -4.015625q1.15625 -1.90625 4.53125 -5.03125q2.71875 -2.53125 3.34375 -3.4375q0.828125 -1.25 0.828125 -2.46875q0 -1.34375 -0.734375 -2.0625q-0.71875 -0.734375 -1.984375 -0.734375q-1.265625 0 -2.015625 0.765625q-0.734375 0.765625 -0.84375 2.515625l-4.015625 -0.390625q0.359375 -3.328125 2.25 -4.765625q1.890625 -1.453125 4.71875 -1.453125q3.109375 0 4.875 1.671875q1.78125 1.671875 1.78125 4.171875q0 1.421875 -0.515625 2.703125q-0.5 1.28125 -1.59375 2.671875q-0.734375 0.9375 -2.640625 2.6875q-1.90625 1.75 -2.421875 2.328125q-0.5 0.5625 -0.8125 1.109375l7.984375 0z" fill-rule="nonzero"/><path fill="#f4cccc" d="m187.48163 219.8924l54.771652 0l0 50.362213l-54.771652 0z" fill-rule="evenodd"/><path stroke="#000000" stroke-width="1.0" stroke-linejoin="round" stroke-linecap="butt" d="m187.48163 219.8924l54.771652 0l0 50.362213l-54.771652 0z" fill-rule="evenodd"/><path fill="#000000" d="m208.00887 250.32724l4.015625 -0.40625q0.171875 1.359375 1.015625 2.15625q0.84375 0.796875 1.953125 0.796875q1.25 0 2.125 -1.015625q0.875 -1.03125 0.875 -3.09375q0 -1.9375 -0.875 -2.90625q-0.859375 -0.96875 -2.25 -0.96875q-1.71875 0 -3.09375 1.53125l-3.265625 -0.46875l2.0625 -10.921875l10.640625 0l0 3.765625l-7.59375 0l-0.640625 3.5625q1.359375 -0.671875 2.75 -0.671875q2.6875 0 4.546875 1.953125q1.859375 1.9375 1.859375 5.046875q0 2.59375 -1.5 4.625q-2.046875 2.78125 -5.6875 2.78125q-2.90625 0 -4.75 -1.5625q-1.828125 -1.5625 -2.1875 -4.203125z" fill-rule="nonzero"/><path fill="#f4cccc" d="m249.19554 219.8924l54.771652 0l0 50.362213l-54.771652 0z" fill-rule="evenodd"/><path stroke="#000000" stroke-width="1.0" stroke-linejoin="round" stroke-linecap="butt" d="m249.19554 219.8924l54.771652 0l0 50.362213l-54.771652 0z" fill-rule="evenodd"/><path fill="#000000" d="m283.3009 239.87411l-3.890625 0.4375q-0.140625 -1.203125 -0.75 -1.765625q-0.59375 -0.578125 -1.5625 -0.578125q-1.265625 0 -2.15625 1.140625q-0.875 1.140625 -1.109375 4.765625q1.515625 -1.78125 3.75 -1.78125q2.515625 0 4.3125 1.921875q1.796875 1.921875 1.796875 4.953125q0 3.234375 -1.890625 5.1875q-1.890625 1.9375 -4.859375 1.9375q-3.171875 0 -5.21875 -2.46875q-2.046875 -2.46875 -2.046875 -8.09375q0 -5.78125 2.125 -8.328125q2.140625 -2.546875 5.546875 -2.546875q2.390625 0 3.953125 1.34375q1.578125 1.328125 2.0 3.875zm-9.125 8.78125q0 1.96875 0.90625 3.03125q0.90625 1.0625 2.0625 1.0625q1.125 0 1.859375 -0.859375q0.75 -0.875 0.75 -2.875q0 -2.046875 -0.8125 -3.0q-0.796875 -0.953125 -2.0 -0.953125q-1.15625 0 -1.96875 0.921875q-0.796875 0.90625 -0.796875 2.671875z" fill-rule="nonzero"/><path fill="#d0e0e3" d="m323.28217 161.98688l54.771637 0l0 50.362198l-54.771637 0z" fill-rule="evenodd"/><path stroke="#000000" stroke-width="1.0" stroke-linejoin="round" stroke-linecap="butt" d="m323.28217 161.98688l54.771637 0l0 50.362198l-54.771637 0z" fill-rule="evenodd"/><path fill="#000000" d="m343.6219 192.24985l3.890625 -0.46875q0.1875 1.5 1.0 2.28125q0.8125 0.78125 1.96875 0.78125q1.25 0 2.09375 -0.9375q0.859375 -0.953125 0.859375 -2.546875q0 -1.515625 -0.8125 -2.40625q-0.8125 -0.890625 -1.984375 -0.890625q-0.78125 0 -1.859375 0.296875l0.453125 -3.28125q1.625 0.046875 2.484375 -0.703125q0.859375 -0.75 0.859375 -2.0q0 -1.0625 -0.625 -1.6875q-0.625 -0.625 -1.671875 -0.625q-1.03125 0 -1.765625 0.71875q-0.734375 0.703125 -0.890625 2.078125l-3.703125 -0.625q0.390625 -1.90625 1.15625 -3.046875q0.78125 -1.140625 2.171875 -1.78125q1.40625 -0.65625 3.140625 -0.65625q2.96875 0 4.75 1.890625q1.484375 1.546875 1.484375 3.5q0 2.75 -3.03125 4.40625q1.8125 0.390625 2.890625 1.734375q1.078125 1.34375 1.078125 3.25q0 2.765625 -2.015625 4.71875q-2.015625 1.9375 -5.03125 1.9375q-2.84375 0 -4.71875 -1.640625q-1.875 -1.640625 -2.171875 -4.296875z" fill-rule="nonzero"/><path fill="#d0e0e3" d="m384.99606 161.98688l54.771667 0l0 50.362198l-54.771667 0z" fill-rule="evenodd"/><path stroke="#000000" stroke-width="1.0" stroke-linejoin="round" stroke-linecap="butt" d="m384.99606 161.98688l54.771667 0l0 50.362198l-54.771667 0z" fill-rule="evenodd"/><path fill="#000000" d="m413.36707 197.82797l0 -4.21875l-8.59375 0l0 -3.53125l9.109375 -13.328125l3.375 0l0 13.3125l2.609375 0l0 3.546875l-2.609375 0l0 4.21875l-3.890625 0zm0 -7.765625l0 -7.171875l-4.828125 7.171875l4.828125 0z" fill-rule="nonzero"/><path fill="#d0e0e3" d="m323.28217 219.8924l54.771637 0l0 50.362213l-54.771637 0z" fill-rule="evenodd"/><path stroke="#000000" stroke-width="1.0" stroke-linejoin="round" stroke-linecap="butt" d="m323.28217 219.8924l54.771637 0l0 50.362213l-54.771637 0z" fill-rule="evenodd"/><path fill="#000000" d="m343.7625 238.76474l0 -3.734375l13.75 0l0 2.921875q-1.703125 1.671875 -3.46875 4.8125q-1.75 3.125 -2.671875 6.65625q-0.921875 3.53125 -0.90625 6.3125l-3.890625 0q0.109375 -4.359375 1.796875 -8.875q1.703125 -4.53125 4.53125 -8.09375l-9.140625 0z" fill-rule="nonzero"/><path fill="#d0e0e3" d="m384.99606 219.8924l54.771667 0l0 50.362213l-54.771667 0z" fill-rule="evenodd"/><path stroke="#000000" stroke-width="1.0" stroke-linejoin="round" stroke-linecap="butt" d="m384.99606 219.8924l54.771667 0l0 50.362213l-54.771667 0z" fill-rule="evenodd"/><path fill="#000000" d="m408.92957 244.40536q-1.5625 -0.65625 -2.28125 -1.8125q-0.703125 -1.15625 -0.703125 -2.53125q0 -2.34375 1.640625 -3.875q1.640625 -1.53125 4.65625 -1.53125q3.0 0 4.65625 1.53125q1.65625 1.53125 1.65625 3.875q0 1.46875 -0.765625 2.609375q-0.765625 1.140625 -2.140625 1.734375q1.75 0.703125 2.65625 2.046875q0.921875 1.34375 0.921875 3.109375q0 2.90625 -1.859375 4.734375q-1.859375 1.8125 -4.9375 1.8125q-2.859375 0 -4.765625 -1.5q-2.25 -1.78125 -2.25 -4.875q0 -1.703125 0.84375 -3.125q0.84375 -1.421875 2.671875 -2.203125zm0.828125 -4.046875q0 1.203125 0.671875 1.875q0.6875 0.671875 1.8125 0.671875q1.15625 0 1.84375 -0.671875q0.6875 -0.6875 0.6875 -1.890625q0 -1.140625 -0.6875 -1.8125q-0.6875 -0.6875 -1.796875 -0.6875q-1.15625 0 -1.84375 0.6875q-0.6875 0.6875 -0.6875 1.828125zm-0.375 8.984375q0 1.671875 0.84375 2.609375q0.859375 0.921875 2.140625 0.921875q1.234375 0 2.046875 -0.890625q0.828125 -0.90625 0.828125 -2.59375q0 -1.46875 -0.84375 -2.359375q-0.828125 -0.90625 -2.09375 -0.90625q-1.46875 0 -2.203125 1.015625q-0.71875 1.015625 -0.71875 2.203125z" fill-rule="nonzero"/><path fill="#000000" fill-opacity="0.0" d="m180.62993 157.12335l129.88976 0l0 118.141754l-129.88976 0z" fill-rule="evenodd"/><path stroke="#000000" stroke-width="1.0" stroke-linejoin="round" stroke-linecap="butt" stroke-dasharray="4.0,3.0" d="m180.62993 157.12335l129.88976 0l0 118.141754l-129.88976 0z" fill-rule="evenodd"/><path fill="#000000" fill-opacity="0.0" d="m317.25723 157.12335l129.88974 0l0 118.141754l-129.88974 0z" fill-rule="evenodd"/><path stroke="#000000" stroke-width="1.0" stroke-linejoin="round" stroke-linecap="butt" stroke-dasharray="4.0,3.0" d="m317.25723 157.12335l129.88974 0l0 118.141754l-129.88974 0z" fill-rule="evenodd"/><path fill="#000000" fill-opacity="0.0" d="m139.6483 138.57217c0 38.81891 20.48819 77.6378 40.976364 77.6378" fill-rule="evenodd"/><path stroke="#000000" stroke-width="1.0" stroke-linejoin="round" stroke-linecap="butt" d="m139.6483 138.57217c0 19.409454 5.12204 38.81891 12.805115 53.37599c3.8415375 7.278534 8.3233185 13.343994 13.125244 17.589813c2.4009552 2.1229095 4.8819427 3.7909088 7.4029694 4.928192c0.3151245 0.14213562 0.6308594 0.27601624 0.9471588 0.40142822c0.15815735 0.06272888 0.31643677 0.12332153 0.47485352 0.18179321l0.3134613 0.11140442" fill-rule="evenodd"/><path fill="#000000" stroke="#000000" stroke-width="1.0" stroke-linecap="butt" d="m174.42828 216.78708l4.757004 -0.83273315l-4.179352 -2.4198303z" fill-rule="evenodd"/><path fill="#000000" fill-opacity="0.0" d="m447.14697 216.19423c19.102356 0 38.204742 -38.803146 38.204742 -77.60631" fill-rule="evenodd"/><path stroke="#000000" stroke-width="1.0" stroke-linejoin="round" stroke-linecap="butt" d="m447.14697 216.19423c9.551178 0 19.102356 -9.70079 26.265747 -24.251968c3.5816956 -7.275589 6.566437 -15.763779 8.655762 -24.858276c1.0446777 -4.547241 1.8654785 -9.246063 2.4251099 -14.02066c0.27981567 -2.3873138 0.49435425 -4.793564 0.638916 -7.2092743c0.018096924 -0.30197144 0.035064697 -0.6040802 0.050933838 -0.9063263l0.017669678 -0.36167908" fill-rule="evenodd"/><path fill="#000000" stroke="#000000" stroke-width="1.0" stroke-linecap="butt" d="m486.85233 144.62749l-1.537323 -4.578125l-1.7651062 4.495224z" fill-rule="evenodd"/></g></svg>