<svg version="1.1" viewBox="0.0 0.0 418.6115485564304 436.5721784776903" fill="none" stroke="none" stroke-linecap="square" stroke-miterlimit="10" xmlns:xlink="http://www.w3.org/1999/xlink" xmlns="http://www.w3.org/2000/svg"><clipPath id="p.0"><path d="m0 0l418.61154 0l0 436.57217l-418.61154 0l0 -436.57217z" clip-rule="nonzero"/></clipPath><g clip-path="url(#p.0)"><path fill="#000000" fill-opacity="0.0" d="m0 0l418.61154 0l0 436.57217l-418.61154 0z" fill-rule="evenodd"/><path fill="#000000" fill-opacity="0.0" d="m18.886517 56.716534l135.55905 0l0 129.29134l-135.55905 0z" fill-rule="evenodd"/><path stroke="#000000" stroke-width="1.0" stroke-linejoin="round" stroke-linecap="butt" stroke-dasharray="4.0,3.0" d="m18.886517 56.716534l135.55905 0l0 129.29134l-135.55905 0z" fill-rule="evenodd"/><path fill="#d0e0e3" d="m27.748032 67.22966l54.771652 0l0 50.362206l-54.771652 0z" fill-rule="evenodd"/><path stroke="#000000" stroke-width="1.0" stroke-linejoin="round" stroke-linecap="butt" d="m27.748032 67.22966l54.771652 0l0 50.362206l-54.771652 0z" fill-rule="evenodd"/><path fill="#000000" d="m58.525276 103.07076l-4.03125 0l0 -15.171875q-2.203125 2.0625 -5.203125 3.0625l0 -3.65625q1.578125 -0.515625 3.421875 -1.953125q1.859375 -1.4375 2.546875 -3.359375l3.265625 0l0 21.078125z" fill-rule="nonzero"/><path fill="#d0e0e3" d="m89.461945 67.22966l54.771652 0l0 50.362206l-54.771652 0z" fill-rule="evenodd"/><path stroke="#000000" stroke-width="1.0" stroke-linejoin="round" stroke-linecap="butt" d="m89.461945 67.22966l54.771652 0l0 50.362206l-54.771652 0z" fill-rule="evenodd"/><path fill="#000000" d="m123.52044 99.33639l0 3.734375l-14.09375 0q0.21875 -2.125 1.359375 -4.015625q1.15625 -1.90625 4.53125 -5.03125q2.71875 -2.53125 3.34375 -3.4375q0.828125 -1.25 0.828125 -2.46875q0 -1.34375 -0.734375 -2.0625q-0.71875 -0.734375 -1.984375 -0.734375q-1.265625 0 -2.015625 0.765625q-0.734375 0.765625 -0.84375 2.515625l-4.015625 -0.390625q0.359375 -3.328125 2.25 -4.765625q1.890625 -1.453125 4.71875 -1.453125q3.109375 0 4.875 1.671875q1.78125 1.671875 1.78125 4.171875q0 1.421875 -0.515625 2.703125q-0.5 1.28125 -1.59375 2.671875q-0.734375 0.9375 -2.640625 2.6875q-1.90625 1.75 -2.421875 2.328125q-0.5 0.5625 -0.8125 1.109375l7.984375 0z" fill-rule="nonzero"/><path fill="#d0e0e3" d="m27.748032 125.13517l54.771652 0l0 50.362206l-54.771652 0z" fill-rule="evenodd"/><path stroke="#000000" stroke-width="1.0" stroke-linejoin="round" stroke-linecap="butt" d="m27.748032 125.13517l54.771652 0l0 50.362206l-54.771652 0z" fill-rule="evenodd"/><path fill="#000000" d="m48.087776 155.39815l3.890625 -0.46875q0.1875 1.5 1.0 2.28125q0.8125 0.78125 1.96875 0.78125q1.25 0 2.09375 -0.9375q0.859375 -0.953125 0.859375 -2.546875q0 -1.515625 -0.8125 -2.40625q-0.8125 -0.890625 -1.984375 -0.890625q-0.78125 0 -1.859375 0.296875l0.453125 -3.28125q1.625 0.046875 2.484375 -0.703125q0.859375 -0.75 0.859375 -2.0q0 -1.0625 -0.625 -1.6875q-0.625 -0.625 -1.671875 -0.625q-1.03125 0 -1.765625 0.71875q-0.734375 0.703125 -0.890625 2.078125l-3.703125 -0.625q0.390625 -1.90625 1.15625 -3.046875q0.78125 -1.140625 2.171875 -1.78125q1.40625 -0.65625 3.140625 -0.65625q2.96875 0 4.75 1.890625q1.484375 1.546875 1.484375 3.5q0 2.75 -3.03125 4.40625q1.8125 0.390625 2.890625 1.734375q1.078125 1.34375 1.078125 3.25q0 2.765625 -2.015625 4.71875q-2.015625 1.9375 -5.03125 1.9375q-2.84375 0 -4.71875 -1.640625q-1.875 -1.640625 -2.171875 -4.296875z" fill-rule="nonzero"/><path fill="#d0e0e3" d="m89.461945 125.13517l54.771652 0l0 50.362206l-54.771652 0z" fill-rule="evenodd"/><path stroke="#000000" stroke-width="1.0" stroke-linejoin="round" stroke-linecap="butt" d="m89.461945 125.13517l54.771652 0l0 50.362206l-54.771652 0z" fill-rule="evenodd"/><path fill="#000000" d="m117.83294 160.97627l0 -4.21875l-8.59375 0l0 -3.53125l9.109375 -13.328125l3.375 0l0 13.3125l2.609375 0l0 3.546875l-2.609375 0l0 4.21875l-3.890625 0zm0 -7.765625l0 -7.171875l-4.828125 7.171875l4.828125 0z" fill-rule="nonzero"/><path fill="#000000" fill-opacity="0.0" d="m46.52362 16.644358l80.28346 0l0 25.858267l-80.28346 0z" fill-rule="evenodd"/><path fill="#000000" d="m58.578342 36.29349l0 -13.359375l5.921871 0q1.78125 0 2.703125 0.359375q0.9375 0.359375 1.484375 1.28125q0.5625 0.90625 0.5625 2.015625q0 1.40625 -0.921875 2.390625q-0.921875 0.96875 -2.84375 1.234375q0.703125 0.34375 1.078125 0.671875q0.765625 0.703125 1.453125 1.765625l2.328125 3.640625l-2.21875 0l-1.765625 -2.78125q-0.78125 -1.203125 -1.28125 -1.828125q-0.5 -0.640625 -0.90625 -0.890625q-0.3906212 -0.265625 -0.7968712 -0.359375q-0.296875 -0.078125 -0.984375 -0.078125l-2.046875 0l0 5.9375l-1.765625 0zm1.765625 -7.453125l3.7968712 0q1.21875 0 1.890625 -0.25q0.6875 -0.265625 1.046875 -0.8125q0.359375 -0.546875 0.359375 -1.1875q0 -0.953125 -0.6875 -1.5625q-0.6875 -0.609375 -2.1875 -0.609375l-4.218746 0l0 4.421875zm17.785442 6.265625q-0.921875 0.765625 -1.765625 1.09375q-0.828125 0.3125 -1.796875 0.3125q-1.59375 0 -2.453125 -0.78125q-0.859375 -0.78125 -0.859375 -1.984375q0 -0.71875 0.328125 -1.296875q0.328125 -0.59375 0.84375 -0.9375q0.53125 -0.359375 1.1875 -0.546875q0.46875 -0.125 1.453125 -0.25q1.984375 -0.234375 2.921875 -0.5625q0.015625 -0.34375 0.015625 -0.421875q0 -1.0 -0.46875 -1.421875q-0.625 -0.546875 -1.875 -0.546875q-1.15625 0 -1.703125 0.40625q-0.546875 0.40625 -0.8125 1.421875l-1.609375 -0.21875q0.21875 -1.015625 0.71875 -1.640625q0.5 -0.640625 1.453125 -0.984375q0.953125 -0.34375 2.1875 -0.34375q1.25 0 2.015625 0.296875q0.78125 0.28125 1.140625 0.734375q0.375 0.4375 0.515625 1.109375q0.078125 0.421875 0.078125 1.515625l0 2.1875q0 2.28125 0.109375 2.890625q0.109375 0.59375 0.40625 1.15625l-1.703125 0q-0.265625 -0.515625 -0.328125 -1.1875zm-0.140625 -3.671875q-0.890625 0.375 -2.671875 0.625q-1.015625 0.140625 -1.4375 0.328125q-0.421875 0.1875 -0.65625 0.53125q-0.21875 0.34375 -0.21875 0.78125q0 0.65625 0.5 1.09375q0.5 0.4375 1.453125 0.4375q0.9375 0 1.671875 -0.40625q0.75 -0.421875 1.09375 -1.140625q0.265625 -0.5625 0.265625 -1.640625l0 -0.609375zm4.203842 4.859375l0 -9.671875l1.46875 0l0 1.375q1.0625 -1.59375 3.078125 -1.59375q0.875 0 1.609375 0.3125q0.734375 0.3125 1.09375 0.828125q0.375 0.5 0.515625 1.203125q0.09375 0.453125 0.09375 1.59375l0 5.953125l-1.640625 0l0 -5.890625q0 -1.0 -0.203125 -1.484375q-0.1875 -0.5 -0.671875 -0.796875q-0.484375 -0.296875 -1.140625 -0.296875q-1.046875 0 -1.8125 0.671875q-0.75 0.65625 -0.75 2.515625l0 5.28125l-1.640625 0zm10.375717 0l0 -13.359375l1.640625 0l0 7.625l3.890625 -3.9375l2.109375 0l-3.6875 3.59375l4.0625 6.078125l-2.015625 0l-3.203125 -4.953125l-1.15625 1.125l0 3.828125l-1.640625 0zm14.058304 -6.59375q0 -2.359375 0.484375 -3.796875q0.484375 -1.453125 1.4375 -2.234375q0.96875 -0.78125 2.421875 -0.78125q1.078125 0 1.890625 0.4375q0.8125 0.421875 1.328125 1.25q0.53125 0.8125 0.828125 1.984375q0.3125 1.15625 0.3125 3.140625q0 2.359375 -0.484375 3.8125q-0.484375 1.4375 -1.453125 2.234375q-0.953125 0.78125 -2.421875 0.78125q-1.921875 0 -3.03125 -1.390625q-1.3125 -1.671875 -1.3125 -5.4375zm1.671875 0q0 3.296875 0.765625 4.390625q0.78125 1.078125 1.90625 1.078125q1.140625 0 1.90625 -1.09375q0.765625 -1.09375 0.765625 -4.375q0 -3.296875 -0.765625 -4.375q-0.765625 -1.078125 -1.921875 -1.078125q-1.125 0 -1.796875 0.953125q-0.859375 1.21875 -0.859375 4.5z" fill-rule="nonzero"/><path fill="#000000" fill-opacity="0.0" d="m203.77628 56.716534l135.55905 0l0 129.29134l-135.55905 0z" fill-rule="evenodd"/><path stroke="#000000" stroke-width="1.0" stroke-linejoin="round" stroke-linecap="butt" stroke-dasharray="4.0,3.0" d="m203.77628 56.716534l135.55905 0l0 129.29134l-135.55905 0z" fill-rule="evenodd"/><path fill="#d0e0e3" fill-opacity="0.3045" d="m212.6378 67.22966l54.771652 0l0 50.362206l-54.771652 0z" fill-rule="evenodd"/><path stroke="#000000" stroke-width="1.0" stroke-linejoin="round" stroke-linecap="butt" d="m212.6378 67.22966l54.771652 0l0 50.362206l-54.771652 0z" fill-rule="evenodd"/><path fill="#d0e0e3" fill-opacity="0.3045" d="m274.3517 67.22966l54.771637 0l0 50.362206l-54.771637 0z" fill-rule="evenodd"/><path stroke="#000000" stroke-width="1.0" stroke-linejoin="round" stroke-linecap="butt" d="m274.3517 67.22966l54.771637 0l0 50.362206l-54.771637 0z" fill-rule="evenodd"/><path fill="#d0e0e3" fill-opacity="0.3045" d="m212.6378 125.13517l54.771652 0l0 50.362206l-54.771652 0z" fill-rule="evenodd"/><path stroke="#000000" stroke-width="1.0" stroke-linejoin="round" stroke-linecap="butt" d="m212.6378 125.13517l54.771652 0l0 50.362206l-54.771652 0z" fill-rule="evenodd"/><path fill="#d0e0e3" fill-opacity="0.3045" d="m274.3517 125.13517l54.771637 0l0 50.362206l-54.771637 0z" fill-rule="evenodd"/><path stroke="#000000" stroke-width="1.0" stroke-linejoin="round" stroke-linecap="butt" d="m274.3517 125.13517l54.771637 0l0 50.362206l-54.771637 0z" fill-rule="evenodd"/><path fill="#000000" fill-opacity="0.0" d="m231.41339 16.644358l80.28345 0l0 25.858267l-80.28345 0z" fill-rule="evenodd"/><path fill="#000000" d="m243.46811 36.29349l0 -13.359375l5.921875 0q1.78125 0 2.703125 0.359375q0.9375 0.359375 1.484375 1.28125q0.5625 0.90625 0.5625 2.015625q0 1.40625 -0.921875 2.390625q-0.921875 0.96875 -2.84375 1.234375q0.703125 0.34375 1.078125 0.671875q0.765625 0.703125 1.453125 1.765625l2.328125 3.640625l-2.21875 0l-1.765625 -2.78125q-0.78125 -1.203125 -1.28125 -1.828125q-0.5 -0.640625 -0.90625 -0.890625q-0.390625 -0.265625 -0.796875 -0.359375q-0.296875 -0.078125 -0.984375 -0.078125l-2.046875 0l0 5.9375l-1.765625 0zm1.765625 -7.453125l3.796875 0q1.21875 0 1.890625 -0.25q0.6875 -0.265625 1.046875 -0.8125q0.359375 -0.546875 0.359375 -1.1875q0 -0.953125 -0.6875 -1.5625q-0.6875 -0.609375 -2.1875 -0.609375l-4.21875 0l0 4.421875zm17.78543 6.265625q-0.921875 0.765625 -1.765625 1.09375q-0.828125 0.3125 -1.796875 0.3125q-1.59375 0 -2.453125 -0.78125q-0.859375 -0.78125 -0.859375 -1.984375q0 -0.71875 0.328125 -1.296875q0.328125 -0.59375 0.84375 -0.9375q0.53125 -0.359375 1.1875 -0.546875q0.46875 -0.125 1.453125 -0.25q1.984375 -0.234375 2.921875 -0.5625q0.015625 -0.34375 0.015625 -0.421875q0 -1.0 -0.46875 -1.421875q-0.625 -0.546875 -1.875 -0.546875q-1.15625 0 -1.703125 0.40625q-0.546875 0.40625 -0.8125 1.421875l-1.609375 -0.21875q0.21875 -1.015625 0.71875 -1.640625q0.5 -0.640625 1.453125 -0.984375q0.953125 -0.34375 2.1875 -0.34375q1.25 0 2.015625 0.296875q0.78125 0.28125 1.140625 0.734375q0.375 0.4375 0.515625 1.109375q0.078125 0.421875 0.078125 1.515625l0 2.1875q0 2.28125 0.109375 2.890625q0.109375 0.59375 0.40625 1.15625l-1.703125 0q-0.265625 -0.515625 -0.328125 -1.1875zm-0.140625 -3.671875q-0.890625 0.375 -2.671875 0.625q-1.015625 0.140625 -1.4375 0.328125q-0.421875 0.1875 -0.65625 0.53125q-0.21875 0.34375 -0.21875 0.78125q0 0.65625 0.5 1.09375q0.5 0.4375 1.453125 0.4375q0.9375 0 1.671875 -0.40625q0.75 -0.421875 1.09375 -1.140625q0.265625 -0.5625 0.265625 -1.640625l0 -0.609375zm4.2038574 4.859375l0 -9.671875l1.46875 0l0 1.375q1.0625 -1.59375 3.078125 -1.59375q0.875 0 1.609375 0.3125q0.734375 0.3125 1.09375 0.828125q0.375 0.5 0.515625 1.203125q0.09375 0.453125 0.09375 1.59375l0 5.953125l-1.640625 0l0 -5.890625q0 -1.0 -0.203125 -1.484375q-0.1875 -0.5 -0.671875 -0.796875q-0.484375 -0.296875 -1.140625 -0.296875q-1.046875 0 -1.8125 0.671875q-0.75 0.65625 -0.75 2.515625l0 5.28125l-1.640625 0zm10.375702 0l0 -13.359375l1.640625 0l0 7.625l3.890625 -3.9375l2.109375 0l-3.6875 3.59375l4.0625 6.078125l-2.015625 0l-3.203125 -4.953125l-1.15625 1.125l0 3.828125l-1.640625 0zm20.230194 0l-1.640625 0l0 -10.453125q-0.59375 0.5625 -1.5625 1.140625q-0.953125 0.5625 -1.71875 0.84375l0 -1.59375q1.375 -0.640625 2.40625 -1.5625q1.03125 -0.921875 1.453125 -1.78125l1.0625 0l0 13.40625z" fill-rule="nonzero"/><path fill="#000000" fill-opacity="0.0" d="m18.886517 290.63516l135.55905 0l0 129.29135l-135.55905 0z" fill-rule="evenodd"/><path stroke="#000000" stroke-width="1.0" stroke-linejoin="round" stroke-linecap="butt" stroke-dasharray="4.0,3.0" d="m18.886517 290.63516l135.55905 0l0 129.29135l-135.55905 0z" fill-rule="evenodd"/><path fill="#d0e0e3" d="m27.748032 301.1483l54.771652 0l0 50.362213l-54.771652 0z" fill-rule="evenodd"/><path stroke="#000000" stroke-width="1.0" stroke-linejoin="round" stroke-linecap="butt" d="m27.748032 301.1483l54.771652 0l0 50.362213l-54.771652 0z" fill-rule="evenodd"/><path fill="#000000" d="m58.525276 336.9894l-4.03125 0l0 -15.171875q-2.203125 2.0625 -5.203125 3.0625l0 -3.65625q1.578125 -0.515625 3.421875 -1.953125q1.859375 -1.4375 2.546875 -3.359375l3.265625 0l0 21.078125z" fill-rule="nonzero"/><path fill="#d0e0e3" d="m89.461945 301.1483l54.771652 0l0 50.362213l-54.771652 0z" fill-rule="evenodd"/><path stroke="#000000" stroke-width="1.0" stroke-linejoin="round" stroke-linecap="butt" d="m89.461945 301.1483l54.771652 0l0 50.362213l-54.771652 0z" fill-rule="evenodd"/><path fill="#000000" d="m123.52044 333.25504l0 3.734375l-14.09375 0q0.21875 -2.125 1.359375 -4.015625q1.15625 -1.90625 4.53125 -5.03125q2.71875 -2.53125 3.34375 -3.4375q0.828125 -1.25 0.828125 -2.46875q0 -1.34375 -0.734375 -2.0625q-0.71875 -0.734375 -1.984375 -0.734375q-1.265625 0 -2.015625 0.765625q-0.734375 0.765625 -0.84375 2.515625l-4.015625 -0.390625q0.359375 -3.328125 2.25 -4.765625q1.890625 -1.453125 4.71875 -1.453125q3.109375 0 4.875 1.671875q1.78125 1.671875 1.78125 4.171875q0 1.421875 -0.515625 2.703125q-0.5 1.28125 -1.59375 2.671875q-0.734375 0.9375 -2.640625 2.6875q-1.90625 1.75 -2.421875 2.328125q-0.5 0.5625 -0.8125 1.109375l7.984375 0z" fill-rule="nonzero"/><path fill="#d0e0e3" d="m27.748032 359.0538l54.771652 0l0 50.362213l-54.771652 0z" fill-rule="evenodd"/><path stroke="#000000" stroke-width="1.0" stroke-linejoin="round" stroke-linecap="butt" d="m27.748032 359.0538l54.771652 0l0 50.362213l-54.771652 0z" fill-rule="evenodd"/><path fill="#000000" d="m48.087776 389.31677l3.890625 -0.46875q0.1875 1.5 1.0 2.28125q0.8125 0.78125 1.96875 0.78125q1.25 0 2.09375 -0.9375q0.859375 -0.953125 0.859375 -2.546875q0 -1.515625 -0.8125 -2.40625q-0.8125 -0.890625 -1.984375 -0.890625q-0.78125 0 -1.859375 0.296875l0.453125 -3.28125q1.625 0.046875 2.484375 -0.703125q0.859375 -0.75 0.859375 -2.0q0 -1.0625 -0.625 -1.6875q-0.625 -0.625 -1.671875 -0.625q-1.03125 0 -1.765625 0.71875q-0.734375 0.703125 -0.890625 2.078125l-3.703125 -0.625q0.390625 -1.90625 1.15625 -3.046875q0.78125 -1.140625 2.171875 -1.78125q1.40625 -0.65625 3.140625 -0.65625q2.96875 0 4.75 1.890625q1.484375 1.546875 1.484375 3.5q0 2.75 -3.03125 4.40625q1.8125 0.390625 2.890625 1.734375q1.078125 1.34375 1.078125 3.25q0 2.765625 -2.015625 4.71875q-2.015625 1.9375 -5.03125 1.9375q-2.84375 0 -4.71875 -1.640625q-1.875 -1.640625 -2.171875 -4.296875z" fill-rule="nonzero"/><path fill="#d0e0e3" d="m89.461945 359.0538l54.771652 0l0 50.362213l-54.771652 0z" fill-rule="evenodd"/><path stroke="#000000" stroke-width="1.0" stroke-linejoin="round" stroke-linecap="butt" d="m89.461945 359.0538l54.771652 0l0 50.362213l-54.771652 0z" fill-rule="evenodd"/><path fill="#000000" d="m117.83294 394.8949l0 -4.21875l-8.59375 0l0 -3.53125l9.109375 -13.328125l3.375 0l0 13.3125l2.609375 0l0 3.546875l-2.609375 0l0 4.21875l-3.890625 0zm0 -7.765625l0 -7.171875l-4.828125 7.171875l4.828125 0z" fill-rule="nonzero"/><path fill="#000000" fill-opacity="0.0" d="m46.52362 250.56299l80.28346 0l0 25.858276l-80.28346 0z" fill-rule="evenodd"/><path fill="#000000" d="m58.578342 270.21213l0 -13.359375l5.921871 0q1.78125 0 2.703125 0.359375q0.9375 0.359375 1.484375 1.28125q0.5625 0.90625 0.5625 2.015625q0 1.40625 -0.921875 2.390625q-0.921875 0.96875 -2.84375 1.234375q0.703125 0.34375 1.078125 0.671875q0.765625 0.703125 1.453125 1.765625l2.328125 3.640625l-2.21875 0l-1.765625 -2.78125q-0.78125 -1.203125 -1.28125 -1.828125q-0.5 -0.640625 -0.90625 -0.890625q-0.3906212 -0.265625 -0.7968712 -0.359375q-0.296875 -0.078125 -0.984375 -0.078125l-2.046875 0l0 5.9375l-1.765625 0zm1.765625 -7.453125l3.7968712 0q1.21875 0 1.890625 -0.25q0.6875 -0.265625 1.046875 -0.8125q0.359375 -0.546875 0.359375 -1.1875q0 -0.953125 -0.6875 -1.5625q-0.6875 -0.609375 -2.1875 -0.609375l-4.218746 0l0 4.421875zm17.785442 6.265625q-0.921875 0.765625 -1.765625 1.09375q-0.828125 0.3125 -1.796875 0.3125q-1.59375 0 -2.453125 -0.78125q-0.859375 -0.78125 -0.859375 -1.984375q0 -0.71875 0.328125 -1.296875q0.328125 -0.59375 0.84375 -0.9375q0.53125 -0.359375 1.1875 -0.546875q0.46875 -0.125 1.453125 -0.25q1.984375 -0.234375 2.921875 -0.5625q0.015625 -0.34375 0.015625 -0.421875q0 -1.0 -0.46875 -1.421875q-0.625 -0.546875 -1.875 -0.546875q-1.15625 0 -1.703125 0.40625q-0.546875 0.40625 -0.8125 1.421875l-1.609375 -0.21875q0.21875 -1.015625 0.71875 -1.640625q0.5 -0.640625 1.453125 -0.984375q0.953125 -0.34375 2.1875 -0.34375q1.25 0 2.015625 0.296875q0.78125 0.28125 1.140625 0.734375q0.375 0.4375 0.515625 1.109375q0.078125 0.421875 0.078125 1.515625l0 2.1875q0 2.28125 0.109375 2.890625q0.109375 0.59375 0.40625 1.15625l-1.703125 0q-0.265625 -0.515625 -0.328125 -1.1875zm-0.140625 -3.671875q-0.890625 0.375 -2.671875 0.625q-1.015625 0.140625 -1.4375 0.328125q-0.421875 0.1875 -0.65625 0.53125q-0.21875 0.34375 -0.21875 0.78125q0 0.65625 0.5 1.09375q0.5 0.4375 1.453125 0.4375q0.9375 0 1.671875 -0.40625q0.75 -0.421875 1.09375 -1.140625q0.265625 -0.5625 0.265625 -1.640625l0 -0.609375zm4.203842 4.859375l0 -9.671875l1.46875 0l0 1.375q1.0625 -1.59375 3.078125 -1.59375q0.875 0 1.609375 0.3125q0.734375 0.3125 1.09375 0.828125q0.375 0.5 0.515625 1.203125q0.09375 0.453125 0.09375 1.59375l0 5.953125l-1.640625 0l0 -5.890625q0 -1.0 -0.203125 -1.484375q-0.1875 -0.5 -0.671875 -0.796875q-0.484375 -0.296875 -1.140625 -0.296875q-1.046875 0 -1.8125 0.671875q-0.75 0.65625 -0.75 2.515625l0 5.28125l-1.640625 0zm10.375717 0l0 -13.359375l1.640625 0l0 7.625l3.890625 -3.9375l2.109375 0l-3.6875 3.59375l4.0625 6.078125l-2.015625 0l-3.203125 -4.953125l-1.15625 1.125l0 3.828125l-1.640625 0zm14.058304 -6.59375q0 -2.359375 0.484375 -3.796875q0.484375 -1.453125 1.4375 -2.234375q0.96875 -0.78125 2.421875 -0.78125q1.078125 0 1.890625 0.4375q0.8125 0.421875 1.328125 1.25q0.53125 0.8125 0.828125 1.984375q0.3125 1.15625 0.3125 3.140625q0 2.359375 -0.484375 3.8125q-0.484375 1.4375 -1.453125 2.234375q-0.953125 0.78125 -2.421875 0.78125q-1.921875 0 -3.03125 -1.390625q-1.3125 -1.671875 -1.3125 -5.4375zm1.671875 0q0 3.296875 0.765625 4.390625q0.78125 1.078125 1.90625 1.078125q1.140625 0 1.90625 -1.09375q0.765625 -1.09375 0.765625 -4.375q0 -3.296875 -0.765625 -4.375q-0.765625 -1.078125 -1.921875 -1.078125q-1.125 0 -1.796875 0.953125q-0.859375 1.21875 -0.859375 4.5z" fill-rule="nonzero"/><path fill="#000000" fill-opacity="0.0" d="m203.77628 290.63516l135.55905 0l0 129.29135l-135.55905 0z" fill-rule="evenodd"/><path stroke="#000000" stroke-width="1.0" stroke-linejoin="round" stroke-linecap="butt" stroke-dasharray="4.0,3.0" d="m203.77628 290.63516l135.55905 0l0 129.29135l-135.55905 0z" fill-rule="evenodd"/><path fill="#d0e0e3" d="m212.6378 301.1483l54.771652 0l0 50.362213l-54.771652 0z" fill-rule="evenodd"/><path stroke="#000000" stroke-width="1.0" stroke-linejoin="round" stroke-linecap="butt" d="m212.6378 301.1483l54.771652 0l0 50.362213l-54.771652 0z" fill-rule="evenodd"/><path fill="#000000" d="m243.41504 336.9894l-4.03125 0l0 -15.171875q-2.203125 2.0625 -5.203125 3.0625l0 -3.65625q1.578125 -0.515625 3.421875 -1.953125q1.859375 -1.4375 2.546875 -3.359375l3.265625 0l0 21.078125z" fill-rule="nonzero"/><path fill="#d0e0e3" d="m274.3517 301.1483l54.771637 0l0 50.362213l-54.771637 0z" fill-rule="evenodd"/><path stroke="#000000" stroke-width="1.0" stroke-linejoin="round" stroke-linecap="butt" d="m274.3517 301.1483l54.771637 0l0 50.362213l-54.771637 0z" fill-rule="evenodd"/><path fill="#000000" d="m308.4102 333.25504l0 3.734375l-14.09375 0q0.21875 -2.125 1.359375 -4.015625q1.15625 -1.90625 4.53125 -5.03125q2.71875 -2.53125 3.34375 -3.4375q0.828125 -1.25 0.828125 -2.46875q0 -1.34375 -0.734375 -2.0625q-0.71875 -0.734375 -1.984375 -0.734375q-1.265625 0 -2.015625 0.765625q-0.734375 0.765625 -0.84375 2.515625l-4.015625 -0.390625q0.359375 -3.328125 2.25 -4.765625q1.890625 -1.453125 4.71875 -1.453125q3.109375 0 4.875 1.671875q1.78125 1.671875 1.78125 4.171875q0 1.421875 -0.515625 2.703125q-0.5 1.28125 -1.59375 2.671875q-0.734375 0.9375 -2.640625 2.6875q-1.90625 1.75 -2.421875 2.328125q-0.5 0.5625 -0.8125 1.109375l7.984375 0z" fill-rule="nonzero"/><path fill="#d0e0e3" d="m212.6378 359.0538l54.771652 0l0 50.362213l-54.771652 0z" fill-rule="evenodd"/><path stroke="#000000" stroke-width="1.0" stroke-linejoin="round" stroke-linecap="butt" d="m212.6378 359.0538l54.771652 0l0 50.362213l-54.771652 0z" fill-rule="evenodd"/><path fill="#000000" d="m232.97754 389.31677l3.890625 -0.46875q0.1875 1.5 1.0 2.28125q0.8125 0.78125 1.96875 0.78125q1.25 0 2.09375 -0.9375q0.859375 -0.953125 0.859375 -2.546875q0 -1.515625 -0.8125 -2.40625q-0.8125 -0.890625 -1.984375 -0.890625q-0.78125 0 -1.859375 0.296875l0.453125 -3.28125q1.625 0.046875 2.484375 -0.703125q0.859375 -0.75 0.859375 -2.0q0 -1.0625 -0.625 -1.6875q-0.625 -0.625 -1.671875 -0.625q-1.03125 0 -1.765625 0.71875q-0.734375 0.703125 -0.890625 2.078125l-3.703125 -0.625q0.390625 -1.90625 1.15625 -3.046875q0.78125 -1.140625 2.171875 -1.78125q1.40625 -0.65625 3.140625 -0.65625q2.96875 0 4.75 1.890625q1.484375 1.546875 1.484375 3.5q0 2.75 -3.03125 4.40625q1.8125 0.390625 2.890625 1.734375q1.078125 1.34375 1.078125 3.25q0 2.765625 -2.015625 4.71875q-2.015625 1.9375 -5.03125 1.9375q-2.84375 0 -4.71875 -1.640625q-1.875 -1.640625 -2.171875 -4.296875z" fill-rule="nonzero"/><path fill="#d0e0e3" d="m274.3517 359.0538l54.771637 0l0 50.362213l-54.771637 0z" fill-rule="evenodd"/><path stroke="#000000" stroke-width="1.0" stroke-linejoin="round" stroke-linecap="butt" d="m274.3517 359.0538l54.771637 0l0 50.362213l-54.771637 0z" fill-rule="evenodd"/><path fill="#000000" d="m302.7227 394.8949l0 -4.21875l-8.59375 0l0 -3.53125l9.109375 -13.328125l3.375 0l0 13.3125l2.609375 0l0 3.546875l-2.609375 0l0 4.21875l-3.890625 0zm0 -7.765625l0 -7.171875l-4.828125 7.171875l4.828125 0z" fill-rule="nonzero"/><path fill="#000000" fill-opacity="0.0" d="m231.41339 250.56299l80.28345 0l0 25.858276l-80.28345 0z" fill-rule="evenodd"/><path fill="#000000" d="m243.46811 270.21213l0 -13.359375l5.921875 0q1.78125 0 2.703125 0.359375q0.9375 0.359375 1.484375 1.28125q0.5625 0.90625 0.5625 2.015625q0 1.40625 -0.921875 2.390625q-0.921875 0.96875 -2.84375 1.234375q0.703125 0.34375 1.078125 0.671875q0.765625 0.703125 1.453125 1.765625l2.328125 3.640625l-2.21875 0l-1.765625 -2.78125q-0.78125 -1.203125 -1.28125 -1.828125q-0.5 -0.640625 -0.90625 -0.890625q-0.390625 -0.265625 -0.796875 -0.359375q-0.296875 -0.078125 -0.984375 -0.078125l-2.046875 0l0 5.9375l-1.765625 0zm1.765625 -7.453125l3.796875 0q1.21875 0 1.890625 -0.25q0.6875 -0.265625 1.046875 -0.8125q0.359375 -0.546875 0.359375 -1.1875q0 -0.953125 -0.6875 -1.5625q-0.6875 -0.609375 -2.1875 -0.609375l-4.21875 0l0 4.421875zm17.78543 6.265625q-0.921875 0.765625 -1.765625 1.09375q-0.828125 0.3125 -1.796875 0.3125q-1.59375 0 -2.453125 -0.78125q-0.859375 -0.78125 -0.859375 -1.984375q0 -0.71875 0.328125 -1.296875q0.328125 -0.59375 0.84375 -0.9375q0.53125 -0.359375 1.1875 -0.546875q0.46875 -0.125 1.453125 -0.25q1.984375 -0.234375 2.921875 -0.5625q0.015625 -0.34375 0.015625 -0.421875q0 -1.0 -0.46875 -1.421875q-0.625 -0.546875 -1.875 -0.546875q-1.15625 0 -1.703125 0.40625q-0.546875 0.40625 -0.8125 1.421875l-1.609375 -0.21875q0.21875 -1.015625 0.71875 -1.640625q0.5 -0.640625 1.453125 -0.984375q0.953125 -0.34375 2.1875 -0.34375q1.25 0 2.015625 0.296875q0.78125 0.28125 1.140625 0.734375q0.375 0.4375 0.515625 1.109375q0.078125 0.421875 0.078125 1.515625l0 2.1875q0 2.28125 0.109375 2.890625q0.109375 0.59375 0.40625 1.15625l-1.703125 0q-0.265625 -0.515625 -0.328125 -1.1875zm-0.140625 -3.671875q-0.890625 0.375 -2.671875 0.625q-1.015625 0.140625 -1.4375 0.328125q-0.421875 0.1875 -0.65625 0.53125q-0.21875 0.34375 -0.21875 0.78125q0 0.65625 0.5 1.09375q0.5 0.4375 1.453125 0.4375q0.9375 0 1.671875 -0.40625q0.75 -0.421875 1.09375 -1.140625q0.265625 -0.5625 0.265625 -1.640625l0 -0.609375zm4.2038574 4.859375l0 -9.671875l1.46875 0l0 1.375q1.0625 -1.59375 3.078125 -1.59375q0.875 0 1.609375 0.3125q0.734375 0.3125 1.09375 0.828125q0.375 0.5 0.515625 1.203125q0.09375 0.453125 0.09375 1.59375l0 5.953125l-1.640625 0l0 -5.890625q0 -1.0 -0.203125 -1.484375q-0.1875 -0.5 -0.671875 -0.796875q-0.484375 -0.296875 -1.140625 -0.296875q-1.046875 0 -1.8125 0.671875q-0.75 0.65625 -0.75 2.515625l0 5.28125l-1.640625 0zm10.375702 0l0 -13.359375l1.640625 0l0 7.625l3.890625 -3.9375l2.109375 0l-3.6875 3.59375l4.0625 6.078125l-2.015625 0l-3.203125 -4.953125l-1.15625 1.125l0 3.828125l-1.640625 0zm20.230194 0l-1.640625 0l0 -10.453125q-0.59375 0.5625 -1.5625 1.140625q-0.953125 0.5625 -1.71875 0.84375l0 -1.59375q1.375 -0.640625 2.40625 -1.5625q1.03125 -0.921875 1.453125 -1.78125l1.0625 0l0 13.40625z" fill-rule="nonzero"/><path fill="#000000" fill-opacity="0.0" d="m0 9.671916l368.8819 0l0 194.80315l-368.8819 0z" fill-rule="evenodd"/><path fill="#000000" fill-opacity="0.0" d="m0 241.76903l368.8819 0l0 194.80315l-368.8819 0z" fill-rule="evenodd"/><path fill="#000000" fill-opacity="0.0" d="m368.8819 107.073494c12.5 0 24.992126 58.023613 25.0 116.04723c0.007873535 58.02362 -12.468506 116.04724 -24.937012 116.04724" fill-rule="evenodd"/><path stroke="#000000" stroke-width="4.0" stroke-linejoin="round" stroke-linecap="butt" d="m368.8819 107.073494c12.5 0 24.992126 58.023613 25.0 116.04723c0.0039367676 29.011826 -3.1131897 58.02362 -7.789856 79.7825c-1.1691895 5.4396973 -2.4358215 10.426117 -3.7755127 14.845856c-0.083740234 0.27624512 -0.16778564 0.55026245 -0.25204468 0.822052l-0.13043213 0.4156189" fill-rule="evenodd"/><path fill="#000000" stroke="#000000" stroke-width="4.0" stroke-linecap="butt" d="m376.3784 315.41098l-4.2686768 18.839844l15.380005 -11.688293z" fill-rule="evenodd"/></g></svg>