<svg version="1.1" viewBox="0.0 0.0 384.0866141732283 100.0" fill="none" stroke="none" stroke-linecap="square" stroke-miterlimit="10" xmlns:xlink="http://www.w3.org/1999/xlink" xmlns="http://www.w3.org/2000/svg"><clipPath id="p.0"><path d="m0 0l384.0866 0l0 100.0l-384.0866 0l0 -100.0z" clip-rule="nonzero"/></clipPath><g clip-path="url(#p.0)"><path fill="#000000" fill-opacity="0.0" d="m0 0l384.0866 0l0 100.0l-384.0866 0z" fill-rule="evenodd"/><path fill="#420104" fill-opacity="0.88" d="m2.4422572 42.015747l37.82677 0l0 37.826775l-37.82677 0z" fill-rule="evenodd"/><path stroke="#000000" stroke-width="1.0" stroke-linejoin="round" stroke-linecap="butt" d="m2.4422572 42.015747l37.82677 0l0 37.826775l-37.82677 0z" fill-rule="evenodd"/><path fill="#f3f3f3" d="m20.71594 64.334755l-4.90625 0l-1.5 2.734375l-2.609375 0l7.0 -12.406246l2.84375 0l2.015625 12.406246l-2.421875 0l-0.421875 -2.734375zm-0.3125 -2.0781212l-0.71875 -4.984375l-2.984375 4.984375l3.703125 0z" fill-rule="nonzero"/><path fill="#f3f3f3" d="m28.948515 73.56913l-1.59375 0l0 -5.96875q-0.859375 0.8125 -2.046875 1.203125l0 -1.4375q0.625 -0.203125 1.34375 -0.765625q0.734375 -0.578125 1.015625 -1.328125l1.28125 0l0 8.296875z" fill-rule="nonzero"/><path fill="#420104" fill-opacity="0.88" d="m40.269028 42.015747l37.826775 0l0 37.826775l-37.826775 0z" fill-rule="evenodd"/><path stroke="#000000" stroke-width="1.0" stroke-linejoin="round" stroke-linecap="butt" d="m40.269028 42.015747l37.826775 0l0 37.826775l-37.826775 0z" fill-rule="evenodd"/><path fill="#f3f3f3" d="m58.542713 64.334755l-4.90625 0l-1.5 2.734375l-2.609375 0l7.0 -12.406246l2.84375 0l2.015625 12.406246l-2.421875 0l-0.421875 -2.734375zm-0.3125 -2.0781212l-0.71875 -4.984375l-2.984375 4.984375l3.703125 0z" fill-rule="nonzero"/><path fill="#f3f3f3" d="m68.07216 72.10038l0 1.46875l-5.562496 0q0.09375 -0.828125 0.546875 -1.578125q0.453125 -0.75 1.7812462 -1.984375q1.078125 -1.0 1.3125 -1.359375q0.328125 -0.484375 0.328125 -0.96875q0 -0.53125 -0.28125 -0.8125q-0.28125 -0.28125 -0.78125 -0.28125q-0.5 0 -0.796875 0.296875q-0.296875 0.296875 -0.34375 1.0l-1.5781212 -0.171875q0.140625 -1.296875 0.890625 -1.859375q0.7499962 -0.578125 1.8593712 -0.578125q1.21875 0 1.921875 0.65625q0.703125 0.65625 0.703125 1.640625q0 0.5625 -0.203125 1.0625q-0.203125 0.5 -0.640625 1.0625q-0.28125 0.359375 -1.03125 1.046875q-0.75 0.6875 -0.953125 0.921875q-0.203125 0.21875 -0.328125 0.4375l3.15625 0z" fill-rule="nonzero"/><path fill="#420104" fill-opacity="0.88" d="m78.0958 42.015747l37.826767 0l0 37.826775l-37.826767 0z" fill-rule="evenodd"/><path stroke="#000000" stroke-width="1.0" stroke-linejoin="round" stroke-linecap="butt" d="m78.0958 42.015747l37.826767 0l0 37.826775l-37.826767 0z" fill-rule="evenodd"/><path fill="#420104" fill-opacity="0.88" d="m115.92257 42.015747l37.826775 0l0 37.826775l-37.826775 0z" fill-rule="evenodd"/><path stroke="#000000" stroke-width="1.0" stroke-linejoin="round" stroke-linecap="butt" d="m115.92257 42.015747l37.826775 0l0 37.826775l-37.826775 0z" fill-rule="evenodd"/><path fill="#f3f3f3" d="m134.19626 64.334755l-4.90625 0l-1.5 2.734375l-2.609375 0l7.0 -12.406246l2.84375 0l2.015625 12.406246l-2.421875 0l-0.421875 -2.734375zm-0.3125 -2.0781212l-0.71875 -4.984375l-2.984375 4.984375l3.703125 0z" fill-rule="nonzero"/><path fill="#f3f3f3" d="m138.64758 73.56913l0 -8.265625l1.59375 0l0 4.390625l1.859375 -2.109375l1.9375 0l-2.046875 2.1875l2.203125 3.796875l-1.71875 0l-1.5 -2.6875l-0.734375 0.765625l0 1.921875l-1.59375 0z" fill-rule="nonzero"/><path fill="#244a13" fill-opacity="0.88" d="m153.74934 42.015747l37.826767 0l0 37.826775l-37.826767 0z" fill-rule="evenodd"/><path stroke="#000000" stroke-width="1.0" stroke-linejoin="round" stroke-linecap="butt" d="m153.74934 42.015747l37.826767 0l0 37.826775l-37.826767 0z" fill-rule="evenodd"/><path fill="#f3f3f3" d="m163.43684 67.06913l2.609375 -12.406246l4.234375 0q1.375 0 1.921875 0.09375q0.921875 0.125 1.546875 0.5q0.640625 0.375 0.96875 1.015625q0.328125 0.640625 0.328125 1.40625q0 1.03125 -0.578125 1.796875q-0.5625 0.75 -1.765625 1.140625q0.953125 0.265625 1.484375 0.9375q0.546875 0.671875 0.546875 1.515625q0 1.1093712 -0.640625 2.1249962q-0.625 1.0 -1.75 1.4375q-1.109375 0.4375 -3.046875 0.4375l-5.859375 0zm4.09375 -7.390621l1.953125 0q1.3125 0 1.890625 -0.1875q0.578125 -0.1875 0.859375 -0.609375q0.28125 -0.421875 0.28125 -0.90625q0 -0.46875 -0.265625 -0.765625q-0.265625 -0.3125 -0.765625 -0.421875q-0.28125 -0.046875 -1.34375 -0.046875l-1.984375 0l-0.625 2.9375zm-1.125 5.390621l2.46875 0q1.546875 0 2.078125 -0.1875q0.53125 -0.203125 0.84375 -0.65625q0.3125 -0.4687462 0.3125 -0.9687462q0 -0.625 -0.453125 -1.015625q-0.453125 -0.40625 -1.515625 -0.40625l-3.046875 0l-0.6875 3.2343712z" fill-rule="nonzero"/><path fill="#f3f3f3" d="m176.63817 68.81913l0.296875 -1.4375q2.09375 -0.921875 3.234375 -2.125l0.984375 0l-1.734375 8.3125l-1.625 0l1.203125 -5.734375q-0.515625 0.328125 -1.1875 0.609375q-0.65625 0.265625 -1.171875 0.375z" fill-rule="nonzero"/><path fill="#244a13" fill-opacity="0.88" d="m191.57611 42.015747l37.826782 0l0 37.826775l-37.826782 0z" fill-rule="evenodd"/><path stroke="#000000" stroke-width="1.0" stroke-linejoin="round" stroke-linecap="butt" d="m191.57611 42.015747l37.826782 0l0 37.826775l-37.826782 0z" fill-rule="evenodd"/><path fill="#f3f3f3" d="m201.26361 67.06913l2.609375 -12.406246l4.234375 0q1.375 0 1.921875 0.09375q0.921875 0.125 1.546875 0.5q0.640625 0.375 0.96875 1.015625q0.328125 0.640625 0.328125 1.40625q0 1.03125 -0.578125 1.796875q-0.5625 0.75 -1.765625 1.140625q0.953125 0.265625 1.484375 0.9375q0.546875 0.671875 0.546875 1.515625q0 1.1093712 -0.640625 2.1249962q-0.625 1.0 -1.75 1.4375q-1.109375 0.4375 -3.046875 0.4375l-5.859375 0zm4.09375 -7.390621l1.953125 0q1.3125 0 1.890625 -0.1875q0.578125 -0.1875 0.859375 -0.609375q0.28125 -0.421875 0.28125 -0.90625q0 -0.46875 -0.265625 -0.765625q-0.265625 -0.3125 -0.765625 -0.421875q-0.28125 -0.046875 -1.34375 -0.046875l-1.984375 0l-0.625 2.9375zm-1.125 5.390621l2.46875 0q1.546875 0 2.078125 -0.1875q0.53125 -0.203125 0.84375 -0.65625q0.3125 -0.4687462 0.3125 -0.9687462q0 -0.625 -0.453125 -1.015625q-0.453125 -0.40625 -1.515625 -0.40625l-3.046875 0l-0.6875 3.2343712z" fill-rule="nonzero"/><path fill="#f3f3f3" d="m216.13681 67.88163l-1.578125 -0.234375q0.1875 -1.15625 0.890625 -1.765625q0.703125 -0.609375 1.75 -0.609375q1.15625 0 1.8125 0.625q0.671875 0.625 0.671875 1.59375q0 0.484375 -0.203125 0.984375q-0.203125 0.484375 -0.671875 1.03125q-0.328125 0.375 -1.09375 1.078125q-0.75 0.703125 -1.0 0.96875q-0.234375 0.25 -0.46875 0.53125l2.875 0l-0.3125 1.484375l-5.015625 0q0.078125 -0.609375 0.359375 -1.15625q0.28125 -0.546875 0.6875 -1.015625q0.421875 -0.484375 1.53125 -1.53125q0.828125 -0.8125 1.046875 -1.046875q0.40625 -0.4375 0.546875 -0.75q0.15625 -0.328125 0.15625 -0.59375q0 -0.421875 -0.25 -0.671875q-0.25 -0.265625 -0.625 -0.265625q-0.390625 0 -0.671875 0.296875q-0.28125 0.28125 -0.4375 1.046875z" fill-rule="nonzero"/><path fill="#244a13" fill-opacity="0.88" d="m229.4029 42.015747l37.82675 0l0 37.826775l-37.82675 0z" fill-rule="evenodd"/><path stroke="#000000" stroke-width="1.0" stroke-linejoin="round" stroke-linecap="butt" d="m229.4029 42.015747l37.82675 0l0 37.826775l-37.82675 0z" fill-rule="evenodd"/><path fill="#244a13" fill-opacity="0.88" d="m267.22964 42.015747l37.826782 0l0 37.826775l-37.826782 0z" fill-rule="evenodd"/><path stroke="#000000" stroke-width="1.0" stroke-linejoin="round" stroke-linecap="butt" d="m267.22964 42.015747l37.826782 0l0 37.826775l-37.826782 0z" fill-rule="evenodd"/><path fill="#f3f3f3" d="m276.91714 67.06913l2.609375 -12.406246l4.234375 0q1.375 0 1.921875 0.09375q0.921875 0.125 1.546875 0.5q0.640625 0.375 0.96875 1.015625q0.328125 0.640625 0.328125 1.40625q0 1.03125 -0.578125 1.796875q-0.5625 0.75 -1.765625 1.140625q0.953125 0.265625 1.484375 0.9375q0.546875 0.671875 0.546875 1.515625q0 1.1093712 -0.640625 2.1249962q-0.625 1.0 -1.75 1.4375q-1.109375 0.4375 -3.046875 0.4375l-5.859375 0zm4.09375 -7.390621l1.953125 0q1.3125 0 1.890625 -0.1875q0.578125 -0.1875 0.859375 -0.609375q0.28125 -0.421875 0.28125 -0.90625q0 -0.46875 -0.265625 -0.765625q-0.265625 -0.3125 -0.765625 -0.421875q-0.28125 -0.046875 -1.34375 -0.046875l-1.984375 0l-0.625 2.9375zm-1.125 5.390621l2.46875 0q1.546875 0 2.078125 -0.1875q0.53125 -0.203125 0.84375 -0.65625q0.3125 -0.4687462 0.3125 -0.9687462q0 -0.625 -0.453125 -1.015625q-0.453125 -0.40625 -1.515625 -0.40625l-3.046875 0l-0.6875 3.2343712z" fill-rule="nonzero"/><path fill="#f3f3f3" d="m292.1966 73.56913l-1.390625 0l-1.203125 -5.984375l1.59375 0l0.421875 2.609375q0.171875 1.0625 0.203125 1.40625q0.046875 -0.09375 0.390625 -0.71875q0.359375 -0.640625 0.4375 -0.78125l1.484375 -2.515625l1.75 0l-3.6875 5.984375z" fill-rule="nonzero"/><path fill="#000000" fill-opacity="0.0" d="m305.05643 42.015747l37.826782 0l0 37.826775l-37.826782 0z" fill-rule="evenodd"/><path stroke="#000000" stroke-width="1.0" stroke-linejoin="round" stroke-linecap="butt" d="m305.05643 42.015747l37.826782 0l0 37.826775l-37.826782 0z" fill-rule="evenodd"/><path fill="#000000" fill-opacity="0.0" d="m342.8832 42.015747l37.82675 0l0 37.826775l-37.82675 0z" fill-rule="evenodd"/><path stroke="#000000" stroke-width="1.0" stroke-linejoin="round" stroke-linecap="butt" d="m342.8832 42.015747l37.82675 0l0 37.826775l-37.82675 0z" fill-rule="evenodd"/><path fill="#000000" fill-opacity="0.0" d="m2.4422572 0l37.82677 0l0 42.015747l-37.82677 0z" fill-rule="evenodd"/><path fill="#000000" d="m22.579893 24.847874l-1.453125 0l0 -5.515625q-0.796875 0.75 -1.890625 1.109375l0 -1.328125q0.578125 -0.1875 1.234375 -0.703125q0.671875 -0.53125 0.921875 -1.21875l1.1875 0l0 7.65625z" fill-rule="nonzero"/><path fill="#000000" fill-opacity="0.0" d="m40.269028 0l37.826775 0l0 42.015747l-37.826775 0z" fill-rule="evenodd"/><path fill="#000000" d="m61.60979 23.488499l0 1.359375l-5.125 0q0.078125 -0.765625 0.5 -1.453125q0.421875 -0.703125 1.640625 -1.828125q0.984375 -0.921875 1.21875 -1.25q0.296875 -0.453125 0.296875 -0.90625q0 -0.484375 -0.265625 -0.75q-0.265625 -0.265625 -0.71875 -0.265625q-0.453125 0 -0.734375 0.28125q-0.265625 0.28125 -0.3125 0.921875l-1.453125 -0.15625q0.125 -1.203125 0.8125 -1.71875q0.6875 -0.53125 1.71875 -0.53125q1.125 0 1.765625 0.609375q0.65625 0.609375 0.65625 1.515625q0 0.515625 -0.1875 0.984375q-0.1875 0.453125 -0.578125 0.96875q-0.265625 0.34375 -0.96875 0.984375q-0.6875 0.625 -0.875 0.828125q-0.171875 0.203125 -0.296875 0.40625l2.90625 0z" fill-rule="nonzero"/><path fill="#000000" fill-opacity="0.0" d="m78.0958 0l37.826767 0l0 42.015747l-37.826767 0z" fill-rule="evenodd"/><path fill="#000000" d="m99.821686 24.847874l0 -1.46875l1.46875 0l0 1.46875l-1.46875 0zm-3.546875 0l0 -1.46875l1.46875 0l0 1.46875l-1.46875 0zm-3.546875 0l0 -1.46875l1.46875 0l0 1.46875l-1.46875 0z" fill-rule="nonzero"/><path fill="#000000" fill-opacity="0.0" d="m115.92257 0l37.826775 0l0 42.015747l-37.826775 0z" fill-rule="evenodd"/><path fill="#000000" d="m132.59146 24.847874l0 -7.625l1.453125 0l0 4.046875l1.71875 -1.953125l1.796875 0l-1.890625 2.03125l2.03125 3.5l-1.578125 0l-1.390625 -2.484375l-0.6875 0.71875l0 1.765625l-1.453125 0z" fill-rule="nonzero"/><path fill="#000000" fill-opacity="0.0" d="m153.74934 0l37.826767 0l0 42.015747l-37.826767 0z" fill-rule="evenodd"/><path fill="#000000" d="m164.34344 24.847874l0 -7.625l1.453125 0l0 4.046875l1.71875 -1.953125l1.796875 0l-1.890625 2.03125l2.03125 3.5l-1.578125 0l-1.390625 -2.484375l-0.6875 0.71875l0 1.765625l-1.453125 0zm7.6452484 -1.09375l0 -1.984375l-2.0 0l0 -1.375l2.0 0l0 -1.984375l1.328125 0l0 1.984375l2.015625 0l0 1.375l-2.015625 0l0 1.984375l-1.328125 0zm7.9730835 1.09375l-1.453125 0l0 -5.515625q-0.796875 0.75 -1.890625 1.109375l0 -1.328125q0.578125 -0.1875 1.234375 -0.703125q0.671875 -0.53125 0.921875 -1.21875l1.1875 0l0 7.65625z" fill-rule="nonzero"/><path fill="#000000" fill-opacity="0.0" d="m191.57611 0l37.826782 0l0 42.015747l-37.826782 0z" fill-rule="evenodd"/><path fill="#000000" d="m202.17021 24.847874l0 -7.625l1.453125 0l0 4.046875l1.71875 -1.953125l1.796875 0l-1.890625 2.03125l2.03125 3.5l-1.578125 0l-1.390625 -2.484375l-0.6875 0.71875l0 1.765625l-1.453125 0zm7.6452484 -1.09375l0 -1.984375l-2.0 0l0 -1.375l2.0 0l0 -1.984375l1.328125 0l0 1.984375l2.015625 0l0 1.375l-2.015625 0l0 1.984375l-1.328125 0zm9.1762085 -0.265625l0 1.359375l-5.125 0q0.078125 -0.765625 0.5 -1.453125q0.421875 -0.703125 1.640625 -1.828125q0.984375 -0.921875 1.21875 -1.25q0.296875 -0.453125 0.296875 -0.90625q0 -0.484375 -0.265625 -0.75q-0.265625 -0.265625 -0.71875 -0.265625q-0.453125 0 -0.734375 0.28125q-0.265625 0.28125 -0.3125 0.921875l-1.453125 -0.15625q0.125 -1.203125 0.8125 -1.71875q0.6875 -0.53125 1.71875 -0.53125q1.125 0 1.765625 0.609375q0.65625 0.609375 0.65625 1.515625q0 0.515625 -0.1875 0.984375q-0.1875 0.453125 -0.578125 0.96875q-0.265625 0.34375 -0.96875 0.984375q-0.6875 0.625 -0.875 0.828125q-0.171875 0.203125 -0.296875 0.40625l2.90625 0z" fill-rule="nonzero"/><path fill="#000000" fill-opacity="0.0" d="m229.4029 0l37.82675 0l0 42.015747l-37.82675 0z" fill-rule="evenodd"/><path fill="#000000" d="m251.12877 24.847874l0 -1.46875l1.46875 0l0 1.46875l-1.46875 0zm-3.546875 0l0 -1.46875l1.46875 0l0 1.46875l-1.46875 0zm-3.546875 0l0 -1.46875l1.46875 0l0 1.46875l-1.46875 0z" fill-rule="nonzero"/><path fill="#000000" fill-opacity="0.0" d="m267.22964 0l37.826782 0l0 42.015747l-37.826782 0z" fill-rule="evenodd"/><path fill="#000000" d="m277.82376 24.847874l0 -7.625l1.453125 0l0 4.046875l1.71875 -1.953125l1.796875 0l-1.890625 2.03125l2.03125 3.5l-1.578125 0l-1.390625 -2.484375l-0.6875 0.71875l0 1.765625l-1.453125 0zm7.645233 -1.09375l0 -1.984375l-2.0 0l0 -1.375l2.0 0l0 -1.984375l1.328125 0l0 1.984375l2.015625 0l0 1.375l-2.015625 0l0 1.984375l-1.328125 0zm6.0668335 1.09375l-2.21875 -5.53125l1.53125 0l1.046875 2.828125l0.296875 0.9375q0.109375 -0.359375 0.140625 -0.46875q0.078125 -0.234375 0.15625 -0.46875l1.0625 -2.828125l1.5 0l-2.203125 5.53125l-1.3125 0z" fill-rule="nonzero"/><path fill="#000000" fill-opacity="0.0" d="m305.05643 0l37.826782 0l0 42.015747l-37.826782 0z" fill-rule="evenodd"/><path fill="#000000" d="m326.78232 24.847874l0 -1.46875l1.46875 0l0 1.46875l-1.46875 0zm-3.546875 0l0 -1.46875l1.46875 0l0 1.46875l-1.46875 0zm-3.546875 0l0 -1.46875l1.46875 0l0 1.46875l-1.46875 0z" fill-rule="nonzero"/><path fill="#000000" fill-opacity="0.0" d="m342.8832 0l37.82675 0l0 42.015747l-37.82675 0z" fill-rule="evenodd"/><path fill="#000000" d="m364.41147 20.957249l-1.4375 0.265625q-0.078125 -0.4375 -0.34375 -0.65625q-0.25 -0.21875 -0.65625 -0.21875q-0.546875 0 -0.875 0.375q-0.3125 0.375 -0.3125 1.265625q0 0.984375 0.328125 1.390625q0.328125 0.40625 0.875 0.40625q0.421875 0 0.6875 -0.234375q0.265625 -0.25 0.375 -0.828125l1.4375 0.25q-0.21875 0.984375 -0.859375 1.5q-0.640625 0.5 -1.703125 0.5q-1.203125 0 -1.9375 -0.765625q-0.71875 -0.765625 -0.71875 -2.109375q0 -1.375 0.71875 -2.140625q0.734375 -0.765625 1.96875 -0.765625q1.0 0 1.59375 0.4375q0.609375 0.4375 0.859375 1.328125z" fill-rule="nonzero"/></g></svg>